G04*
G04 #@! TF.GenerationSoftware,Altium Limited,Altium Designer,20.0.11 (256)*
G04*
G04 Layer_Color=65535*
%FSLAX25Y25*%
%MOIN*%
G70*
G01*
G75*
%ADD10C,0.00984*%
%ADD11C,0.00591*%
%ADD12C,0.02362*%
%ADD13C,0.00787*%
%ADD14C,0.01575*%
%ADD15C,0.00394*%
%ADD16C,0.01000*%
%ADD17C,0.00600*%
D10*
X80232Y134488D02*
X79494Y134914D01*
Y134062D01*
X80232Y134488D01*
X128150Y24697D02*
X127411Y25123D01*
Y24271D01*
X128150Y24697D01*
X87110Y349240D02*
X86372Y349666D01*
Y348814D01*
X87110Y349240D01*
X102079Y359000D02*
X101340Y359426D01*
Y358574D01*
X102079Y359000D01*
X86972Y328098D02*
X86234Y328525D01*
Y327672D01*
X86972Y328098D01*
X80012Y327902D02*
X79274Y328328D01*
Y327475D01*
X80012Y327902D01*
X114768Y82284D02*
X114030Y82710D01*
Y81857D01*
X114768Y82284D01*
X118268Y61283D02*
X117529Y61710D01*
Y60857D01*
X118268Y61283D01*
X92744Y24677D02*
X92006Y25103D01*
Y24251D01*
X92744Y24677D01*
X121535Y158665D02*
X120797Y159092D01*
Y158239D01*
X121535Y158665D01*
X71689Y194669D02*
X70951Y195096D01*
Y194243D01*
X71689Y194669D01*
X16043Y329925D02*
X15305Y330351D01*
Y329499D01*
X16043Y329925D01*
X327980Y132155D02*
X327242Y132582D01*
Y131729D01*
X327980Y132155D01*
X183004Y40740D02*
X182266Y41166D01*
Y40314D01*
X183004Y40740D01*
X137252Y34512D02*
X136514Y34938D01*
Y34086D01*
X137252Y34512D01*
X306894Y187429D02*
X306155Y187856D01*
Y187003D01*
X306894Y187429D01*
X307091Y174020D02*
X306352Y174446D01*
Y173593D01*
X307091Y174020D01*
X328091Y123520D02*
X327352Y123946D01*
Y123093D01*
X328091Y123520D01*
X307091Y155520D02*
X306352Y155946D01*
Y155094D01*
X307091Y155520D01*
X338091Y123520D02*
X337352Y123946D01*
Y123093D01*
X338091Y123520D01*
X299913Y91059D02*
X299175Y91485D01*
Y90633D01*
X299913Y91059D01*
X329504Y294740D02*
X328766Y295166D01*
Y294314D01*
X329504Y294740D01*
X267413Y163559D02*
X266675Y163985D01*
Y163133D01*
X267413Y163559D01*
X270555Y94319D02*
X269817Y94745D01*
Y93893D01*
X270555Y94319D01*
X80433Y157421D02*
X79695Y157847D01*
Y156995D01*
X80433Y157421D01*
X69433Y165921D02*
X68695Y166348D01*
Y165495D01*
X69433Y165921D01*
X351276Y123592D02*
X350537Y124019D01*
Y123166D01*
X351276Y123592D01*
X271433Y165921D02*
X270695Y166348D01*
Y165495D01*
X271433Y165921D01*
D11*
X98295Y312000D02*
X98200Y313002D01*
X97916Y313968D01*
X97455Y314863D01*
X96832Y315654D01*
X96072Y316313D01*
X95200Y316817D01*
X94248Y317146D01*
X93252Y317289D01*
X92246Y317241D01*
X91268Y317004D01*
X90352Y316586D01*
X89532Y316002D01*
X88838Y315273D01*
X88293Y314426D01*
X87919Y313492D01*
X87729Y312503D01*
Y311497D01*
X87919Y310508D01*
X88293Y309574D01*
X88838Y308727D01*
X89532Y307998D01*
X90352Y307414D01*
X91268Y306996D01*
X92246Y306759D01*
X93252Y306711D01*
X94248Y306854D01*
X95200Y307183D01*
X96072Y307687D01*
X96832Y308346D01*
X97455Y309137D01*
X97916Y310032D01*
X98200Y310998D01*
X98295Y312000D01*
X104295Y174500D02*
X104200Y175502D01*
X103916Y176468D01*
X103455Y177363D01*
X102832Y178154D01*
X102072Y178813D01*
X101200Y179317D01*
X100248Y179646D01*
X99252Y179789D01*
X98246Y179741D01*
X97268Y179504D01*
X96352Y179086D01*
X95532Y178502D01*
X94838Y177773D01*
X94293Y176926D01*
X93919Y175992D01*
X93729Y175003D01*
Y173997D01*
X93919Y173008D01*
X94293Y172074D01*
X94838Y171227D01*
X95532Y170498D01*
X96352Y169914D01*
X97268Y169496D01*
X98246Y169259D01*
X99252Y169211D01*
X100248Y169354D01*
X101200Y169683D01*
X102072Y170187D01*
X102832Y170846D01*
X103455Y171637D01*
X103916Y172532D01*
X104200Y173498D01*
X104295Y174500D01*
X126795Y151500D02*
X126700Y152502D01*
X126416Y153468D01*
X125955Y154363D01*
X125332Y155154D01*
X124572Y155813D01*
X123700Y156317D01*
X122748Y156646D01*
X121752Y156789D01*
X120746Y156741D01*
X119768Y156504D01*
X118852Y156086D01*
X118032Y155502D01*
X117338Y154773D01*
X116793Y153926D01*
X116419Y152992D01*
X116229Y152003D01*
Y150997D01*
X116419Y150008D01*
X116793Y149074D01*
X117338Y148227D01*
X118032Y147498D01*
X118852Y146914D01*
X119768Y146496D01*
X120746Y146259D01*
X121752Y146211D01*
X122748Y146354D01*
X123700Y146683D01*
X124572Y147187D01*
X125332Y147846D01*
X125955Y148637D01*
X126416Y149532D01*
X126700Y150498D01*
X126795Y151500D01*
X283295Y257000D02*
X283200Y258002D01*
X282916Y258968D01*
X282455Y259863D01*
X281832Y260654D01*
X281072Y261313D01*
X280200Y261817D01*
X279248Y262146D01*
X278252Y262289D01*
X277246Y262241D01*
X276268Y262004D01*
X275352Y261586D01*
X274532Y261002D01*
X273838Y260273D01*
X273293Y259426D01*
X272919Y258492D01*
X272729Y257503D01*
Y256497D01*
X272919Y255508D01*
X273293Y254574D01*
X273838Y253727D01*
X274532Y252998D01*
X275352Y252414D01*
X276268Y251996D01*
X277246Y251759D01*
X278252Y251711D01*
X279248Y251854D01*
X280200Y252183D01*
X281072Y252687D01*
X281832Y253346D01*
X282455Y254137D01*
X282916Y255032D01*
X283200Y255998D01*
X283295Y257000D01*
X66295Y93500D02*
X66200Y94502D01*
X65916Y95468D01*
X65455Y96363D01*
X64832Y97154D01*
X64072Y97813D01*
X63200Y98317D01*
X62248Y98646D01*
X61252Y98789D01*
X60246Y98741D01*
X59268Y98504D01*
X58352Y98086D01*
X57532Y97502D01*
X56838Y96773D01*
X56293Y95926D01*
X55919Y94992D01*
X55729Y94003D01*
Y92997D01*
X55919Y92008D01*
X56293Y91074D01*
X56838Y90227D01*
X57532Y89498D01*
X58352Y88914D01*
X59268Y88496D01*
X60246Y88259D01*
X61252Y88211D01*
X62248Y88354D01*
X63200Y88683D01*
X64072Y89187D01*
X64832Y89846D01*
X65455Y90637D01*
X65916Y91532D01*
X66200Y92498D01*
X66295Y93500D01*
X282795Y66500D02*
X282700Y67502D01*
X282416Y68468D01*
X281955Y69363D01*
X281332Y70154D01*
X280572Y70813D01*
X279700Y71317D01*
X278748Y71646D01*
X277752Y71789D01*
X276746Y71741D01*
X275768Y71504D01*
X274852Y71086D01*
X274032Y70502D01*
X273338Y69773D01*
X272793Y68926D01*
X272419Y67992D01*
X272229Y67003D01*
Y65997D01*
X272419Y65008D01*
X272793Y64074D01*
X273338Y63227D01*
X274032Y62498D01*
X274852Y61914D01*
X275768Y61496D01*
X276746Y61259D01*
X277752Y61211D01*
X278748Y61354D01*
X279700Y61683D01*
X280572Y62187D01*
X281332Y62846D01*
X281955Y63637D01*
X282416Y64532D01*
X282700Y65498D01*
X282795Y66500D01*
X133295Y95000D02*
X133200Y96002D01*
X132916Y96968D01*
X132455Y97863D01*
X131832Y98654D01*
X131072Y99313D01*
X130200Y99817D01*
X129248Y100146D01*
X128252Y100289D01*
X127246Y100241D01*
X126268Y100004D01*
X125352Y99586D01*
X124532Y99002D01*
X123838Y98273D01*
X123293Y97426D01*
X122919Y96492D01*
X122729Y95503D01*
Y94497D01*
X122919Y93508D01*
X123293Y92574D01*
X123838Y91727D01*
X124532Y90998D01*
X125352Y90414D01*
X126268Y89996D01*
X127246Y89759D01*
X128252Y89711D01*
X129248Y89854D01*
X130200Y90183D01*
X131072Y90687D01*
X131832Y91346D01*
X132455Y92137D01*
X132916Y93032D01*
X133200Y93998D01*
X133295Y95000D01*
X326795Y151000D02*
X326700Y152002D01*
X326416Y152968D01*
X325955Y153863D01*
X325332Y154654D01*
X324572Y155313D01*
X323700Y155817D01*
X322748Y156146D01*
X321752Y156289D01*
X320746Y156241D01*
X319768Y156004D01*
X318852Y155586D01*
X318032Y155002D01*
X317338Y154273D01*
X316793Y153426D01*
X316419Y152492D01*
X316229Y151503D01*
Y150497D01*
X316419Y149508D01*
X316793Y148574D01*
X317338Y147727D01*
X318032Y146998D01*
X318852Y146414D01*
X319768Y145996D01*
X320746Y145759D01*
X321752Y145711D01*
X322748Y145854D01*
X323700Y146183D01*
X324572Y146687D01*
X325332Y147346D01*
X325955Y148137D01*
X326416Y149032D01*
X326700Y149998D01*
X326795Y151000D01*
X92295Y91000D02*
X92200Y92002D01*
X91916Y92968D01*
X91455Y93863D01*
X90832Y94654D01*
X90072Y95313D01*
X89200Y95817D01*
X88248Y96146D01*
X87252Y96289D01*
X86246Y96241D01*
X85268Y96004D01*
X84352Y95586D01*
X83532Y95002D01*
X82838Y94273D01*
X82293Y93426D01*
X81919Y92492D01*
X81729Y91503D01*
Y90497D01*
X81919Y89508D01*
X82293Y88574D01*
X82838Y87727D01*
X83532Y86998D01*
X84352Y86414D01*
X85268Y85996D01*
X86246Y85759D01*
X87252Y85711D01*
X88248Y85854D01*
X89200Y86183D01*
X90072Y86687D01*
X90832Y87346D01*
X91455Y88137D01*
X91916Y89032D01*
X92200Y89998D01*
X92295Y91000D01*
X282295Y35500D02*
X282200Y36502D01*
X281916Y37468D01*
X281455Y38363D01*
X280832Y39154D01*
X280072Y39813D01*
X279200Y40317D01*
X278248Y40646D01*
X277252Y40789D01*
X276246Y40741D01*
X275268Y40504D01*
X274352Y40086D01*
X273532Y39502D01*
X272838Y38773D01*
X272293Y37926D01*
X271919Y36992D01*
X271729Y36003D01*
Y34997D01*
X271919Y34008D01*
X272293Y33074D01*
X272838Y32227D01*
X273532Y31498D01*
X274352Y30914D01*
X275268Y30496D01*
X276246Y30259D01*
X277252Y30211D01*
X278248Y30354D01*
X279200Y30683D01*
X280072Y31187D01*
X280832Y31846D01*
X281455Y32637D01*
X281916Y33532D01*
X282200Y34498D01*
X282295Y35500D01*
X336295Y79500D02*
X336200Y80502D01*
X335916Y81468D01*
X335455Y82363D01*
X334832Y83154D01*
X334072Y83813D01*
X333200Y84317D01*
X332248Y84646D01*
X331252Y84789D01*
X330246Y84741D01*
X329268Y84504D01*
X328352Y84086D01*
X327532Y83502D01*
X326838Y82773D01*
X326293Y81926D01*
X325919Y80992D01*
X325729Y80003D01*
Y78997D01*
X325919Y78008D01*
X326293Y77074D01*
X326838Y76227D01*
X327532Y75498D01*
X328352Y74914D01*
X329268Y74496D01*
X330246Y74259D01*
X331252Y74211D01*
X332248Y74354D01*
X333200Y74683D01*
X334072Y75187D01*
X334832Y75846D01*
X335455Y76637D01*
X335916Y77532D01*
X336200Y78498D01*
X336295Y79500D01*
X64079Y371642D02*
Y368690D01*
X62603D01*
X62111Y369182D01*
Y370166D01*
X62603Y370658D01*
X64079D01*
X59159Y369182D02*
X59651Y368690D01*
X60635D01*
X61127Y369182D01*
Y371150D01*
X60635Y371642D01*
X59651D01*
X59159Y371150D01*
X58175Y368690D02*
Y371642D01*
X56699D01*
X56207Y371150D01*
Y370658D01*
X56699Y370166D01*
X58175D01*
X56699D01*
X56207Y369674D01*
Y369182D01*
X56699Y368690D01*
X58175D01*
X50304D02*
X52271D01*
Y371642D01*
X50304D01*
X52271Y370166D02*
X51288D01*
X47352Y368690D02*
Y371642D01*
X48828D01*
X49320Y371150D01*
Y370166D01*
X48828Y369674D01*
X47352D01*
X45384Y372626D02*
X44892D01*
X44400Y372134D01*
Y369674D01*
X45876D01*
X46368Y370166D01*
Y371150D01*
X45876Y371642D01*
X44400D01*
X41940D02*
X42924D01*
X43416Y371150D01*
Y370166D01*
X42924Y369674D01*
X41940D01*
X41448Y370166D01*
Y370658D01*
X43416D01*
X373185Y146132D02*
X370233D01*
Y147608D01*
X370725Y148100D01*
X371709D01*
X372201Y147608D01*
Y146132D01*
X370725Y151052D02*
X370233Y150560D01*
Y149576D01*
X370725Y149084D01*
X372693D01*
X373185Y149576D01*
Y150560D01*
X372693Y151052D01*
X370233Y152035D02*
X373185D01*
Y153511D01*
X372693Y154003D01*
X372201D01*
X371709Y153511D01*
Y152035D01*
Y153511D01*
X371217Y154003D01*
X370725D01*
X370233Y153511D01*
Y152035D01*
Y159907D02*
Y157939D01*
X373185D01*
Y159907D01*
X371709Y157939D02*
Y158923D01*
X370233Y162859D02*
X373185D01*
Y161383D01*
X372693Y160891D01*
X371709D01*
X371217Y161383D01*
Y162859D01*
X374169Y164827D02*
Y165319D01*
X373677Y165811D01*
X371217D01*
Y164335D01*
X371709Y163843D01*
X372693D01*
X373185Y164335D01*
Y165811D01*
Y168271D02*
Y167287D01*
X372693Y166795D01*
X371709D01*
X371217Y167287D01*
Y168271D01*
X371709Y168762D01*
X372201D01*
Y166795D01*
D12*
X76020Y202839D02*
X75575Y203762D01*
X74576Y203990D01*
X73774Y203351D01*
Y202326D01*
X74576Y201687D01*
X75575Y201915D01*
X76020Y202839D01*
D13*
X207110Y308264D02*
Y309051D01*
Y308264D01*
X374058Y171173D02*
X373727Y172034D01*
X372878Y172394D01*
Y221606D02*
X373727Y221966D01*
X374058Y222827D01*
X74819Y136063D02*
Y143937D01*
X77181Y136063D02*
Y143937D01*
X74819D02*
X77181D01*
X74819Y136063D02*
X77181D01*
X127461Y11902D02*
Y22138D01*
X123721Y11902D02*
X127461D01*
X109350D02*
Y22138D01*
Y11902D02*
X113091D01*
X7677Y312854D02*
X43898D01*
Y295728D02*
Y312854D01*
X7677Y295728D02*
Y312854D01*
X43898Y182146D02*
Y199272D01*
X7677Y182146D02*
Y199272D01*
Y182146D02*
X43898D01*
X97327Y362232D02*
Y377075D01*
Y368678D02*
Y377075D01*
X65673D02*
X97327D01*
X65673Y362232D02*
Y377075D01*
X109992Y334709D02*
X129008D01*
X109992Y363291D02*
X129008D01*
X141500Y340480D02*
X201500D01*
X141500D02*
Y363000D01*
X201500Y340480D02*
Y363000D01*
X141500D02*
X201500D01*
X89391Y325331D02*
X93722D01*
X89335Y330756D02*
X93665D01*
X72278Y330669D02*
X76609D01*
X72335Y325244D02*
X76665D01*
X118409Y81102D02*
X119591D01*
X118409Y68898D02*
X119591D01*
X118409D02*
Y81102D01*
X119591Y68898D02*
Y81102D01*
X121909Y60102D02*
X123091D01*
X121909Y47898D02*
X123091D01*
X121909D02*
Y60102D01*
X123091Y47898D02*
Y60102D01*
X73945Y11882D02*
X77685D01*
X73945D02*
Y22118D01*
X88315Y11882D02*
X92055D01*
Y22118D01*
X110020Y160142D02*
X124980D01*
Y177858D01*
X110020D02*
X124980D01*
X110020Y160142D02*
Y177858D01*
X70902Y198902D02*
X146098D01*
X70902Y274098D02*
X146098D01*
X70902Y198902D02*
Y274098D01*
X146098Y198902D02*
Y274098D01*
X21689Y331689D02*
Y355311D01*
Y331689D02*
X45311D01*
Y355311D01*
X21689D02*
X45311D01*
X324831Y135010D02*
Y139340D01*
X330256Y135066D02*
Y139397D01*
X305925Y112547D02*
X309075D01*
X305925Y118453D02*
X309075D01*
X61543Y34283D02*
Y43535D01*
X4457Y34283D02*
X16071D01*
X45992D02*
X61543D01*
Y55740D02*
Y69717D01*
X45992D02*
X61543D01*
X4457D02*
X16071D01*
X4457Y34283D02*
Y69717D01*
X173063Y35819D02*
X180937D01*
X173063Y38181D02*
X180937D01*
X173063Y35819D02*
Y38181D01*
X180937Y35819D02*
Y38181D01*
X141681Y25063D02*
Y32937D01*
X139319Y25063D02*
Y32937D01*
Y25063D02*
X141681D01*
X139319Y32937D02*
X141681D01*
X309169Y190340D02*
Y194671D01*
X303744Y190284D02*
Y194615D01*
X303831Y166778D02*
Y171109D01*
X309256Y166835D02*
Y171165D01*
X324831Y116278D02*
Y120609D01*
X330256Y116335D02*
Y120665D01*
X303831Y148278D02*
Y152609D01*
X309256Y148335D02*
Y152665D01*
X334831Y116278D02*
Y120609D01*
X340256Y116335D02*
Y120665D01*
X182268Y240D02*
Y4571D01*
X140732Y240D02*
Y4571D01*
Y240D02*
X182268D01*
X291350Y86925D02*
X292138D01*
X291350D02*
Y88532D01*
X296862Y86925D02*
X297650D01*
Y88532D01*
X327437Y289819D02*
Y292181D01*
X319563Y289819D02*
Y292181D01*
X327437D01*
X319563Y289819D02*
X327437D01*
X258850Y159425D02*
X259638D01*
X258850D02*
Y161031D01*
X264362Y159425D02*
X265150D01*
Y161031D01*
X267898Y101898D02*
Y114102D01*
X280004D02*
X280102D01*
X267898D02*
X267996D01*
X280102Y101898D02*
Y114102D01*
X280004Y101898D02*
X280102D01*
X267898D02*
X267996D01*
X370500Y92000D02*
Y102000D01*
X340500Y92000D02*
X370500D01*
X340500D02*
Y102000D01*
X370500D01*
X64906Y174000D02*
Y177150D01*
X61953D02*
X64906D01*
X53095Y174000D02*
Y177150D01*
X56047D01*
X367000Y252000D02*
Y312000D01*
X344480Y252000D02*
X367000D01*
X344480Y312000D02*
X367000D01*
X344480Y252000D02*
Y312000D01*
X289394Y117936D02*
X290969D01*
X289394Y115180D02*
X290969D01*
X305925Y101047D02*
X309075D01*
X305925Y106953D02*
X309075D01*
X84075Y149350D02*
Y150138D01*
X82468Y149350D02*
X84075D01*
Y154862D02*
Y155650D01*
X82468D02*
X84075D01*
X73075Y157850D02*
Y158638D01*
X71469Y157850D02*
X73075D01*
Y163362D02*
Y164150D01*
X71469D02*
X73075D01*
X270409Y176831D02*
X271591D01*
X305909Y84669D02*
X307090D01*
X363776Y112884D02*
X378618D01*
X370221D02*
X378618D01*
Y144537D01*
X363776D02*
X378618D01*
X275075Y157850D02*
Y158638D01*
X273468Y157850D02*
X275075D01*
Y163362D02*
Y164150D01*
X273468D02*
X275075D01*
X291850Y111719D02*
X293031D01*
X372878Y174756D02*
X374059Y174756D01*
X372878Y168457D02*
X374059D01*
X372878D02*
Y171213D01*
X374058Y171173D02*
X374059Y168457D01*
X372878Y174756D02*
X372878Y172394D01*
X372878Y219244D02*
X372878Y221606D01*
X372878Y219244D02*
X374059D01*
X374058Y222827D02*
X374059Y225543D01*
X372878Y222787D02*
Y225543D01*
X374059D01*
X318941Y171213D02*
Y222787D01*
X374059Y174756D02*
Y219244D01*
X318941Y171213D02*
X325634D01*
X341539D02*
X372878D01*
X341539Y222787D02*
X372878D01*
X318941D02*
X325634D01*
X5701Y99472D02*
X12394D01*
X24992D02*
X34835D01*
X48417Y103606D02*
Y109512D01*
Y148488D02*
Y154394D01*
X24992Y158528D02*
X34835D01*
X5701D02*
X12394D01*
D14*
X87925Y168504D02*
X91075D01*
X181425Y158004D02*
X184575D01*
X162425Y149004D02*
X165575D01*
X293496Y211425D02*
Y214575D01*
X263425Y151996D02*
X266575D01*
X162996Y96925D02*
Y100075D01*
D15*
X209472Y317713D02*
Y340941D01*
X242543D01*
Y317713D02*
Y340941D01*
X209472Y26768D02*
Y49996D01*
Y26768D02*
X242543D01*
Y49996D01*
X57386Y372665D02*
X104236D01*
X374209Y105974D02*
Y152825D01*
D16*
X254500Y362195D02*
Y368193D01*
X257499D01*
X258499Y367194D01*
Y365194D01*
X257499Y364195D01*
X254500D01*
X256499D02*
X258499Y362195D01*
X260498D02*
Y366194D01*
X262497Y368193D01*
X264497Y366194D01*
Y362195D01*
Y365194D01*
X260498D01*
X270495Y367194D02*
X269495Y368193D01*
X267496D01*
X266496Y367194D01*
Y366194D01*
X267496Y365194D01*
X269495D01*
X270495Y364195D01*
Y363195D01*
X269495Y362195D01*
X267496D01*
X266496Y363195D01*
X278492Y362195D02*
Y368193D01*
X281491D01*
X282491Y367194D01*
Y365194D01*
X281491Y364195D01*
X278492D01*
X284490Y368193D02*
X286490D01*
X285490D01*
Y362195D01*
X284490D01*
X286490D01*
X299485Y367194D02*
X298486Y368193D01*
X296486D01*
X295487Y367194D01*
Y363195D01*
X296486Y362195D01*
X298486D01*
X299485Y363195D01*
X304484Y368193D02*
X302484D01*
X301485Y367194D01*
Y363195D01*
X302484Y362195D01*
X304484D01*
X305484Y363195D01*
Y367194D01*
X304484Y368193D01*
X307483Y362195D02*
Y368193D01*
X309482Y366194D01*
X311482Y368193D01*
Y362195D01*
X313481D02*
Y368193D01*
X316480D01*
X317480Y367194D01*
Y365194D01*
X316480Y364195D01*
X313481D01*
X319479Y368193D02*
Y363195D01*
X320479Y362195D01*
X322478D01*
X323478Y363195D01*
Y368193D01*
X325477D02*
X329476D01*
X327476D01*
Y362195D01*
X335474Y368193D02*
X331475D01*
Y362195D01*
X335474D01*
X331475Y365194D02*
X333474D01*
X343471Y362195D02*
Y368193D01*
X345471Y366194D01*
X347470Y368193D01*
Y362195D01*
X352468Y368193D02*
X350469D01*
X349469Y367194D01*
Y363195D01*
X350469Y362195D01*
X352468D01*
X353468Y363195D01*
Y367194D01*
X352468Y368193D01*
X355467D02*
Y362195D01*
X358466D01*
X359466Y363195D01*
Y367194D01*
X358466Y368193D01*
X355467D01*
X254500Y358596D02*
X256499D01*
X255500D01*
Y352598D01*
X254500D01*
X256499D01*
X259498D02*
X263497Y356596D01*
X268495Y358596D02*
X266496D01*
X265496Y357596D01*
Y353597D01*
X266496Y352598D01*
X268495D01*
X269495Y353597D01*
Y357596D01*
X268495Y358596D01*
X277493D02*
X281491D01*
X279492D01*
Y352598D01*
X287489Y358596D02*
X283491D01*
Y352598D01*
X287489D01*
X283491Y355597D02*
X285490D01*
X293487Y357596D02*
X292488Y358596D01*
X290488D01*
X289489Y357596D01*
Y356596D01*
X290488Y355597D01*
X292488D01*
X293487Y354597D01*
Y353597D01*
X292488Y352598D01*
X290488D01*
X289489Y353597D01*
X295487Y358596D02*
X299485D01*
X297486D01*
Y352598D01*
X307483Y358596D02*
Y352598D01*
X310482D01*
X311482Y353597D01*
Y354597D01*
X310482Y355597D01*
X307483D01*
X310482D01*
X311482Y356596D01*
Y357596D01*
X310482Y358596D01*
X307483D01*
X316480D02*
X314481D01*
X313481Y357596D01*
Y353597D01*
X314481Y352598D01*
X316480D01*
X317480Y353597D01*
Y357596D01*
X316480Y358596D01*
X319479Y352598D02*
Y356596D01*
X321478Y358596D01*
X323478Y356596D01*
Y352598D01*
Y355597D01*
X319479D01*
X325477Y352598D02*
Y358596D01*
X328476D01*
X329476Y357596D01*
Y355597D01*
X328476Y354597D01*
X325477D01*
X327476D02*
X329476Y352598D01*
X331475Y358596D02*
Y352598D01*
X334474D01*
X335474Y353597D01*
Y357596D01*
X334474Y358596D01*
X331475D01*
X254500Y343000D02*
Y348998D01*
X257499D01*
X258499Y347998D01*
Y345999D01*
X257499Y344999D01*
X254500D01*
X256499D02*
X258499Y343000D01*
X260498D02*
Y348998D01*
X263497D01*
X264497Y347998D01*
Y345999D01*
X263497Y344999D01*
X260498D01*
X266496Y348998D02*
Y343000D01*
X270495D01*
X282491D02*
X278492D01*
X282491Y346999D01*
Y347998D01*
X281491Y348998D01*
X279492D01*
X278492Y347998D01*
X284490D02*
X285490Y348998D01*
X287489D01*
X288489Y347998D01*
Y344000D01*
X287489Y343000D01*
X285490D01*
X284490Y344000D01*
Y347998D01*
X294487Y343000D02*
X290488D01*
X294487Y346999D01*
Y347998D01*
X293487Y348998D01*
X291488D01*
X290488Y347998D01*
X296486Y343000D02*
X298486D01*
X297486D01*
Y348998D01*
X296486Y347998D01*
X0Y22500D02*
X22Y21504D01*
X88Y20511D01*
X198Y19521D01*
X352Y18537D01*
X550Y17561D01*
X790Y16594D01*
X1073Y15639D01*
X1398Y14698D01*
X1764Y13772D01*
X2171Y12863D01*
X2618Y11973D01*
X3104Y11104D01*
X3628Y10257D01*
X4189Y9434D01*
X4786Y8636D01*
X5417Y7866D01*
X6083Y7125D01*
X6780Y6414D01*
X7508Y5735D01*
X8265Y5088D01*
X9051Y4476D01*
X9862Y3899D01*
X10699Y3358D01*
X11559Y2855D01*
X12440Y2391D01*
X13340Y1966D01*
X14259Y1582D01*
X15194Y1238D01*
X16143Y937D01*
X17105Y678D01*
X18077Y461D01*
X19058Y288D01*
X20045Y159D01*
X21037Y73D01*
X22032Y31D01*
X374587Y350080D02*
X374566Y351071D01*
X374502Y352060D01*
X374395Y353045D01*
X374247Y354025D01*
X374056Y354997D01*
X373823Y355960D01*
X373549Y356913D01*
X373234Y357852D01*
X372879Y358778D01*
X372485Y359687D01*
X372052Y360578D01*
X371581Y361450D01*
X371072Y362300D01*
X370528Y363128D01*
X369948Y363932D01*
X369335Y364710D01*
X368688Y365461D01*
X368010Y366183D01*
X367301Y366876D01*
X366563Y367537D01*
X365797Y368166D01*
X365005Y368761D01*
X364188Y369321D01*
X363347Y369846D01*
X362485Y370335D01*
X361602Y370785D01*
X360701Y371197D01*
X359783Y371570D01*
X358850Y371903D01*
X357903Y372196D01*
X356944Y372447D01*
X355976Y372657D01*
X354999Y372825D01*
X354016Y372951D01*
X353029Y373034D01*
X352039Y373075D01*
X350500Y31D02*
X351505Y52D01*
X352508Y116D01*
X353507Y221D01*
X354501Y368D01*
X355488Y556D01*
X356467Y786D01*
X357435Y1056D01*
X358390Y1367D01*
X359332Y1718D01*
X360259Y2107D01*
X361168Y2536D01*
X362058Y3002D01*
X362928Y3505D01*
X363777Y4044D01*
X364602Y4617D01*
X365402Y5226D01*
X366176Y5867D01*
X366922Y6539D01*
X367640Y7243D01*
X368327Y7976D01*
X368983Y8738D01*
X369607Y9526D01*
X370197Y10339D01*
X370752Y11177D01*
X371272Y12037D01*
X371756Y12918D01*
X372201Y13818D01*
X372609Y14737D01*
X372978Y15672D01*
X373308Y16621D01*
X373597Y17583D01*
X373846Y18557D01*
X374054Y19541D01*
X374220Y20532D01*
X374345Y21529D01*
X374428Y22530D01*
X374469Y23535D01*
X24002Y373080D02*
X23014Y373080D01*
X22028Y373039D01*
X21044Y372957D01*
X20064Y372833D01*
X19091Y372669D01*
X18125Y372464D01*
X17168Y372219D01*
X16223Y371934D01*
X15291Y371610D01*
X14372Y371247D01*
X13470Y370846D01*
X12586Y370408D01*
X11720Y369932D01*
X10875Y369422D01*
X10052Y368876D01*
X9253Y368296D01*
X8479Y367683D01*
X7731Y367038D01*
X7011Y366363D01*
X6320Y365658D01*
X5658Y364925D01*
X5029Y364165D01*
X4431Y363379D01*
X3867Y362569D01*
X3337Y361735D01*
X2843Y360881D01*
X2384Y360006D01*
X1963Y359113D01*
X1580Y358204D01*
X1235Y357278D01*
X929Y356340D01*
X662Y355389D01*
X436Y354428D01*
X250Y353458D01*
X104Y352482D01*
X0Y351500D01*
X24002Y373080D02*
X352039D01*
X374565Y23867D02*
Y33358D01*
X22032Y31D02*
X350500D01*
X374555Y33557D02*
X374555Y350138D01*
X0Y22500D02*
Y351500D01*
D17*
X14764Y299042D02*
Y296909D01*
X12631Y299042D01*
X12098D01*
X11565Y298509D01*
Y297443D01*
X12098Y296909D01*
Y300108D02*
X11565Y300642D01*
Y301708D01*
X12098Y302241D01*
X14231D01*
X14764Y301708D01*
Y300642D01*
X14231Y300108D01*
X12098D01*
X40354Y296909D02*
Y297976D01*
Y297443D01*
X37155D01*
X37688Y296909D01*
X39821Y299575D02*
X40354Y300108D01*
Y301175D01*
X39821Y301708D01*
X37688D01*
X37155Y301175D01*
Y300108D01*
X37688Y299575D01*
X38222D01*
X38755Y300108D01*
Y301708D01*
X40354Y196909D02*
Y197976D01*
Y197443D01*
X37155D01*
X37688Y196909D01*
X14764Y197861D02*
Y195728D01*
X12631Y197861D01*
X12098D01*
X11565Y197328D01*
Y196262D01*
X12098Y195728D01*
X364519Y82721D02*
X363986Y82188D01*
Y81121D01*
X364519Y80588D01*
X366652D01*
X367185Y81121D01*
Y82188D01*
X366652Y82721D01*
X365585D01*
Y81655D01*
X367185Y83787D02*
X363986D01*
X367185Y85920D01*
X363986D01*
Y86986D02*
X367185D01*
Y88586D01*
X366652Y89119D01*
X364519D01*
X363986Y88586D01*
Y86986D01*
X343986Y80588D02*
X346118D01*
X347185Y81655D01*
X346118Y82721D01*
X343986D01*
Y83787D02*
X347185D01*
Y85387D01*
X346652Y85920D01*
X346118D01*
X345585Y85387D01*
Y83787D01*
Y85387D01*
X345052Y85920D01*
X344519D01*
X343986Y85387D01*
Y83787D01*
Y86986D02*
X347185D01*
Y88586D01*
X346652Y89119D01*
X346118D01*
X345585Y88586D01*
Y86986D01*
Y88586D01*
X345052Y89119D01*
X344519D01*
X343986Y88586D01*
Y86986D01*
X333721Y257981D02*
X333188Y258514D01*
X332121D01*
X331588Y257981D01*
Y255848D01*
X332121Y255315D01*
X333188D01*
X333721Y255848D01*
Y256915D01*
X332655D01*
X334787Y255315D02*
Y258514D01*
X336920Y255315D01*
Y258514D01*
X337986D02*
Y255315D01*
X339586D01*
X340119Y255848D01*
Y257981D01*
X339586Y258514D01*
X337986D01*
X333721Y267938D02*
X333188Y268471D01*
X332121D01*
X331588Y267938D01*
Y265805D01*
X332121Y265272D01*
X333188D01*
X333721Y265805D01*
Y266872D01*
X332655D01*
X334787Y265272D02*
Y268471D01*
X336387D01*
X336920Y267938D01*
Y266872D01*
X336387Y266338D01*
X334787D01*
X340119Y268471D02*
X337986D01*
Y266872D01*
X339053Y267405D01*
X339586D01*
X340119Y266872D01*
Y265805D01*
X339586Y265272D01*
X338519D01*
X337986Y265805D01*
X333721Y277895D02*
X333188Y278428D01*
X332121D01*
X331588Y277895D01*
Y275762D01*
X332121Y275229D01*
X333188D01*
X333721Y275762D01*
Y276829D01*
X332655D01*
X334787Y275229D02*
Y278428D01*
X336387D01*
X336920Y277895D01*
Y276829D01*
X336387Y276295D01*
X334787D01*
X339586Y275229D02*
Y278428D01*
X337986Y276829D01*
X340119D01*
X333721Y287852D02*
X333188Y288385D01*
X332121D01*
X331588Y287852D01*
Y285719D01*
X332121Y285186D01*
X333188D01*
X333721Y285719D01*
Y286786D01*
X332655D01*
X334787Y285186D02*
Y288385D01*
X336387D01*
X336920Y287852D01*
Y286786D01*
X336387Y286252D01*
X334787D01*
X337986Y287852D02*
X338519Y288385D01*
X339586D01*
X340119Y287852D01*
Y287319D01*
X339586Y286786D01*
X339053D01*
X339586D01*
X340119Y286252D01*
Y285719D01*
X339586Y285186D01*
X338519D01*
X337986Y285719D01*
X333721Y297809D02*
X333188Y298342D01*
X332121D01*
X331588Y297809D01*
Y295676D01*
X332121Y295143D01*
X333188D01*
X333721Y295676D01*
Y296743D01*
X332655D01*
X334787Y295143D02*
Y298342D01*
X336387D01*
X336920Y297809D01*
Y296743D01*
X336387Y296209D01*
X334787D01*
X340119Y295143D02*
X337986D01*
X340119Y297276D01*
Y297809D01*
X339586Y298342D01*
X338519D01*
X337986Y297809D01*
X333721Y307766D02*
X333188Y308299D01*
X332121D01*
X331588Y307766D01*
Y305633D01*
X332121Y305100D01*
X333188D01*
X333721Y305633D01*
Y306699D01*
X332655D01*
X334787Y305100D02*
Y308299D01*
X336387D01*
X336920Y307766D01*
Y306699D01*
X336387Y306166D01*
X334787D01*
X337986Y305100D02*
X339053D01*
X338519D01*
Y308299D01*
X337986Y307766D01*
X170555Y21941D02*
X171088Y22475D01*
X172155D01*
X172688Y21941D01*
Y21408D01*
X172155Y20875D01*
X172688Y20342D01*
Y19809D01*
X172155Y19276D01*
X171088D01*
X170555Y19809D01*
Y20342D01*
X171088Y20875D01*
X170555Y21408D01*
Y21941D01*
X171088Y20875D02*
X172155D01*
X151264Y19276D02*
X152330D01*
X151797D01*
Y22475D01*
X151264Y21941D01*
X72001Y131599D02*
Y128934D01*
X72535Y128401D01*
X73601D01*
X74134Y128934D01*
Y131599D01*
X75200Y128401D02*
X76267D01*
X75733D01*
Y131599D01*
X75200Y131066D01*
X79466Y128401D02*
Y131599D01*
X77866Y130000D01*
X79999D01*
X42235Y162400D02*
Y165600D01*
X43834D01*
X44367Y165066D01*
Y164000D01*
X43834Y163467D01*
X42235D01*
X43301D02*
X44367Y162400D01*
X47566D02*
X45434D01*
X47566Y164533D01*
Y165066D01*
X47033Y165600D01*
X45967D01*
X45434Y165066D01*
X50765Y162400D02*
X48633D01*
X50765Y164533D01*
Y165066D01*
X50232Y165600D01*
X49166D01*
X48633Y165066D01*
X94268Y102369D02*
Y105568D01*
X95867D01*
X96400Y105035D01*
Y103969D01*
X95867Y103435D01*
X94268D01*
X95334D02*
X96400Y102369D01*
X99599D02*
X97467D01*
X99599Y104502D01*
Y105035D01*
X99066Y105568D01*
X98000D01*
X97467Y105035D01*
X100666Y102369D02*
X101732D01*
X101199D01*
Y105568D01*
X100666Y105035D01*
X79235Y113900D02*
Y117099D01*
X80834D01*
X81367Y116566D01*
Y115500D01*
X80834Y114967D01*
X79235D01*
X80301D02*
X81367Y113900D01*
X84566D02*
X82434D01*
X84566Y116033D01*
Y116566D01*
X84033Y117099D01*
X82967D01*
X82434Y116566D01*
X85633D02*
X86166Y117099D01*
X87232D01*
X87765Y116566D01*
Y114434D01*
X87232Y113900D01*
X86166D01*
X85633Y114434D01*
Y116566D01*
X96902Y320099D02*
X99035D01*
X97968D01*
Y316900D01*
X100101D02*
Y320099D01*
X101700D01*
X102233Y319566D01*
Y318500D01*
X101700Y317967D01*
X100101D01*
X103300Y316900D02*
X104366D01*
X103833D01*
Y320099D01*
X103300Y319566D01*
X107565Y316900D02*
Y320099D01*
X105966Y318500D01*
X108098D01*
X97766Y166568D02*
X99899D01*
X98832D01*
Y163369D01*
X100965D02*
Y166568D01*
X102565D01*
X103098Y166035D01*
Y164969D01*
X102565Y164435D01*
X100965D01*
X104164Y166568D02*
X106297D01*
Y166035D01*
X104164Y163902D01*
Y163369D01*
X130235Y159099D02*
X132367D01*
X131301D01*
Y155901D01*
X133434D02*
Y159099D01*
X135033D01*
X135566Y158566D01*
Y157500D01*
X135033Y156967D01*
X133434D01*
X138765Y159099D02*
X137699Y158566D01*
X136633Y157500D01*
Y156434D01*
X137166Y155901D01*
X138232D01*
X138765Y156434D01*
Y156967D01*
X138232Y157500D01*
X136633D01*
X95600Y181501D02*
X92400D01*
Y183101D01*
X92934Y183634D01*
X94000D01*
X94533Y183101D01*
Y181501D01*
Y182568D02*
X95600Y183634D01*
Y184700D02*
Y185767D01*
Y185233D01*
X92400D01*
X92934Y184700D01*
X95066Y187366D02*
X95600Y187899D01*
Y188966D01*
X95066Y189499D01*
X92934D01*
X92400Y188966D01*
Y187899D01*
X92934Y187366D01*
X93467D01*
X94000Y187899D01*
Y189499D01*
X81901Y170268D02*
X85100D01*
Y171867D01*
X84566Y172400D01*
X82434D01*
X81901Y171867D01*
Y170268D01*
X82434Y175600D02*
X81901Y175066D01*
Y174000D01*
X82434Y173467D01*
X82967D01*
X83500Y174000D01*
Y175066D01*
X84033Y175600D01*
X84566D01*
X85100Y175066D01*
Y174000D01*
X84566Y173467D01*
X85100Y176666D02*
Y177732D01*
Y177199D01*
X81901D01*
X82434Y176666D01*
X70007Y321600D02*
Y318401D01*
X71607D01*
X72140Y318934D01*
Y321066D01*
X71607Y321600D01*
X70007D01*
X73206Y321066D02*
X73740Y321600D01*
X74806D01*
X75339Y321066D01*
Y320533D01*
X74806Y320000D01*
X75339Y319467D01*
Y318934D01*
X74806Y318401D01*
X73740D01*
X73206Y318934D01*
Y319467D01*
X73740Y320000D01*
X73206Y320533D01*
Y321066D01*
X73740Y320000D02*
X74806D01*
X88334Y322600D02*
Y319401D01*
X89934D01*
X90467Y319934D01*
Y322066D01*
X89934Y322600D01*
X88334D01*
X91533D02*
X93666D01*
Y322066D01*
X91533Y319934D01*
Y319401D01*
X73500Y34099D02*
Y31433D01*
X74033Y30900D01*
X75099D01*
X75633Y31433D01*
Y34099D01*
X76699Y30900D02*
X77765D01*
X77232D01*
Y34099D01*
X76699Y33566D01*
X79365D02*
X79898Y34099D01*
X80964D01*
X81497Y33566D01*
Y33033D01*
X80964Y32500D01*
X80431D01*
X80964D01*
X81497Y31966D01*
Y31433D01*
X80964Y30900D01*
X79898D01*
X79365Y31433D01*
X111501Y67099D02*
Y64434D01*
X112034Y63901D01*
X113101D01*
X113634Y64434D01*
Y67099D01*
X114700Y63901D02*
X115767D01*
X115233D01*
Y67099D01*
X114700Y66566D01*
X119499Y63901D02*
X117366D01*
X119499Y66033D01*
Y66566D01*
X118966Y67099D01*
X117899D01*
X117366Y66566D01*
X107535Y32599D02*
Y29934D01*
X108068Y29401D01*
X109134D01*
X109667Y29934D01*
Y32599D01*
X110733Y29401D02*
X111800D01*
X111267D01*
Y32599D01*
X110733Y32066D01*
X113399Y29401D02*
X114466D01*
X113932D01*
Y32599D01*
X113399Y32066D01*
X99001Y83600D02*
Y80934D01*
X99534Y80401D01*
X100601D01*
X101134Y80934D01*
Y83600D01*
X102200Y80401D02*
X103267D01*
X102733D01*
Y83600D01*
X102200Y83066D01*
X104866D02*
X105399Y83600D01*
X106466D01*
X106999Y83066D01*
Y80934D01*
X106466Y80401D01*
X105399D01*
X104866Y80934D01*
Y83066D01*
X89867Y41566D02*
X89334Y42099D01*
X88268D01*
X87735Y41566D01*
Y39434D01*
X88268Y38901D01*
X89334D01*
X89867Y39434D01*
X93066Y42099D02*
X90934D01*
Y40500D01*
X92000Y41033D01*
X92533D01*
X93066Y40500D01*
Y39434D01*
X92533Y38901D01*
X91467D01*
X90934Y39434D01*
X96265Y38901D02*
X94133D01*
X96265Y41033D01*
Y41566D01*
X95732Y42099D01*
X94666D01*
X94133Y41566D01*
X67901Y39566D02*
X67367Y40099D01*
X66301D01*
X65768Y39566D01*
Y37434D01*
X66301Y36900D01*
X67367D01*
X67901Y37434D01*
X71100Y40099D02*
X68967D01*
Y38500D01*
X70033Y39033D01*
X70566D01*
X71100Y38500D01*
Y37434D01*
X70566Y36900D01*
X69500D01*
X68967Y37434D01*
X72166Y36900D02*
X73232D01*
X72699D01*
Y40099D01*
X72166Y39566D01*
X133867D02*
X133334Y40099D01*
X132268D01*
X131735Y39566D01*
Y37434D01*
X132268Y36900D01*
X133334D01*
X133867Y37434D01*
X137066Y40099D02*
X134934D01*
Y38500D01*
X136000Y39033D01*
X136533D01*
X137066Y38500D01*
Y37434D01*
X136533Y36900D01*
X135467D01*
X134934Y37434D01*
X138133Y39566D02*
X138666Y40099D01*
X139732D01*
X140265Y39566D01*
Y37434D01*
X139732Y36900D01*
X138666D01*
X138133Y37434D01*
Y39566D01*
X97934Y14867D02*
X97400Y14334D01*
Y13268D01*
X97934Y12735D01*
X100066D01*
X100600Y13268D01*
Y14334D01*
X100066Y14867D01*
X100600Y17533D02*
X97400D01*
X99000Y15934D01*
Y18066D01*
X100066Y19133D02*
X100600Y19666D01*
Y20732D01*
X100066Y21265D01*
X97934D01*
X97400Y20732D01*
Y19666D01*
X97934Y19133D01*
X98467D01*
X99000Y19666D01*
Y21265D01*
X126867Y86066D02*
X126334Y86599D01*
X125268D01*
X124735Y86066D01*
Y83934D01*
X125268Y83400D01*
X126334D01*
X126867Y83934D01*
X129533Y83400D02*
Y86599D01*
X127934Y85000D01*
X130066D01*
X131133Y86066D02*
X131666Y86599D01*
X132732D01*
X133265Y86066D01*
Y85533D01*
X132732Y85000D01*
X133265Y84467D01*
Y83934D01*
X132732Y83400D01*
X131666D01*
X131133Y83934D01*
Y84467D01*
X131666Y85000D01*
X131133Y85533D01*
Y86066D01*
X131666Y85000D02*
X132732D01*
X126867Y44566D02*
X126334Y45099D01*
X125268D01*
X124735Y44566D01*
Y42434D01*
X125268Y41901D01*
X126334D01*
X126867Y42434D01*
X129533Y41901D02*
Y45099D01*
X127934Y43500D01*
X130066D01*
X131133Y45099D02*
X133265D01*
Y44566D01*
X131133Y42434D01*
Y41901D01*
X141867Y50566D02*
X141334Y51099D01*
X140268D01*
X139735Y50566D01*
Y48434D01*
X140268Y47901D01*
X141334D01*
X141867Y48434D01*
X144533Y47901D02*
Y51099D01*
X142934Y49500D01*
X145066D01*
X148265Y51099D02*
X147199Y50566D01*
X146133Y49500D01*
Y48434D01*
X146666Y47901D01*
X147732D01*
X148265Y48434D01*
Y48967D01*
X147732Y49500D01*
X146133D01*
X109367Y97566D02*
X108834Y98099D01*
X107768D01*
X107235Y97566D01*
Y95434D01*
X107768Y94901D01*
X108834D01*
X109367Y95434D01*
X112033Y94901D02*
Y98099D01*
X110434Y96500D01*
X112566D01*
X115765Y98099D02*
X113633D01*
Y96500D01*
X114699Y97033D01*
X115232D01*
X115765Y96500D01*
Y95434D01*
X115232Y94901D01*
X114166D01*
X113633Y95434D01*
X109367Y157099D02*
Y156566D01*
X110434Y155500D01*
X111500Y156566D01*
Y157099D01*
X110434Y155500D02*
Y153901D01*
X112566D02*
X113633D01*
X113100D01*
Y157099D01*
X112566Y156566D01*
X191401Y370066D02*
X190867Y370600D01*
X189801D01*
X189268Y370066D01*
Y369533D01*
X189801Y369000D01*
X190867D01*
X191401Y368467D01*
Y367934D01*
X190867Y367401D01*
X189801D01*
X189268Y367934D01*
X192467Y367401D02*
Y370600D01*
X194066D01*
X194599Y370066D01*
Y369000D01*
X194066Y368467D01*
X192467D01*
X195666Y370600D02*
X196732D01*
X196199D01*
Y367401D01*
X195666D01*
X196732D01*
X64367Y193599D02*
Y190934D01*
X64900Y190401D01*
X65967D01*
X66500Y190934D01*
Y193599D01*
X67566Y190401D02*
X68633D01*
X68099D01*
Y193599D01*
X67566Y193066D01*
X41536Y366100D02*
Y363434D01*
X42069Y362900D01*
X43135D01*
X43668Y363434D01*
Y366100D01*
X46867Y365566D02*
X46334Y366100D01*
X45268D01*
X44735Y365566D01*
Y365033D01*
X45268Y364500D01*
X46334D01*
X46867Y363967D01*
Y363434D01*
X46334Y362900D01*
X45268D01*
X44735Y363434D01*
X47934Y366100D02*
Y362900D01*
X49533D01*
X50066Y363434D01*
Y363967D01*
X49533Y364500D01*
X47934D01*
X49533D01*
X50066Y365033D01*
Y365566D01*
X49533Y366100D01*
X47934D01*
X51133D02*
Y362900D01*
X52732D01*
X53265Y363434D01*
Y363967D01*
X52732Y364500D01*
X51133D01*
X52732D01*
X53265Y365033D01*
Y365566D01*
X52732Y366100D01*
X51133D01*
X56464Y362900D02*
X54332D01*
X56464Y365033D01*
Y365566D01*
X55931Y366100D01*
X54865D01*
X54332Y365566D01*
X13633Y361066D02*
X13100Y361599D01*
X12033D01*
X11500Y361066D01*
Y360533D01*
X12033Y359999D01*
X13100D01*
X13633Y359466D01*
Y358933D01*
X13100Y358400D01*
X12033D01*
X11500Y358933D01*
X14699Y361599D02*
Y358400D01*
X15765Y359466D01*
X16832Y358400D01*
Y361599D01*
X17898Y358400D02*
X18964D01*
X18431D01*
Y361599D01*
X17898Y361066D01*
X89501Y344401D02*
Y347600D01*
X91101D01*
X91634Y347066D01*
Y346000D01*
X91101Y345467D01*
X89501D01*
X90568D02*
X91634Y344401D01*
X92700D02*
X93767D01*
X93233D01*
Y347600D01*
X92700Y347066D01*
X95366D02*
X95899Y347600D01*
X96965D01*
X97499Y347066D01*
Y346533D01*
X96965Y346000D01*
X97499Y345467D01*
Y344934D01*
X96965Y344401D01*
X95899D01*
X95366Y344934D01*
Y345467D01*
X95899Y346000D01*
X95366Y346533D01*
Y347066D01*
X95899Y346000D02*
X96965D01*
X112969Y370066D02*
X112436Y370600D01*
X111370D01*
X110837Y370066D01*
Y369533D01*
X111370Y369000D01*
X112436D01*
X112969Y368467D01*
Y367934D01*
X112436Y367401D01*
X111370D01*
X110837Y367934D01*
X114036Y370600D02*
X116168D01*
X115102D01*
Y367401D01*
X117235D02*
Y370600D01*
X118301Y369533D01*
X119367Y370600D01*
Y367401D01*
X120434Y370600D02*
Y367401D01*
X122033D01*
X122566Y367934D01*
Y368467D01*
X122033Y369000D01*
X120434D01*
X122033D01*
X122566Y369533D01*
Y370066D01*
X122033Y370600D01*
X120434D01*
X125232D02*
X124166D01*
X123633Y370066D01*
Y367934D01*
X124166Y367401D01*
X125232D01*
X125765Y367934D01*
Y370066D01*
X125232Y370600D01*
X128431D02*
X127365D01*
X126832Y370066D01*
Y367934D01*
X127365Y367401D01*
X128431D01*
X128964Y367934D01*
Y370066D01*
X128431Y370600D01*
X130031D02*
X132163D01*
X131097D01*
Y367401D01*
X19335Y320566D02*
X18802Y321099D01*
X17736D01*
X17203Y320566D01*
Y320033D01*
X17736Y319500D01*
X18802D01*
X19335Y318967D01*
Y318434D01*
X18802Y317900D01*
X17736D01*
X17203Y318434D01*
X20402Y321099D02*
X22535D01*
X21468D01*
Y317900D01*
X23601Y321099D02*
Y317900D01*
X25733D01*
X26800Y321099D02*
X27866D01*
X27333D01*
Y317900D01*
X26800D01*
X27866D01*
X29466D02*
Y321099D01*
X31598Y317900D01*
Y321099D01*
X32664D02*
Y317900D01*
Y318967D01*
X34797Y321099D01*
X33198Y319500D01*
X34797Y317900D01*
X148400Y179100D02*
X146268D01*
Y177500D01*
X147334D01*
X146268D01*
Y175900D01*
X149467Y179100D02*
Y175900D01*
X151066D01*
X151600Y176434D01*
Y176967D01*
X151066Y177500D01*
X149467D01*
X151066D01*
X151600Y178033D01*
Y178566D01*
X151066Y179100D01*
X149467D01*
X152666Y175900D02*
X153732D01*
X153199D01*
Y179100D01*
X152666Y178566D01*
X159367Y284066D02*
X158834Y284599D01*
X157768D01*
X157235Y284066D01*
Y281934D01*
X157768Y281400D01*
X158834D01*
X159367Y281934D01*
X162033Y281400D02*
Y284599D01*
X160434Y283000D01*
X162566D01*
X165232Y281400D02*
Y284599D01*
X163633Y283000D01*
X165765D01*
X68367Y300566D02*
X67834Y301099D01*
X66768D01*
X66235Y300566D01*
Y298434D01*
X66768Y297901D01*
X67834D01*
X68367Y298434D01*
X71033Y297901D02*
Y301099D01*
X69434Y299500D01*
X71566D01*
X72633Y300566D02*
X73166Y301099D01*
X74232D01*
X74765Y300566D01*
Y300033D01*
X74232Y299500D01*
X73699D01*
X74232D01*
X74765Y298967D01*
Y298434D01*
X74232Y297901D01*
X73166D01*
X72633Y298434D01*
X62033Y341666D02*
X61500Y342199D01*
X60433D01*
X59900Y341666D01*
Y339533D01*
X60433Y339000D01*
X61500D01*
X62033Y339533D01*
X64698Y339000D02*
Y342199D01*
X63099Y340599D01*
X65232D01*
X68431Y339000D02*
X66298D01*
X68431Y341133D01*
Y341666D01*
X67897Y342199D01*
X66831D01*
X66298Y341666D01*
X136934Y167901D02*
X136400Y167367D01*
Y166301D01*
X136934Y165768D01*
X139066D01*
X139600Y166301D01*
Y167367D01*
X139066Y167901D01*
X139600Y170566D02*
X136400D01*
X138000Y168967D01*
Y171099D01*
X139600Y172166D02*
Y173232D01*
Y172699D01*
X136400D01*
X136934Y172166D01*
X155867Y190066D02*
X155334Y190600D01*
X154268D01*
X153735Y190066D01*
Y187934D01*
X154268Y187400D01*
X155334D01*
X155867Y187934D01*
X158533Y187400D02*
Y190600D01*
X156934Y189000D01*
X159066D01*
X160133Y190066D02*
X160666Y190600D01*
X161732D01*
X162265Y190066D01*
Y187934D01*
X161732Y187400D01*
X160666D01*
X160133Y187934D01*
Y190066D01*
X55367Y197066D02*
X54834Y197599D01*
X53768D01*
X53235Y197066D01*
Y194934D01*
X53768Y194401D01*
X54834D01*
X55367Y194934D01*
X56434Y197066D02*
X56967Y197599D01*
X58033D01*
X58566Y197066D01*
Y196533D01*
X58033Y196000D01*
X57500D01*
X58033D01*
X58566Y195467D01*
Y194934D01*
X58033Y194401D01*
X56967D01*
X56434Y194934D01*
X59633D02*
X60166Y194401D01*
X61232D01*
X61765Y194934D01*
Y197066D01*
X61232Y197599D01*
X60166D01*
X59633Y197066D01*
Y196533D01*
X60166Y196000D01*
X61765D01*
X151867Y291566D02*
X151334Y292099D01*
X150268D01*
X149735Y291566D01*
Y289434D01*
X150268Y288900D01*
X151334D01*
X151867Y289434D01*
X152934Y291566D02*
X153467Y292099D01*
X154533D01*
X155066Y291566D01*
Y291033D01*
X154533Y290500D01*
X154000D01*
X154533D01*
X155066Y289967D01*
Y289434D01*
X154533Y288900D01*
X153467D01*
X152934Y289434D01*
X156133Y291566D02*
X156666Y292099D01*
X157732D01*
X158265Y291566D01*
Y291033D01*
X157732Y290500D01*
X158265Y289967D01*
Y289434D01*
X157732Y288900D01*
X156666D01*
X156133Y289434D01*
Y289967D01*
X156666Y290500D01*
X156133Y291033D01*
Y291566D01*
X156666Y290500D02*
X157732D01*
X129434Y167367D02*
X128901Y166834D01*
Y165768D01*
X129434Y165235D01*
X131566D01*
X132099Y165768D01*
Y166834D01*
X131566Y167367D01*
X129434Y168434D02*
X128901Y168967D01*
Y170033D01*
X129434Y170566D01*
X129967D01*
X130500Y170033D01*
Y169500D01*
Y170033D01*
X131033Y170566D01*
X131566D01*
X132099Y170033D01*
Y168967D01*
X131566Y168434D01*
X128901Y171633D02*
Y173765D01*
X129434D01*
X131566Y171633D01*
X132099D01*
X166867Y204566D02*
X166334Y205100D01*
X165268D01*
X164735Y204566D01*
Y202434D01*
X165268Y201901D01*
X166334D01*
X166867Y202434D01*
X167934Y204566D02*
X168467Y205100D01*
X169533D01*
X170066Y204566D01*
Y204033D01*
X169533Y203500D01*
X169000D01*
X169533D01*
X170066Y202967D01*
Y202434D01*
X169533Y201901D01*
X168467D01*
X167934Y202434D01*
X173265Y205100D02*
X172199Y204566D01*
X171133Y203500D01*
Y202434D01*
X171666Y201901D01*
X172732D01*
X173265Y202434D01*
Y202967D01*
X172732Y203500D01*
X171133D01*
X165367Y234066D02*
X164834Y234599D01*
X163768D01*
X163235Y234066D01*
Y231934D01*
X163768Y231400D01*
X164834D01*
X165367Y231934D01*
X166434Y234066D02*
X166967Y234599D01*
X168033D01*
X168566Y234066D01*
Y233533D01*
X168033Y233000D01*
X167500D01*
X168033D01*
X168566Y232467D01*
Y231934D01*
X168033Y231400D01*
X166967D01*
X166434Y231934D01*
X171765Y234599D02*
X169633D01*
Y233000D01*
X170699Y233533D01*
X171232D01*
X171765Y233000D01*
Y231934D01*
X171232Y231400D01*
X170166D01*
X169633Y231934D01*
X175367Y251566D02*
X174834Y252099D01*
X173768D01*
X173235Y251566D01*
Y249434D01*
X173768Y248901D01*
X174834D01*
X175367Y249434D01*
X176434Y251566D02*
X176967Y252099D01*
X178033D01*
X178566Y251566D01*
Y251033D01*
X178033Y250500D01*
X177500D01*
X178033D01*
X178566Y249967D01*
Y249434D01*
X178033Y248901D01*
X176967D01*
X176434Y249434D01*
X181232Y248901D02*
Y252099D01*
X179633Y250500D01*
X181765D01*
X120367Y298066D02*
X119834Y298600D01*
X118768D01*
X118235Y298066D01*
Y295934D01*
X118768Y295401D01*
X119834D01*
X120367Y295934D01*
X121434Y298066D02*
X121967Y298600D01*
X123033D01*
X123566Y298066D01*
Y297533D01*
X123033Y297000D01*
X122500D01*
X123033D01*
X123566Y296467D01*
Y295934D01*
X123033Y295401D01*
X121967D01*
X121434Y295934D01*
X124633Y298066D02*
X125166Y298600D01*
X126232D01*
X126765Y298066D01*
Y297533D01*
X126232Y297000D01*
X125699D01*
X126232D01*
X126765Y296467D01*
Y295934D01*
X126232Y295401D01*
X125166D01*
X124633Y295934D01*
X99367Y296566D02*
X98834Y297099D01*
X97768D01*
X97235Y296566D01*
Y294434D01*
X97768Y293900D01*
X98834D01*
X99367Y294434D01*
X100434Y296566D02*
X100967Y297099D01*
X102033D01*
X102566Y296566D01*
Y296033D01*
X102033Y295500D01*
X101500D01*
X102033D01*
X102566Y294967D01*
Y294434D01*
X102033Y293900D01*
X100967D01*
X100434Y294434D01*
X105765Y293900D02*
X103633D01*
X105765Y296033D01*
Y296566D01*
X105232Y297099D01*
X104166D01*
X103633Y296566D01*
X62401Y291066D02*
X61867Y291599D01*
X60801D01*
X60268Y291066D01*
Y288934D01*
X60801Y288401D01*
X61867D01*
X62401Y288934D01*
X63467Y291066D02*
X64000Y291599D01*
X65066D01*
X65600Y291066D01*
Y290533D01*
X65066Y290000D01*
X64533D01*
X65066D01*
X65600Y289467D01*
Y288934D01*
X65066Y288401D01*
X64000D01*
X63467Y288934D01*
X66666Y288401D02*
X67732D01*
X67199D01*
Y291599D01*
X66666Y291066D01*
X56867Y258066D02*
X56334Y258599D01*
X55268D01*
X54735Y258066D01*
Y255934D01*
X55268Y255400D01*
X56334D01*
X56867Y255934D01*
X57934Y258066D02*
X58467Y258599D01*
X59533D01*
X60066Y258066D01*
Y257533D01*
X59533Y257000D01*
X59000D01*
X59533D01*
X60066Y256467D01*
Y255934D01*
X59533Y255400D01*
X58467D01*
X57934Y255934D01*
X61133Y258066D02*
X61666Y258599D01*
X62732D01*
X63265Y258066D01*
Y255934D01*
X62732Y255400D01*
X61666D01*
X61133Y255934D01*
Y258066D01*
X55867Y223566D02*
X55334Y224099D01*
X54268D01*
X53735Y223566D01*
Y221434D01*
X54268Y220901D01*
X55334D01*
X55867Y221434D01*
X59066Y220901D02*
X56934D01*
X59066Y223033D01*
Y223566D01*
X58533Y224099D01*
X57467D01*
X56934Y223566D01*
X60133Y221434D02*
X60666Y220901D01*
X61732D01*
X62265Y221434D01*
Y223566D01*
X61732Y224099D01*
X60666D01*
X60133Y223566D01*
Y223033D01*
X60666Y222500D01*
X62265D01*
X101367Y184066D02*
X100834Y184599D01*
X99768D01*
X99235Y184066D01*
Y181934D01*
X99768Y181401D01*
X100834D01*
X101367Y181934D01*
X104566Y181401D02*
X102434D01*
X104566Y183533D01*
Y184066D01*
X104033Y184599D01*
X102967D01*
X102434Y184066D01*
X105633Y184599D02*
X107765D01*
Y184066D01*
X105633Y181934D01*
Y181401D01*
X136834Y22099D02*
Y19434D01*
X137367Y18901D01*
X138434D01*
X138967Y19434D01*
Y22099D01*
X140033Y19434D02*
X140566Y18901D01*
X141633D01*
X142166Y19434D01*
Y21566D01*
X141633Y22099D01*
X140566D01*
X140033Y21566D01*
Y21033D01*
X140566Y20500D01*
X142166D01*
X176834Y30099D02*
Y27434D01*
X177367Y26901D01*
X178434D01*
X178967Y27434D01*
Y30099D01*
X180033Y29566D02*
X180566Y30099D01*
X181633D01*
X182166Y29566D01*
Y29033D01*
X181633Y28500D01*
X182166Y27967D01*
Y27434D01*
X181633Y26901D01*
X180566D01*
X180033Y27434D01*
Y27967D01*
X180566Y28500D01*
X180033Y29033D01*
Y29566D01*
X180566Y28500D02*
X181633D01*
X332834Y141600D02*
Y138400D01*
X334434D01*
X334967Y138934D01*
Y141066D01*
X334434Y141600D01*
X332834D01*
X338166D02*
X337100Y141066D01*
X336033Y140000D01*
Y138934D01*
X336566Y138400D01*
X337633D01*
X338166Y138934D01*
Y139467D01*
X337633Y140000D01*
X336033D01*
X319834Y113100D02*
Y109900D01*
X321434D01*
X321967Y110434D01*
Y112566D01*
X321434Y113100D01*
X319834D01*
X325166D02*
X323033D01*
Y111500D01*
X324099Y112033D01*
X324633D01*
X325166Y111500D01*
Y110434D01*
X324633Y109900D01*
X323566D01*
X323033Y110434D01*
X335334Y109599D02*
Y106401D01*
X336934D01*
X337467Y106934D01*
Y109066D01*
X336934Y109599D01*
X335334D01*
X340133Y106401D02*
Y109599D01*
X338533Y108000D01*
X340666D01*
X294334Y194599D02*
Y191401D01*
X295934D01*
X296467Y191934D01*
Y194066D01*
X295934Y194599D01*
X294334D01*
X297533Y194066D02*
X298066Y194599D01*
X299133D01*
X299666Y194066D01*
Y193533D01*
X299133Y193000D01*
X298600D01*
X299133D01*
X299666Y192467D01*
Y191934D01*
X299133Y191401D01*
X298066D01*
X297533Y191934D01*
X294834Y164100D02*
Y160900D01*
X296434D01*
X296967Y161434D01*
Y163566D01*
X296434Y164100D01*
X294834D01*
X300166Y160900D02*
X298033D01*
X300166Y163033D01*
Y163566D01*
X299633Y164100D01*
X298566D01*
X298033Y163566D01*
X298867Y146099D02*
Y142901D01*
X300467D01*
X301000Y143434D01*
Y145566D01*
X300467Y146099D01*
X298867D01*
X302066Y142901D02*
X303133D01*
X302600D01*
Y146099D01*
X302066Y145566D01*
X309334Y291599D02*
Y288934D01*
X309867Y288401D01*
X310934D01*
X311467Y288934D01*
Y291599D01*
X312533D02*
X314666D01*
Y291066D01*
X312533Y288934D01*
Y288401D01*
X287402Y37600D02*
X289534D01*
X288468D01*
Y34400D01*
X290601D02*
Y37600D01*
X292200D01*
X292733Y37066D01*
Y36000D01*
X292200Y35467D01*
X290601D01*
X293800Y34400D02*
X294866D01*
X294333D01*
Y37600D01*
X293800Y37066D01*
X296465D02*
X296999Y37600D01*
X298065D01*
X298598Y37066D01*
Y34934D01*
X298065Y34400D01*
X296999D01*
X296465Y34934D01*
Y37066D01*
X283235Y265100D02*
X285367D01*
X284301D01*
Y261900D01*
X286434D02*
Y265100D01*
X288033D01*
X288566Y264566D01*
Y263500D01*
X288033Y262967D01*
X286434D01*
X289633Y262434D02*
X290166Y261900D01*
X291232D01*
X291765Y262434D01*
Y264566D01*
X291232Y265100D01*
X290166D01*
X289633Y264566D01*
Y264033D01*
X290166Y263500D01*
X291765D01*
X286235Y68599D02*
X288367D01*
X287301D01*
Y65400D01*
X289434D02*
Y68599D01*
X291033D01*
X291566Y68066D01*
Y67000D01*
X291033Y66467D01*
X289434D01*
X292633Y68066D02*
X293166Y68599D01*
X294232D01*
X294765Y68066D01*
Y67533D01*
X294232Y67000D01*
X294765Y66467D01*
Y65934D01*
X294232Y65400D01*
X293166D01*
X292633Y65934D01*
Y66467D01*
X293166Y67000D01*
X292633Y67533D01*
Y68066D01*
X293166Y67000D02*
X294232D01*
X312235Y74599D02*
X314367D01*
X313301D01*
Y71400D01*
X315434D02*
Y74599D01*
X317033D01*
X317566Y74066D01*
Y73000D01*
X317033Y72467D01*
X315434D01*
X320765Y74599D02*
X318633D01*
Y73000D01*
X319699Y73533D01*
X320232D01*
X320765Y73000D01*
Y71934D01*
X320232Y71400D01*
X319166D01*
X318633Y71934D01*
X328735Y160099D02*
X330867D01*
X329801D01*
Y156901D01*
X331934D02*
Y160099D01*
X333533D01*
X334066Y159566D01*
Y158500D01*
X333533Y157967D01*
X331934D01*
X336732Y156901D02*
Y160099D01*
X335133Y158500D01*
X337265D01*
X114235Y105599D02*
X116367D01*
X115301D01*
Y102401D01*
X117434D02*
Y105599D01*
X119033D01*
X119566Y105066D01*
Y104000D01*
X119033Y103467D01*
X117434D01*
X120633Y105066D02*
X121166Y105599D01*
X122232D01*
X122765Y105066D01*
Y104533D01*
X122232Y104000D01*
X121699D01*
X122232D01*
X122765Y103467D01*
Y102934D01*
X122232Y102401D01*
X121166D01*
X120633Y102934D01*
X82735Y102100D02*
X84867D01*
X83801D01*
Y98901D01*
X85934D02*
Y102100D01*
X87533D01*
X88066Y101566D01*
Y100500D01*
X87533Y99967D01*
X85934D01*
X91265Y98901D02*
X89133D01*
X91265Y101033D01*
Y101566D01*
X90732Y102100D01*
X89666D01*
X89133Y101566D01*
X43268Y94599D02*
X45401D01*
X44334D01*
Y91400D01*
X46467D02*
Y94599D01*
X48066D01*
X48599Y94066D01*
Y93000D01*
X48066Y92467D01*
X46467D01*
X49666Y91400D02*
X50732D01*
X50199D01*
Y94599D01*
X49666Y94066D01*
X177501Y177901D02*
Y181099D01*
X179101D01*
X179634Y180566D01*
Y179500D01*
X179101Y178967D01*
X177501D01*
X178568D02*
X179634Y177901D01*
X180700D02*
X181767D01*
X181233D01*
Y181099D01*
X180700Y180566D01*
X183366D02*
X183899Y181099D01*
X184966D01*
X185499Y180566D01*
Y178434D01*
X184966Y177901D01*
X183899D01*
X183366Y178434D01*
Y180566D01*
X159599Y166834D02*
X156401D01*
Y168434D01*
X156934Y168967D01*
X158000D01*
X158533Y168434D01*
Y166834D01*
Y167901D02*
X159599Y168967D01*
X159066Y170033D02*
X159599Y170566D01*
Y171633D01*
X159066Y172166D01*
X156934D01*
X156401Y171633D01*
Y170566D01*
X156934Y170033D01*
X157467D01*
X158000Y170566D01*
Y172166D01*
X264834Y218401D02*
Y221600D01*
X266434D01*
X266967Y221066D01*
Y220000D01*
X266434Y219467D01*
X264834D01*
X265900D02*
X266967Y218401D01*
X268033Y221066D02*
X268566Y221600D01*
X269633D01*
X270166Y221066D01*
Y220533D01*
X269633Y220000D01*
X270166Y219467D01*
Y218934D01*
X269633Y218401D01*
X268566D01*
X268033Y218934D01*
Y219467D01*
X268566Y220000D01*
X268033Y220533D01*
Y221066D01*
X268566Y220000D02*
X269633D01*
X194099Y170265D02*
X190901D01*
Y168666D01*
X191434Y168133D01*
X193566D01*
X194099Y168666D01*
Y170265D01*
X193566Y164934D02*
X194099Y165467D01*
Y166533D01*
X193566Y167066D01*
X193033D01*
X192500Y166533D01*
Y165467D01*
X191967Y164934D01*
X191434D01*
X190901Y165467D01*
Y166533D01*
X191434Y167066D01*
X194099Y161735D02*
X193566Y162801D01*
X192500Y163867D01*
X191434D01*
X190901Y163334D01*
Y162268D01*
X191434Y161735D01*
X191967D01*
X192500Y162268D01*
Y163867D01*
X150900Y148235D02*
X154100D01*
Y149834D01*
X153566Y150367D01*
X151434D01*
X150900Y149834D01*
Y148235D01*
X151434Y153566D02*
X150900Y153033D01*
Y151967D01*
X151434Y151434D01*
X151967D01*
X152500Y151967D01*
Y153033D01*
X153033Y153566D01*
X153566D01*
X154100Y153033D01*
Y151967D01*
X153566Y151434D01*
X150900Y156765D02*
Y154633D01*
X152500D01*
X151967Y155699D01*
Y156232D01*
X152500Y156765D01*
X153566D01*
X154100Y156232D01*
Y155166D01*
X153566Y154633D01*
X285735Y221099D02*
Y217900D01*
X287334D01*
X287867Y218434D01*
Y220566D01*
X287334Y221099D01*
X285735D01*
X291066Y220566D02*
X290533Y221099D01*
X289467D01*
X288934Y220566D01*
Y220033D01*
X289467Y219500D01*
X290533D01*
X291066Y218967D01*
Y218434D01*
X290533Y217900D01*
X289467D01*
X288934Y218434D01*
X293732Y217900D02*
Y221099D01*
X292133Y219500D01*
X294265D01*
X344600Y315100D02*
Y318299D01*
X346199D01*
X346733Y317766D01*
Y316700D01*
X346199Y316166D01*
X344600D01*
X349398Y315100D02*
Y318299D01*
X347799Y316700D01*
X349932D01*
X263401Y129235D02*
X266599D01*
Y130834D01*
X266066Y131367D01*
X263934D01*
X263401Y130834D01*
Y129235D01*
X263934Y134566D02*
X263401Y134033D01*
Y132967D01*
X263934Y132434D01*
X264467D01*
X265000Y132967D01*
Y134033D01*
X265533Y134566D01*
X266066D01*
X266599Y134033D01*
Y132967D01*
X266066Y132434D01*
X263401Y135633D02*
Y137765D01*
X263934D01*
X266066Y135633D01*
X266599D01*
X257599Y130001D02*
X254400D01*
Y131601D01*
X254934Y132134D01*
X256000D01*
X256533Y131601D01*
Y130001D01*
Y131068D02*
X257599Y132134D01*
Y133200D02*
Y134267D01*
Y133733D01*
X254400D01*
X254934Y133200D01*
Y135866D02*
X254400Y136399D01*
Y137466D01*
X254934Y137999D01*
X255467D01*
X256000Y137466D01*
Y136932D01*
Y137466D01*
X256533Y137999D01*
X257066D01*
X257599Y137466D01*
Y136399D01*
X257066Y135866D01*
X282867Y122566D02*
X282334Y123100D01*
X281268D01*
X280735Y122566D01*
Y122033D01*
X281268Y121500D01*
X282334D01*
X282867Y120967D01*
Y120434D01*
X282334Y119901D01*
X281268D01*
X280735Y120434D01*
X286066Y123100D02*
X285000D01*
X285533D01*
Y120434D01*
X285000Y119901D01*
X284467D01*
X283934Y120434D01*
X289265Y119901D02*
X287133D01*
X289265Y122033D01*
Y122566D01*
X288732Y123100D01*
X287666D01*
X287133Y122566D01*
X304867Y123066D02*
X304334Y123600D01*
X303268D01*
X302735Y123066D01*
Y120934D01*
X303268Y120401D01*
X304334D01*
X304867Y120934D01*
X308066Y120401D02*
X305934D01*
X308066Y122533D01*
Y123066D01*
X307533Y123600D01*
X306467D01*
X305934Y123066D01*
X311265Y120401D02*
X309133D01*
X311265Y122533D01*
Y123066D01*
X310732Y123600D01*
X309666D01*
X309133Y123066D01*
X324400Y104066D02*
X323867Y104599D01*
X322801D01*
X322268Y104066D01*
Y101934D01*
X322801Y101400D01*
X323867D01*
X324400Y101934D01*
X327600Y101400D02*
X325467D01*
X327600Y103533D01*
Y104066D01*
X327066Y104599D01*
X326000D01*
X325467Y104066D01*
X328666Y101400D02*
X329732D01*
X329199D01*
Y104599D01*
X328666Y104066D01*
X257001Y117599D02*
X258068D01*
X257535D01*
Y114400D01*
X257001D01*
X258068D01*
X261800Y117066D02*
X261267Y117599D01*
X260200D01*
X259667Y117066D01*
Y114934D01*
X260200Y114400D01*
X261267D01*
X261800Y114934D01*
X264999Y114400D02*
X262866D01*
X264999Y116533D01*
Y117066D01*
X264465Y117599D01*
X263399D01*
X262866Y117066D01*
X250367Y108066D02*
X249834Y108599D01*
X248768D01*
X248235Y108066D01*
Y105934D01*
X248768Y105401D01*
X249834D01*
X250367Y105934D01*
X253566Y105401D02*
X251434D01*
X253566Y107533D01*
Y108066D01*
X253033Y108599D01*
X251967D01*
X251434Y108066D01*
X254633D02*
X255166Y108599D01*
X256232D01*
X256765Y108066D01*
Y105934D01*
X256232Y105401D01*
X255166D01*
X254633Y105934D01*
Y108066D01*
X349069Y152100D02*
Y149434D01*
X349602Y148900D01*
X350668D01*
X351202Y149434D01*
Y152100D01*
X354400Y151566D02*
X353867Y152100D01*
X352801D01*
X352268Y151566D01*
Y151033D01*
X352801Y150500D01*
X353867D01*
X354400Y149967D01*
Y149434D01*
X353867Y148900D01*
X352801D01*
X352268Y149434D01*
X355467Y152100D02*
Y148900D01*
X357066D01*
X357599Y149434D01*
Y149967D01*
X357066Y150500D01*
X355467D01*
X357066D01*
X357599Y151033D01*
Y151566D01*
X357066Y152100D01*
X355467D01*
X358666D02*
Y148900D01*
X360265D01*
X360799Y149434D01*
Y149967D01*
X360265Y150500D01*
X358666D01*
X360265D01*
X360799Y151033D01*
Y151566D01*
X360265Y152100D01*
X358666D01*
X361865Y148900D02*
X362931D01*
X362398D01*
Y152100D01*
X361865Y151566D01*
X353901Y67837D02*
X356566D01*
X357100Y68370D01*
Y69436D01*
X356566Y69969D01*
X353901D01*
X354434Y73168D02*
X353901Y72635D01*
Y71569D01*
X354434Y71036D01*
X354967D01*
X355500Y71569D01*
Y72635D01*
X356033Y73168D01*
X356566D01*
X357100Y72635D01*
Y71569D01*
X356566Y71036D01*
X353901Y74235D02*
X357100D01*
Y75834D01*
X356566Y76367D01*
X356033D01*
X355500Y75834D01*
Y74235D01*
Y75834D01*
X354967Y76367D01*
X354434D01*
X353901Y75834D01*
Y74235D01*
Y77434D02*
X357100D01*
Y79033D01*
X356566Y79566D01*
X356033D01*
X355500Y79033D01*
Y77434D01*
Y79033D01*
X354967Y79566D01*
X354434D01*
X353901Y79033D01*
Y77434D01*
Y82232D02*
Y81166D01*
X354434Y80633D01*
X356566D01*
X357100Y81166D01*
Y82232D01*
X356566Y82765D01*
X354434D01*
X353901Y82232D01*
Y85431D02*
Y84365D01*
X354434Y83832D01*
X356566D01*
X357100Y84365D01*
Y85431D01*
X356566Y85964D01*
X354434D01*
X353901Y85431D01*
Y87031D02*
Y89163D01*
Y88097D01*
X357100D01*
X255467Y166934D02*
Y169066D01*
X254934Y169599D01*
X253867D01*
X253334Y169066D01*
Y166934D01*
X253867Y166401D01*
X254934D01*
X254400Y167467D02*
X255467Y166401D01*
X254934D02*
X255467Y166934D01*
X258666Y166401D02*
X256533D01*
X258666Y168533D01*
Y169066D01*
X258133Y169599D01*
X257066D01*
X256533Y169066D01*
X272000Y153434D02*
Y155566D01*
X271467Y156099D01*
X270401D01*
X269867Y155566D01*
Y153434D01*
X270401Y152901D01*
X271467D01*
X270934Y153967D02*
X272000Y152901D01*
X271467D02*
X272000Y153434D01*
X273066Y152901D02*
X274133D01*
X273600D01*
Y156099D01*
X273066Y155566D01*
X319100Y235699D02*
Y233033D01*
X319633Y232500D01*
X320700D01*
X321233Y233033D01*
Y235699D01*
X324432Y235166D02*
X323899Y235699D01*
X322832D01*
X322299Y235166D01*
Y234633D01*
X322832Y234100D01*
X323899D01*
X324432Y233566D01*
Y233033D01*
X323899Y232500D01*
X322832D01*
X322299Y233033D01*
X325498Y235699D02*
Y232500D01*
X327097D01*
X327631Y233033D01*
Y233566D01*
X327097Y234100D01*
X325498D01*
X327097D01*
X327631Y234633D01*
Y235166D01*
X327097Y235699D01*
X325498D01*
X328697Y232500D02*
Y234633D01*
X329763Y235699D01*
X330830Y234633D01*
Y232500D01*
Y234100D01*
X328697D01*
X260001Y179901D02*
Y183099D01*
X261601D01*
X262134Y182566D01*
Y181500D01*
X261601Y180967D01*
X260001D01*
X261068D02*
X262134Y179901D01*
X263200D02*
X264267D01*
X263733D01*
Y183099D01*
X263200Y182566D01*
X267999Y179901D02*
X265866D01*
X267999Y182033D01*
Y182566D01*
X267465Y183099D01*
X266399D01*
X265866Y182566D01*
X277034Y172900D02*
Y176100D01*
X278634D01*
X279167Y175566D01*
Y174500D01*
X278634Y173967D01*
X277034D01*
X278101D02*
X279167Y172900D01*
X280233D02*
X281300D01*
X280767D01*
Y176100D01*
X280233Y175566D01*
X282899Y172900D02*
X283965D01*
X283432D01*
Y176100D01*
X282899Y175566D01*
X294467Y75434D02*
Y77566D01*
X293934Y78100D01*
X292867D01*
X292334Y77566D01*
Y75434D01*
X292867Y74901D01*
X293934D01*
X293401Y75967D02*
X294467Y74901D01*
X293934D02*
X294467Y75434D01*
X295533Y77566D02*
X296066Y78100D01*
X297133D01*
X297666Y77566D01*
Y77033D01*
X297133Y76500D01*
X296600D01*
X297133D01*
X297666Y75967D01*
Y75434D01*
X297133Y74901D01*
X296066D01*
X295533Y75434D01*
X282001Y99401D02*
Y102600D01*
X283601D01*
X284134Y102066D01*
Y101000D01*
X283601Y100467D01*
X282001D01*
X283068D02*
X284134Y99401D01*
X285200D02*
X286267D01*
X285733D01*
Y102600D01*
X285200Y102066D01*
X289465Y99401D02*
Y102600D01*
X287866Y101000D01*
X289999D01*
X305001Y93901D02*
Y97100D01*
X306601D01*
X307134Y96566D01*
Y95500D01*
X306601Y94967D01*
X305001D01*
X306068D02*
X307134Y93901D01*
X308200D02*
X309267D01*
X308733D01*
Y97100D01*
X308200Y96566D01*
X312999Y97100D02*
X310866D01*
Y95500D01*
X311932Y96033D01*
X312466D01*
X312999Y95500D01*
Y94434D01*
X312466Y93901D01*
X311399D01*
X310866Y94434D01*
X187768Y7100D02*
X186702D01*
X187235D01*
Y4434D01*
X186702Y3901D01*
X186168D01*
X185635Y4434D01*
X188834Y7100D02*
X190967D01*
X189901D01*
Y3901D01*
X192033D02*
Y6033D01*
X193099Y7100D01*
X194166Y6033D01*
Y3901D01*
Y5500D01*
X192033D01*
X197365Y6566D02*
X196832Y7100D01*
X195765D01*
X195232Y6566D01*
Y4434D01*
X195765Y3901D01*
X196832D01*
X197365Y4434D01*
Y5500D01*
X196299D01*
X86001Y155901D02*
Y159099D01*
X87601D01*
X88134Y158566D01*
Y157500D01*
X87601Y156967D01*
X86001D01*
X87068D02*
X88134Y155901D01*
X89200D02*
X90267D01*
X89733D01*
Y159099D01*
X89200Y158566D01*
X91866Y159099D02*
X93999D01*
Y158566D01*
X91866Y156434D01*
Y155901D01*
X98501Y152901D02*
Y156099D01*
X100101D01*
X100634Y155566D01*
Y154500D01*
X100101Y153967D01*
X98501D01*
X99568D02*
X100634Y152901D01*
X101700D02*
X102767D01*
X102233D01*
Y156099D01*
X101700Y155566D01*
X106499Y156099D02*
X105432Y155566D01*
X104366Y154500D01*
Y153434D01*
X104899Y152901D01*
X105966D01*
X106499Y153434D01*
Y153967D01*
X105966Y154500D01*
X104366D01*
X58967Y160934D02*
Y163066D01*
X58434Y163600D01*
X57367D01*
X56834Y163066D01*
Y160934D01*
X57367Y160400D01*
X58434D01*
X57901Y161467D02*
X58967Y160400D01*
X58434D02*
X58967Y160934D01*
X61633Y160400D02*
Y163600D01*
X60033Y162000D01*
X62166D01*
X65967Y151934D02*
Y154066D01*
X65434Y154599D01*
X64367D01*
X63834Y154066D01*
Y151934D01*
X64367Y151400D01*
X65434D01*
X64900Y152467D02*
X65967Y151400D01*
X65434D02*
X65967Y151934D01*
X69166Y154599D02*
X67033D01*
Y153000D01*
X68099Y153533D01*
X68633D01*
X69166Y153000D01*
Y151934D01*
X68633Y151400D01*
X67566D01*
X67033Y151934D01*
X900Y166499D02*
Y163300D01*
Y164900D01*
X3033D01*
Y166499D01*
Y163300D01*
X4099Y166499D02*
Y163300D01*
X5698D01*
X6232Y163833D01*
Y165966D01*
X5698Y166499D01*
X4099D01*
X7298Y163300D02*
Y166499D01*
X8364Y165433D01*
X9431Y166499D01*
Y163300D01*
X10497Y166499D02*
X11563D01*
X11030D01*
Y163300D01*
X10497D01*
X11563D01*
X13163D02*
Y166499D01*
X14762D01*
X15295Y165966D01*
Y164900D01*
X14762Y164366D01*
X13163D01*
X17961Y166499D02*
X16895D01*
X16362Y165966D01*
Y163833D01*
X16895Y163300D01*
X17961D01*
X18494Y163833D01*
Y165966D01*
X17961Y166499D01*
X19561Y163300D02*
Y166499D01*
X21160D01*
X21693Y165966D01*
Y164900D01*
X21160Y164366D01*
X19561D01*
X20627D02*
X21693Y163300D01*
X22760Y166499D02*
X24892D01*
X23826D01*
Y163300D01*
X43334Y177100D02*
Y174434D01*
X43867Y173900D01*
X44934D01*
X45467Y174434D01*
Y177100D01*
X48666D02*
X47600Y176566D01*
X46533Y175500D01*
Y174434D01*
X47066Y173900D01*
X48133D01*
X48666Y174434D01*
Y174967D01*
X48133Y175500D01*
X46533D01*
X73867Y169566D02*
X73334Y170099D01*
X72268D01*
X71735Y169566D01*
Y167434D01*
X72268Y166901D01*
X73334D01*
X73867Y167434D01*
X77066Y166901D02*
X74934D01*
X77066Y169033D01*
Y169566D01*
X76533Y170099D01*
X75467D01*
X74934Y169566D01*
X79732Y166901D02*
Y170099D01*
X78133Y168500D01*
X80265D01*
X70867Y177566D02*
X70334Y178100D01*
X69268D01*
X68735Y177566D01*
Y175434D01*
X69268Y174900D01*
X70334D01*
X70867Y175434D01*
X74066Y174900D02*
X71934D01*
X74066Y177033D01*
Y177566D01*
X73533Y178100D01*
X72467D01*
X71934Y177566D01*
X75133D02*
X75666Y178100D01*
X76732D01*
X77265Y177566D01*
Y177033D01*
X76732Y176500D01*
X76199D01*
X76732D01*
X77265Y175967D01*
Y175434D01*
X76732Y174900D01*
X75666D01*
X75133Y175434D01*
X73867Y188066D02*
X73334Y188600D01*
X72268D01*
X71735Y188066D01*
Y185934D01*
X72268Y185400D01*
X73334D01*
X73867Y185934D01*
X77066Y185400D02*
X74934D01*
X77066Y187533D01*
Y188066D01*
X76533Y188600D01*
X75467D01*
X74934Y188066D01*
X78133D02*
X78666Y188600D01*
X79732D01*
X80265Y188066D01*
Y187533D01*
X79732Y187000D01*
X80265Y186467D01*
Y185934D01*
X79732Y185400D01*
X78666D01*
X78133Y185934D01*
Y186467D01*
X78666Y187000D01*
X78133Y187533D01*
Y188066D01*
X78666Y187000D02*
X79732D01*
X110867Y190066D02*
X110334Y190600D01*
X109268D01*
X108735Y190066D01*
Y187934D01*
X109268Y187400D01*
X110334D01*
X110867Y187934D01*
X114066Y187400D02*
X111934D01*
X114066Y189533D01*
Y190066D01*
X113533Y190600D01*
X112467D01*
X111934Y190066D01*
X117265Y190600D02*
X116199Y190066D01*
X115133Y189000D01*
Y187934D01*
X115666Y187400D01*
X116732D01*
X117265Y187934D01*
Y188467D01*
X116732Y189000D01*
X115133D01*
X123367Y190066D02*
X122834Y190600D01*
X121768D01*
X121235Y190066D01*
Y187934D01*
X121768Y187400D01*
X122834D01*
X123367Y187934D01*
X126566Y187400D02*
X124434D01*
X126566Y189533D01*
Y190066D01*
X126033Y190600D01*
X124967D01*
X124434Y190066D01*
X129765Y190600D02*
X127633D01*
Y189000D01*
X128699Y189533D01*
X129232D01*
X129765Y189000D01*
Y187934D01*
X129232Y187400D01*
X128166D01*
X127633Y187934D01*
X214500Y353099D02*
X213434D01*
X213967D01*
Y350434D01*
X213434Y349901D01*
X212900D01*
X212367Y350434D01*
X215566Y349901D02*
X216633D01*
X216100D01*
Y353099D01*
X215566Y352566D01*
X263634Y69066D02*
X263101Y69599D01*
X262035D01*
X261501Y69066D01*
Y66934D01*
X262035Y66400D01*
X263101D01*
X263634Y66934D01*
X264700Y66400D02*
X265767D01*
X265233D01*
Y69599D01*
X264700Y69066D01*
X267366D02*
X267899Y69599D01*
X268966D01*
X269499Y69066D01*
Y68533D01*
X268966Y68000D01*
X269499Y67467D01*
Y66934D01*
X268966Y66400D01*
X267899D01*
X267366Y66934D01*
Y67467D01*
X267899Y68000D01*
X267366Y68533D01*
Y69066D01*
X267899Y68000D02*
X268966D01*
X264134Y75066D02*
X263601Y75599D01*
X262534D01*
X262001Y75066D01*
Y72934D01*
X262534Y72400D01*
X263601D01*
X264134Y72934D01*
X265200Y72400D02*
X266267D01*
X265733D01*
Y75599D01*
X265200Y75066D01*
X267866Y75599D02*
X269999D01*
Y75066D01*
X267866Y72934D01*
Y72400D01*
X264134Y81066D02*
X263601Y81599D01*
X262534D01*
X262001Y81066D01*
Y78934D01*
X262534Y78400D01*
X263601D01*
X264134Y78934D01*
X265200Y78400D02*
X266267D01*
X265733D01*
Y81599D01*
X265200Y81066D01*
X269999Y81599D02*
X268932Y81066D01*
X267866Y80000D01*
Y78934D01*
X268399Y78400D01*
X269465D01*
X269999Y78934D01*
Y79467D01*
X269465Y80000D01*
X267866D01*
X261634Y90566D02*
X261101Y91100D01*
X260034D01*
X259501Y90566D01*
Y88434D01*
X260034Y87901D01*
X261101D01*
X261634Y88434D01*
X262700Y87901D02*
X263767D01*
X263233D01*
Y91100D01*
X262700Y90566D01*
X267499Y91100D02*
X265366D01*
Y89500D01*
X266432Y90033D01*
X266966D01*
X267499Y89500D01*
Y88434D01*
X266966Y87901D01*
X265899D01*
X265366Y88434D01*
X194134Y267066D02*
X193601Y267600D01*
X192534D01*
X192001Y267066D01*
Y264934D01*
X192534Y264401D01*
X193601D01*
X194134Y264934D01*
X195200Y264401D02*
X196267D01*
X195733D01*
Y267600D01*
X195200Y267066D01*
X197866D02*
X198399Y267600D01*
X199466D01*
X199999Y267066D01*
Y266533D01*
X199466Y266000D01*
X198932D01*
X199466D01*
X199999Y265467D01*
Y264934D01*
X199466Y264401D01*
X198399D01*
X197866Y264934D01*
X174134Y65066D02*
X173601Y65600D01*
X172535D01*
X172001Y65066D01*
Y62934D01*
X172535Y62401D01*
X173601D01*
X174134Y62934D01*
X175200Y62401D02*
X176267D01*
X175733D01*
Y65600D01*
X175200Y65066D01*
X179999Y62401D02*
X177866D01*
X179999Y64533D01*
Y65066D01*
X179466Y65600D01*
X178399D01*
X177866Y65066D01*
X265529Y260066D02*
X264996Y260599D01*
X263930D01*
X263397Y260066D01*
Y257934D01*
X263930Y257400D01*
X264996D01*
X265529Y257934D01*
X266596Y257400D02*
X267662D01*
X267129D01*
Y260599D01*
X266596Y260066D01*
X269261Y257400D02*
X270328D01*
X269795D01*
Y260599D01*
X269261Y260066D01*
X266134Y249066D02*
X265601Y249600D01*
X264534D01*
X264001Y249066D01*
Y246934D01*
X264534Y246400D01*
X265601D01*
X266134Y246934D01*
X267200Y246400D02*
X268267D01*
X267733D01*
Y249600D01*
X267200Y249066D01*
X269866D02*
X270399Y249600D01*
X271465D01*
X271999Y249066D01*
Y246934D01*
X271465Y246400D01*
X270399D01*
X269866Y246934D01*
Y249066D01*
X263467Y50566D02*
X262934Y51099D01*
X261867D01*
X261334Y50566D01*
Y48434D01*
X261867Y47901D01*
X262934D01*
X263467Y48434D01*
X264533Y50566D02*
X265066Y51099D01*
X266133D01*
X266666Y50566D01*
Y50033D01*
X266133Y49500D01*
X266666Y48967D01*
Y48434D01*
X266133Y47901D01*
X265066D01*
X264533Y48434D01*
Y48967D01*
X265066Y49500D01*
X264533Y50033D01*
Y50566D01*
X265066Y49500D02*
X266133D01*
X178967Y54066D02*
X178434Y54599D01*
X177367D01*
X176834Y54066D01*
Y51934D01*
X177367Y51401D01*
X178434D01*
X178967Y51934D01*
X180033Y54599D02*
X182166D01*
Y54066D01*
X180033Y51934D01*
Y51401D01*
X270967Y56566D02*
X270434Y57099D01*
X269367D01*
X268834Y56566D01*
Y54434D01*
X269367Y53900D01*
X270434D01*
X270967Y54434D01*
X274166Y57099D02*
X273099Y56566D01*
X272033Y55500D01*
Y54434D01*
X272566Y53900D01*
X273633D01*
X274166Y54434D01*
Y54967D01*
X273633Y55500D01*
X272033D01*
X263967Y61566D02*
X263434Y62099D01*
X262367D01*
X261834Y61566D01*
Y59434D01*
X262367Y58900D01*
X263434D01*
X263967Y59434D01*
X267166Y62099D02*
X265033D01*
Y60500D01*
X266100Y61033D01*
X266633D01*
X267166Y60500D01*
Y59434D01*
X266633Y58900D01*
X265566D01*
X265033Y59434D01*
X143834Y101400D02*
Y104599D01*
X145434D01*
X145967Y104066D01*
Y103000D01*
X145434Y102467D01*
X143834D01*
X144901D02*
X145967Y101400D01*
X147033Y104599D02*
X149166D01*
Y104066D01*
X147033Y101934D01*
Y101400D01*
X176100Y287334D02*
X172900D01*
Y288934D01*
X173434Y289467D01*
X174500D01*
X175033Y288934D01*
Y287334D01*
Y288401D02*
X176100Y289467D01*
X172900Y292666D02*
X173434Y291599D01*
X174500Y290533D01*
X175566D01*
X176100Y291066D01*
Y292133D01*
X175566Y292666D01*
X175033D01*
X174500Y292133D01*
Y290533D01*
X184400Y315666D02*
X187600D01*
Y314066D01*
X187066Y313533D01*
X186000D01*
X185467Y314066D01*
Y315666D01*
Y314599D02*
X184400Y313533D01*
X187600Y310334D02*
Y312467D01*
X186000D01*
X186533Y311401D01*
Y310867D01*
X186000Y310334D01*
X184934D01*
X184400Y310867D01*
Y311934D01*
X184934Y312467D01*
X261834Y193401D02*
Y196599D01*
X263434D01*
X263967Y196066D01*
Y195000D01*
X263434Y194467D01*
X261834D01*
X262900D02*
X263967Y193401D01*
X266633D02*
Y196599D01*
X265033Y195000D01*
X267166D01*
X261334Y201901D02*
Y205100D01*
X262934D01*
X263467Y204566D01*
Y203500D01*
X262934Y202967D01*
X261334D01*
X262401D02*
X263467Y201901D01*
X264533Y204566D02*
X265066Y205100D01*
X266133D01*
X266666Y204566D01*
Y204033D01*
X266133Y203500D01*
X265599D01*
X266133D01*
X266666Y202967D01*
Y202434D01*
X266133Y201901D01*
X265066D01*
X264533Y202434D01*
X263334Y272400D02*
Y275600D01*
X264934D01*
X265467Y275066D01*
Y274000D01*
X264934Y273467D01*
X263334D01*
X264401D02*
X265467Y272400D01*
X268666D02*
X266533D01*
X268666Y274533D01*
Y275066D01*
X268133Y275600D01*
X267066D01*
X266533Y275066D01*
X257367Y281901D02*
Y285100D01*
X258967D01*
X259500Y284566D01*
Y283500D01*
X258967Y282967D01*
X257367D01*
X258434D02*
X259500Y281901D01*
X260566D02*
X261633D01*
X261100D01*
Y285100D01*
X260566Y284566D01*
X10467Y92599D02*
X9401D01*
X9934D01*
Y89934D01*
X9401Y89401D01*
X8867D01*
X8334Y89934D01*
X13666Y89401D02*
X11533D01*
X13666Y91533D01*
Y92066D01*
X13133Y92599D01*
X12066D01*
X11533Y92066D01*
X85233Y62199D02*
X83100D01*
Y60599D01*
X84166D01*
X83100D01*
Y59000D01*
X86299D02*
X87365D01*
X86832D01*
Y62199D01*
X86299Y61666D01*
X153668Y102901D02*
Y106099D01*
X155268D01*
X155801Y105566D01*
Y104500D01*
X155268Y103967D01*
X153668D01*
X156867Y106099D02*
Y102901D01*
X157934Y103967D01*
X159000Y102901D01*
Y106099D01*
X160066Y102901D02*
Y106099D01*
X161666D01*
X162199Y105566D01*
Y104500D01*
X161666Y103967D01*
X160066D01*
X161133D02*
X162199Y102901D01*
X163265D02*
X164332D01*
X163798D01*
Y106099D01*
X163265Y105566D01*
M02*
