G04*
G04 #@! TF.GenerationSoftware,Altium Limited,Altium Designer,20.0.11 (256)*
G04*
G04 Layer_Color=2752767*
%FSLAX25Y25*%
%MOIN*%
G70*
G01*
G75*
%ADD11C,0.00591*%
%ADD15C,0.00394*%
%ADD16C,0.01000*%
%ADD149C,0.00200*%
%ADD150C,0.00267*%
%ADD151C,0.00133*%
D11*
X64079Y371642D02*
Y368690D01*
X62603D01*
X62111Y369182D01*
Y370166D01*
X62603Y370658D01*
X64079D01*
X59159Y369182D02*
X59651Y368690D01*
X60635D01*
X61127Y369182D01*
Y371150D01*
X60635Y371642D01*
X59651D01*
X59159Y371150D01*
X58175Y368690D02*
Y371642D01*
X56699D01*
X56207Y371150D01*
Y370658D01*
X56699Y370166D01*
X58175D01*
X56699D01*
X56207Y369674D01*
Y369182D01*
X56699Y368690D01*
X58175D01*
X50304D02*
X52271D01*
Y371642D01*
X50304D01*
X52271Y370166D02*
X51288D01*
X47352Y368690D02*
Y371642D01*
X48828D01*
X49320Y371150D01*
Y370166D01*
X48828Y369674D01*
X47352D01*
X45384Y372626D02*
X44892D01*
X44400Y372134D01*
Y369674D01*
X45876D01*
X46368Y370166D01*
Y371150D01*
X45876Y371642D01*
X44400D01*
X41940D02*
X42924D01*
X43416Y371150D01*
Y370166D01*
X42924Y369674D01*
X41940D01*
X41448Y370166D01*
Y370658D01*
X43416D01*
X373185Y146132D02*
X370233D01*
Y147608D01*
X370725Y148100D01*
X371709D01*
X372201Y147608D01*
Y146132D01*
X370725Y151052D02*
X370233Y150560D01*
Y149576D01*
X370725Y149084D01*
X372693D01*
X373185Y149576D01*
Y150560D01*
X372693Y151052D01*
X370233Y152035D02*
X373185D01*
Y153511D01*
X372693Y154003D01*
X372201D01*
X371709Y153511D01*
Y152035D01*
Y153511D01*
X371217Y154003D01*
X370725D01*
X370233Y153511D01*
Y152035D01*
Y159907D02*
Y157939D01*
X373185D01*
Y159907D01*
X371709Y157939D02*
Y158923D01*
X370233Y162859D02*
X373185D01*
Y161383D01*
X372693Y160891D01*
X371709D01*
X371217Y161383D01*
Y162859D01*
X374169Y164827D02*
Y165319D01*
X373677Y165811D01*
X371217D01*
Y164335D01*
X371709Y163843D01*
X372693D01*
X373185Y164335D01*
Y165811D01*
Y168271D02*
Y167287D01*
X372693Y166795D01*
X371709D01*
X371217Y167287D01*
Y168271D01*
X371709Y168762D01*
X372201D01*
Y166795D01*
D15*
X57386Y372665D02*
X104236D01*
X374209Y105974D02*
Y152825D01*
D16*
X0Y22500D02*
X22Y21504D01*
X88Y20511D01*
X198Y19521D01*
X352Y18537D01*
X550Y17561D01*
X790Y16594D01*
X1073Y15639D01*
X1398Y14698D01*
X1764Y13772D01*
X2171Y12863D01*
X2618Y11973D01*
X3104Y11104D01*
X3628Y10257D01*
X4189Y9434D01*
X4786Y8636D01*
X5417Y7866D01*
X6083Y7125D01*
X6780Y6414D01*
X7508Y5735D01*
X8265Y5088D01*
X9051Y4476D01*
X9862Y3899D01*
X10699Y3358D01*
X11559Y2855D01*
X12440Y2391D01*
X13340Y1966D01*
X14259Y1582D01*
X15194Y1238D01*
X16143Y937D01*
X17105Y678D01*
X18077Y461D01*
X19058Y288D01*
X20045Y159D01*
X21037Y73D01*
X22032Y31D01*
X374587Y350080D02*
X374566Y351071D01*
X374502Y352060D01*
X374395Y353045D01*
X374247Y354025D01*
X374056Y354997D01*
X373823Y355960D01*
X373549Y356913D01*
X373234Y357852D01*
X372879Y358778D01*
X372485Y359687D01*
X372052Y360578D01*
X371581Y361450D01*
X371072Y362300D01*
X370528Y363128D01*
X369948Y363932D01*
X369335Y364710D01*
X368688Y365461D01*
X368010Y366183D01*
X367301Y366876D01*
X366563Y367537D01*
X365797Y368166D01*
X365005Y368761D01*
X364188Y369321D01*
X363347Y369846D01*
X362485Y370335D01*
X361602Y370785D01*
X360701Y371197D01*
X359783Y371570D01*
X358850Y371903D01*
X357903Y372196D01*
X356944Y372447D01*
X355976Y372657D01*
X354999Y372825D01*
X354016Y372951D01*
X353029Y373034D01*
X352039Y373075D01*
X350500Y31D02*
X351505Y52D01*
X352508Y116D01*
X353507Y221D01*
X354501Y368D01*
X355488Y556D01*
X356467Y786D01*
X357435Y1056D01*
X358390Y1367D01*
X359332Y1718D01*
X360259Y2107D01*
X361168Y2536D01*
X362058Y3002D01*
X362928Y3505D01*
X363777Y4044D01*
X364602Y4617D01*
X365402Y5226D01*
X366176Y5867D01*
X366922Y6539D01*
X367640Y7243D01*
X368327Y7976D01*
X368983Y8738D01*
X369607Y9526D01*
X370197Y10339D01*
X370752Y11177D01*
X371272Y12037D01*
X371756Y12918D01*
X372201Y13818D01*
X372609Y14737D01*
X372978Y15672D01*
X373308Y16621D01*
X373597Y17583D01*
X373846Y18557D01*
X374054Y19541D01*
X374220Y20532D01*
X374345Y21529D01*
X374428Y22530D01*
X374469Y23535D01*
X24002Y373080D02*
X23014Y373080D01*
X22028Y373039D01*
X21044Y372957D01*
X20064Y372833D01*
X19091Y372669D01*
X18125Y372464D01*
X17168Y372219D01*
X16223Y371934D01*
X15291Y371610D01*
X14372Y371247D01*
X13470Y370846D01*
X12586Y370408D01*
X11720Y369932D01*
X10875Y369422D01*
X10052Y368876D01*
X9253Y368296D01*
X8479Y367683D01*
X7731Y367038D01*
X7011Y366363D01*
X6320Y365658D01*
X5658Y364925D01*
X5029Y364165D01*
X4431Y363379D01*
X3867Y362569D01*
X3337Y361735D01*
X2843Y360881D01*
X2384Y360006D01*
X1963Y359113D01*
X1580Y358204D01*
X1235Y357278D01*
X929Y356340D01*
X662Y355389D01*
X436Y354428D01*
X250Y353458D01*
X104Y352482D01*
X0Y351500D01*
X24002Y373080D02*
X352039D01*
X374565Y23867D02*
Y33358D01*
X22032Y31D02*
X350500D01*
X374555Y33557D02*
X374555Y350138D01*
X0Y22500D02*
Y351500D01*
D149*
X69972Y365172D02*
Y366772D01*
X71572D01*
Y365172D01*
X69972D01*
X91428D02*
Y366772D01*
X93028D01*
Y365172D01*
X91428D01*
X166500Y349700D02*
X165700Y351300D01*
X167300D01*
X166500Y349700D01*
X156500D02*
X155700Y351300D01*
X157300D01*
X156500Y349700D01*
X146500D02*
X145700Y351300D01*
X147300D01*
X146500Y349700D01*
X176500D02*
X175700Y351300D01*
X177300D01*
X176500Y349700D01*
X186500D02*
X185700Y351300D01*
X187300D01*
X186500Y349700D01*
X196500D02*
X195700Y351300D01*
X197300D01*
X196500Y349700D01*
X93000Y311200D02*
X93400Y311600D01*
X93800D01*
X93400Y312000D01*
X93800Y312400D01*
X93400D01*
X93000Y312800D01*
X92600Y312400D01*
X92200D01*
X92600Y312000D01*
X92200Y311600D01*
X92600D01*
X93000Y311200D01*
X99000Y173700D02*
X99400Y174100D01*
X99800D01*
X99400Y174500D01*
X99800Y174900D01*
X99400D01*
X99000Y175300D01*
X98600Y174900D01*
X98200D01*
X98600Y174500D01*
X98200Y174100D01*
X98600D01*
X99000Y173700D01*
X121500Y150700D02*
X121900Y151100D01*
X122300D01*
X121900Y151500D01*
X122300Y151900D01*
X121900D01*
X121500Y152300D01*
X121100Y151900D01*
X120700D01*
X121100Y151500D01*
X120700Y151100D01*
X121100D01*
X121500Y150700D01*
X278000Y256200D02*
X278400Y256600D01*
X278800D01*
X278400Y257000D01*
X278800Y257400D01*
X278400D01*
X278000Y257800D01*
X277600Y257400D01*
X277200D01*
X277600Y257000D01*
X277200Y256600D01*
X277600D01*
X278000Y256200D01*
X17436Y41357D02*
X17836Y42158D01*
X17436Y42957D01*
X18236Y42557D01*
X19036Y42957D01*
X18636Y42158D01*
X19036Y41357D01*
X18236Y41758D01*
X17436Y41357D01*
Y61042D02*
X17836Y61843D01*
X17436Y62643D01*
X18236Y62243D01*
X19036Y62643D01*
X18636Y61843D01*
X19036Y61042D01*
X18236Y61443D01*
X17436Y61042D01*
X61000Y92700D02*
X61400Y93100D01*
X61800D01*
X61400Y93500D01*
X61800Y93900D01*
X61400D01*
X61000Y94300D01*
X60600Y93900D01*
X60200D01*
X60600Y93500D01*
X60200Y93100D01*
X60600D01*
X61000Y92700D01*
X277500Y65700D02*
X277900Y66100D01*
X278300D01*
X277900Y66500D01*
X278300Y66900D01*
X277900D01*
X277500Y67300D01*
X277100Y66900D01*
X276700D01*
X277100Y66500D01*
X276700Y66100D01*
X277100D01*
X277500Y65700D01*
X128000Y94200D02*
X128400Y94600D01*
X128800D01*
X128400Y95000D01*
X128800Y95400D01*
X128400D01*
X128000Y95800D01*
X127600Y95400D01*
X127200D01*
X127600Y95000D01*
X127200Y94600D01*
X127600D01*
X128000Y94200D01*
X321500Y150200D02*
X321900Y150600D01*
X322300D01*
X321900Y151000D01*
X322300Y151400D01*
X321900D01*
X321500Y151800D01*
X321100Y151400D01*
X320700D01*
X321100Y151000D01*
X320700Y150600D01*
X321100D01*
X321500Y150200D01*
X225608Y32667D02*
Y32267D01*
X226408D01*
Y32667D01*
X226808D01*
Y33467D01*
X226408D01*
Y33867D01*
X225608D01*
Y33467D01*
X225208D01*
Y32667D01*
X225608D01*
X225208Y333842D02*
X225608D01*
X226008Y334242D01*
X226408Y333842D01*
X226808D01*
Y334242D01*
X226408Y334642D01*
X226808Y335042D01*
Y335442D01*
X226408D01*
X226008Y335042D01*
X225608Y335442D01*
X225208D01*
Y335042D01*
X225608Y334642D01*
X225208Y334242D01*
Y333842D01*
X344700Y97000D02*
X345500Y97800D01*
X346300Y97000D01*
X345500Y96200D01*
X344700Y97000D01*
X354700D02*
X355500Y97800D01*
X356300Y97000D01*
X355500Y96200D01*
X354700Y97000D01*
X364700D02*
X365500Y97800D01*
X366300Y97000D01*
X365500Y96200D01*
X364700Y97000D01*
X87000Y90200D02*
X87400Y90600D01*
X87800D01*
X87400Y91000D01*
X87800Y91400D01*
X87400D01*
X87000Y91800D01*
X86600Y91400D01*
X86200D01*
X86600Y91000D01*
X86200Y90600D01*
X86600D01*
X87000Y90200D01*
X277000Y34700D02*
X277400Y35100D01*
X277800D01*
X277400Y35500D01*
X277800Y35900D01*
X277400D01*
X277000Y36300D01*
X276600Y35900D01*
X276200D01*
X276600Y35500D01*
X276200Y35100D01*
X276600D01*
X277000Y34700D01*
X331000Y78700D02*
X331400Y79100D01*
X331800D01*
X331400Y79500D01*
X331800Y79900D01*
X331400D01*
X331000Y80300D01*
X330600Y79900D01*
X330200D01*
X330600Y79500D01*
X330200Y79100D01*
X330600D01*
X331000Y78700D01*
X354500Y256200D02*
X353700Y257800D01*
X355300D01*
X354500Y256200D01*
Y266200D02*
X353700Y267800D01*
X355300D01*
X354500Y266200D01*
Y276200D02*
X353700Y277800D01*
X355300D01*
X354500Y276200D01*
Y306200D02*
X353700Y307800D01*
X355300D01*
X354500Y306200D01*
Y296200D02*
X353700Y297800D01*
X355300D01*
X354500Y296200D01*
Y286200D02*
X353700Y287800D01*
X355300D01*
X354500Y286200D01*
X366716Y138639D02*
Y140239D01*
X368316D01*
Y138639D01*
X366716D01*
Y117182D02*
Y118782D01*
X368316D01*
Y117182D01*
X366716D01*
X322117Y200137D02*
Y201737D01*
X323717D01*
Y200137D01*
X322117D01*
X322517Y200537D02*
Y201337D01*
X323317D01*
Y200537D01*
X322517D01*
X322117Y192263D02*
Y193863D01*
X323717D01*
Y192263D01*
X322117D01*
X322517Y192663D02*
Y193463D01*
X323317D01*
Y192663D01*
X322517D01*
X322117Y209980D02*
Y211579D01*
X323717D01*
Y209980D01*
X322117D01*
X322517Y210380D02*
Y211179D01*
X323317D01*
Y210380D01*
X322517D01*
X322117Y182421D02*
Y184020D01*
X323717D01*
Y182421D01*
X322117D01*
X322517Y182820D02*
Y183621D01*
X323317D01*
Y182820D01*
X322517D01*
X18693Y99657D02*
X17893Y101257D01*
X19493D01*
X18693Y99657D01*
Y100057D02*
X18293Y100857D01*
X19093D01*
X18693Y100057D01*
Y156743D02*
X17893Y158343D01*
X19493D01*
X18693Y156743D01*
Y157143D02*
X18293Y157943D01*
X19093D01*
X18693Y157143D01*
X42315Y99657D02*
X42715Y100057D01*
X43115D01*
X42715Y100457D01*
X43115Y100857D01*
X42715D01*
X42315Y101257D01*
X41915Y100857D01*
X41515D01*
X41915Y100457D01*
X41515Y100057D01*
X41915D01*
X42315Y99657D01*
Y100057D02*
X42515Y100257D01*
X42715D01*
X42515Y100457D01*
X42715Y100657D01*
X42515D01*
X42315Y100857D01*
X42115Y100657D01*
X41915D01*
X42115Y100457D01*
X41915Y100257D01*
X42115D01*
X42315Y100057D01*
Y156743D02*
X42715Y157143D01*
X43115D01*
X42715Y157543D01*
X43115Y157943D01*
X42715D01*
X42315Y158343D01*
X41915Y157943D01*
X41515D01*
X41915Y157543D01*
X41515Y157143D01*
X41915D01*
X42315Y156743D01*
Y157143D02*
X42515Y157343D01*
X42715D01*
X42515Y157543D01*
X42715Y157743D01*
X42515D01*
X42315Y157943D01*
X42115Y157743D01*
X41915D01*
X42115Y157543D01*
X41915Y157343D01*
X42115D01*
X42315Y157143D01*
X101200Y103200D02*
X101600Y104000D01*
X101200Y104800D01*
X102000Y104400D01*
X102800Y104800D01*
X102400Y104000D01*
X102800Y103200D01*
X102000Y103600D01*
X101200Y103200D01*
X101600Y103600D02*
X101800Y104000D01*
X101600Y104400D01*
X102000Y104200D01*
X102400Y104400D01*
X102200Y104000D01*
X102400Y103600D01*
X102000Y103800D01*
X101600Y103600D01*
X79700Y103700D02*
X80100Y104500D01*
X79700Y105300D01*
X80500Y104900D01*
X81300Y105300D01*
X80900Y104500D01*
X81300Y103700D01*
X80500Y104100D01*
X79700Y103700D01*
X80100Y104100D02*
X80300Y104500D01*
X80100Y104900D01*
X80500Y104700D01*
X80900Y104900D01*
X80700Y104500D01*
X80900Y104100D01*
X80500Y104300D01*
X80100Y104100D01*
X87200Y108700D02*
X87600Y109500D01*
X87200Y110300D01*
X88000Y109900D01*
X88800Y110300D01*
X88400Y109500D01*
X88800Y108700D01*
X88000Y109100D01*
X87200Y108700D01*
X87600Y109100D02*
X87800Y109500D01*
X87600Y109900D01*
X88000Y109700D01*
X88400Y109900D01*
X88200Y109500D01*
X88400Y109100D01*
X88000Y109300D01*
X87600Y109100D01*
X53200Y159700D02*
X53600Y160500D01*
X53200Y161300D01*
X54000Y160900D01*
X54800Y161300D01*
X54400Y160500D01*
X54800Y159700D01*
X54000Y160100D01*
X53200Y159700D01*
X53600Y160100D02*
X53800Y160500D01*
X53600Y160900D01*
X54000Y160700D01*
X54400Y160900D01*
X54200Y160500D01*
X54400Y160100D01*
X54000Y160300D01*
X53600Y160100D01*
X65196Y142200D02*
X65596Y143000D01*
X65196Y143800D01*
X65996Y143400D01*
X66796Y143800D01*
X66396Y143000D01*
X66796Y142200D01*
X65996Y142600D01*
X65196Y142200D01*
X65596Y142600D02*
X65796Y143000D01*
X65596Y143400D01*
X65996Y143200D01*
X66396Y143400D01*
X66196Y143000D01*
X66396Y142600D01*
X65996Y142800D01*
X65596Y142600D01*
X64200Y146700D02*
X64600Y147500D01*
X64200Y148300D01*
X65000Y147900D01*
X65800Y148300D01*
X65400Y147500D01*
X65800Y146700D01*
X65000Y147100D01*
X64200Y146700D01*
X64600Y147100D02*
X64800Y147500D01*
X64600Y147900D01*
X65000Y147700D01*
X65400Y147900D01*
X65200Y147500D01*
X65400Y147100D01*
X65000Y147300D01*
X64600Y147100D01*
X63100Y138100D02*
X63500Y138900D01*
X63100Y139700D01*
X63900Y139300D01*
X64700Y139700D01*
X64300Y138900D01*
X64700Y138100D01*
X63900Y138500D01*
X63100Y138100D01*
X63500Y138500D02*
X63700Y138900D01*
X63500Y139300D01*
X63900Y139100D01*
X64300Y139300D01*
X64100Y138900D01*
X64300Y138500D01*
X63900Y138700D01*
X63500Y138500D01*
X85200Y135700D02*
X85600Y136500D01*
X85200Y137300D01*
X86000Y136900D01*
X86800Y137300D01*
X86400Y136500D01*
X86800Y135700D01*
X86000Y136100D01*
X85200Y135700D01*
X85600Y136100D02*
X85800Y136500D01*
X85600Y136900D01*
X86000Y136700D01*
X86400Y136900D01*
X86200Y136500D01*
X86400Y136100D01*
X86000Y136300D01*
X85600Y136100D01*
X275200Y166700D02*
X275600Y167500D01*
X275200Y168300D01*
X276000Y167900D01*
X276800Y168300D01*
X276400Y167500D01*
X276800Y166700D01*
X276000Y167100D01*
X275200Y166700D01*
X275600Y167100D02*
X275800Y167500D01*
X275600Y167900D01*
X276000Y167700D01*
X276400Y167900D01*
X276200Y167500D01*
X276400Y167100D01*
X276000Y167300D01*
X275600Y167100D01*
X317700Y270700D02*
X318100Y271500D01*
X317700Y272300D01*
X318500Y271900D01*
X319300Y272300D01*
X318900Y271500D01*
X319300Y270700D01*
X318500Y271100D01*
X317700Y270700D01*
X318100Y271100D02*
X318300Y271500D01*
X318100Y271900D01*
X318500Y271700D01*
X318900Y271900D01*
X318700Y271500D01*
X318900Y271100D01*
X318500Y271300D01*
X318100Y271100D01*
X317700Y282200D02*
X318100Y283000D01*
X317700Y283800D01*
X318500Y283400D01*
X319300Y283800D01*
X318900Y283000D01*
X319300Y282200D01*
X318500Y282600D01*
X317700Y282200D01*
X318100Y282600D02*
X318300Y283000D01*
X318100Y283400D01*
X318500Y283200D01*
X318900Y283400D01*
X318700Y283000D01*
X318900Y282600D01*
X318500Y282800D01*
X318100Y282600D01*
X322700Y276700D02*
X323100Y277500D01*
X322700Y278300D01*
X323500Y277900D01*
X324300Y278300D01*
X323900Y277500D01*
X324300Y276700D01*
X323500Y277100D01*
X322700Y276700D01*
X323100Y277100D02*
X323300Y277500D01*
X323100Y277900D01*
X323500Y277700D01*
X323900Y277900D01*
X323700Y277500D01*
X323900Y277100D01*
X323500Y277300D01*
X323100Y277100D01*
X322700Y281700D02*
X323100Y282500D01*
X322700Y283300D01*
X323500Y282900D01*
X324300Y283300D01*
X323900Y282500D01*
X324300Y281700D01*
X323500Y282100D01*
X322700Y281700D01*
X323100Y282100D02*
X323300Y282500D01*
X323100Y282900D01*
X323500Y282700D01*
X323900Y282900D01*
X323700Y282500D01*
X323900Y282100D01*
X323500Y282300D01*
X323100Y282100D01*
X92200Y336700D02*
X92600Y337500D01*
X92200Y338300D01*
X93000Y337900D01*
X93800Y338300D01*
X93400Y337500D01*
X93800Y336700D01*
X93000Y337100D01*
X92200Y336700D01*
X92600Y337100D02*
X92800Y337500D01*
X92600Y337900D01*
X93000Y337700D01*
X93400Y337900D01*
X93200Y337500D01*
X93400Y337100D01*
X93000Y337300D01*
X92600Y337100D01*
X186600Y10100D02*
Y9700D01*
X187400D01*
Y10100D01*
X187800D01*
Y10900D01*
X187400D01*
Y11300D01*
X186600D01*
Y10900D01*
X186200D01*
Y10100D01*
X186600D01*
X186800Y10300D02*
Y10100D01*
X187200D01*
Y10300D01*
X187400D01*
Y10700D01*
X187200D01*
Y10900D01*
X186800D01*
Y10700D01*
X186600D01*
Y10300D01*
X186800D01*
X135600Y9600D02*
Y9200D01*
X136400D01*
Y9600D01*
X136800D01*
Y10400D01*
X136400D01*
Y10800D01*
X135600D01*
Y10400D01*
X135200D01*
Y9600D01*
X135600D01*
X135800Y9800D02*
Y9600D01*
X136200D01*
Y9800D01*
X136400D01*
Y10200D01*
X136200D01*
Y10400D01*
X135800D01*
Y10200D01*
X135600D01*
Y9800D01*
X135800D01*
X86200Y142700D02*
X86600Y143500D01*
X86200Y144300D01*
X87000Y143900D01*
X87800Y144300D01*
X87400Y143500D01*
X87800Y142700D01*
X87000Y143100D01*
X86200Y142700D01*
X86600Y143100D02*
X86800Y143500D01*
X86600Y143900D01*
X87000Y143700D01*
X87400Y143900D01*
X87200Y143500D01*
X87400Y143100D01*
X87000Y143300D01*
X86600Y143100D01*
X258200Y59700D02*
X258600Y60500D01*
X258200Y61300D01*
X259000Y60900D01*
X259800Y61300D01*
X259400Y60500D01*
X259800Y59700D01*
X259000Y60100D01*
X258200Y59700D01*
X258600Y60100D02*
X258800Y60500D01*
X258600Y60900D01*
X259000Y60700D01*
X259400Y60900D01*
X259200Y60500D01*
X259400Y60100D01*
X259000Y60300D01*
X258600Y60100D01*
X305700Y145200D02*
X306100Y146000D01*
X305700Y146800D01*
X306500Y146400D01*
X307300Y146800D01*
X306900Y146000D01*
X307300Y145200D01*
X306500Y145600D01*
X305700Y145200D01*
X306100Y145600D02*
X306300Y146000D01*
X306100Y146400D01*
X306500Y146200D01*
X306900Y146400D01*
X306700Y146000D01*
X306900Y145600D01*
X306500Y145800D01*
X306100Y145600D01*
X305700Y162200D02*
X306100Y163000D01*
X305700Y163800D01*
X306500Y163400D01*
X307300Y163800D01*
X306900Y163000D01*
X307300Y162200D01*
X306500Y162600D01*
X305700Y162200D01*
X306100Y162600D02*
X306300Y163000D01*
X306100Y163400D01*
X306500Y163200D01*
X306900Y163400D01*
X306700Y163000D01*
X306900Y162600D01*
X306500Y162800D01*
X306100Y162600D01*
X326700Y141200D02*
X327100Y142000D01*
X326700Y142800D01*
X327500Y142400D01*
X328300Y142800D01*
X327900Y142000D01*
X328300Y141200D01*
X327500Y141600D01*
X326700Y141200D01*
X327100Y141600D02*
X327300Y142000D01*
X327100Y142400D01*
X327500Y142200D01*
X327900Y142400D01*
X327700Y142000D01*
X327900Y141600D01*
X327500Y141800D01*
X327100Y141600D01*
X204700Y103200D02*
X205100Y104000D01*
X204700Y104800D01*
X205500Y104400D01*
X206300Y104800D01*
X205900Y104000D01*
X206300Y103200D01*
X205500Y103600D01*
X204700Y103200D01*
X205100Y103600D02*
X205300Y104000D01*
X205100Y104400D01*
X205500Y104200D01*
X205900Y104400D01*
X205700Y104000D01*
X205900Y103600D01*
X205500Y103800D01*
X205100Y103600D01*
X73700Y246700D02*
X74100Y247500D01*
X73700Y248300D01*
X74500Y247900D01*
X75300Y248300D01*
X74900Y247500D01*
X75300Y246700D01*
X74500Y247100D01*
X73700Y246700D01*
X74100Y247100D02*
X74300Y247500D01*
X74100Y247900D01*
X74500Y247700D01*
X74900Y247900D01*
X74700Y247500D01*
X74900Y247100D01*
X74500Y247300D01*
X74100Y247100D01*
X83200Y204700D02*
X83600Y205500D01*
X83200Y206300D01*
X84000Y205900D01*
X84800Y206300D01*
X84400Y205500D01*
X84800Y204700D01*
X84000Y205100D01*
X83200Y204700D01*
X83600Y205100D02*
X83800Y205500D01*
X83600Y205900D01*
X84000Y205700D01*
X84400Y205900D01*
X84200Y205500D01*
X84400Y205100D01*
X84000Y205300D01*
X83600Y205100D01*
X135700Y200700D02*
X136100Y201500D01*
X135700Y202300D01*
X136500Y201900D01*
X137300Y202300D01*
X136900Y201500D01*
X137300Y200700D01*
X136500Y201100D01*
X135700Y200700D01*
X136100Y201100D02*
X136300Y201500D01*
X136100Y201900D01*
X136500Y201700D01*
X136900Y201900D01*
X136700Y201500D01*
X136900Y201100D01*
X136500Y201300D01*
X136100Y201100D01*
X104921Y182113D02*
X105321Y182913D01*
X104921Y183713D01*
X105721Y183313D01*
X106521Y183713D01*
X106121Y182913D01*
X106521Y182113D01*
X105721Y182513D01*
X104921Y182113D01*
X105321Y182513D02*
X105521Y182913D01*
X105321Y183313D01*
X105721Y183113D01*
X106121Y183313D01*
X105921Y182913D01*
X106121Y182513D01*
X105721Y182713D01*
X105321Y182513D01*
X25100Y207100D02*
Y206700D01*
X25900D01*
Y207100D01*
X26300D01*
Y207900D01*
X25900D01*
Y208300D01*
X25100D01*
Y207900D01*
X24700D01*
Y207100D01*
X25100D01*
X25300Y207300D02*
Y207100D01*
X25700D01*
Y207300D01*
X25900D01*
Y207700D01*
X25700D01*
Y207900D01*
X25300D01*
Y207700D01*
X25100D01*
Y207300D01*
X25300D01*
X65700Y284700D02*
X66100Y285500D01*
X65700Y286300D01*
X66500Y285900D01*
X67300Y286300D01*
X66900Y285500D01*
X67300Y284700D01*
X66500Y285100D01*
X65700Y284700D01*
X66100Y285100D02*
X66300Y285500D01*
X66100Y285900D01*
X66500Y285700D01*
X66900Y285900D01*
X66700Y285500D01*
X66900Y285100D01*
X66500Y285300D01*
X66100Y285100D01*
X219700Y80700D02*
X220100Y81500D01*
X219700Y82300D01*
X220500Y81900D01*
X221300Y82300D01*
X220900Y81500D01*
X221300Y80700D01*
X220500Y81100D01*
X219700Y80700D01*
X220100Y81100D02*
X220300Y81500D01*
X220100Y81900D01*
X220500Y81700D01*
X220900Y81900D01*
X220700Y81500D01*
X220900Y81100D01*
X220500Y81300D01*
X220100Y81100D01*
X225700Y76200D02*
X226100Y77000D01*
X225700Y77800D01*
X226500Y77400D01*
X227300Y77800D01*
X226900Y77000D01*
X227300Y76200D01*
X226500Y76600D01*
X225700Y76200D01*
X226100Y76600D02*
X226300Y77000D01*
X226100Y77400D01*
X226500Y77200D01*
X226900Y77400D01*
X226700Y77000D01*
X226900Y76600D01*
X226500Y76800D01*
X226100Y76600D01*
X97200Y186200D02*
X97600Y187000D01*
X97200Y187800D01*
X98000Y187400D01*
X98800Y187800D01*
X98400Y187000D01*
X98800Y186200D01*
X98000Y186600D01*
X97200Y186200D01*
X97600Y186600D02*
X97800Y187000D01*
X97600Y187400D01*
X98000Y187200D01*
X98400Y187400D01*
X98200Y187000D01*
X98400Y186600D01*
X98000Y186800D01*
X97600Y186600D01*
X105700Y159700D02*
X106100Y160500D01*
X105700Y161300D01*
X106500Y160900D01*
X107300Y161300D01*
X106900Y160500D01*
X107300Y159700D01*
X106500Y160100D01*
X105700Y159700D01*
X106100Y160100D02*
X106300Y160500D01*
X106100Y160900D01*
X106500Y160700D01*
X106900Y160900D01*
X106700Y160500D01*
X106900Y160100D01*
X106500Y160300D01*
X106100Y160100D01*
X84200Y171200D02*
X84600Y172000D01*
X84200Y172800D01*
X85000Y172400D01*
X85800Y172800D01*
X85400Y172000D01*
X85800Y171200D01*
X85000Y171600D01*
X84200Y171200D01*
X84600Y171600D02*
X84800Y172000D01*
X84600Y172400D01*
X85000Y172200D01*
X85400Y172400D01*
X85200Y172000D01*
X85400Y171600D01*
X85000Y171800D01*
X84600Y171600D01*
X163700Y231700D02*
X164100Y232500D01*
X163700Y233300D01*
X164500Y232900D01*
X165300Y233300D01*
X164900Y232500D01*
X165300Y231700D01*
X164500Y232100D01*
X163700Y231700D01*
X164100Y232100D02*
X164300Y232500D01*
X164100Y232900D01*
X164500Y232700D01*
X164900Y232900D01*
X164700Y232500D01*
X164900Y232100D01*
X164500Y232300D01*
X164100Y232100D01*
X141700Y250200D02*
X142100Y251000D01*
X141700Y251800D01*
X142500Y251400D01*
X143300Y251800D01*
X142900Y251000D01*
X143300Y250200D01*
X142500Y250600D01*
X141700Y250200D01*
X142100Y250600D02*
X142300Y251000D01*
X142100Y251400D01*
X142500Y251200D01*
X142900Y251400D01*
X142700Y251000D01*
X142900Y250600D01*
X142500Y250800D01*
X142100Y250600D01*
X154700Y283200D02*
X155100Y284000D01*
X154700Y284800D01*
X155500Y284400D01*
X156300Y284800D01*
X155900Y284000D01*
X156300Y283200D01*
X155500Y283600D01*
X154700Y283200D01*
X155100Y283600D02*
X155300Y284000D01*
X155100Y284400D01*
X155500Y284200D01*
X155900Y284400D01*
X155700Y284000D01*
X155900Y283600D01*
X155500Y283800D01*
X155100Y283600D01*
X116200Y287700D02*
X116600Y288500D01*
X116200Y289300D01*
X117000Y288900D01*
X117800Y289300D01*
X117400Y288500D01*
X117800Y287700D01*
X117000Y288100D01*
X116200Y287700D01*
X116600Y288100D02*
X116800Y288500D01*
X116600Y288900D01*
X117000Y288700D01*
X117400Y288900D01*
X117200Y288500D01*
X117400Y288100D01*
X117000Y288300D01*
X116600Y288100D01*
X94700Y287200D02*
X95100Y288000D01*
X94700Y288800D01*
X95500Y288400D01*
X96300Y288800D01*
X95900Y288000D01*
X96300Y287200D01*
X95500Y287600D01*
X94700Y287200D01*
X95100Y287600D02*
X95300Y288000D01*
X95100Y288400D01*
X95500Y288200D01*
X95900Y288400D01*
X95700Y288000D01*
X95900Y287600D01*
X95500Y287800D01*
X95100Y287600D01*
X75200Y206200D02*
X75600Y207000D01*
X75200Y207800D01*
X76000Y207400D01*
X76800Y207800D01*
X76400Y207000D01*
X76800Y206200D01*
X76000Y206600D01*
X75200Y206200D01*
X75600Y206600D02*
X75800Y207000D01*
X75600Y207400D01*
X76000Y207200D01*
X76400Y207400D01*
X76200Y207000D01*
X76400Y206600D01*
X76000Y206800D01*
X75600Y206600D01*
X73700Y226700D02*
X74100Y227500D01*
X73700Y228300D01*
X74500Y227900D01*
X75300Y228300D01*
X74900Y227500D01*
X75300Y226700D01*
X74500Y227100D01*
X73700Y226700D01*
X74100Y227100D02*
X74300Y227500D01*
X74100Y227900D01*
X74500Y227700D01*
X74900Y227900D01*
X74700Y227500D01*
X74900Y227100D01*
X74500Y227300D01*
X74100Y227100D01*
X141700Y212700D02*
X142100Y213500D01*
X141700Y214300D01*
X142500Y213900D01*
X143300Y214300D01*
X142900Y213500D01*
X143300Y212700D01*
X142500Y213100D01*
X141700Y212700D01*
X142100Y213100D02*
X142300Y213500D01*
X142100Y213900D01*
X142500Y213700D01*
X142900Y213900D01*
X142700Y213500D01*
X142900Y213100D01*
X142500Y213300D01*
X142100Y213100D01*
X160700Y182200D02*
X161100Y183000D01*
X160700Y183800D01*
X161500Y183400D01*
X162300Y183800D01*
X161900Y183000D01*
X162300Y182200D01*
X161500Y182600D01*
X160700Y182200D01*
X161100Y182600D02*
X161300Y183000D01*
X161100Y183400D01*
X161500Y183200D01*
X161900Y183400D01*
X161700Y183000D01*
X161900Y182600D01*
X161500Y182800D01*
X161100Y182600D01*
X142700Y200700D02*
X143100Y201500D01*
X142700Y202300D01*
X143500Y201900D01*
X144300Y202300D01*
X143900Y201500D01*
X144300Y200700D01*
X143500Y201100D01*
X142700Y200700D01*
X143100Y201100D02*
X143300Y201500D01*
X143100Y201900D01*
X143500Y201700D01*
X143900Y201900D01*
X143700Y201500D01*
X143900Y201100D01*
X143500Y201300D01*
X143100Y201100D01*
X12600Y307600D02*
Y307200D01*
X13400D01*
Y307600D01*
X13800D01*
Y308400D01*
X13400D01*
Y308800D01*
X12600D01*
Y308400D01*
X12200D01*
Y307600D01*
X12600D01*
X12800Y307800D02*
Y307600D01*
X13200D01*
Y307800D01*
X13400D01*
Y308200D01*
X13200D01*
Y308400D01*
X12800D01*
Y308200D01*
X12600D01*
Y307800D01*
X12800D01*
X132700Y22200D02*
X133100Y23000D01*
X132700Y23800D01*
X133500Y23400D01*
X134300Y23800D01*
X133900Y23000D01*
X134300Y22200D01*
X133500Y22600D01*
X132700Y22200D01*
X133100Y22600D02*
X133300Y23000D01*
X133100Y23400D01*
X133500Y23200D01*
X133900Y23400D01*
X133700Y23000D01*
X133900Y22600D01*
X133500Y22800D01*
X133100Y22600D01*
X121700Y62200D02*
X122100Y63000D01*
X121700Y63800D01*
X122500Y63400D01*
X123300Y63800D01*
X122900Y63000D01*
X123300Y62200D01*
X122500Y62600D01*
X121700Y62200D01*
X122100Y62600D02*
X122300Y63000D01*
X122100Y63400D01*
X122500Y63200D01*
X122900Y63400D01*
X122700Y63000D01*
X122900Y62600D01*
X122500Y62800D01*
X122100Y62600D01*
X75700Y346700D02*
X76100Y347500D01*
X75700Y348300D01*
X76500Y347900D01*
X77300Y348300D01*
X76900Y347500D01*
X77300Y346700D01*
X76500Y347100D01*
X75700Y346700D01*
X76100Y347100D02*
X76300Y347500D01*
X76100Y347900D01*
X76500Y347700D01*
X76900Y347900D01*
X76700Y347500D01*
X76900Y347100D01*
X76500Y347300D01*
X76100Y347100D01*
X51600Y359100D02*
Y358700D01*
X52400D01*
Y359100D01*
X52800D01*
Y359900D01*
X52400D01*
Y360300D01*
X51600D01*
Y359900D01*
X51200D01*
Y359100D01*
X51600D01*
X51800Y359300D02*
Y359100D01*
X52200D01*
Y359300D01*
X52400D01*
Y359700D01*
X52200D01*
Y359900D01*
X51800D01*
Y359700D01*
X51600D01*
Y359300D01*
X51800D01*
X69600Y13600D02*
Y13200D01*
X70400D01*
Y13600D01*
X70800D01*
Y14400D01*
X70400D01*
Y14800D01*
X69600D01*
Y14400D01*
X69200D01*
Y13600D01*
X69600D01*
X69800Y13800D02*
Y13600D01*
X70200D01*
Y13800D01*
X70400D01*
Y14200D01*
X70200D01*
Y14400D01*
X69800D01*
Y14200D01*
X69600D01*
Y13800D01*
X69800D01*
X130100Y14100D02*
Y13700D01*
X130900D01*
Y14100D01*
X131300D01*
Y14900D01*
X130900D01*
Y15300D01*
X130100D01*
Y14900D01*
X129700D01*
Y14100D01*
X130100D01*
X130300Y14300D02*
Y14100D01*
X130700D01*
Y14300D01*
X130900D01*
Y14700D01*
X130700D01*
Y14900D01*
X130300D01*
Y14700D01*
X130100D01*
Y14300D01*
X130300D01*
X61700Y28700D02*
X62100Y29500D01*
X61700Y30300D01*
X62500Y29900D01*
X63300Y30300D01*
X62900Y29500D01*
X63300Y28700D01*
X62500Y29100D01*
X61700Y28700D01*
X62100Y29100D02*
X62300Y29500D01*
X62100Y29900D01*
X62500Y29700D01*
X62900Y29900D01*
X62700Y29500D01*
X62900Y29100D01*
X62500Y29300D01*
X62100Y29100D01*
X84703Y35432D02*
X85103Y36232D01*
X84703Y37032D01*
X85503Y36632D01*
X86303Y37032D01*
X85903Y36232D01*
X86303Y35432D01*
X85503Y35832D01*
X84703Y35432D01*
X85103Y35832D02*
X85303Y36232D01*
X85103Y36632D01*
X85503Y36432D01*
X85903Y36632D01*
X85703Y36232D01*
X85903Y35832D01*
X85503Y36032D01*
X85103Y35832D01*
X97200Y23200D02*
X97600Y24000D01*
X97200Y24800D01*
X98000Y24400D01*
X98800Y24800D01*
X98400Y24000D01*
X98800Y23200D01*
X98000Y23600D01*
X97200Y23200D01*
X97600Y23600D02*
X97800Y24000D01*
X97600Y24400D01*
X98000Y24200D01*
X98400Y24400D01*
X98200Y24000D01*
X98400Y23600D01*
X98000Y23800D01*
X97600Y23600D01*
X127700Y36200D02*
X128100Y37000D01*
X127700Y37800D01*
X128500Y37400D01*
X129300Y37800D01*
X128900Y37000D01*
X129300Y36200D01*
X128500Y36600D01*
X127700Y36200D01*
X128100Y36600D02*
X128300Y37000D01*
X128100Y37400D01*
X128500Y37200D01*
X128900Y37400D01*
X128700Y37000D01*
X128900Y36600D01*
X128500Y36800D01*
X128100Y36600D01*
X125200Y42700D02*
X125600Y43500D01*
X125200Y44300D01*
X126000Y43900D01*
X126800Y44300D01*
X126400Y43500D01*
X126800Y42700D01*
X126000Y43100D01*
X125200Y42700D01*
X125600Y43100D02*
X125800Y43500D01*
X125600Y43900D01*
X126000Y43700D01*
X126400Y43900D01*
X126200Y43500D01*
X126400Y43100D01*
X126000Y43300D01*
X125600Y43100D01*
X134700Y42200D02*
X135100Y43000D01*
X134700Y43800D01*
X135500Y43400D01*
X136300Y43800D01*
X135900Y43000D01*
X136300Y42200D01*
X135500Y42600D01*
X134700Y42200D01*
X135100Y42600D02*
X135300Y43000D01*
X135100Y43400D01*
X135500Y43200D01*
X135900Y43400D01*
X135700Y43000D01*
X135900Y42600D01*
X135500Y42800D01*
X135100Y42600D01*
X130200Y65700D02*
X130600Y66500D01*
X130200Y67300D01*
X131000Y66900D01*
X131800Y67300D01*
X131400Y66500D01*
X131800Y65700D01*
X131000Y66100D01*
X130200Y65700D01*
X130600Y66100D02*
X130800Y66500D01*
X130600Y66900D01*
X131000Y66700D01*
X131400Y66900D01*
X131200Y66500D01*
X131400Y66100D01*
X131000Y66300D01*
X130600Y66100D01*
X118325Y83239D02*
X118725Y84039D01*
X118325Y84839D01*
X119125Y84439D01*
X119925Y84839D01*
X119525Y84039D01*
X119925Y83239D01*
X119125Y83639D01*
X118325Y83239D01*
X118725Y83639D02*
X118925Y84039D01*
X118725Y84439D01*
X119125Y84239D01*
X119525Y84439D01*
X119325Y84039D01*
X119525Y83639D01*
X119125Y83839D01*
X118725Y83639D01*
X108700Y89200D02*
X109100Y90000D01*
X108700Y90800D01*
X109500Y90400D01*
X110300Y90800D01*
X109900Y90000D01*
X110300Y89200D01*
X109500Y89600D01*
X108700Y89200D01*
X109100Y89600D02*
X109300Y90000D01*
X109100Y90400D01*
X109500Y90200D01*
X109900Y90400D01*
X109700Y90000D01*
X109900Y89600D01*
X109500Y89800D01*
X109100Y89600D01*
X123700Y292200D02*
X124100Y293000D01*
X123700Y293800D01*
X124500Y293400D01*
X125300Y293800D01*
X124900Y293000D01*
X125300Y292200D01*
X124500Y292600D01*
X123700Y292200D01*
X124100Y292600D02*
X124300Y293000D01*
X124100Y293400D01*
X124500Y293200D01*
X124900Y293400D01*
X124700Y293000D01*
X124900Y292600D01*
X124500Y292800D01*
X124100Y292600D01*
X102200Y291700D02*
X102600Y292500D01*
X102200Y293300D01*
X103000Y292900D01*
X103800Y293300D01*
X103400Y292500D01*
X103800Y291700D01*
X103000Y292100D01*
X102200Y291700D01*
X102600Y292100D02*
X102800Y292500D01*
X102600Y292900D01*
X103000Y292700D01*
X103400Y292900D01*
X103200Y292500D01*
X103400Y292100D01*
X103000Y292300D01*
X102600Y292100D01*
X58200Y253200D02*
X58600Y254000D01*
X58200Y254800D01*
X59000Y254400D01*
X59800Y254800D01*
X59400Y254000D01*
X59800Y253200D01*
X59000Y253600D01*
X58200Y253200D01*
X58600Y253600D02*
X58800Y254000D01*
X58600Y254400D01*
X59000Y254200D01*
X59400Y254400D01*
X59200Y254000D01*
X59400Y253600D01*
X59000Y253800D01*
X58600Y253600D01*
X58700Y234200D02*
X59100Y235000D01*
X58700Y235800D01*
X59500Y235400D01*
X60300Y235800D01*
X59900Y235000D01*
X60300Y234200D01*
X59500Y234600D01*
X58700Y234200D01*
X59100Y234600D02*
X59300Y235000D01*
X59100Y235400D01*
X59500Y235200D01*
X59900Y235400D01*
X59700Y235000D01*
X59900Y234600D01*
X59500Y234800D01*
X59100Y234600D01*
X55200Y205200D02*
X55600Y206000D01*
X55200Y206800D01*
X56000Y206400D01*
X56800Y206800D01*
X56400Y206000D01*
X56800Y205200D01*
X56000Y205600D01*
X55200Y205200D01*
X55600Y205600D02*
X55800Y206000D01*
X55600Y206400D01*
X56000Y206200D01*
X56400Y206400D01*
X56200Y206000D01*
X56400Y205600D01*
X56000Y205800D01*
X55600Y205600D01*
X113200Y156700D02*
X113600Y157500D01*
X113200Y158300D01*
X114000Y157900D01*
X114800Y158300D01*
X114400Y157500D01*
X114800Y156700D01*
X114000Y157100D01*
X113200Y156700D01*
X113600Y157100D02*
X113800Y157500D01*
X113600Y157900D01*
X114000Y157700D01*
X114400Y157900D01*
X114200Y157500D01*
X114400Y157100D01*
X114000Y157300D01*
X113600Y157100D01*
X83200Y179700D02*
X83600Y180500D01*
X83200Y181300D01*
X84000Y180900D01*
X84800Y181300D01*
X84400Y180500D01*
X84800Y179700D01*
X84000Y180100D01*
X83200Y179700D01*
X83600Y180100D02*
X83800Y180500D01*
X83600Y180900D01*
X84000Y180700D01*
X84400Y180900D01*
X84200Y180500D01*
X84400Y180100D01*
X84000Y180300D01*
X83600Y180100D01*
X111200Y180200D02*
X111600Y181000D01*
X111200Y181800D01*
X112000Y181400D01*
X112800Y181800D01*
X112400Y181000D01*
X112800Y180200D01*
X112000Y180600D01*
X111200Y180200D01*
X111600Y180600D02*
X111800Y181000D01*
X111600Y181400D01*
X112000Y181200D01*
X112400Y181400D01*
X112200Y181000D01*
X112400Y180600D01*
X112000Y180800D01*
X111600Y180600D01*
X138200Y176700D02*
X138600Y177500D01*
X138200Y178300D01*
X139000Y177900D01*
X139800Y178300D01*
X139400Y177500D01*
X139800Y176700D01*
X139000Y177100D01*
X138200Y176700D01*
X138600Y177100D02*
X138800Y177500D01*
X138600Y177900D01*
X139000Y177700D01*
X139400Y177900D01*
X139200Y177500D01*
X139400Y177100D01*
X139000Y177300D01*
X138600Y177100D01*
X149200Y187700D02*
X149600Y188500D01*
X149200Y189300D01*
X150000Y188900D01*
X150800Y189300D01*
X150400Y188500D01*
X150800Y187700D01*
X150000Y188100D01*
X149200Y187700D01*
X149600Y188100D02*
X149800Y188500D01*
X149600Y188900D01*
X150000Y188700D01*
X150400Y188900D01*
X150200Y188500D01*
X150400Y188100D01*
X150000Y188300D01*
X149600Y188100D01*
X161200Y228200D02*
X161600Y229000D01*
X161200Y229800D01*
X162000Y229400D01*
X162800Y229800D01*
X162400Y229000D01*
X162800Y228200D01*
X162000Y228600D01*
X161200Y228200D01*
X161600Y228600D02*
X161800Y229000D01*
X161600Y229400D01*
X162000Y229200D01*
X162400Y229400D01*
X162200Y229000D01*
X162400Y228600D01*
X162000Y228800D01*
X161600Y228600D01*
X168700Y249700D02*
X169100Y250500D01*
X168700Y251300D01*
X169500Y250900D01*
X170300Y251300D01*
X169900Y250500D01*
X170300Y249700D01*
X169500Y250100D01*
X168700Y249700D01*
X169100Y250100D02*
X169300Y250500D01*
X169100Y250900D01*
X169500Y250700D01*
X169900Y250900D01*
X169700Y250500D01*
X169900Y250100D01*
X169500Y250300D01*
X169100Y250100D01*
X157200Y278200D02*
X157600Y279000D01*
X157200Y279800D01*
X158000Y279400D01*
X158800Y279800D01*
X158400Y279000D01*
X158800Y278200D01*
X158000Y278600D01*
X157200Y278200D01*
X157600Y278600D02*
X157800Y279000D01*
X157600Y279400D01*
X158000Y279200D01*
X158400Y279400D01*
X158200Y279000D01*
X158400Y278600D01*
X158000Y278800D01*
X157600Y278600D01*
X149700Y285700D02*
X150100Y286500D01*
X149700Y287300D01*
X150500Y286900D01*
X151300Y287300D01*
X150900Y286500D01*
X151300Y285700D01*
X150500Y286100D01*
X149700Y285700D01*
X150100Y286100D02*
X150300Y286500D01*
X150100Y286900D01*
X150500Y286700D01*
X150900Y286900D01*
X150700Y286500D01*
X150900Y286100D01*
X150500Y286300D01*
X150100Y286100D01*
X72200Y290200D02*
X72600Y291000D01*
X72200Y291800D01*
X73000Y291400D01*
X73800Y291800D01*
X73400Y291000D01*
X73800Y290200D01*
X73000Y290600D01*
X72200Y290200D01*
X72600Y290600D02*
X72800Y291000D01*
X72600Y291400D01*
X73000Y291200D01*
X73400Y291400D01*
X73200Y291000D01*
X73400Y290600D01*
X73000Y290800D01*
X72600Y290600D01*
X77200Y297700D02*
X77600Y298500D01*
X77200Y299300D01*
X78000Y298900D01*
X78800Y299300D01*
X78400Y298500D01*
X78800Y297700D01*
X78000Y298100D01*
X77200Y297700D01*
X77600Y298100D02*
X77800Y298500D01*
X77600Y298900D01*
X78000Y298700D01*
X78400Y298900D01*
X78200Y298500D01*
X78400Y298100D01*
X78000Y298300D01*
X77600Y298100D01*
X67700Y327200D02*
X68100Y328000D01*
X67700Y328800D01*
X68500Y328400D01*
X69300Y328800D01*
X68900Y328000D01*
X69300Y327200D01*
X68500Y327600D01*
X67700Y327200D01*
X68100Y327600D02*
X68300Y328000D01*
X68100Y328400D01*
X68500Y328200D01*
X68900Y328400D01*
X68700Y328000D01*
X68900Y327600D01*
X68500Y327800D01*
X68100Y327600D01*
X68700Y333700D02*
X69100Y334500D01*
X68700Y335300D01*
X69500Y334900D01*
X70300Y335300D01*
X69900Y334500D01*
X70300Y333700D01*
X69500Y334100D01*
X68700Y333700D01*
X69100Y334100D02*
X69300Y334500D01*
X69100Y334900D01*
X69500Y334700D01*
X69900Y334900D01*
X69700Y334500D01*
X69900Y334100D01*
X69500Y334300D01*
X69100Y334100D01*
X96700Y327200D02*
X97100Y328000D01*
X96700Y328800D01*
X97500Y328400D01*
X98300Y328800D01*
X97900Y328000D01*
X98300Y327200D01*
X97500Y327600D01*
X96700Y327200D01*
X97100Y327600D02*
X97300Y328000D01*
X97100Y328400D01*
X97500Y328200D01*
X97900Y328400D01*
X97700Y328000D01*
X97900Y327600D01*
X97500Y327800D01*
X97100Y327600D01*
X126700Y330200D02*
X127100Y331000D01*
X126700Y331800D01*
X127500Y331400D01*
X128300Y331800D01*
X127900Y331000D01*
X128300Y330200D01*
X127500Y330600D01*
X126700Y330200D01*
X127100Y330600D02*
X127300Y331000D01*
X127100Y331400D01*
X127500Y331200D01*
X127900Y331400D01*
X127700Y331000D01*
X127900Y330600D01*
X127500Y330800D01*
X127100Y330600D01*
X112200Y330200D02*
X112600Y331000D01*
X112200Y331800D01*
X113000Y331400D01*
X113800Y331800D01*
X113400Y331000D01*
X113800Y330200D01*
X113000Y330600D01*
X112200Y330200D01*
X112600Y330600D02*
X112800Y331000D01*
X112600Y331400D01*
X113000Y331200D01*
X113400Y331400D01*
X113200Y331000D01*
X113400Y330600D01*
X113000Y330800D01*
X112600Y330600D01*
X119200Y314200D02*
X119600Y315000D01*
X119200Y315800D01*
X120000Y315400D01*
X120800Y315800D01*
X120400Y315000D01*
X120800Y314200D01*
X120000Y314600D01*
X119200Y314200D01*
X119600Y314600D02*
X119800Y315000D01*
X119600Y315400D01*
X120000Y315200D01*
X120400Y315400D01*
X120200Y315000D01*
X120400Y314600D01*
X120000Y314800D01*
X119600Y314600D01*
X131200Y175700D02*
X131600Y176500D01*
X131200Y177300D01*
X132000Y176900D01*
X132800Y177300D01*
X132400Y176500D01*
X132800Y175700D01*
X132000Y176100D01*
X131200Y175700D01*
X131600Y176100D02*
X131800Y176500D01*
X131600Y176900D01*
X132000Y176700D01*
X132400Y176900D01*
X132200Y176500D01*
X132400Y176100D01*
X132000Y176300D01*
X131600Y176100D01*
X158700Y91700D02*
X159100Y92500D01*
X158700Y93300D01*
X159500Y92900D01*
X160300Y93300D01*
X159900Y92500D01*
X160300Y91700D01*
X159500Y92100D01*
X158700Y91700D01*
X159100Y92100D02*
X159300Y92500D01*
X159100Y92900D01*
X159500Y92700D01*
X159900Y92900D01*
X159700Y92500D01*
X159900Y92100D01*
X159500Y92300D01*
X159100Y92100D01*
X105100Y17100D02*
Y16700D01*
X105900D01*
Y17100D01*
X106300D01*
Y17900D01*
X105900D01*
Y18300D01*
X105100D01*
Y17900D01*
X104700D01*
Y17100D01*
X105100D01*
X105300Y17300D02*
Y17100D01*
X105700D01*
Y17300D01*
X105900D01*
Y17700D01*
X105700D01*
Y17900D01*
X105300D01*
Y17700D01*
X105100D01*
Y17300D01*
X105300D01*
X76600Y38100D02*
Y37700D01*
X77400D01*
Y38100D01*
X77800D01*
Y38900D01*
X77400D01*
Y39300D01*
X76600D01*
Y38900D01*
X76200D01*
Y38100D01*
X76600D01*
X76800Y38300D02*
Y38100D01*
X77200D01*
Y38300D01*
X77400D01*
Y38700D01*
X77200D01*
Y38900D01*
X76800D01*
Y38700D01*
X76600D01*
Y38300D01*
X76800D01*
X137700Y222700D02*
X138100Y223500D01*
X137700Y224300D01*
X138500Y223900D01*
X139300Y224300D01*
X138900Y223500D01*
X139300Y222700D01*
X138500Y223100D01*
X137700Y222700D01*
X138100Y223100D02*
X138300Y223500D01*
X138100Y223900D01*
X138500Y223700D01*
X138900Y223900D01*
X138700Y223500D01*
X138900Y223100D01*
X138500Y223300D01*
X138100Y223100D01*
X131700Y291700D02*
X132100Y292500D01*
X131700Y293300D01*
X132500Y292900D01*
X133300Y293300D01*
X132900Y292500D01*
X133300Y291700D01*
X132500Y292100D01*
X131700Y291700D01*
X132100Y292100D02*
X132300Y292500D01*
X132100Y292900D01*
X132500Y292700D01*
X132900Y292900D01*
X132700Y292500D01*
X132900Y292100D01*
X132500Y292300D01*
X132100Y292100D01*
X109200Y291200D02*
X109600Y292000D01*
X109200Y292800D01*
X110000Y292400D01*
X110800Y292800D01*
X110400Y292000D01*
X110800Y291200D01*
X110000Y291600D01*
X109200Y291200D01*
X109600Y291600D02*
X109800Y292000D01*
X109600Y292400D01*
X110000Y292200D01*
X110400Y292400D01*
X110200Y292000D01*
X110400Y291600D01*
X110000Y291800D01*
X109600Y291600D01*
X109200Y265700D02*
X109600Y266500D01*
X109200Y267300D01*
X110000Y266900D01*
X110800Y267300D01*
X110400Y266500D01*
X110800Y265700D01*
X110000Y266100D01*
X109200Y265700D01*
X109600Y266100D02*
X109800Y266500D01*
X109600Y266900D01*
X110000Y266700D01*
X110400Y266900D01*
X110200Y266500D01*
X110400Y266100D01*
X110000Y266300D01*
X109600Y266100D01*
X120519Y206543D02*
X120919Y207343D01*
X120519Y208143D01*
X121319Y207743D01*
X122119Y208143D01*
X121719Y207343D01*
X122119Y206543D01*
X121319Y206943D01*
X120519Y206543D01*
X120919Y206943D02*
X121119Y207343D01*
X120919Y207743D01*
X121319Y207543D01*
X121719Y207743D01*
X121519Y207343D01*
X121719Y206943D01*
X121319Y207143D01*
X120919Y206943D01*
X51700Y271700D02*
X52100Y272500D01*
X51700Y273300D01*
X52500Y272900D01*
X53300Y273300D01*
X52900Y272500D01*
X53300Y271700D01*
X52500Y272100D01*
X51700Y271700D01*
X52100Y272100D02*
X52300Y272500D01*
X52100Y272900D01*
X52500Y272700D01*
X52900Y272900D01*
X52700Y272500D01*
X52900Y272100D01*
X52500Y272300D01*
X52100Y272100D01*
X79200Y250200D02*
X79600Y251000D01*
X79200Y251800D01*
X80000Y251400D01*
X80800Y251800D01*
X80400Y251000D01*
X80800Y250200D01*
X80000Y250600D01*
X79200Y250200D01*
X79600Y250600D02*
X79800Y251000D01*
X79600Y251400D01*
X80000Y251200D01*
X80400Y251400D01*
X80200Y251000D01*
X80400Y250600D01*
X80000Y250800D01*
X79600Y250600D01*
X48200Y231700D02*
X48600Y232500D01*
X48200Y233300D01*
X49000Y232900D01*
X49800Y233300D01*
X49400Y232500D01*
X49800Y231700D01*
X49000Y232100D01*
X48200Y231700D01*
X48600Y232100D02*
X48800Y232500D01*
X48600Y232900D01*
X49000Y232700D01*
X49400Y232900D01*
X49200Y232500D01*
X49400Y232100D01*
X49000Y232300D01*
X48600Y232100D01*
X54700Y238200D02*
X55100Y239000D01*
X54700Y239800D01*
X55500Y239400D01*
X56300Y239800D01*
X55900Y239000D01*
X56300Y238200D01*
X55500Y238600D01*
X54700Y238200D01*
X55100Y238600D02*
X55300Y239000D01*
X55100Y239400D01*
X55500Y239200D01*
X55900Y239400D01*
X55700Y239000D01*
X55900Y238600D01*
X55500Y238800D01*
X55100Y238600D01*
X44200Y257200D02*
X44600Y258000D01*
X44200Y258800D01*
X45000Y258400D01*
X45800Y258800D01*
X45400Y258000D01*
X45800Y257200D01*
X45000Y257600D01*
X44200Y257200D01*
X44600Y257600D02*
X44800Y258000D01*
X44600Y258400D01*
X45000Y258200D01*
X45400Y258400D01*
X45200Y258000D01*
X45400Y257600D01*
X45000Y257800D01*
X44600Y257600D01*
X101700Y302200D02*
X102100Y303000D01*
X101700Y303800D01*
X102500Y303400D01*
X103300Y303800D01*
X102900Y303000D01*
X103300Y302200D01*
X102500Y302600D01*
X101700Y302200D01*
X102100Y302600D02*
X102300Y303000D01*
X102100Y303400D01*
X102500Y303200D01*
X102900Y303400D01*
X102700Y303000D01*
X102900Y302600D01*
X102500Y302800D01*
X102100Y302600D01*
X93752Y298534D02*
X94152Y299334D01*
X93752Y300134D01*
X94552Y299734D01*
X95352Y300134D01*
X94952Y299334D01*
X95352Y298534D01*
X94552Y298934D01*
X93752Y298534D01*
X94152Y298934D02*
X94352Y299334D01*
X94152Y299734D01*
X94552Y299534D01*
X94952Y299734D01*
X94752Y299334D01*
X94952Y298934D01*
X94552Y299134D01*
X94152Y298934D01*
X169700Y302200D02*
X170100Y303000D01*
X169700Y303800D01*
X170500Y303400D01*
X171300Y303800D01*
X170900Y303000D01*
X171300Y302200D01*
X170500Y302600D01*
X169700Y302200D01*
X170100Y302600D02*
X170300Y303000D01*
X170100Y303400D01*
X170500Y303200D01*
X170900Y303400D01*
X170700Y303000D01*
X170900Y302600D01*
X170500Y302800D01*
X170100Y302600D01*
X169700Y306200D02*
X170100Y307000D01*
X169700Y307800D01*
X170500Y307400D01*
X171300Y307800D01*
X170900Y307000D01*
X171300Y306200D01*
X170500Y306600D01*
X169700Y306200D01*
X170100Y306600D02*
X170300Y307000D01*
X170100Y307400D01*
X170500Y307200D01*
X170900Y307400D01*
X170700Y307000D01*
X170900Y306600D01*
X170500Y306800D01*
X170100Y306600D01*
X179200Y293700D02*
X179600Y294500D01*
X179200Y295300D01*
X180000Y294900D01*
X180800Y295300D01*
X180400Y294500D01*
X180800Y293700D01*
X180000Y294100D01*
X179200Y293700D01*
X179600Y294100D02*
X179800Y294500D01*
X179600Y294900D01*
X180000Y294700D01*
X180400Y294900D01*
X180200Y294500D01*
X180400Y294100D01*
X180000Y294300D01*
X179600Y294100D01*
X179075Y315554D02*
X179475Y316354D01*
X179075Y317154D01*
X179875Y316754D01*
X180675Y317154D01*
X180275Y316354D01*
X180675Y315554D01*
X179875Y315954D01*
X179075Y315554D01*
X179475Y315954D02*
X179675Y316354D01*
X179475Y316754D01*
X179875Y316554D01*
X180275Y316754D01*
X180075Y316354D01*
X180275Y315954D01*
X179875Y316154D01*
X179475Y315954D01*
X203700Y208700D02*
X204100Y209500D01*
X203700Y210300D01*
X204500Y209900D01*
X205300Y210300D01*
X204900Y209500D01*
X205300Y208700D01*
X204500Y209100D01*
X203700Y208700D01*
X204100Y209100D02*
X204300Y209500D01*
X204100Y209900D01*
X204500Y209700D01*
X204900Y209900D01*
X204700Y209500D01*
X204900Y209100D01*
X204500Y209300D01*
X204100Y209100D01*
X130200Y201200D02*
X130600Y202000D01*
X130200Y202800D01*
X131000Y202400D01*
X131800Y202800D01*
X131400Y202000D01*
X131800Y201200D01*
X131000Y201600D01*
X130200Y201200D01*
X130600Y201600D02*
X130800Y202000D01*
X130600Y202400D01*
X131000Y202200D01*
X131400Y202400D01*
X131200Y202000D01*
X131400Y201600D01*
X131000Y201800D01*
X130600Y201600D01*
X128200Y204700D02*
X128600Y205500D01*
X128200Y206300D01*
X129000Y205900D01*
X129800Y206300D01*
X129400Y205500D01*
X129800Y204700D01*
X129000Y205100D01*
X128200Y204700D01*
X128600Y205100D02*
X128800Y205500D01*
X128600Y205900D01*
X129000Y205700D01*
X129400Y205900D01*
X129200Y205500D01*
X129400Y205100D01*
X129000Y205300D01*
X128600Y205100D01*
X124700Y207200D02*
X125100Y208000D01*
X124700Y208800D01*
X125500Y208400D01*
X126300Y208800D01*
X125900Y208000D01*
X126300Y207200D01*
X125500Y207600D01*
X124700Y207200D01*
X125100Y207600D02*
X125300Y208000D01*
X125100Y208400D01*
X125500Y208200D01*
X125900Y208400D01*
X125700Y208000D01*
X125900Y207600D01*
X125500Y207800D01*
X125100Y207600D01*
X196700Y211200D02*
X197100Y212000D01*
X196700Y212800D01*
X197500Y212400D01*
X198300Y212800D01*
X197900Y212000D01*
X198300Y211200D01*
X197500Y211600D01*
X196700Y211200D01*
X197100Y211600D02*
X197300Y212000D01*
X197100Y212400D01*
X197500Y212200D01*
X197900Y212400D01*
X197700Y212000D01*
X197900Y211600D01*
X197500Y211800D01*
X197100Y211600D01*
X182700Y239200D02*
X183100Y240000D01*
X182700Y240800D01*
X183500Y240400D01*
X184300Y240800D01*
X183900Y240000D01*
X184300Y239200D01*
X183500Y239600D01*
X182700Y239200D01*
X183100Y239600D02*
X183300Y240000D01*
X183100Y240400D01*
X183500Y240200D01*
X183900Y240400D01*
X183700Y240000D01*
X183900Y239600D01*
X183500Y239800D01*
X183100Y239600D01*
X165700Y238700D02*
X166100Y239500D01*
X165700Y240300D01*
X166500Y239900D01*
X167300Y240300D01*
X166900Y239500D01*
X167300Y238700D01*
X166500Y239100D01*
X165700Y238700D01*
X166100Y239100D02*
X166300Y239500D01*
X166100Y239900D01*
X166500Y239700D01*
X166900Y239900D01*
X166700Y239500D01*
X166900Y239100D01*
X166500Y239300D01*
X166100Y239100D01*
X159335Y237565D02*
X159735Y238365D01*
X159335Y239165D01*
X160135Y238765D01*
X160935Y239165D01*
X160535Y238365D01*
X160935Y237565D01*
X160135Y237965D01*
X159335Y237565D01*
X159735Y237965D02*
X159935Y238365D01*
X159735Y238765D01*
X160135Y238565D01*
X160535Y238765D01*
X160335Y238365D01*
X160535Y237965D01*
X160135Y238165D01*
X159735Y237965D01*
X165825Y206315D02*
X166225Y207115D01*
X165825Y207915D01*
X166625Y207515D01*
X167425Y207915D01*
X167025Y207115D01*
X167425Y206315D01*
X166625Y206715D01*
X165825Y206315D01*
X166225Y206715D02*
X166425Y207115D01*
X166225Y207515D01*
X166625Y207315D01*
X167025Y207515D01*
X166825Y207115D01*
X167025Y206715D01*
X166625Y206915D01*
X166225Y206715D01*
X181200Y211700D02*
X181600Y212500D01*
X181200Y213300D01*
X182000Y212900D01*
X182800Y213300D01*
X182400Y212500D01*
X182800Y211700D01*
X182000Y212100D01*
X181200Y211700D01*
X181600Y212100D02*
X181800Y212500D01*
X181600Y212900D01*
X182000Y212700D01*
X182400Y212900D01*
X182200Y212500D01*
X182400Y212100D01*
X182000Y212300D01*
X181600Y212100D01*
X201700Y214200D02*
X202100Y215000D01*
X201700Y215800D01*
X202500Y215400D01*
X203300Y215800D01*
X202900Y215000D01*
X203300Y214200D01*
X202500Y214600D01*
X201700Y214200D01*
X202100Y214600D02*
X202300Y215000D01*
X202100Y215400D01*
X202500Y215200D01*
X202900Y215400D01*
X202700Y215000D01*
X202900Y214600D01*
X202500Y214800D01*
X202100Y214600D01*
X193700Y223700D02*
X194100Y224500D01*
X193700Y225300D01*
X194500Y224900D01*
X195300Y225300D01*
X194900Y224500D01*
X195300Y223700D01*
X194500Y224100D01*
X193700Y223700D01*
X194100Y224100D02*
X194300Y224500D01*
X194100Y224900D01*
X194500Y224700D01*
X194900Y224900D01*
X194700Y224500D01*
X194900Y224100D01*
X194500Y224300D01*
X194100Y224100D01*
X316700Y112700D02*
X317100Y113500D01*
X316700Y114300D01*
X317500Y113900D01*
X318300Y114300D01*
X317900Y113500D01*
X318300Y112700D01*
X317500Y113100D01*
X316700Y112700D01*
X317100Y113100D02*
X317300Y113500D01*
X317100Y113900D01*
X317500Y113700D01*
X317900Y113900D01*
X317700Y113500D01*
X317900Y113100D01*
X317500Y113300D01*
X317100Y113100D01*
X326700Y111388D02*
X327100Y112188D01*
X326700Y112988D01*
X327500Y112588D01*
X328300Y112988D01*
X327900Y112188D01*
X328300Y111388D01*
X327500Y111788D01*
X326700Y111388D01*
X327100Y111788D02*
X327300Y112188D01*
X327100Y112588D01*
X327500Y112388D01*
X327900Y112588D01*
X327700Y112188D01*
X327900Y111788D01*
X327500Y111988D01*
X327100Y111788D01*
X336700Y111388D02*
X337100Y112188D01*
X336700Y112988D01*
X337500Y112588D01*
X338300Y112988D01*
X337900Y112188D01*
X338300Y111388D01*
X337500Y111788D01*
X336700Y111388D01*
X337100Y111788D02*
X337300Y112188D01*
X337100Y112588D01*
X337500Y112388D01*
X337900Y112588D01*
X337700Y112188D01*
X337900Y111788D01*
X337500Y111988D01*
X337100Y111788D01*
X288100Y59600D02*
Y59200D01*
X288900D01*
Y59600D01*
X289300D01*
Y60400D01*
X288900D01*
Y60800D01*
X288100D01*
Y60400D01*
X287700D01*
Y59600D01*
X288100D01*
X288300Y59800D02*
Y59600D01*
X288700D01*
Y59800D01*
X288900D01*
Y60200D01*
X288700D01*
Y60400D01*
X288300D01*
Y60200D01*
X288100D01*
Y59800D01*
X288300D01*
X278100Y188100D02*
Y187700D01*
X278900D01*
Y188100D01*
X279300D01*
Y188900D01*
X278900D01*
Y189300D01*
X278100D01*
Y188900D01*
X277700D01*
Y188100D01*
X278100D01*
X278300Y188300D02*
Y188100D01*
X278700D01*
Y188300D01*
X278900D01*
Y188700D01*
X278700D01*
Y188900D01*
X278300D01*
Y188700D01*
X278100D01*
Y188300D01*
X278300D01*
X281100Y85600D02*
Y85200D01*
X281900D01*
Y85600D01*
X282300D01*
Y86400D01*
X281900D01*
Y86800D01*
X281100D01*
Y86400D01*
X280700D01*
Y85600D01*
X281100D01*
X281300Y85800D02*
Y85600D01*
X281700D01*
Y85800D01*
X281900D01*
Y86200D01*
X281700D01*
Y86400D01*
X281300D01*
Y86200D01*
X281100D01*
Y85800D01*
X281300D01*
X258200Y62700D02*
X258600Y63500D01*
X258200Y64300D01*
X259000Y63900D01*
X259800Y64300D01*
X259400Y63500D01*
X259800Y62700D01*
X259000Y63100D01*
X258200Y62700D01*
X258600Y63100D02*
X258800Y63500D01*
X258600Y63900D01*
X259000Y63700D01*
X259400Y63900D01*
X259200Y63500D01*
X259400Y63100D01*
X259000Y63300D01*
X258600Y63100D01*
X230200Y75700D02*
X230600Y76500D01*
X230200Y77300D01*
X231000Y76900D01*
X231800Y77300D01*
X231400Y76500D01*
X231800Y75700D01*
X231000Y76100D01*
X230200Y75700D01*
X230600Y76100D02*
X230800Y76500D01*
X230600Y76900D01*
X231000Y76700D01*
X231400Y76900D01*
X231200Y76500D01*
X231400Y76100D01*
X231000Y76300D01*
X230600Y76100D01*
X228700Y60200D02*
X229100Y61000D01*
X228700Y61800D01*
X229500Y61400D01*
X230300Y61800D01*
X229900Y61000D01*
X230300Y60200D01*
X229500Y60600D01*
X228700Y60200D01*
X229100Y60600D02*
X229300Y61000D01*
X229100Y61400D01*
X229500Y61200D01*
X229900Y61400D01*
X229700Y61000D01*
X229900Y60600D01*
X229500Y60800D01*
X229100Y60600D01*
X203700Y60700D02*
X204100Y61500D01*
X203700Y62300D01*
X204500Y61900D01*
X205300Y62300D01*
X204900Y61500D01*
X205300Y60700D01*
X204500Y61100D01*
X203700Y60700D01*
X204100Y61100D02*
X204300Y61500D01*
X204100Y61900D01*
X204500Y61700D01*
X204900Y61900D01*
X204700Y61500D01*
X204900Y61100D01*
X204500Y61300D01*
X204100Y61100D01*
X257700Y78200D02*
X258100Y79000D01*
X257700Y79800D01*
X258500Y79400D01*
X259300Y79800D01*
X258900Y79000D01*
X259300Y78200D01*
X258500Y78600D01*
X257700Y78200D01*
X258100Y78600D02*
X258300Y79000D01*
X258100Y79400D01*
X258500Y79200D01*
X258900Y79400D01*
X258700Y79000D01*
X258900Y78600D01*
X258500Y78800D01*
X258100Y78600D01*
X271700Y89700D02*
X272100Y90500D01*
X271700Y91300D01*
X272500Y90900D01*
X273300Y91300D01*
X272900Y90500D01*
X273300Y89700D01*
X272500Y90100D01*
X271700Y89700D01*
X272100Y90100D02*
X272300Y90500D01*
X272100Y90900D01*
X272500Y90700D01*
X272900Y90900D01*
X272700Y90500D01*
X272900Y90100D01*
X272500Y90300D01*
X272100Y90100D01*
X226200Y96700D02*
X226600Y97500D01*
X226200Y98300D01*
X227000Y97900D01*
X227800Y98300D01*
X227400Y97500D01*
X227800Y96700D01*
X227000Y97100D01*
X226200Y96700D01*
X226600Y97100D02*
X226800Y97500D01*
X226600Y97900D01*
X227000Y97700D01*
X227400Y97900D01*
X227200Y97500D01*
X227400Y97100D01*
X227000Y97300D01*
X226600Y97100D01*
X179200Y88700D02*
X179600Y89500D01*
X179200Y90300D01*
X180000Y89900D01*
X180800Y90300D01*
X180400Y89500D01*
X180800Y88700D01*
X180000Y89100D01*
X179200Y88700D01*
X179600Y89100D02*
X179800Y89500D01*
X179600Y89900D01*
X180000Y89700D01*
X180400Y89900D01*
X180200Y89500D01*
X180400Y89100D01*
X180000Y89300D01*
X179600Y89100D01*
X246200Y103200D02*
X246600Y104000D01*
X246200Y104800D01*
X247000Y104400D01*
X247800Y104800D01*
X247400Y104000D01*
X247800Y103200D01*
X247000Y103600D01*
X246200Y103200D01*
X246600Y103600D02*
X246800Y104000D01*
X246600Y104400D01*
X247000Y104200D01*
X247400Y104400D01*
X247200Y104000D01*
X247400Y103600D01*
X247000Y103800D01*
X246600Y103600D01*
X264700Y120200D02*
X265100Y121000D01*
X264700Y121800D01*
X265500Y121400D01*
X266300Y121800D01*
X265900Y121000D01*
X266300Y120200D01*
X265500Y120600D01*
X264700Y120200D01*
X265100Y120600D02*
X265300Y121000D01*
X265100Y121400D01*
X265500Y121200D01*
X265900Y121400D01*
X265700Y121000D01*
X265900Y120600D01*
X265500Y120800D01*
X265100Y120600D01*
X58700Y134700D02*
X59100Y135500D01*
X58700Y136300D01*
X59500Y135900D01*
X60300Y136300D01*
X59900Y135500D01*
X60300Y134700D01*
X59500Y135100D01*
X58700Y134700D01*
X59100Y135100D02*
X59300Y135500D01*
X59100Y135900D01*
X59500Y135700D01*
X59900Y135900D01*
X59700Y135500D01*
X59900Y135100D01*
X59500Y135300D01*
X59100Y135100D01*
X230200Y105200D02*
X230600Y106000D01*
X230200Y106800D01*
X231000Y106400D01*
X231800Y106800D01*
X231400Y106000D01*
X231800Y105200D01*
X231000Y105600D01*
X230200Y105200D01*
X230600Y105600D02*
X230800Y106000D01*
X230600Y106400D01*
X231000Y106200D01*
X231400Y106400D01*
X231200Y106000D01*
X231400Y105600D01*
X231000Y105800D01*
X230600Y105600D01*
X64200Y162200D02*
X64600Y163000D01*
X64200Y163800D01*
X65000Y163400D01*
X65800Y163800D01*
X65400Y163000D01*
X65800Y162200D01*
X65000Y162600D01*
X64200Y162200D01*
X64600Y162600D02*
X64800Y163000D01*
X64600Y163400D01*
X65000Y163200D01*
X65400Y163400D01*
X65200Y163000D01*
X65400Y162600D01*
X65000Y162800D01*
X64600Y162600D01*
X219700Y137700D02*
X220100Y138500D01*
X219700Y139300D01*
X220500Y138900D01*
X221300Y139300D01*
X220900Y138500D01*
X221300Y137700D01*
X220500Y138100D01*
X219700Y137700D01*
X220100Y138100D02*
X220300Y138500D01*
X220100Y138900D01*
X220500Y138700D01*
X220900Y138900D01*
X220700Y138500D01*
X220900Y138100D01*
X220500Y138300D01*
X220100Y138100D01*
X219700Y145200D02*
X220100Y146000D01*
X219700Y146800D01*
X220500Y146400D01*
X221300Y146800D01*
X220900Y146000D01*
X221300Y145200D01*
X220500Y145600D01*
X219700Y145200D01*
X220100Y145600D02*
X220300Y146000D01*
X220100Y146400D01*
X220500Y146200D01*
X220900Y146400D01*
X220700Y146000D01*
X220900Y145600D01*
X220500Y145800D01*
X220100Y145600D01*
X219700Y151700D02*
X220100Y152500D01*
X219700Y153300D01*
X220500Y152900D01*
X221300Y153300D01*
X220900Y152500D01*
X221300Y151700D01*
X220500Y152100D01*
X219700Y151700D01*
X220100Y152100D02*
X220300Y152500D01*
X220100Y152900D01*
X220500Y152700D01*
X220900Y152900D01*
X220700Y152500D01*
X220900Y152100D01*
X220500Y152300D01*
X220100Y152100D01*
X219700Y159200D02*
X220100Y160000D01*
X219700Y160800D01*
X220500Y160400D01*
X221300Y160800D01*
X220900Y160000D01*
X221300Y159200D01*
X220500Y159600D01*
X219700Y159200D01*
X220100Y159600D02*
X220300Y160000D01*
X220100Y160400D01*
X220500Y160200D01*
X220900Y160400D01*
X220700Y160000D01*
X220900Y159600D01*
X220500Y159800D01*
X220100Y159600D01*
X219700Y166200D02*
X220100Y167000D01*
X219700Y167800D01*
X220500Y167400D01*
X221300Y167800D01*
X220900Y167000D01*
X221300Y166200D01*
X220500Y166600D01*
X219700Y166200D01*
X220100Y166600D02*
X220300Y167000D01*
X220100Y167400D01*
X220500Y167200D01*
X220900Y167400D01*
X220700Y167000D01*
X220900Y166600D01*
X220500Y166800D01*
X220100Y166600D01*
X203200Y186200D02*
X203600Y187000D01*
X203200Y187800D01*
X204000Y187400D01*
X204800Y187800D01*
X204400Y187000D01*
X204800Y186200D01*
X204000Y186600D01*
X203200Y186200D01*
X203600Y186600D02*
X203800Y187000D01*
X203600Y187400D01*
X204000Y187200D01*
X204400Y187400D01*
X204200Y187000D01*
X204400Y186600D01*
X204000Y186800D01*
X203600Y186600D01*
X204200Y195200D02*
X204600Y196000D01*
X204200Y196800D01*
X205000Y196400D01*
X205800Y196800D01*
X205400Y196000D01*
X205800Y195200D01*
X205000Y195600D01*
X204200Y195200D01*
X204600Y195600D02*
X204800Y196000D01*
X204600Y196400D01*
X205000Y196200D01*
X205400Y196400D01*
X205200Y196000D01*
X205400Y195600D01*
X205000Y195800D01*
X204600Y195600D01*
X245700Y183200D02*
X246100Y184000D01*
X245700Y184800D01*
X246500Y184400D01*
X247300Y184800D01*
X246900Y184000D01*
X247300Y183200D01*
X246500Y183600D01*
X245700Y183200D01*
X246100Y183600D02*
X246300Y184000D01*
X246100Y184400D01*
X246500Y184200D01*
X246900Y184400D01*
X246700Y184000D01*
X246900Y183600D01*
X246500Y183800D01*
X246100Y183600D01*
X229700Y194200D02*
X230100Y195000D01*
X229700Y195800D01*
X230500Y195400D01*
X231300Y195800D01*
X230900Y195000D01*
X231300Y194200D01*
X230500Y194600D01*
X229700Y194200D01*
X230100Y194600D02*
X230300Y195000D01*
X230100Y195400D01*
X230500Y195200D01*
X230900Y195400D01*
X230700Y195000D01*
X230900Y194600D01*
X230500Y194800D01*
X230100Y194600D01*
X246700Y202700D02*
X247100Y203500D01*
X246700Y204300D01*
X247500Y203900D01*
X248300Y204300D01*
X247900Y203500D01*
X248300Y202700D01*
X247500Y203100D01*
X246700Y202700D01*
X247100Y203100D02*
X247300Y203500D01*
X247100Y203900D01*
X247500Y203700D01*
X247900Y203900D01*
X247700Y203500D01*
X247900Y203100D01*
X247500Y203300D01*
X247100Y203100D01*
X225200Y203200D02*
X225600Y204000D01*
X225200Y204800D01*
X226000Y204400D01*
X226800Y204800D01*
X226400Y204000D01*
X226800Y203200D01*
X226000Y203600D01*
X225200Y203200D01*
X225600Y203600D02*
X225800Y204000D01*
X225600Y204400D01*
X226000Y204200D01*
X226400Y204400D01*
X226200Y204000D01*
X226400Y203600D01*
X226000Y203800D01*
X225600Y203600D01*
X246700Y215700D02*
X247100Y216500D01*
X246700Y217300D01*
X247500Y216900D01*
X248300Y217300D01*
X247900Y216500D01*
X248300Y215700D01*
X247500Y216100D01*
X246700Y215700D01*
X247100Y216100D02*
X247300Y216500D01*
X247100Y216900D01*
X247500Y216700D01*
X247900Y216900D01*
X247700Y216500D01*
X247900Y216100D01*
X247500Y216300D01*
X247100Y216100D01*
X226200Y214200D02*
X226600Y215000D01*
X226200Y215800D01*
X227000Y215400D01*
X227800Y215800D01*
X227400Y215000D01*
X227800Y214200D01*
X227000Y214600D01*
X226200Y214200D01*
X226600Y214600D02*
X226800Y215000D01*
X226600Y215400D01*
X227000Y215200D01*
X227400Y215400D01*
X227200Y215000D01*
X227400Y214600D01*
X227000Y214800D01*
X226600Y214600D01*
X219200Y217200D02*
X219600Y218000D01*
X219200Y218800D01*
X220000Y218400D01*
X220800Y218800D01*
X220400Y218000D01*
X220800Y217200D01*
X220000Y217600D01*
X219200Y217200D01*
X219600Y217600D02*
X219800Y218000D01*
X219600Y218400D01*
X220000Y218200D01*
X220400Y218400D01*
X220200Y218000D01*
X220400Y217600D01*
X220000Y217800D01*
X219600Y217600D01*
X224200Y226200D02*
X224600Y227000D01*
X224200Y227800D01*
X225000Y227400D01*
X225800Y227800D01*
X225400Y227000D01*
X225800Y226200D01*
X225000Y226600D01*
X224200Y226200D01*
X224600Y226600D02*
X224800Y227000D01*
X224600Y227400D01*
X225000Y227200D01*
X225400Y227400D01*
X225200Y227000D01*
X225400Y226600D01*
X225000Y226800D01*
X224600Y226600D01*
X219700Y229200D02*
X220100Y230000D01*
X219700Y230800D01*
X220500Y230400D01*
X221300Y230800D01*
X220900Y230000D01*
X221300Y229200D01*
X220500Y229600D01*
X219700Y229200D01*
X220100Y229600D02*
X220300Y230000D01*
X220100Y230400D01*
X220500Y230200D01*
X220900Y230400D01*
X220700Y230000D01*
X220900Y229600D01*
X220500Y229800D01*
X220100Y229600D01*
X220200Y234200D02*
X220600Y235000D01*
X220200Y235800D01*
X221000Y235400D01*
X221800Y235800D01*
X221400Y235000D01*
X221800Y234200D01*
X221000Y234600D01*
X220200Y234200D01*
X220600Y234600D02*
X220800Y235000D01*
X220600Y235400D01*
X221000Y235200D01*
X221400Y235400D01*
X221200Y235000D01*
X221400Y234600D01*
X221000Y234800D01*
X220600Y234600D01*
X249200Y226700D02*
X249600Y227500D01*
X249200Y228300D01*
X250000Y227900D01*
X250800Y228300D01*
X250400Y227500D01*
X250800Y226700D01*
X250000Y227100D01*
X249200Y226700D01*
X249600Y227100D02*
X249800Y227500D01*
X249600Y227900D01*
X250000Y227700D01*
X250400Y227900D01*
X250200Y227500D01*
X250400Y227100D01*
X250000Y227300D01*
X249600Y227100D01*
X228700Y232700D02*
X229100Y233500D01*
X228700Y234300D01*
X229500Y233900D01*
X230300Y234300D01*
X229900Y233500D01*
X230300Y232700D01*
X229500Y233100D01*
X228700Y232700D01*
X229100Y233100D02*
X229300Y233500D01*
X229100Y233900D01*
X229500Y233700D01*
X229900Y233900D01*
X229700Y233500D01*
X229900Y233100D01*
X229500Y233300D01*
X229100Y233100D01*
X228788Y242695D02*
X229188Y243495D01*
X228788Y244295D01*
X229588Y243895D01*
X230388Y244295D01*
X229988Y243495D01*
X230388Y242695D01*
X229588Y243095D01*
X228788Y242695D01*
X229188Y243095D02*
X229388Y243495D01*
X229188Y243895D01*
X229588Y243695D01*
X229988Y243895D01*
X229788Y243495D01*
X229988Y243095D01*
X229588Y243295D01*
X229188Y243095D01*
X228633Y263951D02*
X229033Y264751D01*
X228633Y265551D01*
X229433Y265151D01*
X230233Y265551D01*
X229833Y264751D01*
X230233Y263951D01*
X229433Y264351D01*
X228633Y263951D01*
X229033Y264351D02*
X229233Y264751D01*
X229033Y265151D01*
X229433Y264951D01*
X229833Y265151D01*
X229633Y264751D01*
X229833Y264351D01*
X229433Y264551D01*
X229033Y264351D01*
X228633Y270960D02*
X229033Y271760D01*
X228633Y272560D01*
X229433Y272160D01*
X230233Y272560D01*
X229833Y271760D01*
X230233Y270960D01*
X229433Y271360D01*
X228633Y270960D01*
X229033Y271360D02*
X229233Y271760D01*
X229033Y272160D01*
X229433Y271960D01*
X229833Y272160D01*
X229633Y271760D01*
X229833Y271360D01*
X229433Y271560D01*
X229033Y271360D01*
X228633Y278100D02*
X229033Y278900D01*
X228633Y279700D01*
X229433Y279300D01*
X230233Y279700D01*
X229833Y278900D01*
X230233Y278100D01*
X229433Y278500D01*
X228633Y278100D01*
X229033Y278500D02*
X229233Y278900D01*
X229033Y279300D01*
X229433Y279100D01*
X229833Y279300D01*
X229633Y278900D01*
X229833Y278500D01*
X229433Y278700D01*
X229033Y278500D01*
X220700Y272200D02*
X221100Y273000D01*
X220700Y273800D01*
X221500Y273400D01*
X222300Y273800D01*
X221900Y273000D01*
X222300Y272200D01*
X221500Y272600D01*
X220700Y272200D01*
X221100Y272600D02*
X221300Y273000D01*
X221100Y273400D01*
X221500Y273200D01*
X221900Y273400D01*
X221700Y273000D01*
X221900Y272600D01*
X221500Y272800D01*
X221100Y272600D01*
X220700Y279200D02*
X221100Y280000D01*
X220700Y280800D01*
X221500Y280400D01*
X222300Y280800D01*
X221900Y280000D01*
X222300Y279200D01*
X221500Y279600D01*
X220700Y279200D01*
X221100Y279600D02*
X221300Y280000D01*
X221100Y280400D01*
X221500Y280200D01*
X221900Y280400D01*
X221700Y280000D01*
X221900Y279600D01*
X221500Y279800D01*
X221100Y279600D01*
X220700Y286700D02*
X221100Y287500D01*
X220700Y288300D01*
X221500Y287900D01*
X222300Y288300D01*
X221900Y287500D01*
X222300Y286700D01*
X221500Y287100D01*
X220700Y286700D01*
X221100Y287100D02*
X221300Y287500D01*
X221100Y287900D01*
X221500Y287700D01*
X221900Y287900D01*
X221700Y287500D01*
X221900Y287100D01*
X221500Y287300D01*
X221100Y287100D01*
X220700Y293700D02*
X221100Y294500D01*
X220700Y295300D01*
X221500Y294900D01*
X222300Y295300D01*
X221900Y294500D01*
X222300Y293700D01*
X221500Y294100D01*
X220700Y293700D01*
X221100Y294100D02*
X221300Y294500D01*
X221100Y294900D01*
X221500Y294700D01*
X221900Y294900D01*
X221700Y294500D01*
X221900Y294100D01*
X221500Y294300D01*
X221100Y294100D01*
X220700Y300700D02*
X221100Y301500D01*
X220700Y302300D01*
X221500Y301900D01*
X222300Y302300D01*
X221900Y301500D01*
X222300Y300700D01*
X221500Y301100D01*
X220700Y300700D01*
X221100Y301100D02*
X221300Y301500D01*
X221100Y301900D01*
X221500Y301700D01*
X221900Y301900D01*
X221700Y301500D01*
X221900Y301100D01*
X221500Y301300D01*
X221100Y301100D01*
X202700Y311200D02*
X203100Y312000D01*
X202700Y312800D01*
X203500Y312400D01*
X204300Y312800D01*
X203900Y312000D01*
X204300Y311200D01*
X203500Y311600D01*
X202700Y311200D01*
X203100Y311600D02*
X203300Y312000D01*
X203100Y312400D01*
X203500Y312200D01*
X203900Y312400D01*
X203700Y312000D01*
X203900Y311600D01*
X203500Y311800D01*
X203100Y311600D01*
X287198Y110952D02*
X287598Y111752D01*
X287198Y112552D01*
X287998Y112152D01*
X288798Y112552D01*
X288398Y111752D01*
X288798Y110952D01*
X287998Y111352D01*
X287198Y110952D01*
X287598Y111352D02*
X287798Y111752D01*
X287598Y112152D01*
X287998Y111952D01*
X288398Y112152D01*
X288198Y111752D01*
X288398Y111352D01*
X287998Y111552D01*
X287598Y111352D01*
X287200Y169200D02*
X287600Y170000D01*
X287200Y170800D01*
X288000Y170400D01*
X288800Y170800D01*
X288400Y170000D01*
X288800Y169200D01*
X288000Y169600D01*
X287200Y169200D01*
X287600Y169600D02*
X287800Y170000D01*
X287600Y170400D01*
X288000Y170200D01*
X288400Y170400D01*
X288200Y170000D01*
X288400Y169600D01*
X288000Y169800D01*
X287600Y169600D01*
X255200Y88200D02*
X255600Y89000D01*
X255200Y89800D01*
X256000Y89400D01*
X256800Y89800D01*
X256400Y89000D01*
X256800Y88200D01*
X256000Y88600D01*
X255200Y88200D01*
X255600Y88600D02*
X255800Y89000D01*
X255600Y89400D01*
X256000Y89200D01*
X256400Y89400D01*
X256200Y89000D01*
X256400Y88600D01*
X256000Y88800D01*
X255600Y88600D01*
X256200Y151700D02*
X256600Y152500D01*
X256200Y153300D01*
X257000Y152900D01*
X257800Y153300D01*
X257400Y152500D01*
X257800Y151700D01*
X257000Y152100D01*
X256200Y151700D01*
X256600Y152100D02*
X256800Y152500D01*
X256600Y152900D01*
X257000Y152700D01*
X257400Y152900D01*
X257200Y152500D01*
X257400Y152100D01*
X257000Y152300D01*
X256600Y152100D01*
X254700Y111700D02*
X255100Y112500D01*
X254700Y113300D01*
X255500Y112900D01*
X256300Y113300D01*
X255900Y112500D01*
X256300Y111700D01*
X255500Y112100D01*
X254700Y111700D01*
X255100Y112100D02*
X255300Y112500D01*
X255100Y112900D01*
X255500Y112700D01*
X255900Y112900D01*
X255700Y112500D01*
X255900Y112100D01*
X255500Y112300D01*
X255100Y112100D01*
X197100Y253600D02*
Y253200D01*
X197900D01*
Y253600D01*
X198300D01*
Y254400D01*
X197900D01*
Y254800D01*
X197100D01*
Y254400D01*
X196700D01*
Y253600D01*
X197100D01*
X197300Y253800D02*
Y253600D01*
X197700D01*
Y253800D01*
X197900D01*
Y254200D01*
X197700D01*
Y254400D01*
X197300D01*
Y254200D01*
X197100D01*
Y253800D01*
X197300D01*
X137600Y89600D02*
Y89200D01*
X138400D01*
Y89600D01*
X138800D01*
Y90400D01*
X138400D01*
Y90800D01*
X137600D01*
Y90400D01*
X137200D01*
Y89600D01*
X137600D01*
X137800Y89800D02*
Y89600D01*
X138200D01*
Y89800D01*
X138400D01*
Y90200D01*
X138200D01*
Y90400D01*
X137800D01*
Y90200D01*
X137600D01*
Y89800D01*
X137800D01*
X193100Y37100D02*
Y36700D01*
X193900D01*
Y37100D01*
X194300D01*
Y37900D01*
X193900D01*
Y38300D01*
X193100D01*
Y37900D01*
X192700D01*
Y37100D01*
X193100D01*
X193300Y37300D02*
Y37100D01*
X193700D01*
Y37300D01*
X193900D01*
Y37700D01*
X193700D01*
Y37900D01*
X193300D01*
Y37700D01*
X193100D01*
Y37300D01*
X193300D01*
X164700Y50200D02*
X165100Y51000D01*
X164700Y51800D01*
X165500Y51400D01*
X166300Y51800D01*
X165900Y51000D01*
X166300Y50200D01*
X165500Y50600D01*
X164700Y50200D01*
X165100Y50600D02*
X165300Y51000D01*
X165100Y51400D01*
X165500Y51200D01*
X165900Y51400D01*
X165700Y51000D01*
X165900Y50600D01*
X165500Y50800D01*
X165100Y50600D01*
X177100Y58600D02*
Y58200D01*
X177900D01*
Y58600D01*
X178300D01*
Y59400D01*
X177900D01*
Y59800D01*
X177100D01*
Y59400D01*
X176700D01*
Y58600D01*
X177100D01*
X177300Y58800D02*
Y58600D01*
X177700D01*
Y58800D01*
X177900D01*
Y59200D01*
X177700D01*
Y59400D01*
X177300D01*
Y59200D01*
X177100D01*
Y58800D01*
X177300D01*
X177600Y68100D02*
Y67700D01*
X178400D01*
Y68100D01*
X178800D01*
Y68900D01*
X178400D01*
Y69300D01*
X177600D01*
Y68900D01*
X177200D01*
Y68100D01*
X177600D01*
X177800Y68300D02*
Y68100D01*
X178200D01*
Y68300D01*
X178400D01*
Y68700D01*
X178200D01*
Y68900D01*
X177800D01*
Y68700D01*
X177600D01*
Y68300D01*
X177800D01*
X159200Y82700D02*
X159600Y83500D01*
X159200Y84300D01*
X160000Y83900D01*
X160800Y84300D01*
X160400Y83500D01*
X160800Y82700D01*
X160000Y83100D01*
X159200Y82700D01*
X159600Y83100D02*
X159800Y83500D01*
X159600Y83900D01*
X160000Y83700D01*
X160400Y83900D01*
X160200Y83500D01*
X160400Y83100D01*
X160000Y83300D01*
X159600Y83100D01*
X146100Y58600D02*
Y58200D01*
X146900D01*
Y58600D01*
X147300D01*
Y59400D01*
X146900D01*
Y59800D01*
X146100D01*
Y59400D01*
X145700D01*
Y58600D01*
X146100D01*
X146300Y58800D02*
Y58600D01*
X146700D01*
Y58800D01*
X146900D01*
Y59200D01*
X146700D01*
Y59400D01*
X146300D01*
Y59200D01*
X146100D01*
Y58800D01*
X146300D01*
X97100Y141600D02*
Y141200D01*
X97900D01*
Y141600D01*
X98300D01*
Y142400D01*
X97900D01*
Y142800D01*
X97100D01*
Y142400D01*
X96700D01*
Y141600D01*
X97100D01*
X97300Y141800D02*
Y141600D01*
X97700D01*
Y141800D01*
X97900D01*
Y142200D01*
X97700D01*
Y142400D01*
X97300D01*
Y142200D01*
X97100D01*
Y141800D01*
X97300D01*
X102600Y37100D02*
Y36700D01*
X103400D01*
Y37100D01*
X103800D01*
Y37900D01*
X103400D01*
Y38300D01*
X102600D01*
Y37900D01*
X102200D01*
Y37100D01*
X102600D01*
X102800Y37300D02*
Y37100D01*
X103200D01*
Y37300D01*
X103400D01*
Y37700D01*
X103200D01*
Y37900D01*
X102800D01*
Y37700D01*
X102600D01*
Y37300D01*
X102800D01*
X63100Y186100D02*
Y185700D01*
X63900D01*
Y186100D01*
X64300D01*
Y186900D01*
X63900D01*
Y187300D01*
X63100D01*
Y186900D01*
X62700D01*
Y186100D01*
X63100D01*
X63300Y186300D02*
Y186100D01*
X63700D01*
Y186300D01*
X63900D01*
Y186700D01*
X63700D01*
Y186900D01*
X63300D01*
Y186700D01*
X63100D01*
Y186300D01*
X63300D01*
X83200Y145700D02*
X83600Y146500D01*
X83200Y147300D01*
X84000Y146900D01*
X84800Y147300D01*
X84400Y146500D01*
X84800Y145700D01*
X84000Y146100D01*
X83200Y145700D01*
X83600Y146100D02*
X83800Y146500D01*
X83600Y146900D01*
X84000Y146700D01*
X84400Y146900D01*
X84200Y146500D01*
X84400Y146100D01*
X84000Y146300D01*
X83600Y146100D01*
Y72600D02*
Y72200D01*
X84400D01*
Y72600D01*
X84800D01*
Y73400D01*
X84400D01*
Y73800D01*
X83600D01*
Y73400D01*
X83200D01*
Y72600D01*
X83600D01*
X83800Y72800D02*
Y72600D01*
X84200D01*
Y72800D01*
X84400D01*
Y73200D01*
X84200D01*
Y73400D01*
X83800D01*
Y73200D01*
X83600D01*
Y72800D01*
X83800D01*
X47700Y168700D02*
X48100Y169500D01*
X47700Y170300D01*
X48500Y169900D01*
X49300Y170300D01*
X48900Y169500D01*
X49300Y168700D01*
X48500Y169100D01*
X47700Y168700D01*
X48100Y169100D02*
X48300Y169500D01*
X48100Y169900D01*
X48500Y169700D01*
X48900Y169900D01*
X48700Y169500D01*
X48900Y169100D01*
X48500Y169300D01*
X48100Y169100D01*
X204700Y72200D02*
X205100Y73000D01*
X204700Y73800D01*
X205500Y73400D01*
X206300Y73800D01*
X205900Y73000D01*
X206300Y72200D01*
X205500Y72600D01*
X204700Y72200D01*
X205100Y72600D02*
X205300Y73000D01*
X205100Y73400D01*
X205500Y73200D01*
X205900Y73400D01*
X205700Y73000D01*
X205900Y72600D01*
X205500Y72800D01*
X205100Y72600D01*
X183700Y55700D02*
X184100Y56500D01*
X183700Y57300D01*
X184500Y56900D01*
X185300Y57300D01*
X184900Y56500D01*
X185300Y55700D01*
X184500Y56100D01*
X183700Y55700D01*
X184100Y56100D02*
X184300Y56500D01*
X184100Y56900D01*
X184500Y56700D01*
X184900Y56900D01*
X184700Y56500D01*
X184900Y56100D01*
X184500Y56300D01*
X184100Y56100D01*
X165700Y12700D02*
X166100Y13500D01*
X165700Y14300D01*
X166500Y13900D01*
X167300Y14300D01*
X166900Y13500D01*
X167300Y12700D01*
X166500Y13100D01*
X165700Y12700D01*
X166100Y13100D02*
X166300Y13500D01*
X166100Y13900D01*
X166500Y13700D01*
X166900Y13900D01*
X166700Y13500D01*
X166900Y13100D01*
X166500Y13300D01*
X166100Y13100D01*
X159700Y12700D02*
X160100Y13500D01*
X159700Y14300D01*
X160500Y13900D01*
X161300Y14300D01*
X160900Y13500D01*
X161300Y12700D01*
X160500Y13100D01*
X159700Y12700D01*
X160100Y13100D02*
X160300Y13500D01*
X160100Y13900D01*
X160500Y13700D01*
X160900Y13900D01*
X160700Y13500D01*
X160900Y13100D01*
X160500Y13300D01*
X160100Y13100D01*
X229700Y182200D02*
X230100Y183000D01*
X229700Y183800D01*
X230500Y183400D01*
X231300Y183800D01*
X230900Y183000D01*
X231300Y182200D01*
X230500Y182600D01*
X229700Y182200D01*
X230100Y182600D02*
X230300Y183000D01*
X230100Y183400D01*
X230500Y183200D01*
X230900Y183400D01*
X230700Y183000D01*
X230900Y182600D01*
X230500Y182800D01*
X230100Y182600D01*
X201200Y168700D02*
X201600Y169500D01*
X201200Y170300D01*
X202000Y169900D01*
X202800Y170300D01*
X202400Y169500D01*
X202800Y168700D01*
X202000Y169100D01*
X201200Y168700D01*
X201600Y169100D02*
X201800Y169500D01*
X201600Y169900D01*
X202000Y169700D01*
X202400Y169900D01*
X202200Y169500D01*
X202400Y169100D01*
X202000Y169300D01*
X201600Y169100D01*
X199700Y176700D02*
X200100Y177500D01*
X199700Y178300D01*
X200500Y177900D01*
X201300Y178300D01*
X200900Y177500D01*
X201300Y176700D01*
X200500Y177100D01*
X199700Y176700D01*
X200100Y177100D02*
X200300Y177500D01*
X200100Y177900D01*
X200500Y177700D01*
X200900Y177900D01*
X200700Y177500D01*
X200900Y177100D01*
X200500Y177300D01*
X200100Y177100D01*
X223200Y193200D02*
X223600Y194000D01*
X223200Y194800D01*
X224000Y194400D01*
X224800Y194800D01*
X224400Y194000D01*
X224800Y193200D01*
X224000Y193600D01*
X223200Y193200D01*
X223600Y193600D02*
X223800Y194000D01*
X223600Y194400D01*
X224000Y194200D01*
X224400Y194400D01*
X224200Y194000D01*
X224400Y193600D01*
X224000Y193800D01*
X223600Y193600D01*
X176200Y48700D02*
X176600Y49500D01*
X176200Y50300D01*
X177000Y49900D01*
X177800Y50300D01*
X177400Y49500D01*
X177800Y48700D01*
X177000Y49100D01*
X176200Y48700D01*
X176600Y49100D02*
X176800Y49500D01*
X176600Y49900D01*
X177000Y49700D01*
X177400Y49900D01*
X177200Y49500D01*
X177400Y49100D01*
X177000Y49300D01*
X176600Y49100D01*
X179700Y45200D02*
X180100Y46000D01*
X179700Y46800D01*
X180500Y46400D01*
X181300Y46800D01*
X180900Y46000D01*
X181300Y45200D01*
X180500Y45600D01*
X179700Y45200D01*
X180100Y45600D02*
X180300Y46000D01*
X180100Y46400D01*
X180500Y46200D01*
X180900Y46400D01*
X180700Y46000D01*
X180900Y45600D01*
X180500Y45800D01*
X180100Y45600D01*
X146700Y35200D02*
X147100Y36000D01*
X146700Y36800D01*
X147500Y36400D01*
X148300Y36800D01*
X147900Y36000D01*
X148300Y35200D01*
X147500Y35600D01*
X146700Y35200D01*
X147100Y35600D02*
X147300Y36000D01*
X147100Y36400D01*
X147500Y36200D01*
X147900Y36400D01*
X147700Y36000D01*
X147900Y35600D01*
X147500Y35800D01*
X147100Y35600D01*
X147323Y28217D02*
X147723Y29017D01*
X147323Y29817D01*
X148123Y29417D01*
X148923Y29817D01*
X148523Y29017D01*
X148923Y28217D01*
X148123Y28617D01*
X147323Y28217D01*
X147723Y28617D02*
X147923Y29017D01*
X147723Y29417D01*
X148123Y29217D01*
X148523Y29417D01*
X148323Y29017D01*
X148523Y28617D01*
X148123Y28817D01*
X147723Y28617D01*
X172200Y27700D02*
X172600Y28500D01*
X172200Y29300D01*
X173000Y28900D01*
X173800Y29300D01*
X173400Y28500D01*
X173800Y27700D01*
X173000Y28100D01*
X172200Y27700D01*
X172600Y28100D02*
X172800Y28500D01*
X172600Y28900D01*
X173000Y28700D01*
X173400Y28900D01*
X173200Y28500D01*
X173400Y28100D01*
X173000Y28300D01*
X172600Y28100D01*
X153100Y28501D02*
X153500Y29300D01*
X153100Y30101D01*
X153900Y29700D01*
X154700Y30101D01*
X154300Y29300D01*
X154700Y28501D01*
X153900Y28901D01*
X153100Y28501D01*
X153500Y28901D02*
X153700Y29300D01*
X153500Y29700D01*
X153900Y29500D01*
X154300Y29700D01*
X154100Y29300D01*
X154300Y28901D01*
X153900Y29100D01*
X153500Y28901D01*
X166663Y27523D02*
X167062Y28323D01*
X166663Y29123D01*
X167463Y28723D01*
X168263Y29123D01*
X167862Y28323D01*
X168263Y27523D01*
X167463Y27923D01*
X166663Y27523D01*
X167062Y27923D02*
X167262Y28323D01*
X167062Y28723D01*
X167463Y28523D01*
X167862Y28723D01*
X167663Y28323D01*
X167862Y27923D01*
X167463Y28123D01*
X167062Y27923D01*
X155307Y35634D02*
X155707Y36434D01*
X155307Y37234D01*
X156107Y36834D01*
X156907Y37234D01*
X156507Y36434D01*
X156907Y35634D01*
X156107Y36034D01*
X155307Y35634D01*
X155707Y36034D02*
X155907Y36434D01*
X155707Y36834D01*
X156107Y36634D01*
X156507Y36834D01*
X156307Y36434D01*
X156507Y36034D01*
X156107Y36234D01*
X155707Y36034D01*
X171838Y78200D02*
X172238Y79000D01*
X171838Y79800D01*
X172638Y79400D01*
X173438Y79800D01*
X173038Y79000D01*
X173438Y78200D01*
X172638Y78600D01*
X171838Y78200D01*
X172238Y78600D02*
X172438Y79000D01*
X172238Y79400D01*
X172638Y79200D01*
X173038Y79400D01*
X172838Y79000D01*
X173038Y78600D01*
X172638Y78800D01*
X172238Y78600D01*
X305700Y199200D02*
X306100Y200000D01*
X305700Y200800D01*
X306500Y200400D01*
X307300Y200800D01*
X306900Y200000D01*
X307300Y199200D01*
X306500Y199600D01*
X305700Y199200D01*
X306100Y199600D02*
X306300Y200000D01*
X306100Y200400D01*
X306500Y200200D01*
X306900Y200400D01*
X306700Y200000D01*
X306900Y199600D01*
X306500Y199800D01*
X306100Y199600D01*
X201700Y95200D02*
X202100Y96000D01*
X201700Y96800D01*
X202500Y96400D01*
X203300Y96800D01*
X202900Y96000D01*
X203300Y95200D01*
X202500Y95600D01*
X201700Y95200D01*
X202100Y95600D02*
X202300Y96000D01*
X202100Y96400D01*
X202500Y96200D01*
X202900Y96400D01*
X202700Y96000D01*
X202900Y95600D01*
X202500Y95800D01*
X202100Y95600D01*
X222700Y93700D02*
X223100Y94500D01*
X222700Y95300D01*
X223500Y94900D01*
X224300Y95300D01*
X223900Y94500D01*
X224300Y93700D01*
X223500Y94100D01*
X222700Y93700D01*
X223100Y94100D02*
X223300Y94500D01*
X223100Y94900D01*
X223500Y94700D01*
X223900Y94900D01*
X223700Y94500D01*
X223900Y94100D01*
X223500Y94300D01*
X223100Y94100D01*
X197200Y199200D02*
X197600Y200000D01*
X197200Y200800D01*
X198000Y200400D01*
X198800Y200800D01*
X198400Y200000D01*
X198800Y199200D01*
X198000Y199600D01*
X197200Y199200D01*
X197600Y199600D02*
X197800Y200000D01*
X197600Y200400D01*
X198000Y200200D01*
X198400Y200400D01*
X198200Y200000D01*
X198400Y199600D01*
X198000Y199800D01*
X197600Y199600D01*
X228200Y200200D02*
X228600Y201000D01*
X228200Y201800D01*
X229000Y201400D01*
X229800Y201800D01*
X229400Y201000D01*
X229800Y200200D01*
X229000Y200600D01*
X228200Y200200D01*
X228600Y200600D02*
X228800Y201000D01*
X228600Y201400D01*
X229000Y201200D01*
X229400Y201400D01*
X229200Y201000D01*
X229400Y200600D01*
X229000Y200800D01*
X228600Y200600D01*
X227700Y209700D02*
X228100Y210500D01*
X227700Y211300D01*
X228500Y210900D01*
X229300Y211300D01*
X228900Y210500D01*
X229300Y209700D01*
X228500Y210100D01*
X227700Y209700D01*
X228100Y210100D02*
X228300Y210500D01*
X228100Y210900D01*
X228500Y210700D01*
X228900Y210900D01*
X228700Y210500D01*
X228900Y210100D01*
X228500Y210300D01*
X228100Y210100D01*
X226700Y219200D02*
X227100Y220000D01*
X226700Y220800D01*
X227500Y220400D01*
X228300Y220800D01*
X227900Y220000D01*
X228300Y219200D01*
X227500Y219600D01*
X226700Y219200D01*
X227100Y219600D02*
X227300Y220000D01*
X227100Y220400D01*
X227500Y220200D01*
X227900Y220400D01*
X227700Y220000D01*
X227900Y219600D01*
X227500Y219800D01*
X227100Y219600D01*
X221470Y221374D02*
X221870Y222174D01*
X221470Y222974D01*
X222270Y222574D01*
X223070Y222974D01*
X222670Y222174D01*
X223070Y221374D01*
X222270Y221774D01*
X221470Y221374D01*
X221870Y221774D02*
X222070Y222174D01*
X221870Y222574D01*
X222270Y222374D01*
X222670Y222574D01*
X222470Y222174D01*
X222670Y221774D01*
X222270Y221974D01*
X221870Y221774D01*
X228700Y237700D02*
X229100Y238500D01*
X228700Y239300D01*
X229500Y238900D01*
X230300Y239300D01*
X229900Y238500D01*
X230300Y237700D01*
X229500Y238100D01*
X228700Y237700D01*
X229100Y238100D02*
X229300Y238500D01*
X229100Y238900D01*
X229500Y238700D01*
X229900Y238900D01*
X229700Y238500D01*
X229900Y238100D01*
X229500Y238300D01*
X229100Y238100D01*
X229200Y100200D02*
X229600Y101000D01*
X229200Y101800D01*
X230000Y101400D01*
X230800Y101800D01*
X230400Y101000D01*
X230800Y100200D01*
X230000Y100600D01*
X229200Y100200D01*
X229600Y100600D02*
X229800Y101000D01*
X229600Y101400D01*
X230000Y101200D01*
X230400Y101400D01*
X230200Y101000D01*
X230400Y100600D01*
X230000Y100800D01*
X229600Y100600D01*
X34700Y130025D02*
X35100Y130825D01*
X34700Y131625D01*
X35500Y131225D01*
X36300Y131625D01*
X35900Y130825D01*
X36300Y130025D01*
X35500Y130425D01*
X34700Y130025D01*
X35100Y130425D02*
X35300Y130825D01*
X35100Y131225D01*
X35500Y131025D01*
X35900Y131225D01*
X35700Y130825D01*
X35900Y130425D01*
X35500Y130625D01*
X35100Y130425D01*
X34700Y124238D02*
X35100Y125038D01*
X34700Y125838D01*
X35500Y125437D01*
X36300Y125838D01*
X35900Y125038D01*
X36300Y124238D01*
X35500Y124637D01*
X34700Y124238D01*
X35100Y124637D02*
X35300Y125038D01*
X35100Y125437D01*
X35500Y125238D01*
X35900Y125437D01*
X35700Y125038D01*
X35900Y124637D01*
X35500Y124838D01*
X35100Y124637D01*
X34700Y118253D02*
X35100Y119053D01*
X34700Y119853D01*
X35500Y119453D01*
X36300Y119853D01*
X35900Y119053D01*
X36300Y118253D01*
X35500Y118653D01*
X34700Y118253D01*
X35100Y118653D02*
X35300Y119053D01*
X35100Y119453D01*
X35500Y119253D01*
X35900Y119453D01*
X35700Y119053D01*
X35900Y118653D01*
X35500Y118853D01*
X35100Y118653D01*
X34700Y112700D02*
X35100Y113500D01*
X34700Y114300D01*
X35500Y113900D01*
X36300Y114300D01*
X35900Y113500D01*
X36300Y112700D01*
X35500Y113100D01*
X34700Y112700D01*
X35100Y113100D02*
X35300Y113500D01*
X35100Y113900D01*
X35500Y113700D01*
X35900Y113900D01*
X35700Y113500D01*
X35900Y113100D01*
X35500Y113300D01*
X35100Y113100D01*
X33700Y10200D02*
X34100D01*
X34500Y10600D01*
X34900Y10200D01*
X35300D01*
Y10600D01*
X34900Y11000D01*
X35300Y11400D01*
Y11800D01*
X34900D01*
X34500Y11400D01*
X34100Y11800D01*
X33700D01*
Y11400D01*
X34100Y11000D01*
X33700Y10600D01*
Y10200D01*
X34100Y10600D02*
X34300D01*
X34500Y10800D01*
X34700Y10600D01*
X34900D01*
Y10800D01*
X34700Y11000D01*
X34900Y11200D01*
Y11400D01*
X34700D01*
X34500Y11200D01*
X34300Y11400D01*
X34100D01*
Y11200D01*
X34300Y11000D01*
X34100Y10800D01*
Y10600D01*
X33700Y91200D02*
X34100D01*
X34500Y91600D01*
X34900Y91200D01*
X35300D01*
Y91600D01*
X34900Y92000D01*
X35300Y92400D01*
Y92800D01*
X34900D01*
X34500Y92400D01*
X34100Y92800D01*
X33700D01*
Y92400D01*
X34100Y92000D01*
X33700Y91600D01*
Y91200D01*
X34100Y91600D02*
X34300D01*
X34500Y91800D01*
X34700Y91600D01*
X34900D01*
Y91800D01*
X34700Y92000D01*
X34900Y92200D01*
Y92400D01*
X34700D01*
X34500Y92200D01*
X34300Y92400D01*
X34100D01*
Y92200D01*
X34300Y92000D01*
X34100Y91800D01*
Y91600D01*
X322700Y297700D02*
X323100Y298500D01*
X322700Y299300D01*
X323500Y298900D01*
X324300Y299300D01*
X323900Y298500D01*
X324300Y297700D01*
X323500Y298100D01*
X322700Y297700D01*
X323100Y298100D02*
X323300Y298500D01*
X323100Y298900D01*
X323500Y298700D01*
X323900Y298900D01*
X323700Y298500D01*
X323900Y298100D01*
X323500Y298300D01*
X323100Y298100D01*
X317325Y297575D02*
X317725Y298375D01*
X317325Y299175D01*
X318125Y298775D01*
X318925Y299175D01*
X318525Y298375D01*
X318925Y297575D01*
X318125Y297975D01*
X317325Y297575D01*
X317725Y297975D02*
X317925Y298375D01*
X317725Y298775D01*
X318125Y298575D01*
X318525Y298775D01*
X318325Y298375D01*
X318525Y297975D01*
X318125Y298175D01*
X317725Y297975D01*
X317200Y303700D02*
X317600Y304500D01*
X317200Y305300D01*
X318000Y304900D01*
X318800Y305300D01*
X318400Y304500D01*
X318800Y303700D01*
X318000Y304100D01*
X317200Y303700D01*
X317600Y304100D02*
X317800Y304500D01*
X317600Y304900D01*
X318000Y304700D01*
X318400Y304900D01*
X318200Y304500D01*
X318400Y304100D01*
X318000Y304300D01*
X317600Y304100D01*
X61221Y156971D02*
X61621Y157771D01*
X61221Y158571D01*
X62021Y158171D01*
X62821Y158571D01*
X62421Y157771D01*
X62821Y156971D01*
X62021Y157371D01*
X61221Y156971D01*
X61621Y157371D02*
X61821Y157771D01*
X61621Y158171D01*
X62021Y157971D01*
X62421Y158171D01*
X62221Y157771D01*
X62421Y157371D01*
X62021Y157571D01*
X61621Y157371D01*
X34700Y141700D02*
X35100Y142500D01*
X34700Y143300D01*
X35500Y142900D01*
X36300Y143300D01*
X35900Y142500D01*
X36300Y141700D01*
X35500Y142100D01*
X34700Y141700D01*
X35100Y142100D02*
X35300Y142500D01*
X35100Y142900D01*
X35500Y142700D01*
X35900Y142900D01*
X35700Y142500D01*
X35900Y142100D01*
X35500Y142300D01*
X35100Y142100D01*
X95225Y160360D02*
X95625Y161160D01*
X95225Y161960D01*
X96025Y161560D01*
X96825Y161960D01*
X96425Y161160D01*
X96825Y160360D01*
X96025Y160760D01*
X95225Y160360D01*
X95625Y160760D02*
X95825Y161160D01*
X95625Y161560D01*
X96025Y161360D01*
X96425Y161560D01*
X96225Y161160D01*
X96425Y160760D01*
X96025Y160960D01*
X95625Y160760D01*
X250700Y306700D02*
X251100Y307500D01*
X250700Y308300D01*
X251500Y307900D01*
X252300Y308300D01*
X251900Y307500D01*
X252300Y306700D01*
X251500Y307100D01*
X250700Y306700D01*
X251100Y307100D02*
X251300Y307500D01*
X251100Y307900D01*
X251500Y307700D01*
X251900Y307900D01*
X251700Y307500D01*
X251900Y307100D01*
X251500Y307300D01*
X251100Y307100D01*
X350700Y105200D02*
X351100Y106000D01*
X350700Y106800D01*
X351500Y106400D01*
X352300Y106800D01*
X351900Y106000D01*
X352300Y105200D01*
X351500Y105600D01*
X350700Y105200D01*
X351100Y105600D02*
X351300Y106000D01*
X351100Y106400D01*
X351500Y106200D01*
X351900Y106400D01*
X351700Y106000D01*
X351900Y105600D01*
X351500Y105800D01*
X351100Y105600D01*
X291700Y121200D02*
X292100Y122000D01*
X291700Y122800D01*
X292500Y122400D01*
X293300Y122800D01*
X292900Y122000D01*
X293300Y121200D01*
X292500Y121600D01*
X291700Y121200D01*
X292100Y121600D02*
X292300Y122000D01*
X292100Y122400D01*
X292500Y122200D01*
X292900Y122400D01*
X292700Y122000D01*
X292900Y121600D01*
X292500Y121800D01*
X292100Y121600D01*
X291700Y133200D02*
X292100Y134000D01*
X291700Y134800D01*
X292500Y134400D01*
X293300Y134800D01*
X292900Y134000D01*
X293300Y133200D01*
X292500Y133600D01*
X291700Y133200D01*
X292100Y133600D02*
X292300Y134000D01*
X292100Y134400D01*
X292500Y134200D01*
X292900Y134400D01*
X292700Y134000D01*
X292900Y133600D01*
X292500Y133800D01*
X292100Y133600D01*
X75700Y171700D02*
X76100Y172500D01*
X75700Y173300D01*
X76500Y172900D01*
X77300Y173300D01*
X76900Y172500D01*
X77300Y171700D01*
X76500Y172100D01*
X75700Y171700D01*
X76100Y172100D02*
X76300Y172500D01*
X76100Y172900D01*
X76500Y172700D01*
X76900Y172900D01*
X76700Y172500D01*
X76900Y172100D01*
X76500Y172300D01*
X76100Y172100D01*
X75700Y180200D02*
X76100Y181000D01*
X75700Y181800D01*
X76500Y181400D01*
X77300Y181800D01*
X76900Y181000D01*
X77300Y180200D01*
X76500Y180600D01*
X75700Y180200D01*
X76100Y180600D02*
X76300Y181000D01*
X76100Y181400D01*
X76500Y181200D01*
X76900Y181400D01*
X76700Y181000D01*
X76900Y180600D01*
X76500Y180800D01*
X76100Y180600D01*
X177700Y160200D02*
X178100Y161000D01*
X177700Y161800D01*
X178500Y161400D01*
X179300Y161800D01*
X178900Y161000D01*
X179300Y160200D01*
X178500Y160600D01*
X177700Y160200D01*
X178100Y160600D02*
X178300Y161000D01*
X178100Y161400D01*
X178500Y161200D01*
X178900Y161400D01*
X178700Y161000D01*
X178900Y160600D01*
X178500Y160800D01*
X178100Y160600D01*
X157700Y151200D02*
X158100Y152000D01*
X157700Y152800D01*
X158500Y152400D01*
X159300Y152800D01*
X158900Y152000D01*
X159300Y151200D01*
X158500Y151600D01*
X157700Y151200D01*
X158100Y151600D02*
X158300Y152000D01*
X158100Y152400D01*
X158500Y152200D01*
X158900Y152400D01*
X158700Y152000D01*
X158900Y151600D01*
X158500Y151800D01*
X158100Y151600D01*
X289200Y206700D02*
X289600Y207500D01*
X289200Y208300D01*
X290000Y207900D01*
X290800Y208300D01*
X290400Y207500D01*
X290800Y206700D01*
X290000Y207100D01*
X289200Y206700D01*
X289600Y207100D02*
X289800Y207500D01*
X289600Y207900D01*
X290000Y207700D01*
X290400Y207900D01*
X290200Y207500D01*
X290400Y207100D01*
X290000Y207300D01*
X289600Y207100D01*
X245200Y299354D02*
X245600Y300154D01*
X245200Y300954D01*
X246000Y300554D01*
X246800Y300954D01*
X246400Y300154D01*
X246800Y299354D01*
X246000Y299754D01*
X245200Y299354D01*
X245600Y299754D02*
X245800Y300154D01*
X245600Y300554D01*
X246000Y300354D01*
X246400Y300554D01*
X246200Y300154D01*
X246400Y299754D01*
X246000Y299954D01*
X245600Y299754D01*
X245200Y292277D02*
X245600Y293077D01*
X245200Y293877D01*
X246000Y293477D01*
X246800Y293877D01*
X246400Y293077D01*
X246800Y292277D01*
X246000Y292677D01*
X245200Y292277D01*
X245600Y292677D02*
X245800Y293077D01*
X245600Y293477D01*
X246000Y293277D01*
X246400Y293477D01*
X246200Y293077D01*
X246400Y292677D01*
X246000Y292877D01*
X245600Y292677D01*
X245200Y285200D02*
X245600Y286000D01*
X245200Y286800D01*
X246000Y286400D01*
X246800Y286800D01*
X246400Y286000D01*
X246800Y285200D01*
X246000Y285600D01*
X245200Y285200D01*
X245600Y285600D02*
X245800Y286000D01*
X245600Y286400D01*
X246000Y286200D01*
X246400Y286400D01*
X246200Y286000D01*
X246400Y285600D01*
X246000Y285800D01*
X245600Y285600D01*
X258200Y276700D02*
X258600Y277500D01*
X258200Y278300D01*
X259000Y277900D01*
X259800Y278300D01*
X259400Y277500D01*
X259800Y276700D01*
X259000Y277100D01*
X258200Y276700D01*
X258600Y277100D02*
X258800Y277500D01*
X258600Y277900D01*
X259000Y277700D01*
X259400Y277900D01*
X259200Y277500D01*
X259400Y277100D01*
X259000Y277300D01*
X258600Y277100D01*
X258200Y272200D02*
X258600Y273000D01*
X258200Y273800D01*
X259000Y273400D01*
X259800Y273800D01*
X259400Y273000D01*
X259800Y272200D01*
X259000Y272600D01*
X258200Y272200D01*
X258600Y272600D02*
X258800Y273000D01*
X258600Y273400D01*
X259000Y273200D01*
X259400Y273400D01*
X259200Y273000D01*
X259400Y272600D01*
X259000Y272800D01*
X258600Y272600D01*
X258200Y259200D02*
X258600Y260000D01*
X258200Y260800D01*
X259000Y260400D01*
X259800Y260800D01*
X259400Y260000D01*
X259800Y259200D01*
X259000Y259600D01*
X258200Y259200D01*
X258600Y259600D02*
X258800Y260000D01*
X258600Y260400D01*
X259000Y260200D01*
X259400Y260400D01*
X259200Y260000D01*
X259400Y259600D01*
X259000Y259800D01*
X258600Y259600D01*
X258200Y247200D02*
X258600Y248000D01*
X258200Y248800D01*
X259000Y248400D01*
X259800Y248800D01*
X259400Y248000D01*
X259800Y247200D01*
X259000Y247600D01*
X258200Y247200D01*
X258600Y247600D02*
X258800Y248000D01*
X258600Y248400D01*
X259000Y248200D01*
X259400Y248400D01*
X259200Y248000D01*
X259400Y247600D01*
X259000Y247800D01*
X258600Y247600D01*
X204700Y265200D02*
X205100Y266000D01*
X204700Y266800D01*
X205500Y266400D01*
X206300Y266800D01*
X205900Y266000D01*
X206300Y265200D01*
X205500Y265600D01*
X204700Y265200D01*
X205100Y265600D02*
X205300Y266000D01*
X205100Y266400D01*
X205500Y266200D01*
X205900Y266400D01*
X205700Y266000D01*
X205900Y265600D01*
X205500Y265800D01*
X205100Y265600D01*
X189700Y259700D02*
X190100Y260500D01*
X189700Y261300D01*
X190500Y260900D01*
X191300Y261300D01*
X190900Y260500D01*
X191300Y259700D01*
X190500Y260100D01*
X189700Y259700D01*
X190100Y260100D02*
X190300Y260500D01*
X190100Y260900D01*
X190500Y260700D01*
X190900Y260900D01*
X190700Y260500D01*
X190900Y260100D01*
X190500Y260300D01*
X190100Y260100D01*
X245200Y221382D02*
X245600Y222182D01*
X245200Y222982D01*
X246000Y222582D01*
X246800Y222982D01*
X246400Y222182D01*
X246800Y221382D01*
X246000Y221782D01*
X245200Y221382D01*
X245600Y221782D02*
X245800Y222182D01*
X245600Y222582D01*
X246000Y222382D01*
X246400Y222582D01*
X246200Y222182D01*
X246400Y221782D01*
X246000Y221982D01*
X245600Y221782D01*
X245200Y207200D02*
X245600Y208000D01*
X245200Y208800D01*
X246000Y208400D01*
X246800Y208800D01*
X246400Y208000D01*
X246800Y207200D01*
X246000Y207600D01*
X245200Y207200D01*
X245600Y207600D02*
X245800Y208000D01*
X245600Y208400D01*
X246000Y208200D01*
X246400Y208400D01*
X246200Y208000D01*
X246400Y207600D01*
X246000Y207800D01*
X245600Y207600D01*
X245200Y178871D02*
X245600Y179671D01*
X245200Y180471D01*
X246000Y180071D01*
X246800Y180471D01*
X246400Y179671D01*
X246800Y178871D01*
X246000Y179271D01*
X245200Y178871D01*
X245600Y179271D02*
X245800Y179671D01*
X245600Y180071D01*
X246000Y179871D01*
X246400Y180071D01*
X246200Y179671D01*
X246400Y179271D01*
X246000Y179471D01*
X245600Y179271D01*
X245200Y171700D02*
X245600Y172500D01*
X245200Y173300D01*
X246000Y172900D01*
X246800Y173300D01*
X246400Y172500D01*
X246800Y171700D01*
X246000Y172100D01*
X245200Y171700D01*
X245600Y172100D02*
X245800Y172500D01*
X245600Y172900D01*
X246000Y172700D01*
X246400Y172900D01*
X246200Y172500D01*
X246400Y172100D01*
X246000Y172300D01*
X245600Y172100D01*
X245200Y164700D02*
X245600Y165500D01*
X245200Y166300D01*
X246000Y165900D01*
X246800Y166300D01*
X246400Y165500D01*
X246800Y164700D01*
X246000Y165100D01*
X245200Y164700D01*
X245600Y165100D02*
X245800Y165500D01*
X245600Y165900D01*
X246000Y165700D01*
X246400Y165900D01*
X246200Y165500D01*
X246400Y165100D01*
X246000Y165300D01*
X245600Y165100D01*
X245200Y157700D02*
X245600Y158500D01*
X245200Y159300D01*
X246000Y158900D01*
X246800Y159300D01*
X246400Y158500D01*
X246800Y157700D01*
X246000Y158100D01*
X245200Y157700D01*
X245600Y158100D02*
X245800Y158500D01*
X245600Y158900D01*
X246000Y158700D01*
X246400Y158900D01*
X246200Y158500D01*
X246400Y158100D01*
X246000Y158300D01*
X245600Y158100D01*
X245200Y150700D02*
X245600Y151500D01*
X245200Y152300D01*
X246000Y151900D01*
X246800Y152300D01*
X246400Y151500D01*
X246800Y150700D01*
X246000Y151100D01*
X245200Y150700D01*
X245600Y151100D02*
X245800Y151500D01*
X245600Y151900D01*
X246000Y151700D01*
X246400Y151900D01*
X246200Y151500D01*
X246400Y151100D01*
X246000Y151300D01*
X245600Y151100D01*
X204700Y243700D02*
X205100Y244500D01*
X204700Y245300D01*
X205500Y244900D01*
X206300Y245300D01*
X205900Y244500D01*
X206300Y243700D01*
X205500Y244100D01*
X204700Y243700D01*
X205100Y244100D02*
X205300Y244500D01*
X205100Y244900D01*
X205500Y244700D01*
X205900Y244900D01*
X205700Y244500D01*
X205900Y244100D01*
X205500Y244300D01*
X205100Y244100D01*
X204700Y179990D02*
X205100Y180790D01*
X204700Y181590D01*
X205500Y181190D01*
X206300Y181590D01*
X205900Y180790D01*
X206300Y179990D01*
X205500Y180390D01*
X204700Y179990D01*
X205100Y180390D02*
X205300Y180790D01*
X205100Y181190D01*
X205500Y180990D01*
X205900Y181190D01*
X205700Y180790D01*
X205900Y180390D01*
X205500Y180590D01*
X205100Y180390D01*
X204700Y173025D02*
X205100Y173825D01*
X204700Y174625D01*
X205500Y174225D01*
X206300Y174625D01*
X205900Y173825D01*
X206300Y173025D01*
X205500Y173425D01*
X204700Y173025D01*
X205100Y173425D02*
X205300Y173825D01*
X205100Y174225D01*
X205500Y174025D01*
X205900Y174225D01*
X205700Y173825D01*
X205900Y173425D01*
X205500Y173625D01*
X205100Y173425D01*
X245200Y136402D02*
X245600Y137202D01*
X245200Y138002D01*
X246000Y137602D01*
X246800Y138002D01*
X246400Y137202D01*
X246800Y136402D01*
X246000Y136802D01*
X245200Y136402D01*
X245600Y136802D02*
X245800Y137202D01*
X245600Y137602D01*
X246000Y137402D01*
X246400Y137602D01*
X246200Y137202D01*
X246400Y136802D01*
X246000Y137002D01*
X245600Y136802D01*
X245200Y129200D02*
X245600Y130000D01*
X245200Y130800D01*
X246000Y130400D01*
X246800Y130800D01*
X246400Y130000D01*
X246800Y129200D01*
X246000Y129600D01*
X245200Y129200D01*
X245600Y129600D02*
X245800Y130000D01*
X245600Y130400D01*
X246000Y130200D01*
X246400Y130400D01*
X246200Y130000D01*
X246400Y129600D01*
X246000Y129800D01*
X245600Y129600D01*
X204700Y130700D02*
X205100Y131500D01*
X204700Y132300D01*
X205500Y131900D01*
X206300Y132300D01*
X205900Y131500D01*
X206300Y130700D01*
X205500Y131100D01*
X204700Y130700D01*
X205100Y131100D02*
X205300Y131500D01*
X205100Y131900D01*
X205500Y131700D01*
X205900Y131900D01*
X205700Y131500D01*
X205900Y131100D01*
X205500Y131300D01*
X205100Y131100D01*
X204700Y123200D02*
X205100Y124000D01*
X204700Y124800D01*
X205500Y124400D01*
X206300Y124800D01*
X205900Y124000D01*
X206300Y123200D01*
X205500Y123600D01*
X204700Y123200D01*
X205100Y123600D02*
X205300Y124000D01*
X205100Y124400D01*
X205500Y124200D01*
X205900Y124400D01*
X205700Y124000D01*
X205900Y123600D01*
X205500Y123800D01*
X205100Y123600D01*
X245200Y122200D02*
X245600Y123000D01*
X245200Y123800D01*
X246000Y123400D01*
X246800Y123800D01*
X246400Y123000D01*
X246800Y122200D01*
X246000Y122600D01*
X245200Y122200D01*
X245600Y122600D02*
X245800Y123000D01*
X245600Y123400D01*
X246000Y123200D01*
X246400Y123400D01*
X246200Y123000D01*
X246400Y122600D01*
X246000Y122800D01*
X245600Y122600D01*
X245200Y115200D02*
X245600Y116000D01*
X245200Y116800D01*
X246000Y116400D01*
X246800Y116800D01*
X246400Y116000D01*
X246800Y115200D01*
X246000Y115600D01*
X245200Y115200D01*
X245600Y115600D02*
X245800Y116000D01*
X245600Y116400D01*
X246000Y116200D01*
X246400Y116400D01*
X246200Y116000D01*
X246400Y115600D01*
X246000Y115800D01*
X245600Y115600D01*
X204700Y116200D02*
X205100Y117000D01*
X204700Y117800D01*
X205500Y117400D01*
X206300Y117800D01*
X205900Y117000D01*
X206300Y116200D01*
X205500Y116600D01*
X204700Y116200D01*
X205100Y116600D02*
X205300Y117000D01*
X205100Y117400D01*
X205500Y117200D01*
X205900Y117400D01*
X205700Y117000D01*
X205900Y116600D01*
X205500Y116800D01*
X205100Y116600D01*
X245200Y108000D02*
X245600Y108800D01*
X245200Y109600D01*
X246000Y109200D01*
X246800Y109600D01*
X246400Y108800D01*
X246800Y108000D01*
X246000Y108400D01*
X245200Y108000D01*
X245600Y108400D02*
X245800Y108800D01*
X245600Y109200D01*
X246000Y109000D01*
X246400Y109200D01*
X246200Y108800D01*
X246400Y108400D01*
X246000Y108600D01*
X245600Y108400D01*
X245200Y93700D02*
X245600Y94500D01*
X245200Y95300D01*
X246000Y94900D01*
X246800Y95300D01*
X246400Y94500D01*
X246800Y93700D01*
X246000Y94100D01*
X245200Y93700D01*
X245600Y94100D02*
X245800Y94500D01*
X245600Y94900D01*
X246000Y94700D01*
X246400Y94900D01*
X246200Y94500D01*
X246400Y94100D01*
X246000Y94300D01*
X245600Y94100D01*
X257200Y194700D02*
X257600Y195500D01*
X257200Y196300D01*
X258000Y195900D01*
X258800Y196300D01*
X258400Y195500D01*
X258800Y194700D01*
X258000Y195100D01*
X257200Y194700D01*
X257600Y195100D02*
X257800Y195500D01*
X257600Y195900D01*
X258000Y195700D01*
X258400Y195900D01*
X258200Y195500D01*
X258400Y195100D01*
X258000Y195300D01*
X257600Y195100D01*
X257200Y198700D02*
X257600Y199500D01*
X257200Y200300D01*
X258000Y199900D01*
X258800Y200300D01*
X258400Y199500D01*
X258800Y198700D01*
X258000Y199100D01*
X257200Y198700D01*
X257600Y199100D02*
X257800Y199500D01*
X257600Y199900D01*
X258000Y199700D01*
X258400Y199900D01*
X258200Y199500D01*
X258400Y199100D01*
X258000Y199300D01*
X257600Y199100D01*
X313200Y210200D02*
X313600Y211000D01*
X313200Y211800D01*
X314000Y211400D01*
X314800Y211800D01*
X314400Y211000D01*
X314800Y210200D01*
X314000Y210600D01*
X313200Y210200D01*
X313600Y210600D02*
X313800Y211000D01*
X313600Y211400D01*
X314000Y211200D01*
X314400Y211400D01*
X314200Y211000D01*
X314400Y210600D01*
X314000Y210800D01*
X313600Y210600D01*
X270200Y179200D02*
X270600Y180000D01*
X270200Y180800D01*
X271000Y180400D01*
X271800Y180800D01*
X271400Y180000D01*
X271800Y179200D01*
X271000Y179600D01*
X270200Y179200D01*
X270600Y179600D02*
X270800Y180000D01*
X270600Y180400D01*
X271000Y180200D01*
X271400Y180400D01*
X271200Y180000D01*
X271400Y179600D01*
X271000Y179800D01*
X270600Y179600D01*
X254700Y162700D02*
X255100Y163500D01*
X254700Y164300D01*
X255500Y163900D01*
X256300Y164300D01*
X255900Y163500D01*
X256300Y162700D01*
X255500Y163100D01*
X254700Y162700D01*
X255100Y163100D02*
X255300Y163500D01*
X255100Y163900D01*
X255500Y163700D01*
X255900Y163900D01*
X255700Y163500D01*
X255900Y163100D01*
X255500Y163300D01*
X255100Y163100D01*
X347200Y133200D02*
X347600Y134000D01*
X347200Y134800D01*
X348000Y134400D01*
X348800Y134800D01*
X348400Y134000D01*
X348800Y133200D01*
X348000Y133600D01*
X347200Y133200D01*
X347600Y133600D02*
X347800Y134000D01*
X347600Y134400D01*
X348000Y134200D01*
X348400Y134400D01*
X348200Y134000D01*
X348400Y133600D01*
X348000Y133800D01*
X347600Y133600D01*
X316700Y103200D02*
X317100Y104000D01*
X316700Y104800D01*
X317500Y104400D01*
X318300Y104800D01*
X317900Y104000D01*
X318300Y103200D01*
X317500Y103600D01*
X316700Y103200D01*
X317100Y103600D02*
X317300Y104000D01*
X317100Y104400D01*
X317500Y104200D01*
X317900Y104400D01*
X317700Y104000D01*
X317900Y103600D01*
X317500Y103800D01*
X317100Y103600D01*
X305700Y80700D02*
X306100Y81500D01*
X305700Y82300D01*
X306500Y81900D01*
X307300Y82300D01*
X306900Y81500D01*
X307300Y80700D01*
X306500Y81100D01*
X305700Y80700D01*
X306100Y81100D02*
X306300Y81500D01*
X306100Y81900D01*
X306500Y81700D01*
X306900Y81900D01*
X306700Y81500D01*
X306900Y81100D01*
X306500Y81300D01*
X306100Y81100D01*
X293700Y80700D02*
X294100Y81500D01*
X293700Y82300D01*
X294500Y81900D01*
X295300Y82300D01*
X294900Y81500D01*
X295300Y80700D01*
X294500Y81100D01*
X293700Y80700D01*
X294100Y81100D02*
X294300Y81500D01*
X294100Y81900D01*
X294500Y81700D01*
X294900Y81900D01*
X294700Y81500D01*
X294900Y81100D01*
X294500Y81300D01*
X294100Y81100D01*
X258200Y104200D02*
X258600Y105000D01*
X258200Y105800D01*
X259000Y105400D01*
X259800Y105800D01*
X259400Y105000D01*
X259800Y104200D01*
X259000Y104600D01*
X258200Y104200D01*
X258600Y104600D02*
X258800Y105000D01*
X258600Y105400D01*
X259000Y105200D01*
X259400Y105400D01*
X259200Y105000D01*
X259400Y104600D01*
X259000Y104800D01*
X258600Y104600D01*
X257700Y73200D02*
X258100Y74000D01*
X257700Y74800D01*
X258500Y74400D01*
X259300Y74800D01*
X258900Y74000D01*
X259300Y73200D01*
X258500Y73600D01*
X257700Y73200D01*
X258100Y73600D02*
X258300Y74000D01*
X258100Y74400D01*
X258500Y74200D01*
X258900Y74400D01*
X258700Y74000D01*
X258900Y73600D01*
X258500Y73800D01*
X258100Y73600D01*
X258200Y54200D02*
X258600Y55000D01*
X258200Y55800D01*
X259000Y55400D01*
X259800Y55800D01*
X259400Y55000D01*
X259800Y54200D01*
X259000Y54600D01*
X258200Y54200D01*
X258600Y54600D02*
X258800Y55000D01*
X258600Y55400D01*
X259000Y55200D01*
X259400Y55400D01*
X259200Y55000D01*
X259400Y54600D01*
X259000Y54800D01*
X258600Y54600D01*
X258200Y48700D02*
X258600Y49500D01*
X258200Y50300D01*
X259000Y49900D01*
X259800Y50300D01*
X259400Y49500D01*
X259800Y48700D01*
X259000Y49100D01*
X258200Y48700D01*
X258600Y49100D02*
X258800Y49500D01*
X258600Y49900D01*
X259000Y49700D01*
X259400Y49900D01*
X259200Y49500D01*
X259400Y49100D01*
X259000Y49300D01*
X258600Y49100D01*
D150*
X72753Y354043D02*
X72200Y354804D01*
X71306Y354514D01*
Y353573D01*
X72200Y353282D01*
X72753Y354043D01*
X91847D02*
X91294Y354804D01*
X90400Y354514D01*
Y353573D01*
X91294Y353282D01*
X91847Y354043D01*
X356387Y138258D02*
X355834Y139019D01*
X354939Y138728D01*
Y137788D01*
X355834Y137497D01*
X356387Y138258D01*
Y119163D02*
X355834Y119924D01*
X354939Y119634D01*
Y118693D01*
X355834Y118403D01*
X356387Y119163D01*
X334387Y171134D02*
X333834Y171895D01*
X332939Y171604D01*
Y170664D01*
X333834Y170373D01*
X334387Y171134D01*
Y222866D02*
X333834Y223627D01*
X332939Y223336D01*
Y222396D01*
X333834Y222105D01*
X334387Y222866D01*
D151*
X333987Y171134D02*
X333387Y171480D01*
Y170787D01*
X333987Y171134D01*
Y222866D02*
X333387Y223213D01*
Y222520D01*
X333987Y222866D01*
M02*
