G04*
G04 #@! TF.GenerationSoftware,Altium Limited,Altium Designer,20.0.11 (256)*
G04*
G04 Layer_Color=32768*
%FSLAX25Y25*%
%MOIN*%
G70*
G01*
G75*
%ADD11C,0.00591*%
%ADD15C,0.00394*%
%ADD16C,0.01000*%
%ADD148C,0.00197*%
D11*
X64079Y371642D02*
Y368690D01*
X62603D01*
X62111Y369182D01*
Y370166D01*
X62603Y370658D01*
X64079D01*
X59159Y369182D02*
X59651Y368690D01*
X60635D01*
X61127Y369182D01*
Y371150D01*
X60635Y371642D01*
X59651D01*
X59159Y371150D01*
X58175Y368690D02*
Y371642D01*
X56699D01*
X56207Y371150D01*
Y370658D01*
X56699Y370166D01*
X58175D01*
X56699D01*
X56207Y369674D01*
Y369182D01*
X56699Y368690D01*
X58175D01*
X50304D02*
X52271D01*
Y371642D01*
X50304D01*
X52271Y370166D02*
X51288D01*
X47352Y368690D02*
Y371642D01*
X48828D01*
X49320Y371150D01*
Y370166D01*
X48828Y369674D01*
X47352D01*
X45384Y372626D02*
X44892D01*
X44400Y372134D01*
Y369674D01*
X45876D01*
X46368Y370166D01*
Y371150D01*
X45876Y371642D01*
X44400D01*
X41940D02*
X42924D01*
X43416Y371150D01*
Y370166D01*
X42924Y369674D01*
X41940D01*
X41448Y370166D01*
Y370658D01*
X43416D01*
X373185Y146132D02*
X370233D01*
Y147608D01*
X370725Y148100D01*
X371709D01*
X372201Y147608D01*
Y146132D01*
X370725Y151052D02*
X370233Y150560D01*
Y149576D01*
X370725Y149084D01*
X372693D01*
X373185Y149576D01*
Y150560D01*
X372693Y151052D01*
X370233Y152035D02*
X373185D01*
Y153511D01*
X372693Y154003D01*
X372201D01*
X371709Y153511D01*
Y152035D01*
Y153511D01*
X371217Y154003D01*
X370725D01*
X370233Y153511D01*
Y152035D01*
Y159907D02*
Y157939D01*
X373185D01*
Y159907D01*
X371709Y157939D02*
Y158923D01*
X370233Y162859D02*
X373185D01*
Y161383D01*
X372693Y160891D01*
X371709D01*
X371217Y161383D01*
Y162859D01*
X374169Y164827D02*
Y165319D01*
X373677Y165811D01*
X371217D01*
Y164335D01*
X371709Y163843D01*
X372693D01*
X373185Y164335D01*
Y165811D01*
Y168271D02*
Y167287D01*
X372693Y166795D01*
X371709D01*
X371217Y167287D01*
Y168271D01*
X371709Y168762D01*
X372201D01*
Y166795D01*
D15*
X52819Y155000D02*
X55181D01*
X54000Y153819D02*
Y156181D01*
X55378Y151457D02*
Y158543D01*
X52622Y151457D02*
Y158543D01*
X55378D01*
X52622Y151457D02*
X55378D01*
X90319Y106500D02*
X92681D01*
X91500Y105319D02*
Y107681D01*
X92878Y102957D02*
Y110043D01*
X90122Y102957D02*
Y110043D01*
X92878D01*
X90122Y102957D02*
X92878D01*
X83319Y106500D02*
X85681D01*
X84500Y105319D02*
Y107681D01*
X85878Y102957D02*
Y110043D01*
X83122Y102957D02*
Y110043D01*
X85878D01*
X83122Y102957D02*
X85878D01*
X76000Y138031D02*
Y141969D01*
X74032Y140000D02*
X77969D01*
X91000Y340819D02*
Y343181D01*
X89819Y342000D02*
X92181D01*
X87457Y340622D02*
X94543D01*
X87457Y343378D02*
X94543D01*
Y340622D02*
Y343378D01*
X87457Y340622D02*
Y343378D01*
X118405Y15051D02*
Y18988D01*
X116437Y17020D02*
X120374D01*
X81500Y358531D02*
Y362469D01*
X79532Y360500D02*
X83469D01*
X117532Y349000D02*
X121468D01*
X119500Y347031D02*
Y350969D01*
X145417Y98500D02*
X147583D01*
X146500Y97417D02*
Y99583D01*
X89500Y174015D02*
Y175984D01*
X88516Y175000D02*
X90485D01*
X89000Y185417D02*
Y187583D01*
X87917Y186500D02*
X90083D01*
X117032Y75000D02*
X120968D01*
X119000Y73032D02*
Y76968D01*
X120531Y54000D02*
X124469D01*
X122500Y52031D02*
Y55968D01*
X81032Y17000D02*
X84969D01*
X83000Y15032D02*
Y18969D01*
X156622Y276543D02*
X159378D01*
X156622Y269457D02*
X159378D01*
Y276543D01*
X156622Y269457D02*
Y276543D01*
X158000Y271819D02*
Y274181D01*
X156819Y273000D02*
X159181D01*
X76622Y296043D02*
X79378D01*
X76622Y288957D02*
X79378D01*
Y296043D01*
X76622Y288957D02*
Y296043D01*
X78000Y291319D02*
Y293681D01*
X76819Y292500D02*
X79181D01*
X148531Y183000D02*
X152469D01*
X150500Y181032D02*
Y184968D01*
X108500Y234531D02*
Y238469D01*
X106532Y236500D02*
X110468D01*
X33500Y341531D02*
Y345468D01*
X31532Y343500D02*
X35469D01*
X85319Y163000D02*
X87681D01*
X86500Y161819D02*
Y164181D01*
X87878Y159457D02*
Y166543D01*
X85122Y159457D02*
Y166543D01*
X87878D01*
X85122Y159457D02*
X87878D01*
X93500Y151319D02*
Y153681D01*
X92319Y152500D02*
X94681D01*
X89957Y153878D02*
X97043D01*
X89957Y151122D02*
X97043D01*
X89957D02*
Y153878D01*
X97043Y151122D02*
Y153878D01*
X259000Y187319D02*
Y189681D01*
X257819Y188500D02*
X260181D01*
X255457Y187122D02*
X262543D01*
X255457Y189878D02*
X262543D01*
Y187122D02*
Y189878D01*
X255457Y187122D02*
Y189878D01*
X183000Y163515D02*
Y165484D01*
X182016Y164500D02*
X183985D01*
X164000Y154515D02*
Y156484D01*
X163016Y155500D02*
X164985D01*
X286016Y213000D02*
X287985D01*
X287000Y212016D02*
Y213985D01*
X315374Y111760D02*
Y119240D01*
X299626Y111760D02*
Y119240D01*
Y111760D02*
X315374D01*
X299626Y119240D02*
X315374D01*
X305532Y115500D02*
X309469D01*
X307500Y113531D02*
Y117469D01*
X175031Y37000D02*
X178969D01*
X177000Y35032D02*
Y38969D01*
X140500Y27031D02*
Y30968D01*
X138531Y29000D02*
X142469D01*
X178622Y312543D02*
X181378D01*
X178622Y305457D02*
X181378D01*
Y312543D01*
X178622Y305457D02*
Y312543D01*
X180000Y307819D02*
Y310181D01*
X178819Y309000D02*
X181181D01*
X293516Y88500D02*
X295484D01*
X294500Y87516D02*
Y89484D01*
X204748Y362595D02*
X244905D01*
X204748Y5114D02*
Y362595D01*
Y5114D02*
X244905D01*
Y362595D01*
X323500Y289032D02*
Y292969D01*
X321532Y291000D02*
X325468D01*
X261016Y161000D02*
X262984D01*
X262000Y160016D02*
Y161984D01*
X184917Y174000D02*
X187083D01*
X186000Y172917D02*
Y175083D01*
X164000Y165417D02*
Y167583D01*
X162917Y166500D02*
X165083D01*
X274417Y213000D02*
X276583D01*
X275500Y211917D02*
Y214083D01*
X290181Y114688D02*
Y118428D01*
X288311Y116558D02*
X292051D01*
X285457Y118724D02*
X294906D01*
X285457Y114393D02*
X294906D01*
X285457D02*
Y118724D01*
X294906Y114393D02*
Y118724D01*
X315374Y100260D02*
Y107740D01*
X299626Y100260D02*
Y107740D01*
Y100260D02*
X315374D01*
X299626Y107740D02*
X315374D01*
X305532Y104000D02*
X309469D01*
X307500Y102032D02*
Y105968D01*
X82500Y151516D02*
Y153484D01*
X81516Y152500D02*
X83484D01*
X71500Y160016D02*
Y161984D01*
X70516Y161000D02*
X72484D01*
X269622Y176043D02*
X272378D01*
X269622Y168957D02*
X272378D01*
Y176043D01*
X269622Y168957D02*
Y176043D01*
X271000Y171319D02*
Y173681D01*
X269819Y172500D02*
X272181D01*
X305122Y85457D02*
X307878D01*
X305122Y92543D02*
X307878D01*
X305122Y85457D02*
Y92543D01*
X307878Y85457D02*
Y92543D01*
X306500Y87819D02*
Y90181D01*
X305319Y89000D02*
X307681D01*
X360075Y128711D02*
X364012D01*
X362043Y126742D02*
Y130679D01*
X273500Y160016D02*
Y161984D01*
X272516Y161000D02*
X274484D01*
X291062Y110932D02*
X293818D01*
X291062Y103845D02*
X293818D01*
Y110932D01*
X291062Y103845D02*
Y110932D01*
X292441Y106207D02*
Y108570D01*
X291259Y107388D02*
X293621D01*
X265000Y144516D02*
Y146485D01*
X264015Y145500D02*
X265984D01*
X257000Y143417D02*
Y145583D01*
X255917Y144500D02*
X258083D01*
X156500Y97516D02*
Y99485D01*
X155516Y98500D02*
X157485D01*
X248457Y198122D02*
Y200878D01*
X255543Y198122D02*
Y200878D01*
X248457D02*
X255543D01*
X248457Y198122D02*
X255543D01*
X250819Y199500D02*
X253181D01*
X252000Y198319D02*
Y200681D01*
X248457Y194122D02*
Y196878D01*
X255543Y194122D02*
Y196878D01*
X248457D02*
X255543D01*
X248457Y194122D02*
X255543D01*
X250819Y195500D02*
X253181D01*
X252000Y194319D02*
Y196681D01*
X248957Y276122D02*
Y278878D01*
X256043Y276122D02*
Y278878D01*
X248957D02*
X256043D01*
X248957Y276122D02*
X256043D01*
X251319Y277500D02*
X253681D01*
X252500Y276319D02*
Y278681D01*
X248957Y271622D02*
Y274378D01*
X256043Y271622D02*
Y274378D01*
X248957D02*
X256043D01*
X248957Y271622D02*
X256043D01*
X251319Y273000D02*
X253681D01*
X252500Y271819D02*
Y274181D01*
X178622Y297457D02*
X181378D01*
X178622Y304543D02*
X181378D01*
X178622Y297457D02*
Y304543D01*
X181378Y297457D02*
Y304543D01*
X180000Y299819D02*
Y302181D01*
X178819Y301000D02*
X181181D01*
X93000Y48031D02*
Y51968D01*
X91031Y50000D02*
X94968D01*
X57386Y372665D02*
X104236D01*
X374209Y105974D02*
Y152825D01*
D16*
X0Y22500D02*
X22Y21504D01*
X88Y20511D01*
X198Y19521D01*
X352Y18537D01*
X550Y17561D01*
X790Y16594D01*
X1073Y15639D01*
X1398Y14698D01*
X1764Y13772D01*
X2171Y12863D01*
X2618Y11973D01*
X3104Y11104D01*
X3628Y10257D01*
X4189Y9434D01*
X4786Y8636D01*
X5417Y7866D01*
X6083Y7125D01*
X6780Y6414D01*
X7508Y5735D01*
X8265Y5088D01*
X9051Y4476D01*
X9862Y3899D01*
X10699Y3358D01*
X11559Y2855D01*
X12440Y2391D01*
X13340Y1966D01*
X14259Y1582D01*
X15194Y1238D01*
X16143Y937D01*
X17105Y678D01*
X18077Y461D01*
X19058Y288D01*
X20045Y159D01*
X21037Y73D01*
X22032Y31D01*
X374587Y350080D02*
X374566Y351071D01*
X374502Y352060D01*
X374395Y353045D01*
X374247Y354025D01*
X374056Y354997D01*
X373823Y355960D01*
X373549Y356913D01*
X373234Y357852D01*
X372879Y358778D01*
X372485Y359687D01*
X372052Y360578D01*
X371581Y361450D01*
X371072Y362300D01*
X370528Y363128D01*
X369948Y363932D01*
X369335Y364710D01*
X368688Y365461D01*
X368010Y366183D01*
X367301Y366876D01*
X366563Y367537D01*
X365797Y368166D01*
X365005Y368761D01*
X364188Y369321D01*
X363347Y369846D01*
X362485Y370335D01*
X361602Y370785D01*
X360701Y371197D01*
X359783Y371570D01*
X358850Y371903D01*
X357903Y372196D01*
X356944Y372447D01*
X355976Y372657D01*
X354999Y372825D01*
X354016Y372951D01*
X353029Y373034D01*
X352039Y373075D01*
X350500Y31D02*
X351505Y52D01*
X352508Y116D01*
X353507Y221D01*
X354501Y368D01*
X355488Y556D01*
X356467Y786D01*
X357435Y1056D01*
X358390Y1367D01*
X359332Y1718D01*
X360259Y2107D01*
X361168Y2536D01*
X362058Y3002D01*
X362928Y3505D01*
X363777Y4044D01*
X364602Y4617D01*
X365402Y5226D01*
X366176Y5867D01*
X366922Y6539D01*
X367640Y7243D01*
X368327Y7976D01*
X368983Y8738D01*
X369607Y9526D01*
X370197Y10339D01*
X370752Y11177D01*
X371272Y12037D01*
X371756Y12918D01*
X372201Y13818D01*
X372609Y14737D01*
X372978Y15672D01*
X373308Y16621D01*
X373597Y17583D01*
X373846Y18557D01*
X374054Y19541D01*
X374220Y20532D01*
X374345Y21529D01*
X374428Y22530D01*
X374469Y23535D01*
X24002Y373080D02*
X23014Y373080D01*
X22028Y373039D01*
X21044Y372957D01*
X20064Y372833D01*
X19091Y372669D01*
X18125Y372464D01*
X17168Y372219D01*
X16223Y371934D01*
X15291Y371610D01*
X14372Y371247D01*
X13470Y370846D01*
X12586Y370408D01*
X11720Y369932D01*
X10875Y369422D01*
X10052Y368876D01*
X9253Y368296D01*
X8479Y367683D01*
X7731Y367038D01*
X7011Y366363D01*
X6320Y365658D01*
X5658Y364925D01*
X5029Y364165D01*
X4431Y363379D01*
X3867Y362569D01*
X3337Y361735D01*
X2843Y360881D01*
X2384Y360006D01*
X1963Y359113D01*
X1580Y358204D01*
X1235Y357278D01*
X929Y356340D01*
X662Y355389D01*
X436Y354428D01*
X250Y353458D01*
X104Y352482D01*
X0Y351500D01*
X24002Y373080D02*
X352039D01*
X374565Y23867D02*
Y33358D01*
X22032Y31D02*
X350500D01*
X374555Y33557D02*
X374555Y350138D01*
X0Y22500D02*
Y351500D01*
D148*
X70882Y144331D02*
X81118D01*
X70882Y135669D02*
X81118D01*
X70882D02*
Y144331D01*
X81118Y135669D02*
Y144331D01*
X108366Y28240D02*
X128445D01*
X108366Y6587D02*
X128445D01*
Y28240D01*
X108366Y6587D02*
Y28240D01*
X4331Y313642D02*
X47244D01*
Y181358D02*
Y313642D01*
X4331Y181358D02*
Y313642D01*
Y181358D02*
X47244D01*
X25787Y245532D02*
Y249468D01*
X23819Y247500D02*
X27756D01*
X97720Y350776D02*
Y377468D01*
X65280Y350776D02*
X97720D01*
X65280D02*
Y377468D01*
X97720D01*
X135642Y334315D02*
Y363685D01*
X103358D02*
X135642D01*
X103358Y334315D02*
Y363685D01*
Y334315D02*
X135642D01*
X141106Y363394D02*
X201894D01*
Y340087D02*
Y363394D01*
X141106Y340087D02*
Y363394D01*
Y340087D02*
X201894D01*
X142366Y96335D02*
Y100665D01*
X150634Y96335D02*
Y100665D01*
X142366D02*
X150634D01*
X142366Y96335D02*
X150634D01*
X87532Y179921D02*
X91469D01*
Y170078D02*
Y179921D01*
X87532Y170078D02*
Y179921D01*
Y170078D02*
X91469D01*
X86835Y182366D02*
X91165D01*
X86835Y190634D02*
X91165D01*
X86835Y182366D02*
Y190634D01*
X91165Y182366D02*
Y190634D01*
X118898Y286689D02*
Y290311D01*
Y286689D02*
X126102D01*
Y290311D01*
X118898D02*
X126102D01*
X97398Y286189D02*
Y289811D01*
Y286189D02*
X104602D01*
Y289811D01*
X97398D02*
X104602D01*
X148689Y276398D02*
X152311D01*
Y283602D01*
X148689D02*
X152311D01*
X148689Y276398D02*
Y283602D01*
X65398Y27689D02*
X72602D01*
X65398D02*
Y31311D01*
X72602D01*
Y27689D02*
Y31311D01*
X87189Y30898D02*
Y38102D01*
X90811D01*
Y30898D02*
Y38102D01*
X87189Y30898D02*
X90811D01*
X122472Y31401D02*
Y38605D01*
X126094D01*
Y31401D02*
Y38605D01*
X122472Y31401D02*
X126094D01*
X98898Y27189D02*
X106102D01*
X98898D02*
Y30811D01*
X106102D01*
Y27189D02*
Y30811D01*
X137311Y45398D02*
Y52602D01*
X133689Y45398D02*
X137311D01*
X133689D02*
Y52602D01*
X137311D01*
X132811Y68398D02*
Y75602D01*
X129189Y68398D02*
X132811D01*
X129189D02*
Y75602D01*
X132811D01*
X115898Y45311D02*
X123102D01*
Y41689D02*
Y45311D01*
X115898Y41689D02*
X123102D01*
X115898D02*
Y45311D01*
X112689Y84898D02*
Y92102D01*
X116311D01*
Y84898D02*
Y92102D01*
X112689Y84898D02*
X116311D01*
X109748Y66929D02*
Y83071D01*
X128252Y66929D02*
Y83071D01*
X109748D02*
X128252D01*
X109748Y66929D02*
X128252D01*
X113248Y45929D02*
Y62071D01*
X131752Y45929D02*
Y62071D01*
X113248D02*
X131752D01*
X113248Y45929D02*
X131752D01*
X72961Y6567D02*
Y28220D01*
X93039Y6567D02*
Y28220D01*
X72961Y6567D02*
X93039D01*
X72961Y28220D02*
X93039D01*
X128689Y189102D02*
X132311D01*
X128689Y181898D02*
Y189102D01*
Y181898D02*
X132311D01*
Y189102D01*
X156189Y206602D02*
X159811D01*
X156189Y199398D02*
Y206602D01*
Y199398D02*
X159811D01*
Y206602D01*
X156189Y234102D02*
X159811D01*
X156189Y226898D02*
Y234102D01*
Y226898D02*
X159811D01*
Y234102D01*
X159398Y248689D02*
Y252311D01*
Y248689D02*
X166602D01*
Y252311D01*
X159398D02*
X166602D01*
X69398Y283689D02*
Y287311D01*
Y283689D02*
X76602D01*
Y287311D01*
X69398D02*
X76602D01*
X57189Y244398D02*
X60811D01*
Y251602D01*
X57189D02*
X60811D01*
X57189Y244398D02*
Y251602D01*
X57689Y224898D02*
X61311D01*
Y232102D01*
X57689D02*
X61311D01*
X57689Y224898D02*
Y232102D01*
X61602Y199689D02*
Y203311D01*
X54398D02*
X61602D01*
X54398Y199689D02*
Y203311D01*
Y199689D02*
X61602D01*
X110398Y183189D02*
X117602D01*
X110398D02*
Y186811D01*
X117602D01*
Y183189D02*
Y186811D01*
X119398D02*
X126602D01*
Y183189D02*
Y186811D01*
X119398Y183189D02*
X126602D01*
X119398D02*
Y186811D01*
X142232Y180146D02*
X158768D01*
X142232D02*
Y185854D01*
X158768D01*
Y180146D02*
Y185854D01*
X135189Y187102D02*
X138811D01*
X135189Y179898D02*
Y187102D01*
Y179898D02*
X138811D01*
Y187102D01*
X139898Y186689D02*
Y190311D01*
Y186689D02*
X147102D01*
Y190311D01*
X139898D02*
X147102D01*
X63618Y191618D02*
X153382D01*
X63618Y281382D02*
X153382D01*
X63618Y191618D02*
Y281382D01*
X153382Y191618D02*
Y281382D01*
X11024Y331295D02*
X55976D01*
X11024D02*
Y355705D01*
X55976Y331295D02*
Y355705D01*
X11024D02*
X55976D01*
X59398Y336311D02*
X66602D01*
Y332689D02*
Y336311D01*
X59398Y332689D02*
X66602D01*
X59398D02*
Y336311D01*
X85811Y182898D02*
Y190102D01*
X82189Y182898D02*
X85811D01*
X82189D02*
Y190102D01*
X85811D01*
X100398Y185189D02*
X107602D01*
X100398D02*
Y188811D01*
X107602D01*
Y185189D02*
Y188811D01*
X67398Y174311D02*
X74602D01*
Y170689D02*
Y174311D01*
X67398Y170689D02*
X74602D01*
X67398D02*
Y174311D01*
Y182811D02*
X74602D01*
Y179189D02*
Y182811D01*
X67398Y179189D02*
X74602D01*
X67398D02*
Y182811D01*
X256898Y98689D02*
X264102D01*
X256898D02*
Y102311D01*
X264102D01*
Y98689D02*
Y102311D01*
X181032Y169421D02*
X184969D01*
Y159578D02*
Y169421D01*
X181032Y159578D02*
Y169421D01*
Y159578D02*
X184969D01*
X162032Y160421D02*
X165969D01*
Y150578D02*
Y160421D01*
X162032Y150578D02*
Y160421D01*
Y150578D02*
X165969D01*
X282079Y211032D02*
Y214969D01*
X291922D01*
X282079Y211032D02*
X291922D01*
Y214969D01*
X31032Y52000D02*
X34969D01*
X33000Y50032D02*
Y53969D01*
X74142Y17748D02*
Y86252D01*
X3669Y17748D02*
X74142D01*
X3669D02*
Y86252D01*
X74142D01*
X172669Y31882D02*
Y42118D01*
X181331Y31882D02*
Y42118D01*
X172669Y31882D02*
X181331D01*
X172669Y42118D02*
X181331D01*
X135382Y24669D02*
X145618D01*
X135382Y33331D02*
X145618D01*
Y24669D02*
Y33331D01*
X135382Y24669D02*
Y33331D01*
X139945Y-547D02*
Y22228D01*
Y-547D02*
X183055D01*
Y22228D01*
X139945D02*
X183055D01*
X159531Y9000D02*
X163469D01*
X161500Y7032D02*
Y10968D01*
X290957Y84543D02*
Y92457D01*
X298043Y84543D02*
Y92457D01*
X290957Y84543D02*
X298043D01*
X290957Y92457D02*
X298043D01*
X319169Y296118D02*
X327831D01*
X319169Y285882D02*
X327831D01*
Y296118D01*
X319169Y285882D02*
Y296118D01*
X258457Y157043D02*
Y164957D01*
X265543Y157043D02*
Y164957D01*
X258457Y157043D02*
X265543D01*
X258457Y164957D02*
X265543D01*
X181866Y171835D02*
Y176165D01*
X190134Y171835D02*
Y176165D01*
X181866D02*
X190134D01*
X181866Y171835D02*
X190134D01*
X161835Y162366D02*
X166165D01*
X161835Y170634D02*
X166165D01*
X161835Y162366D02*
Y170634D01*
X166165Y162366D02*
Y170634D01*
X279634Y210835D02*
Y215165D01*
X271366Y210835D02*
Y215165D01*
Y210835D02*
X279634D01*
X271366Y215165D02*
X279634D01*
X344087Y251606D02*
Y312394D01*
X367394D01*
X344087Y251606D02*
X367394D01*
Y312394D01*
X78543Y148957D02*
X86457D01*
X78543Y156043D02*
X86457D01*
Y148957D02*
Y156043D01*
X78543Y148957D02*
Y156043D01*
X67543Y157457D02*
X75457D01*
X67543Y164543D02*
X75457D01*
Y157457D02*
Y164543D01*
X67543Y157457D02*
Y164543D01*
X352319Y112490D02*
X379012D01*
X352319D02*
Y144931D01*
X379012D01*
Y112490D02*
Y144931D01*
X269543Y157457D02*
X277457D01*
X269543Y164543D02*
X277457D01*
Y157457D02*
Y164543D01*
X269543Y157457D02*
Y164543D01*
X263031Y140579D02*
X266968D01*
X263031D02*
Y150422D01*
X266968Y140579D02*
Y150422D01*
X263031D02*
X266968D01*
X254835Y140366D02*
X259165D01*
X254835Y148634D02*
X259165D01*
X254835Y140366D02*
Y148634D01*
X259165Y140366D02*
Y148634D01*
X344531Y197000D02*
X348468D01*
X346500Y195031D02*
Y198969D01*
X22532Y129000D02*
X26469D01*
X24500Y127032D02*
Y130968D01*
X247992Y90760D02*
X252008D01*
X247992Y83240D02*
Y90760D01*
Y83240D02*
X252008D01*
Y90760D01*
X247740Y77189D02*
Y80811D01*
Y77189D02*
X254945D01*
Y80811D01*
X247740D02*
X254945D01*
X247740Y66689D02*
Y70311D01*
Y66689D02*
X254945D01*
Y70311D01*
X247740D02*
X254945D01*
X247740Y72189D02*
Y75811D01*
Y72189D02*
X254945D01*
Y75811D01*
X247740D02*
X254945D01*
X195602Y54689D02*
Y58311D01*
X188398D02*
X195602D01*
X188398Y54689D02*
Y58311D01*
Y54689D02*
X195602D01*
X195189Y67102D02*
X198811D01*
X195189Y59898D02*
Y67102D01*
Y59898D02*
X198811D01*
Y67102D01*
X256279Y245992D02*
Y250008D01*
X248760D02*
X256279D01*
X248760Y245992D02*
Y250008D01*
Y245992D02*
X256279D01*
X248760Y258189D02*
Y261811D01*
Y258189D02*
X255965D01*
Y261811D01*
X248760D02*
X255965D01*
X202102Y258689D02*
Y262311D01*
X194898D02*
X202102D01*
X194898Y258689D02*
Y262311D01*
Y258689D02*
X202102D01*
X247740Y47689D02*
Y51311D01*
Y47689D02*
X254945D01*
Y51311D01*
X247740D02*
X254945D01*
X255260Y58492D02*
Y62508D01*
X247740D02*
X255260D01*
X247740Y58492D02*
Y62508D01*
Y58492D02*
X255260D01*
X247740Y53189D02*
Y56811D01*
Y53189D02*
X254945D01*
Y56811D01*
X247740D02*
X254945D01*
X161422Y96532D02*
Y100469D01*
X151579Y96532D02*
X161422D01*
X151579Y100469D02*
X161422D01*
X151579Y96532D02*
Y100469D01*
M02*
