G04*
G04 #@! TF.GenerationSoftware,Altium Limited,Altium Designer,20.0.11 (256)*
G04*
G04 Layer_Color=16711935*
%FSLAX25Y25*%
%MOIN*%
G70*
G01*
G75*
%ADD11C,0.00591*%
%ADD15C,0.00394*%
%ADD16C,0.01000*%
%ADD63O,0.05124X0.07093*%
%ADD64O,0.04337X0.05912*%
%ADD65C,0.07487*%
%ADD66R,0.07487X0.07487*%
%ADD67C,0.06181*%
%ADD68C,0.03353*%
%ADD69C,0.02565*%
%ADD70C,0.06306*%
%ADD71R,0.06306X0.06306*%
%ADD72R,0.07487X0.07487*%
%ADD73O,0.07093X0.05124*%
%ADD74O,0.05912X0.04337*%
%ADD75C,0.05991*%
%ADD76C,0.13983*%
%ADD77O,0.11030X0.06306*%
%ADD78O,0.13392X0.06306*%
%ADD79C,0.02400*%
%ADD80C,0.04400*%
D11*
X64079Y371642D02*
Y368690D01*
X62603D01*
X62111Y369182D01*
Y370166D01*
X62603Y370658D01*
X64079D01*
X59159Y369182D02*
X59651Y368690D01*
X60635D01*
X61127Y369182D01*
Y371150D01*
X60635Y371642D01*
X59651D01*
X59159Y371150D01*
X58175Y368690D02*
Y371642D01*
X56699D01*
X56207Y371150D01*
Y370658D01*
X56699Y370166D01*
X58175D01*
X56699D01*
X56207Y369674D01*
Y369182D01*
X56699Y368690D01*
X58175D01*
X50304D02*
X52271D01*
Y371642D01*
X50304D01*
X52271Y370166D02*
X51288D01*
X47352Y368690D02*
Y371642D01*
X48828D01*
X49320Y371150D01*
Y370166D01*
X48828Y369674D01*
X47352D01*
X45384Y372626D02*
X44892D01*
X44400Y372134D01*
Y369674D01*
X45876D01*
X46368Y370166D01*
Y371150D01*
X45876Y371642D01*
X44400D01*
X41940D02*
X42924D01*
X43416Y371150D01*
Y370166D01*
X42924Y369674D01*
X41940D01*
X41448Y370166D01*
Y370658D01*
X43416D01*
X373185Y146132D02*
X370233D01*
Y147608D01*
X370725Y148100D01*
X371709D01*
X372201Y147608D01*
Y146132D01*
X370725Y151052D02*
X370233Y150560D01*
Y149576D01*
X370725Y149084D01*
X372693D01*
X373185Y149576D01*
Y150560D01*
X372693Y151052D01*
X370233Y152035D02*
X373185D01*
Y153511D01*
X372693Y154003D01*
X372201D01*
X371709Y153511D01*
Y152035D01*
Y153511D01*
X371217Y154003D01*
X370725D01*
X370233Y153511D01*
Y152035D01*
Y159907D02*
Y157939D01*
X373185D01*
Y159907D01*
X371709Y157939D02*
Y158923D01*
X370233Y162859D02*
X373185D01*
Y161383D01*
X372693Y160891D01*
X371709D01*
X371217Y161383D01*
Y162859D01*
X374169Y164827D02*
Y165319D01*
X373677Y165811D01*
X371217D01*
Y164335D01*
X371709Y163843D01*
X372693D01*
X373185Y164335D01*
Y165811D01*
Y168271D02*
Y167287D01*
X372693Y166795D01*
X371709D01*
X371217Y167287D01*
Y168271D01*
X371709Y168762D01*
X372201D01*
Y166795D01*
D15*
X57386Y372665D02*
X104236D01*
X374209Y105974D02*
Y152825D01*
D16*
X0Y22500D02*
X22Y21504D01*
X88Y20511D01*
X198Y19521D01*
X352Y18537D01*
X550Y17561D01*
X790Y16594D01*
X1073Y15639D01*
X1398Y14698D01*
X1764Y13772D01*
X2171Y12863D01*
X2618Y11973D01*
X3104Y11104D01*
X3628Y10257D01*
X4189Y9434D01*
X4786Y8636D01*
X5417Y7866D01*
X6083Y7125D01*
X6780Y6414D01*
X7508Y5735D01*
X8265Y5088D01*
X9051Y4476D01*
X9862Y3899D01*
X10699Y3358D01*
X11559Y2855D01*
X12440Y2391D01*
X13340Y1966D01*
X14259Y1582D01*
X15194Y1238D01*
X16143Y937D01*
X17105Y678D01*
X18077Y461D01*
X19058Y288D01*
X20045Y159D01*
X21037Y73D01*
X22032Y31D01*
X374587Y350080D02*
X374566Y351071D01*
X374502Y352060D01*
X374395Y353045D01*
X374247Y354025D01*
X374056Y354997D01*
X373823Y355960D01*
X373549Y356913D01*
X373234Y357852D01*
X372879Y358778D01*
X372485Y359687D01*
X372052Y360578D01*
X371581Y361450D01*
X371072Y362300D01*
X370528Y363128D01*
X369948Y363932D01*
X369335Y364710D01*
X368688Y365461D01*
X368010Y366183D01*
X367301Y366876D01*
X366563Y367537D01*
X365797Y368166D01*
X365005Y368761D01*
X364188Y369321D01*
X363347Y369846D01*
X362485Y370335D01*
X361602Y370785D01*
X360701Y371197D01*
X359783Y371570D01*
X358850Y371903D01*
X357903Y372196D01*
X356944Y372447D01*
X355976Y372657D01*
X354999Y372825D01*
X354016Y372951D01*
X353029Y373034D01*
X352039Y373075D01*
X350500Y31D02*
X351505Y52D01*
X352508Y116D01*
X353507Y221D01*
X354501Y368D01*
X355488Y556D01*
X356467Y786D01*
X357435Y1056D01*
X358390Y1367D01*
X359332Y1718D01*
X360259Y2107D01*
X361168Y2536D01*
X362058Y3002D01*
X362928Y3505D01*
X363777Y4044D01*
X364602Y4617D01*
X365402Y5226D01*
X366176Y5867D01*
X366922Y6539D01*
X367640Y7243D01*
X368327Y7976D01*
X368983Y8738D01*
X369607Y9526D01*
X370197Y10339D01*
X370752Y11177D01*
X371272Y12037D01*
X371756Y12918D01*
X372201Y13818D01*
X372609Y14737D01*
X372978Y15672D01*
X373308Y16621D01*
X373597Y17583D01*
X373846Y18557D01*
X374054Y19541D01*
X374220Y20532D01*
X374345Y21529D01*
X374428Y22530D01*
X374469Y23535D01*
X24002Y373080D02*
X23014Y373080D01*
X22028Y373039D01*
X21044Y372957D01*
X20064Y372833D01*
X19091Y372669D01*
X18125Y372464D01*
X17168Y372219D01*
X16223Y371934D01*
X15291Y371610D01*
X14372Y371247D01*
X13470Y370846D01*
X12586Y370408D01*
X11720Y369932D01*
X10875Y369422D01*
X10052Y368876D01*
X9253Y368296D01*
X8479Y367683D01*
X7731Y367038D01*
X7011Y366363D01*
X6320Y365658D01*
X5658Y364925D01*
X5029Y364165D01*
X4431Y363379D01*
X3867Y362569D01*
X3337Y361735D01*
X2843Y360881D01*
X2384Y360006D01*
X1963Y359113D01*
X1580Y358204D01*
X1235Y357278D01*
X929Y356340D01*
X662Y355389D01*
X436Y354428D01*
X250Y353458D01*
X104Y352482D01*
X0Y351500D01*
X24002Y373080D02*
X352039D01*
X374565Y23867D02*
Y33358D01*
X22032Y31D02*
X350500D01*
X374555Y33557D02*
X374555Y350138D01*
X0Y22500D02*
Y351500D01*
D63*
X70772Y365972D02*
D03*
X92228D02*
D03*
D64*
X71953Y354043D02*
D03*
X91047D02*
D03*
D65*
X166500Y350500D02*
D03*
X156500D02*
D03*
X176500D02*
D03*
X186500D02*
D03*
X196500D02*
D03*
X18236Y42158D02*
D03*
Y61843D02*
D03*
X354500Y257000D02*
D03*
Y267000D02*
D03*
Y277000D02*
D03*
Y297000D02*
D03*
Y287000D02*
D03*
D66*
X146500Y350500D02*
D03*
D67*
X93000Y312000D02*
D03*
X99000Y174500D02*
D03*
X121500Y151500D02*
D03*
X278000Y257000D02*
D03*
X61000Y93500D02*
D03*
X277500Y66500D02*
D03*
X128000Y95000D02*
D03*
X321500Y151000D02*
D03*
X87000Y91000D02*
D03*
X277000Y35500D02*
D03*
X331000Y79500D02*
D03*
D68*
X226008Y33067D02*
D03*
D69*
Y334642D02*
D03*
D70*
X345500Y97000D02*
D03*
X355500D02*
D03*
D71*
X365500D02*
D03*
D72*
X354500Y307000D02*
D03*
D73*
X367516Y139439D02*
D03*
Y117982D02*
D03*
D74*
X355587Y138258D02*
D03*
Y119163D02*
D03*
D75*
X322917Y200937D02*
D03*
Y193063D02*
D03*
Y210780D02*
D03*
Y183221D02*
D03*
D76*
X333587Y171134D02*
D03*
Y222866D02*
D03*
D77*
X18693Y100457D02*
D03*
Y157543D02*
D03*
D78*
X42315Y100457D02*
D03*
Y157543D02*
D03*
D79*
X102000Y104000D02*
D03*
X80500Y104500D02*
D03*
X88000Y109500D02*
D03*
X54000Y160500D02*
D03*
X65996Y143000D02*
D03*
X65000Y147500D02*
D03*
X63900Y138900D02*
D03*
X86000Y136500D02*
D03*
X276000Y167500D02*
D03*
X318500Y271500D02*
D03*
Y283000D02*
D03*
X323500Y277500D02*
D03*
Y282500D02*
D03*
X93000Y337500D02*
D03*
X87000Y143500D02*
D03*
X259000Y60500D02*
D03*
X306500Y146000D02*
D03*
Y163000D02*
D03*
X327500Y142000D02*
D03*
X205500Y104000D02*
D03*
X74500Y247500D02*
D03*
X84000Y205500D02*
D03*
X136500Y201500D02*
D03*
X105721Y182913D02*
D03*
X66500Y285500D02*
D03*
X220500Y81500D02*
D03*
X226500Y77000D02*
D03*
X98000Y187000D02*
D03*
X106500Y160500D02*
D03*
X85000Y172000D02*
D03*
X164500Y232500D02*
D03*
X142500Y251000D02*
D03*
X155500Y284000D02*
D03*
X117000Y288500D02*
D03*
X95500Y288000D02*
D03*
X76000Y207000D02*
D03*
X74500Y227500D02*
D03*
X142500Y213500D02*
D03*
X161500Y183000D02*
D03*
X143500Y201500D02*
D03*
X133500Y23000D02*
D03*
X122500Y63000D02*
D03*
X76500Y347500D02*
D03*
X62500Y29500D02*
D03*
X85503Y36232D02*
D03*
X98000Y24000D02*
D03*
X128500Y37000D02*
D03*
X126000Y43500D02*
D03*
X135500Y43000D02*
D03*
X131000Y66500D02*
D03*
X119125Y84039D02*
D03*
X109500Y90000D02*
D03*
X124500Y293000D02*
D03*
X103000Y292500D02*
D03*
X59000Y254000D02*
D03*
X59500Y235000D02*
D03*
X56000Y206000D02*
D03*
X114000Y157500D02*
D03*
X84000Y180500D02*
D03*
X112000Y181000D02*
D03*
X139000Y177500D02*
D03*
X150000Y188500D02*
D03*
X162000Y229000D02*
D03*
X169500Y250500D02*
D03*
X158000Y279000D02*
D03*
X150500Y286500D02*
D03*
X73000Y291000D02*
D03*
X78000Y298500D02*
D03*
X68500Y328000D02*
D03*
X69500Y334500D02*
D03*
X97500Y328000D02*
D03*
X127500Y331000D02*
D03*
X113000D02*
D03*
X120000Y315000D02*
D03*
X132000Y176500D02*
D03*
X159500Y92500D02*
D03*
X138500Y223500D02*
D03*
X132500Y292500D02*
D03*
X110000Y292000D02*
D03*
Y266500D02*
D03*
X121319Y207343D02*
D03*
X52500Y272500D02*
D03*
X80000Y251000D02*
D03*
X49000Y232500D02*
D03*
X55500Y239000D02*
D03*
X45000Y258000D02*
D03*
X102500Y303000D02*
D03*
X94552Y299334D02*
D03*
X170500Y303000D02*
D03*
Y307000D02*
D03*
X180000Y294500D02*
D03*
X179875Y316354D02*
D03*
X204500Y209500D02*
D03*
X131000Y202000D02*
D03*
X129000Y205500D02*
D03*
X125500Y208000D02*
D03*
X197500Y212000D02*
D03*
X183500Y240000D02*
D03*
X166500Y239500D02*
D03*
X160135Y238365D02*
D03*
X166625Y207115D02*
D03*
X182000Y212500D02*
D03*
X202500Y215000D02*
D03*
X194500Y224500D02*
D03*
X317500Y113500D02*
D03*
X327500Y112188D02*
D03*
X337500D02*
D03*
X259000Y63500D02*
D03*
X231000Y76500D02*
D03*
X229500Y61000D02*
D03*
X204500Y61500D02*
D03*
X258500Y79000D02*
D03*
X272500Y90500D02*
D03*
X227000Y97500D02*
D03*
X180000Y89500D02*
D03*
X247000Y104000D02*
D03*
X265500Y121000D02*
D03*
X59500Y135500D02*
D03*
X231000Y106000D02*
D03*
X65000Y163000D02*
D03*
X220500Y138500D02*
D03*
Y146000D02*
D03*
Y152500D02*
D03*
Y160000D02*
D03*
Y167000D02*
D03*
X204000Y187000D02*
D03*
X205000Y196000D02*
D03*
X246500Y184000D02*
D03*
X230500Y195000D02*
D03*
X247500Y203500D02*
D03*
X226000Y204000D02*
D03*
X247500Y216500D02*
D03*
X227000Y215000D02*
D03*
X220000Y218000D02*
D03*
X225000Y227000D02*
D03*
X220500Y230000D02*
D03*
X221000Y235000D02*
D03*
X250000Y227500D02*
D03*
X229500Y233500D02*
D03*
X229588Y243495D02*
D03*
X229433Y264751D02*
D03*
Y271760D02*
D03*
Y278900D02*
D03*
X221500Y273000D02*
D03*
Y280000D02*
D03*
Y287500D02*
D03*
Y294500D02*
D03*
Y301500D02*
D03*
X203500Y312000D02*
D03*
X287998Y111752D02*
D03*
X288000Y170000D02*
D03*
X256000Y89000D02*
D03*
X257000Y152500D02*
D03*
X255500Y112500D02*
D03*
X165500Y51000D02*
D03*
X160000Y83500D02*
D03*
X84000Y146500D02*
D03*
X48500Y169500D02*
D03*
X205500Y73000D02*
D03*
X184500Y56500D02*
D03*
X166500Y13500D02*
D03*
X160500D02*
D03*
X230500Y183000D02*
D03*
X202000Y169500D02*
D03*
X200500Y177500D02*
D03*
X224000Y194000D02*
D03*
X177000Y49500D02*
D03*
X180500Y46000D02*
D03*
X147500Y36000D02*
D03*
X148123Y29017D02*
D03*
X173000Y28500D02*
D03*
X153900Y29300D02*
D03*
X167463Y28323D02*
D03*
X156107Y36434D02*
D03*
X172638Y79000D02*
D03*
X306500Y200000D02*
D03*
X202500Y96000D02*
D03*
X223500Y94500D02*
D03*
X198000Y200000D02*
D03*
X229000Y201000D02*
D03*
X228500Y210500D02*
D03*
X227500Y220000D02*
D03*
X222270Y222174D02*
D03*
X229500Y238500D02*
D03*
X230000Y101000D02*
D03*
X35500Y130825D02*
D03*
Y125038D02*
D03*
Y119053D02*
D03*
Y113500D02*
D03*
X323500Y298500D02*
D03*
X318125Y298375D02*
D03*
X318000Y304500D02*
D03*
X62021Y157771D02*
D03*
X35500Y142500D02*
D03*
X96025Y161160D02*
D03*
X251500Y307500D02*
D03*
X351500Y106000D02*
D03*
X292500Y122000D02*
D03*
Y134000D02*
D03*
X76500Y172500D02*
D03*
Y181000D02*
D03*
X178500Y161000D02*
D03*
X158500Y152000D02*
D03*
X290000Y207500D02*
D03*
X246000Y300154D02*
D03*
Y293077D02*
D03*
Y286000D02*
D03*
X259000Y277500D02*
D03*
Y273000D02*
D03*
Y260000D02*
D03*
Y248000D02*
D03*
X205500Y266000D02*
D03*
X190500Y260500D02*
D03*
X246000Y222182D02*
D03*
Y208000D02*
D03*
Y179671D02*
D03*
Y172500D02*
D03*
Y165500D02*
D03*
Y158500D02*
D03*
Y151500D02*
D03*
X205500Y244500D02*
D03*
Y180790D02*
D03*
Y173825D02*
D03*
X246000Y137202D02*
D03*
Y130000D02*
D03*
X205500Y131500D02*
D03*
Y124000D02*
D03*
X246000Y123000D02*
D03*
Y116000D02*
D03*
X205500Y117000D02*
D03*
X246000Y108800D02*
D03*
Y94500D02*
D03*
X258000Y195500D02*
D03*
Y199500D02*
D03*
X314000Y211000D02*
D03*
X271000Y180000D02*
D03*
X255500Y163500D02*
D03*
X348000Y134000D02*
D03*
X317500Y104000D02*
D03*
X306500Y81500D02*
D03*
X294500D02*
D03*
X259000Y105000D02*
D03*
X258500Y74000D02*
D03*
X259000Y55000D02*
D03*
Y49500D02*
D03*
D80*
X187000Y10500D02*
D03*
X136000Y10000D02*
D03*
X25500Y207500D02*
D03*
X13000Y308000D02*
D03*
X52000Y359500D02*
D03*
X70000Y14000D02*
D03*
X130500Y14500D02*
D03*
X105500Y17500D02*
D03*
X77000Y38500D02*
D03*
X288500Y60000D02*
D03*
X278500Y188500D02*
D03*
X281500Y86000D02*
D03*
X197500Y254000D02*
D03*
X138000Y90000D02*
D03*
X193500Y37500D02*
D03*
X177500Y59000D02*
D03*
X178000Y68500D02*
D03*
X146500Y59000D02*
D03*
X97500Y142000D02*
D03*
X103000Y37500D02*
D03*
X63500Y186500D02*
D03*
X84000Y73000D02*
D03*
X34500Y11000D02*
D03*
Y92000D02*
D03*
M02*
