G04*
G04 #@! TF.GenerationSoftware,Altium Limited,Altium Designer,20.0.11 (256)*
G04*
G04 Layer_Physical_Order=2*
G04 Layer_Color=36540*
%FSLAX25Y25*%
%MOIN*%
G70*
G01*
G75*
%ADD11C,0.00591*%
%ADD15C,0.00394*%
%ADD16C,0.01000*%
%ADD130C,0.07087*%
%ADD135R,0.05906X0.05906*%
%ADD139C,0.05591*%
%ADD143C,0.02000*%
%ADD144C,0.04000*%
G36*
X67529Y369000D02*
X67772Y368500D01*
X67496Y367834D01*
X67380Y366957D01*
Y364988D01*
X67496Y364110D01*
X67835Y363293D01*
X68374Y362590D01*
X69076Y362051D01*
X69894Y361713D01*
X70772Y361597D01*
X71649Y361713D01*
X72467Y362051D01*
X73170Y362590D01*
X73708Y363293D01*
X74047Y364110D01*
X74163Y364988D01*
Y366957D01*
X74047Y367834D01*
X73772Y368500D01*
X74014Y369000D01*
X88986D01*
X89228Y368500D01*
X88953Y367834D01*
X88837Y366957D01*
Y364988D01*
X88953Y364110D01*
X89292Y363293D01*
X89830Y362590D01*
X90533Y362051D01*
X91351Y361713D01*
X92228Y361597D01*
X93106Y361713D01*
X93924Y362051D01*
X94626Y362590D01*
X95165Y363293D01*
X95504Y364110D01*
X95620Y364988D01*
Y366957D01*
X95504Y367834D01*
X95228Y368500D01*
X95471Y369000D01*
X354000Y369000D01*
X372000Y351000D01*
X372000Y141082D01*
X371500Y140982D01*
X371437Y141135D01*
X370898Y141837D01*
X370196Y142376D01*
X369378Y142715D01*
X368500Y142830D01*
X366531D01*
X365654Y142715D01*
X364836Y142376D01*
X364134Y141837D01*
X363595Y141135D01*
X363256Y140317D01*
X363140Y139439D01*
X363256Y138561D01*
X363595Y137743D01*
X364134Y137041D01*
X364836Y136502D01*
X365654Y136163D01*
X366531Y136048D01*
X368500D01*
X369378Y136163D01*
X370196Y136502D01*
X370898Y137041D01*
X371437Y137743D01*
X371500Y137896D01*
X372000Y137796D01*
Y119625D01*
X371500Y119526D01*
X371437Y119678D01*
X370898Y120380D01*
X370196Y120919D01*
X369378Y121258D01*
X368500Y121373D01*
X366531D01*
X365654Y121258D01*
X364836Y120919D01*
X364134Y120380D01*
X363595Y119678D01*
X363256Y118860D01*
X363140Y117982D01*
X363256Y117105D01*
X363595Y116287D01*
X364134Y115584D01*
X364836Y115045D01*
X365654Y114707D01*
X366531Y114591D01*
X368500D01*
X369378Y114707D01*
X370196Y115045D01*
X370898Y115584D01*
X371437Y116287D01*
X371500Y116439D01*
X372000Y116340D01*
Y30801D01*
X346199Y5000D01*
X28000Y5000D01*
X5000Y28000D01*
X5000Y352000D01*
X22000Y369000D01*
X67529D01*
D02*
G37*
%LPC*%
G36*
X52500Y361440D02*
Y360000D01*
X53940D01*
X53884Y360280D01*
X53442Y360942D01*
X52780Y361384D01*
X52500Y361440D01*
D02*
G37*
G36*
X51500D02*
X51220Y361384D01*
X50558Y360942D01*
X50116Y360280D01*
X50060Y360000D01*
X51500D01*
Y361440D01*
D02*
G37*
G36*
X53940Y359000D02*
X52500D01*
Y357560D01*
X52780Y357616D01*
X53442Y358058D01*
X53884Y358720D01*
X53940Y359000D01*
D02*
G37*
G36*
X51500D02*
X50060D01*
X50116Y358720D01*
X50558Y358058D01*
X51220Y357616D01*
X51500Y357560D01*
Y359000D01*
D02*
G37*
G36*
X197000Y354008D02*
Y351000D01*
X200008D01*
X199952Y351425D01*
X199595Y352287D01*
X199027Y353027D01*
X198287Y353595D01*
X197425Y353952D01*
X197000Y354008D01*
D02*
G37*
G36*
X187000D02*
Y351000D01*
X190008D01*
X189952Y351425D01*
X189595Y352287D01*
X189027Y353027D01*
X188287Y353595D01*
X187425Y353952D01*
X187000Y354008D01*
D02*
G37*
G36*
X186000D02*
X185575Y353952D01*
X184713Y353595D01*
X183973Y353027D01*
X183405Y352287D01*
X183048Y351425D01*
X182992Y351000D01*
X186000D01*
Y354008D01*
D02*
G37*
G36*
X196000D02*
X195575Y353952D01*
X194713Y353595D01*
X193973Y353027D01*
X193405Y352287D01*
X193048Y351425D01*
X192992Y351000D01*
X196000D01*
Y354008D01*
D02*
G37*
G36*
X91047Y357825D02*
X90272Y357723D01*
X89550Y357424D01*
X88930Y356948D01*
X88454Y356328D01*
X88155Y355606D01*
X88053Y354831D01*
Y353256D01*
X88155Y352481D01*
X88454Y351759D01*
X88930Y351139D01*
X89550Y350663D01*
X90272Y350364D01*
X91047Y350262D01*
X91822Y350364D01*
X92544Y350663D01*
X93164Y351139D01*
X93640Y351759D01*
X93939Y352481D01*
X94041Y353256D01*
Y354831D01*
X93939Y355606D01*
X93640Y356328D01*
X93164Y356948D01*
X92544Y357424D01*
X91822Y357723D01*
X91047Y357825D01*
D02*
G37*
G36*
X71953D02*
X71178Y357723D01*
X70456Y357424D01*
X69836Y356948D01*
X69360Y356328D01*
X69061Y355606D01*
X68959Y354831D01*
Y353256D01*
X69061Y352481D01*
X69360Y351759D01*
X69836Y351139D01*
X70456Y350663D01*
X71178Y350364D01*
X71953Y350262D01*
X72728Y350364D01*
X73450Y350663D01*
X74070Y351139D01*
X74546Y351759D01*
X74845Y352481D01*
X74947Y353256D01*
Y354831D01*
X74845Y355606D01*
X74546Y356328D01*
X74070Y356948D01*
X73450Y357424D01*
X72728Y357723D01*
X71953Y357825D01*
D02*
G37*
G36*
X77000Y348369D02*
Y348000D01*
X77369D01*
X77221Y348221D01*
X77000Y348369D01*
D02*
G37*
G36*
X76000D02*
X75779Y348221D01*
X75631Y348000D01*
X76000D01*
Y348369D01*
D02*
G37*
G36*
X200008Y350000D02*
X197000D01*
Y346992D01*
X197425Y347048D01*
X198287Y347405D01*
X199027Y347973D01*
X199595Y348713D01*
X199952Y349575D01*
X200008Y350000D01*
D02*
G37*
G36*
X190008D02*
X187000D01*
Y346992D01*
X187425Y347048D01*
X188287Y347405D01*
X189027Y347973D01*
X189595Y348713D01*
X189952Y349575D01*
X190008Y350000D01*
D02*
G37*
G36*
X196000D02*
X192992D01*
X193048Y349575D01*
X193405Y348713D01*
X193973Y347973D01*
X194713Y347405D01*
X195575Y347048D01*
X196000Y346992D01*
Y350000D01*
D02*
G37*
G36*
X186000D02*
X182992D01*
X183048Y349575D01*
X183405Y348713D01*
X183973Y347973D01*
X184713Y347405D01*
X185575Y347048D01*
X186000Y346992D01*
Y350000D01*
D02*
G37*
G36*
X77369Y347000D02*
X77000D01*
Y346631D01*
X77221Y346779D01*
X77369Y347000D01*
D02*
G37*
G36*
X76000D02*
X75631D01*
X75779Y346779D01*
X76000Y346631D01*
Y347000D01*
D02*
G37*
G36*
X151043Y355043D02*
X141957D01*
Y345957D01*
X151043D01*
Y355043D01*
D02*
G37*
G36*
X176500Y355083D02*
X175314Y354926D01*
X174209Y354469D01*
X173260Y353740D01*
X172531Y352791D01*
X172074Y351686D01*
X171917Y350500D01*
X172074Y349314D01*
X172531Y348209D01*
X173260Y347260D01*
X174209Y346531D01*
X175314Y346074D01*
X176500Y345918D01*
X177686Y346074D01*
X178791Y346531D01*
X179740Y347260D01*
X180469Y348209D01*
X180926Y349314D01*
X181082Y350500D01*
X180926Y351686D01*
X180469Y352791D01*
X179740Y353740D01*
X178791Y354469D01*
X177686Y354926D01*
X176500Y355083D01*
D02*
G37*
G36*
X166500D02*
X165314Y354926D01*
X164209Y354469D01*
X163260Y353740D01*
X162531Y352791D01*
X162074Y351686D01*
X161917Y350500D01*
X162074Y349314D01*
X162531Y348209D01*
X163260Y347260D01*
X164209Y346531D01*
X165314Y346074D01*
X166500Y345918D01*
X167686Y346074D01*
X168791Y346531D01*
X169740Y347260D01*
X170469Y348209D01*
X170926Y349314D01*
X171082Y350500D01*
X170926Y351686D01*
X170469Y352791D01*
X169740Y353740D01*
X168791Y354469D01*
X167686Y354926D01*
X166500Y355083D01*
D02*
G37*
G36*
X156500D02*
X155314Y354926D01*
X154209Y354469D01*
X153260Y353740D01*
X152531Y352791D01*
X152074Y351686D01*
X151918Y350500D01*
X152074Y349314D01*
X152531Y348209D01*
X153260Y347260D01*
X154209Y346531D01*
X155314Y346074D01*
X156500Y345918D01*
X157686Y346074D01*
X158791Y346531D01*
X159740Y347260D01*
X160469Y348209D01*
X160926Y349314D01*
X161082Y350500D01*
X160926Y351686D01*
X160469Y352791D01*
X159740Y353740D01*
X158791Y354469D01*
X157686Y354926D01*
X156500Y355083D01*
D02*
G37*
G36*
X93500Y338369D02*
Y338000D01*
X93869D01*
X93721Y338221D01*
X93500Y338369D01*
D02*
G37*
G36*
X92500D02*
X92279Y338221D01*
X92131Y338000D01*
X92500D01*
Y338369D01*
D02*
G37*
G36*
X93869Y337000D02*
X93500D01*
Y336631D01*
X93721Y336779D01*
X93869Y337000D01*
D02*
G37*
G36*
X92500D02*
X92131D01*
X92279Y336779D01*
X92500Y336631D01*
Y337000D01*
D02*
G37*
G36*
X70000Y335369D02*
Y335000D01*
X70369D01*
X70221Y335221D01*
X70000Y335369D01*
D02*
G37*
G36*
X69000D02*
X68779Y335221D01*
X68631Y335000D01*
X69000D01*
Y335369D01*
D02*
G37*
G36*
X70369Y334000D02*
X70000D01*
Y333631D01*
X70221Y333779D01*
X70369Y334000D01*
D02*
G37*
G36*
X69000D02*
X68631D01*
X68779Y333779D01*
X69000Y333631D01*
Y334000D01*
D02*
G37*
G36*
X128000Y331869D02*
Y331500D01*
X128369D01*
X128221Y331721D01*
X128000Y331869D01*
D02*
G37*
G36*
X127000D02*
X126779Y331721D01*
X126631Y331500D01*
X127000D01*
Y331869D01*
D02*
G37*
G36*
X113500D02*
Y331500D01*
X113869D01*
X113721Y331721D01*
X113500Y331869D01*
D02*
G37*
G36*
X112500D02*
X112279Y331721D01*
X112131Y331500D01*
X112500D01*
Y331869D01*
D02*
G37*
G36*
X226008Y337834D02*
X225182Y337726D01*
X224412Y337407D01*
X223750Y336899D01*
X223243Y336238D01*
X222924Y335468D01*
X222815Y334642D01*
X222924Y333815D01*
X223243Y333045D01*
X223750Y332384D01*
X224412Y331877D01*
X225182Y331558D01*
X226008Y331449D01*
X226834Y331558D01*
X227604Y331877D01*
X228265Y332384D01*
X228773Y333045D01*
X229092Y333815D01*
X229201Y334642D01*
X229092Y335468D01*
X228773Y336238D01*
X228265Y336899D01*
X227604Y337407D01*
X226834Y337726D01*
X226008Y337834D01*
D02*
G37*
G36*
X128369Y330500D02*
X128000D01*
Y330131D01*
X128221Y330279D01*
X128369Y330500D01*
D02*
G37*
G36*
X127000D02*
X126631D01*
X126779Y330279D01*
X127000Y330131D01*
Y330500D01*
D02*
G37*
G36*
X113869D02*
X113500D01*
Y330131D01*
X113721Y330279D01*
X113869Y330500D01*
D02*
G37*
G36*
X112500D02*
X112131D01*
X112279Y330279D01*
X112500Y330131D01*
Y330500D01*
D02*
G37*
G36*
X97500Y330039D02*
X96720Y329884D01*
X96058Y329442D01*
X95616Y328780D01*
X95461Y328000D01*
X95616Y327220D01*
X96058Y326558D01*
X96720Y326116D01*
X97500Y325961D01*
X98280Y326116D01*
X98942Y326558D01*
X99384Y327220D01*
X99539Y328000D01*
X99384Y328780D01*
X98942Y329442D01*
X98280Y329884D01*
X97500Y330039D01*
D02*
G37*
G36*
X68500D02*
X67720Y329884D01*
X67058Y329442D01*
X66616Y328780D01*
X66461Y328000D01*
X66616Y327220D01*
X67058Y326558D01*
X67720Y326116D01*
X68500Y325961D01*
X69280Y326116D01*
X69942Y326558D01*
X70384Y327220D01*
X70539Y328000D01*
X70384Y328780D01*
X69942Y329442D01*
X69280Y329884D01*
X68500Y330039D01*
D02*
G37*
G36*
X179875Y318394D02*
X179095Y318238D01*
X178433Y317796D01*
X177991Y317135D01*
X177836Y316354D01*
X177991Y315574D01*
X178433Y314913D01*
X179095Y314470D01*
X179875Y314315D01*
X180655Y314470D01*
X181317Y314913D01*
X181759Y315574D01*
X181914Y316354D01*
X181759Y317135D01*
X181317Y317796D01*
X180655Y318238D01*
X179875Y318394D01*
D02*
G37*
G36*
X120000Y317039D02*
X119220Y316884D01*
X118558Y316442D01*
X118116Y315780D01*
X117961Y315000D01*
X118116Y314220D01*
X118558Y313558D01*
X119220Y313116D01*
X120000Y312961D01*
X120780Y313116D01*
X121442Y313558D01*
X121884Y314220D01*
X122039Y315000D01*
X121884Y315780D01*
X121442Y316442D01*
X120780Y316884D01*
X120000Y317039D01*
D02*
G37*
G36*
X204000Y312869D02*
Y312500D01*
X204369D01*
X204221Y312721D01*
X204000Y312869D01*
D02*
G37*
G36*
X203000D02*
X202779Y312721D01*
X202631Y312500D01*
X203000D01*
Y312869D01*
D02*
G37*
G36*
X204369Y311500D02*
X204000D01*
Y311131D01*
X204221Y311279D01*
X204369Y311500D01*
D02*
G37*
G36*
X203000D02*
X202631D01*
X202779Y311279D01*
X203000Y311131D01*
Y311500D01*
D02*
G37*
G36*
X13500Y309940D02*
Y308500D01*
X14940D01*
X14884Y308780D01*
X14442Y309442D01*
X13780Y309884D01*
X13500Y309940D01*
D02*
G37*
G36*
X12500D02*
X12220Y309884D01*
X11558Y309442D01*
X11116Y308780D01*
X11060Y308500D01*
X12500D01*
Y309940D01*
D02*
G37*
G36*
X93000Y316126D02*
X91932Y315985D01*
X90937Y315573D01*
X90083Y314917D01*
X89427Y314063D01*
X89015Y313068D01*
X88874Y312000D01*
X89015Y310932D01*
X89427Y309937D01*
X90083Y309083D01*
X90937Y308427D01*
X91932Y308015D01*
X93000Y307874D01*
X94068Y308015D01*
X95063Y308427D01*
X95917Y309083D01*
X96573Y309937D01*
X96985Y310932D01*
X97126Y312000D01*
X96985Y313068D01*
X96573Y314063D01*
X95917Y314917D01*
X95063Y315573D01*
X94068Y315985D01*
X93000Y316126D01*
D02*
G37*
G36*
X14940Y307500D02*
X13500D01*
Y306060D01*
X13780Y306116D01*
X14442Y306558D01*
X14884Y307220D01*
X14940Y307500D01*
D02*
G37*
G36*
X12500D02*
X11060D01*
X11116Y307220D01*
X11558Y306558D01*
X12220Y306116D01*
X12500Y306060D01*
Y307500D01*
D02*
G37*
G36*
X251500Y309539D02*
X250720Y309384D01*
X250058Y308942D01*
X249616Y308280D01*
X249461Y307500D01*
X249616Y306720D01*
X250058Y306058D01*
X250720Y305616D01*
X251500Y305461D01*
X252280Y305616D01*
X252942Y306058D01*
X253384Y306720D01*
X253539Y307500D01*
X253384Y308280D01*
X252942Y308942D01*
X252280Y309384D01*
X251500Y309539D01*
D02*
G37*
G36*
X318000Y306539D02*
X317220Y306384D01*
X316558Y305942D01*
X316116Y305280D01*
X315961Y304500D01*
X316116Y303720D01*
X316558Y303058D01*
X317220Y302616D01*
X318000Y302461D01*
X318780Y302616D01*
X319442Y303058D01*
X319884Y303720D01*
X320039Y304500D01*
X319884Y305280D01*
X319442Y305942D01*
X318780Y306384D01*
X318000Y306539D01*
D02*
G37*
G36*
X359043Y311543D02*
X349957D01*
Y302457D01*
X359043D01*
Y311543D01*
D02*
G37*
G36*
X222000Y302369D02*
Y302000D01*
X222369D01*
X222221Y302221D01*
X222000Y302369D01*
D02*
G37*
G36*
X221000D02*
X220779Y302221D01*
X220631Y302000D01*
X221000D01*
Y302369D01*
D02*
G37*
G36*
X170500Y309039D02*
X169720Y308884D01*
X169058Y308442D01*
X168616Y307780D01*
X168461Y307000D01*
X168616Y306220D01*
X169058Y305558D01*
X169444Y305300D01*
Y304700D01*
X169058Y304442D01*
X168616Y303780D01*
X168461Y303000D01*
X168616Y302220D01*
X169058Y301558D01*
X169720Y301116D01*
X170500Y300961D01*
X171280Y301116D01*
X171942Y301558D01*
X172384Y302220D01*
X172539Y303000D01*
X172384Y303780D01*
X171942Y304442D01*
X171556Y304700D01*
Y305300D01*
X171942Y305558D01*
X172384Y306220D01*
X172539Y307000D01*
X172384Y307780D01*
X171942Y308442D01*
X171280Y308884D01*
X170500Y309039D01*
D02*
G37*
G36*
X102500Y305039D02*
X101720Y304884D01*
X101058Y304442D01*
X100616Y303780D01*
X100461Y303000D01*
X100616Y302220D01*
X101058Y301558D01*
X101720Y301116D01*
X102500Y300961D01*
X103280Y301116D01*
X103942Y301558D01*
X104384Y302220D01*
X104539Y303000D01*
X104384Y303780D01*
X103942Y304442D01*
X103280Y304884D01*
X102500Y305039D01*
D02*
G37*
G36*
X246500Y301023D02*
Y300654D01*
X246869D01*
X246721Y300875D01*
X246500Y301023D01*
D02*
G37*
G36*
X245500D02*
X245279Y300875D01*
X245131Y300654D01*
X245500D01*
Y301023D01*
D02*
G37*
G36*
X222369Y301000D02*
X222000D01*
Y300631D01*
X222221Y300779D01*
X222369Y301000D01*
D02*
G37*
G36*
X221000D02*
X220631D01*
X220779Y300779D01*
X221000Y300631D01*
Y301000D01*
D02*
G37*
G36*
X246869Y299654D02*
X246500D01*
Y299286D01*
X246721Y299433D01*
X246869Y299654D01*
D02*
G37*
G36*
X245500D02*
X245131D01*
X245279Y299433D01*
X245500Y299286D01*
Y299654D01*
D02*
G37*
G36*
X78500Y299369D02*
Y299000D01*
X78869D01*
X78721Y299221D01*
X78500Y299369D01*
D02*
G37*
G36*
X77500D02*
X77279Y299221D01*
X77131Y299000D01*
X77500D01*
Y299369D01*
D02*
G37*
G36*
X78869Y298000D02*
X78500D01*
Y297631D01*
X78721Y297779D01*
X78869Y298000D01*
D02*
G37*
G36*
X77500D02*
X77131D01*
X77279Y297779D01*
X77500Y297631D01*
Y298000D01*
D02*
G37*
G36*
X94552Y301374D02*
X93772Y301218D01*
X93110Y300776D01*
X92668Y300115D01*
X92513Y299334D01*
X92668Y298554D01*
X93110Y297892D01*
X93772Y297450D01*
X94552Y297295D01*
X95333Y297450D01*
X95994Y297892D01*
X96436Y298554D01*
X96591Y299334D01*
X96436Y300115D01*
X95994Y300776D01*
X95333Y301218D01*
X94552Y301374D01*
D02*
G37*
G36*
X323500Y300539D02*
X322720Y300384D01*
X322058Y299942D01*
X321616Y299280D01*
X321461Y298500D01*
X321616Y297720D01*
X322058Y297058D01*
X322720Y296616D01*
X323500Y296461D01*
X324280Y296616D01*
X324942Y297058D01*
X325384Y297720D01*
X325539Y298500D01*
X325384Y299280D01*
X324942Y299942D01*
X324280Y300384D01*
X323500Y300539D01*
D02*
G37*
G36*
X318125Y300414D02*
X317345Y300259D01*
X316683Y299817D01*
X316241Y299155D01*
X316086Y298375D01*
X316241Y297595D01*
X316683Y296933D01*
X317345Y296491D01*
X318125Y296336D01*
X318905Y296491D01*
X319567Y296933D01*
X320009Y297595D01*
X320164Y298375D01*
X320009Y299155D01*
X319567Y299817D01*
X318905Y300259D01*
X318125Y300414D01*
D02*
G37*
G36*
X222000Y295369D02*
Y295000D01*
X222369D01*
X222221Y295221D01*
X222000Y295369D01*
D02*
G37*
G36*
X221000D02*
X220779Y295221D01*
X220631Y295000D01*
X221000D01*
Y295369D01*
D02*
G37*
G36*
X222369Y294000D02*
X222000D01*
Y293631D01*
X222221Y293779D01*
X222369Y294000D01*
D02*
G37*
G36*
X221000D02*
X220631D01*
X220779Y293779D01*
X221000Y293631D01*
Y294000D01*
D02*
G37*
G36*
X246500Y293946D02*
Y293577D01*
X246869D01*
X246721Y293798D01*
X246500Y293946D01*
D02*
G37*
G36*
X245500D02*
X245279Y293798D01*
X245131Y293577D01*
X245500D01*
Y293946D01*
D02*
G37*
G36*
X125000Y293869D02*
Y293500D01*
X125369D01*
X125221Y293721D01*
X125000Y293869D01*
D02*
G37*
G36*
X124000D02*
X123779Y293721D01*
X123631Y293500D01*
X124000D01*
Y293869D01*
D02*
G37*
G36*
X103500Y293369D02*
Y293000D01*
X103869D01*
X103721Y293221D01*
X103500Y293369D01*
D02*
G37*
G36*
X102500D02*
X102279Y293221D01*
X102131Y293000D01*
X102500D01*
Y293369D01*
D02*
G37*
G36*
X180000Y296539D02*
X179220Y296384D01*
X178558Y295942D01*
X178116Y295280D01*
X177961Y294500D01*
X178116Y293720D01*
X178558Y293058D01*
X179220Y292616D01*
X180000Y292461D01*
X180780Y292616D01*
X181442Y293058D01*
X181884Y293720D01*
X182039Y294500D01*
X181884Y295280D01*
X181442Y295942D01*
X180780Y296384D01*
X180000Y296539D01*
D02*
G37*
G36*
X354500Y301583D02*
X353314Y301426D01*
X352209Y300969D01*
X351260Y300240D01*
X350531Y299291D01*
X350074Y298186D01*
X349918Y297000D01*
X350074Y295814D01*
X350531Y294709D01*
X351260Y293760D01*
X352209Y293031D01*
X353314Y292574D01*
X354500Y292418D01*
X355686Y292574D01*
X356791Y293031D01*
X357740Y293760D01*
X358469Y294709D01*
X358926Y295814D01*
X359083Y297000D01*
X358926Y298186D01*
X358469Y299291D01*
X357740Y300240D01*
X356791Y300969D01*
X355686Y301426D01*
X354500Y301583D01*
D02*
G37*
G36*
X246869Y292577D02*
X246500D01*
Y292209D01*
X246721Y292356D01*
X246869Y292577D01*
D02*
G37*
G36*
X245500D02*
X245131D01*
X245279Y292356D01*
X245500Y292209D01*
Y292577D01*
D02*
G37*
G36*
X125369Y292500D02*
X125000D01*
Y292131D01*
X125221Y292279D01*
X125369Y292500D01*
D02*
G37*
G36*
X124000D02*
X123631D01*
X123779Y292279D01*
X124000Y292131D01*
Y292500D01*
D02*
G37*
G36*
X103869Y292000D02*
X103500D01*
Y291631D01*
X103721Y291779D01*
X103869Y292000D01*
D02*
G37*
G36*
X102500D02*
X102131D01*
X102279Y291779D01*
X102500Y291631D01*
Y292000D01*
D02*
G37*
G36*
X73500Y291869D02*
Y291500D01*
X73869D01*
X73721Y291721D01*
X73500Y291869D01*
D02*
G37*
G36*
X72500D02*
X72279Y291721D01*
X72131Y291500D01*
X72500D01*
Y291869D01*
D02*
G37*
G36*
X132500Y294539D02*
X131720Y294384D01*
X131058Y293942D01*
X130616Y293280D01*
X130461Y292500D01*
X130616Y291720D01*
X131058Y291058D01*
X131720Y290616D01*
X132500Y290461D01*
X133280Y290616D01*
X133942Y291058D01*
X134384Y291720D01*
X134539Y292500D01*
X134384Y293280D01*
X133942Y293942D01*
X133280Y294384D01*
X132500Y294539D01*
D02*
G37*
G36*
X73869Y290500D02*
X73500D01*
Y290131D01*
X73721Y290279D01*
X73869Y290500D01*
D02*
G37*
G36*
X72500D02*
X72131D01*
X72279Y290279D01*
X72500Y290131D01*
Y290500D01*
D02*
G37*
G36*
X110000Y294039D02*
X109220Y293884D01*
X108558Y293442D01*
X108116Y292780D01*
X107961Y292000D01*
X108116Y291220D01*
X108558Y290558D01*
X109220Y290116D01*
X110000Y289961D01*
X110780Y290116D01*
X111442Y290558D01*
X111884Y291220D01*
X112039Y292000D01*
X111884Y292780D01*
X111442Y293442D01*
X110780Y293884D01*
X110000Y294039D01*
D02*
G37*
G36*
X222000Y288369D02*
Y288000D01*
X222369D01*
X222221Y288221D01*
X222000Y288369D01*
D02*
G37*
G36*
X221000D02*
X220779Y288221D01*
X220631Y288000D01*
X221000D01*
Y288369D01*
D02*
G37*
G36*
X151000Y287369D02*
Y287000D01*
X151369D01*
X151221Y287221D01*
X151000Y287369D01*
D02*
G37*
G36*
X150000D02*
X149779Y287221D01*
X149631Y287000D01*
X150000D01*
Y287369D01*
D02*
G37*
G36*
X222369Y287000D02*
X222000D01*
Y286631D01*
X222221Y286779D01*
X222369Y287000D01*
D02*
G37*
G36*
X221000D02*
X220631D01*
X220779Y286779D01*
X221000Y286631D01*
Y287000D01*
D02*
G37*
G36*
X246500Y286869D02*
Y286500D01*
X246869D01*
X246721Y286721D01*
X246500Y286869D01*
D02*
G37*
G36*
X245500D02*
X245279Y286721D01*
X245131Y286500D01*
X245500D01*
Y286869D01*
D02*
G37*
G36*
X117000Y290539D02*
X116220Y290384D01*
X115558Y289942D01*
X115116Y289280D01*
X114961Y288500D01*
X115116Y287720D01*
X115558Y287058D01*
X116220Y286616D01*
X117000Y286461D01*
X117780Y286616D01*
X118442Y287058D01*
X118884Y287720D01*
X119039Y288500D01*
X118884Y289280D01*
X118442Y289942D01*
X117780Y290384D01*
X117000Y290539D01*
D02*
G37*
G36*
X95500Y290039D02*
X94720Y289884D01*
X94058Y289442D01*
X93616Y288780D01*
X93461Y288000D01*
X93616Y287220D01*
X94058Y286558D01*
X94720Y286116D01*
X95500Y285961D01*
X96280Y286116D01*
X96942Y286558D01*
X97384Y287220D01*
X97539Y288000D01*
X97384Y288780D01*
X96942Y289442D01*
X96280Y289884D01*
X95500Y290039D01*
D02*
G37*
G36*
X151369Y286000D02*
X151000D01*
Y285631D01*
X151221Y285779D01*
X151369Y286000D01*
D02*
G37*
G36*
X150000D02*
X149631D01*
X149779Y285779D01*
X150000Y285631D01*
Y286000D01*
D02*
G37*
G36*
X246869Y285500D02*
X246500D01*
Y285131D01*
X246721Y285279D01*
X246869Y285500D01*
D02*
G37*
G36*
X245500D02*
X245131D01*
X245279Y285279D01*
X245500Y285131D01*
Y285500D01*
D02*
G37*
G36*
X66500Y287539D02*
X65720Y287384D01*
X65058Y286942D01*
X64616Y286280D01*
X64461Y285500D01*
X64616Y284720D01*
X65058Y284058D01*
X65720Y283616D01*
X66500Y283461D01*
X67280Y283616D01*
X67942Y284058D01*
X68384Y284720D01*
X68539Y285500D01*
X68384Y286280D01*
X67942Y286942D01*
X67280Y287384D01*
X66500Y287539D01*
D02*
G37*
G36*
X354500Y291582D02*
X353314Y291426D01*
X352209Y290969D01*
X351260Y290240D01*
X350531Y289291D01*
X350074Y288186D01*
X349918Y287000D01*
X350074Y285814D01*
X350531Y284709D01*
X351260Y283760D01*
X352209Y283031D01*
X353314Y282574D01*
X354500Y282417D01*
X355686Y282574D01*
X356791Y283031D01*
X357740Y283760D01*
X358469Y284709D01*
X358926Y285814D01*
X359083Y287000D01*
X358926Y288186D01*
X358469Y289291D01*
X357740Y290240D01*
X356791Y290969D01*
X355686Y291426D01*
X354500Y291582D01*
D02*
G37*
G36*
X155500Y286039D02*
X154720Y285884D01*
X154058Y285442D01*
X153616Y284780D01*
X153461Y284000D01*
X153616Y283220D01*
X154058Y282558D01*
X154720Y282116D01*
X155500Y281961D01*
X156280Y282116D01*
X156942Y282558D01*
X157384Y283220D01*
X157539Y284000D01*
X157384Y284780D01*
X156942Y285442D01*
X156280Y285884D01*
X155500Y286039D01*
D02*
G37*
G36*
X318500Y285039D02*
X317720Y284884D01*
X317058Y284442D01*
X316616Y283780D01*
X316461Y283000D01*
X316616Y282220D01*
X317058Y281558D01*
X317720Y281116D01*
X318500Y280961D01*
X319280Y281116D01*
X319942Y281558D01*
X320384Y282220D01*
X320539Y283000D01*
X320384Y283780D01*
X319942Y284442D01*
X319280Y284884D01*
X318500Y285039D01*
D02*
G37*
G36*
X222000Y280869D02*
Y280500D01*
X222369D01*
X222221Y280721D01*
X222000Y280869D01*
D02*
G37*
G36*
X221000D02*
X220779Y280721D01*
X220631Y280500D01*
X221000D01*
Y280869D01*
D02*
G37*
G36*
X323500Y284539D02*
X322720Y284384D01*
X322058Y283942D01*
X321616Y283280D01*
X321461Y282500D01*
X321616Y281720D01*
X322058Y281058D01*
X322720Y280616D01*
X323500Y280461D01*
X324280Y280616D01*
X324942Y281058D01*
X325384Y281720D01*
X325539Y282500D01*
X325384Y283280D01*
X324942Y283942D01*
X324280Y284384D01*
X323500Y284539D01*
D02*
G37*
G36*
X158500Y279869D02*
Y279500D01*
X158869D01*
X158721Y279721D01*
X158500Y279869D01*
D02*
G37*
G36*
X157500D02*
X157279Y279721D01*
X157131Y279500D01*
X157500D01*
Y279869D01*
D02*
G37*
G36*
X229933Y279769D02*
Y279400D01*
X230302D01*
X230154Y279621D01*
X229933Y279769D01*
D02*
G37*
G36*
X228933D02*
X228712Y279621D01*
X228565Y279400D01*
X228933D01*
Y279769D01*
D02*
G37*
G36*
X222369Y279500D02*
X222000D01*
Y279131D01*
X222221Y279279D01*
X222369Y279500D01*
D02*
G37*
G36*
X221000D02*
X220631D01*
X220779Y279279D01*
X221000Y279131D01*
Y279500D01*
D02*
G37*
G36*
X158869Y278500D02*
X158500D01*
Y278131D01*
X158721Y278279D01*
X158869Y278500D01*
D02*
G37*
G36*
X157500D02*
X157131D01*
X157279Y278279D01*
X157500Y278131D01*
Y278500D01*
D02*
G37*
G36*
X230302Y278400D02*
X229933D01*
Y278031D01*
X230154Y278179D01*
X230302Y278400D01*
D02*
G37*
G36*
X228933D02*
X228565D01*
X228712Y278179D01*
X228933Y278031D01*
Y278400D01*
D02*
G37*
G36*
X259500Y278369D02*
Y278000D01*
X259869D01*
X259721Y278221D01*
X259500Y278369D01*
D02*
G37*
G36*
X258500D02*
X258279Y278221D01*
X258131Y278000D01*
X258500D01*
Y278369D01*
D02*
G37*
G36*
X259869Y277000D02*
X259500D01*
Y276631D01*
X259721Y276779D01*
X259869Y277000D01*
D02*
G37*
G36*
X258500D02*
X258131D01*
X258279Y276779D01*
X258500Y276631D01*
Y277000D01*
D02*
G37*
G36*
X323500Y279539D02*
X322720Y279384D01*
X322058Y278942D01*
X321616Y278280D01*
X321461Y277500D01*
X321616Y276720D01*
X322058Y276058D01*
X322720Y275616D01*
X323500Y275461D01*
X324280Y275616D01*
X324942Y276058D01*
X325384Y276720D01*
X325539Y277500D01*
X325384Y278280D01*
X324942Y278942D01*
X324280Y279384D01*
X323500Y279539D01*
D02*
G37*
G36*
X259500Y273869D02*
Y273500D01*
X259869D01*
X259721Y273721D01*
X259500Y273869D01*
D02*
G37*
G36*
X258500D02*
X258279Y273721D01*
X258131Y273500D01*
X258500D01*
Y273869D01*
D02*
G37*
G36*
X222000D02*
Y273500D01*
X222369D01*
X222221Y273721D01*
X222000Y273869D01*
D02*
G37*
G36*
X221000D02*
X220779Y273721D01*
X220631Y273500D01*
X221000D01*
Y273869D01*
D02*
G37*
G36*
X354500Y281582D02*
X353314Y281426D01*
X352209Y280969D01*
X351260Y280240D01*
X350531Y279291D01*
X350074Y278186D01*
X349918Y277000D01*
X350074Y275814D01*
X350531Y274709D01*
X351260Y273760D01*
X352209Y273031D01*
X353314Y272574D01*
X354500Y272417D01*
X355686Y272574D01*
X356791Y273031D01*
X357740Y273760D01*
X358469Y274709D01*
X358926Y275814D01*
X359083Y277000D01*
X358926Y278186D01*
X358469Y279291D01*
X357740Y280240D01*
X356791Y280969D01*
X355686Y281426D01*
X354500Y281582D01*
D02*
G37*
G36*
X229933Y272628D02*
Y272260D01*
X230302D01*
X230154Y272481D01*
X229933Y272628D01*
D02*
G37*
G36*
X228933D02*
X228712Y272481D01*
X228565Y272260D01*
X228933D01*
Y272628D01*
D02*
G37*
G36*
X259869Y272500D02*
X259500D01*
Y272131D01*
X259721Y272279D01*
X259869Y272500D01*
D02*
G37*
G36*
X258500D02*
X258131D01*
X258279Y272279D01*
X258500Y272131D01*
Y272500D01*
D02*
G37*
G36*
X222369D02*
X222000D01*
Y272131D01*
X222221Y272279D01*
X222369Y272500D01*
D02*
G37*
G36*
X221000D02*
X220631D01*
X220779Y272279D01*
X221000Y272131D01*
Y272500D01*
D02*
G37*
G36*
X230302Y271260D02*
X229933D01*
Y270891D01*
X230154Y271039D01*
X230302Y271260D01*
D02*
G37*
G36*
X228933D02*
X228565D01*
X228712Y271039D01*
X228933Y270891D01*
Y271260D01*
D02*
G37*
G36*
X52500Y274539D02*
X51720Y274384D01*
X51058Y273942D01*
X50616Y273280D01*
X50461Y272500D01*
X50616Y271720D01*
X51058Y271058D01*
X51720Y270616D01*
X52500Y270461D01*
X53280Y270616D01*
X53942Y271058D01*
X54384Y271720D01*
X54539Y272500D01*
X54384Y273280D01*
X53942Y273942D01*
X53280Y274384D01*
X52500Y274539D01*
D02*
G37*
G36*
X318500Y273539D02*
X317720Y273384D01*
X317058Y272942D01*
X316616Y272280D01*
X316461Y271500D01*
X316616Y270720D01*
X317058Y270058D01*
X317720Y269616D01*
X318500Y269461D01*
X319280Y269616D01*
X319942Y270058D01*
X320384Y270720D01*
X320539Y271500D01*
X320384Y272280D01*
X319942Y272942D01*
X319280Y273384D01*
X318500Y273539D01*
D02*
G37*
G36*
X206000Y266869D02*
Y266500D01*
X206369D01*
X206221Y266721D01*
X206000Y266869D01*
D02*
G37*
G36*
X205000D02*
X204779Y266721D01*
X204631Y266500D01*
X205000D01*
Y266869D01*
D02*
G37*
G36*
X229933Y265619D02*
Y265251D01*
X230302D01*
X230154Y265472D01*
X229933Y265619D01*
D02*
G37*
G36*
X228933D02*
X228712Y265472D01*
X228565Y265251D01*
X228933D01*
Y265619D01*
D02*
G37*
G36*
X206369Y265500D02*
X206000D01*
Y265131D01*
X206221Y265279D01*
X206369Y265500D01*
D02*
G37*
G36*
X205000D02*
X204631D01*
X204779Y265279D01*
X205000Y265131D01*
Y265500D01*
D02*
G37*
G36*
X110000Y268539D02*
X109220Y268384D01*
X108558Y267942D01*
X108116Y267280D01*
X107961Y266500D01*
X108116Y265720D01*
X108558Y265058D01*
X109220Y264616D01*
X110000Y264461D01*
X110780Y264616D01*
X111442Y265058D01*
X111884Y265720D01*
X112039Y266500D01*
X111884Y267280D01*
X111442Y267942D01*
X110780Y268384D01*
X110000Y268539D01*
D02*
G37*
G36*
X230302Y264251D02*
X229933D01*
Y263882D01*
X230154Y264030D01*
X230302Y264251D01*
D02*
G37*
G36*
X228933D02*
X228565D01*
X228712Y264030D01*
X228933Y263882D01*
Y264251D01*
D02*
G37*
G36*
X354500Y271583D02*
X353314Y271426D01*
X352209Y270969D01*
X351260Y270240D01*
X350531Y269291D01*
X350074Y268186D01*
X349918Y267000D01*
X350074Y265814D01*
X350531Y264709D01*
X351260Y263760D01*
X352209Y263031D01*
X353314Y262574D01*
X354500Y262418D01*
X355686Y262574D01*
X356791Y263031D01*
X357740Y263760D01*
X358469Y264709D01*
X358926Y265814D01*
X359083Y267000D01*
X358926Y268186D01*
X358469Y269291D01*
X357740Y270240D01*
X356791Y270969D01*
X355686Y271426D01*
X354500Y271583D01*
D02*
G37*
G36*
X191000Y261369D02*
Y261000D01*
X191369D01*
X191221Y261221D01*
X191000Y261369D01*
D02*
G37*
G36*
X190000D02*
X189779Y261221D01*
X189631Y261000D01*
X190000D01*
Y261369D01*
D02*
G37*
G36*
X259500Y260869D02*
Y260500D01*
X259869D01*
X259721Y260721D01*
X259500Y260869D01*
D02*
G37*
G36*
X258500D02*
X258279Y260721D01*
X258131Y260500D01*
X258500D01*
Y260869D01*
D02*
G37*
G36*
X191369Y260000D02*
X191000D01*
Y259631D01*
X191221Y259779D01*
X191369Y260000D01*
D02*
G37*
G36*
X190000D02*
X189631D01*
X189779Y259779D01*
X190000Y259631D01*
Y260000D01*
D02*
G37*
G36*
X259869Y259500D02*
X259500D01*
Y259131D01*
X259721Y259279D01*
X259869Y259500D01*
D02*
G37*
G36*
X258500D02*
X258131D01*
X258279Y259279D01*
X258500Y259131D01*
Y259500D01*
D02*
G37*
G36*
X355000Y260508D02*
Y257500D01*
X358008D01*
X357952Y257925D01*
X357595Y258787D01*
X357027Y259527D01*
X356287Y260095D01*
X355425Y260452D01*
X355000Y260508D01*
D02*
G37*
G36*
X354000D02*
X353575Y260452D01*
X352713Y260095D01*
X351973Y259527D01*
X351405Y258787D01*
X351048Y257925D01*
X350992Y257500D01*
X354000D01*
Y260508D01*
D02*
G37*
G36*
X45000Y260039D02*
X44220Y259884D01*
X43558Y259442D01*
X43116Y258780D01*
X42961Y258000D01*
X43116Y257220D01*
X43558Y256558D01*
X44220Y256116D01*
X45000Y255961D01*
X45780Y256116D01*
X46442Y256558D01*
X46884Y257220D01*
X47039Y258000D01*
X46884Y258780D01*
X46442Y259442D01*
X45780Y259884D01*
X45000Y260039D01*
D02*
G37*
G36*
X59500Y254869D02*
Y254500D01*
X59869D01*
X59721Y254721D01*
X59500Y254869D01*
D02*
G37*
G36*
X58500D02*
X58279Y254721D01*
X58131Y254500D01*
X58500D01*
Y254869D01*
D02*
G37*
G36*
X358008Y256500D02*
X355000D01*
Y253492D01*
X355425Y253548D01*
X356287Y253905D01*
X357027Y254473D01*
X357595Y255213D01*
X357952Y256075D01*
X358008Y256500D01*
D02*
G37*
G36*
X354000D02*
X350992D01*
X351048Y256075D01*
X351405Y255213D01*
X351973Y254473D01*
X352713Y253905D01*
X353575Y253548D01*
X354000Y253492D01*
Y256500D01*
D02*
G37*
G36*
X59869Y253500D02*
X59500D01*
Y253131D01*
X59721Y253279D01*
X59869Y253500D01*
D02*
G37*
G36*
X58500D02*
X58131D01*
X58279Y253279D01*
X58500Y253131D01*
Y253500D01*
D02*
G37*
G36*
X278000Y261126D02*
X276932Y260985D01*
X275937Y260573D01*
X275083Y259917D01*
X274427Y259063D01*
X274015Y258068D01*
X273874Y257000D01*
X274015Y255932D01*
X274427Y254937D01*
X275083Y254083D01*
X275937Y253427D01*
X276932Y253015D01*
X278000Y252874D01*
X279068Y253015D01*
X280063Y253427D01*
X280917Y254083D01*
X281573Y254937D01*
X281985Y255932D01*
X282126Y257000D01*
X281985Y258068D01*
X281573Y259063D01*
X280917Y259917D01*
X280063Y260573D01*
X279068Y260985D01*
X278000Y261126D01*
D02*
G37*
G36*
X170000Y251369D02*
Y251000D01*
X170369D01*
X170221Y251221D01*
X170000Y251369D01*
D02*
G37*
G36*
X169000D02*
X168779Y251221D01*
X168631Y251000D01*
X169000D01*
Y251369D01*
D02*
G37*
G36*
X197500Y257026D02*
X196717Y256923D01*
X195987Y256621D01*
X195360Y256140D01*
X194879Y255513D01*
X194577Y254783D01*
X194474Y254000D01*
X194577Y253217D01*
X194879Y252487D01*
X195360Y251860D01*
X195987Y251379D01*
X196717Y251077D01*
X197500Y250974D01*
X198283Y251077D01*
X199013Y251379D01*
X199640Y251860D01*
X200120Y252487D01*
X200423Y253217D01*
X200526Y254000D01*
X200423Y254783D01*
X200120Y255513D01*
X199640Y256140D01*
X199013Y256621D01*
X198283Y256923D01*
X197500Y257026D01*
D02*
G37*
G36*
X170369Y250000D02*
X170000D01*
Y249631D01*
X170221Y249779D01*
X170369Y250000D01*
D02*
G37*
G36*
X169000D02*
X168631D01*
X168779Y249779D01*
X169000Y249631D01*
Y250000D01*
D02*
G37*
G36*
X142500Y253039D02*
X141720Y252884D01*
X141058Y252442D01*
X140616Y251780D01*
X140461Y251000D01*
X140616Y250220D01*
X141058Y249558D01*
X141720Y249116D01*
X142500Y248961D01*
X143280Y249116D01*
X143942Y249558D01*
X144384Y250220D01*
X144539Y251000D01*
X144384Y251780D01*
X143942Y252442D01*
X143280Y252884D01*
X142500Y253039D01*
D02*
G37*
G36*
X80000D02*
X79220Y252884D01*
X78558Y252442D01*
X78116Y251780D01*
X77961Y251000D01*
X78116Y250220D01*
X78558Y249558D01*
X79220Y249116D01*
X80000Y248961D01*
X80780Y249116D01*
X81442Y249558D01*
X81884Y250220D01*
X82039Y251000D01*
X81884Y251780D01*
X81442Y252442D01*
X80780Y252884D01*
X80000Y253039D01*
D02*
G37*
G36*
X259500Y248869D02*
Y248500D01*
X259869D01*
X259721Y248721D01*
X259500Y248869D01*
D02*
G37*
G36*
X258500D02*
X258279Y248721D01*
X258131Y248500D01*
X258500D01*
Y248869D01*
D02*
G37*
G36*
X259869Y247500D02*
X259500D01*
Y247131D01*
X259721Y247279D01*
X259869Y247500D01*
D02*
G37*
G36*
X258500D02*
X258131D01*
X258279Y247279D01*
X258500Y247131D01*
Y247500D01*
D02*
G37*
G36*
X74500Y249539D02*
X73720Y249384D01*
X73058Y248942D01*
X72616Y248280D01*
X72461Y247500D01*
X72616Y246720D01*
X73058Y246058D01*
X73720Y245616D01*
X74500Y245461D01*
X75280Y245616D01*
X75942Y246058D01*
X76384Y246720D01*
X76539Y247500D01*
X76384Y248280D01*
X75942Y248942D01*
X75280Y249384D01*
X74500Y249539D01*
D02*
G37*
G36*
X206000Y245369D02*
Y245000D01*
X206369D01*
X206221Y245221D01*
X206000Y245369D01*
D02*
G37*
G36*
X205000D02*
X204779Y245221D01*
X204631Y245000D01*
X205000D01*
Y245369D01*
D02*
G37*
G36*
X230088Y244364D02*
Y243995D01*
X230457D01*
X230309Y244216D01*
X230088Y244364D01*
D02*
G37*
G36*
X229088D02*
X228867Y244216D01*
X228719Y243995D01*
X229088D01*
Y244364D01*
D02*
G37*
G36*
X206369Y244000D02*
X206000D01*
Y243631D01*
X206221Y243779D01*
X206369Y244000D01*
D02*
G37*
G36*
X205000D02*
X204631D01*
X204779Y243779D01*
X205000Y243631D01*
Y244000D01*
D02*
G37*
G36*
X230457Y242995D02*
X230088D01*
Y242627D01*
X230309Y242775D01*
X230457Y242995D01*
D02*
G37*
G36*
X229088D02*
X228719D01*
X228867Y242775D01*
X229088Y242627D01*
Y242995D01*
D02*
G37*
G36*
X183500Y242039D02*
X182720Y241884D01*
X182058Y241442D01*
X181616Y240780D01*
X181461Y240000D01*
X181616Y239220D01*
X182058Y238558D01*
X182720Y238116D01*
X183500Y237961D01*
X184280Y238116D01*
X184942Y238558D01*
X185384Y239220D01*
X185539Y240000D01*
X185384Y240780D01*
X184942Y241442D01*
X184280Y241884D01*
X183500Y242039D01*
D02*
G37*
G36*
X166500Y241539D02*
X165720Y241384D01*
X165058Y240942D01*
X164616Y240280D01*
X164461Y239500D01*
X164616Y238720D01*
X165058Y238058D01*
X165720Y237616D01*
X166500Y237461D01*
X167280Y237616D01*
X167942Y238058D01*
X168384Y238720D01*
X168539Y239500D01*
X168384Y240280D01*
X167942Y240942D01*
X167280Y241384D01*
X166500Y241539D01*
D02*
G37*
G36*
X55500Y241039D02*
X54720Y240884D01*
X54058Y240442D01*
X53616Y239780D01*
X53461Y239000D01*
X53616Y238220D01*
X54058Y237558D01*
X54720Y237116D01*
X55500Y236961D01*
X56280Y237116D01*
X56942Y237558D01*
X57384Y238220D01*
X57539Y239000D01*
X57384Y239780D01*
X56942Y240442D01*
X56280Y240884D01*
X55500Y241039D01*
D02*
G37*
G36*
X229500Y240539D02*
X228720Y240384D01*
X228058Y239942D01*
X227616Y239280D01*
X227461Y238500D01*
X227616Y237720D01*
X228058Y237058D01*
X228720Y236616D01*
X229500Y236461D01*
X230280Y236616D01*
X230942Y237058D01*
X231384Y237720D01*
X231539Y238500D01*
X231384Y239280D01*
X230942Y239942D01*
X230280Y240384D01*
X229500Y240539D01*
D02*
G37*
G36*
X160135Y240404D02*
X159355Y240249D01*
X158693Y239807D01*
X158251Y239145D01*
X158096Y238365D01*
X158251Y237584D01*
X158693Y236923D01*
X159355Y236481D01*
X160135Y236326D01*
X160916Y236481D01*
X161577Y236923D01*
X162019Y237584D01*
X162174Y238365D01*
X162019Y239145D01*
X161577Y239807D01*
X160916Y240249D01*
X160135Y240404D01*
D02*
G37*
G36*
X221500Y235869D02*
Y235500D01*
X221869D01*
X221721Y235721D01*
X221500Y235869D01*
D02*
G37*
G36*
X220500D02*
X220279Y235721D01*
X220131Y235500D01*
X220500D01*
Y235869D01*
D02*
G37*
G36*
X60000D02*
Y235500D01*
X60369D01*
X60221Y235721D01*
X60000Y235869D01*
D02*
G37*
G36*
X59000D02*
X58779Y235721D01*
X58631Y235500D01*
X59000D01*
Y235869D01*
D02*
G37*
G36*
X60369Y234500D02*
X60000D01*
Y234131D01*
X60221Y234279D01*
X60369Y234500D01*
D02*
G37*
G36*
X59000D02*
X58631D01*
X58779Y234279D01*
X59000Y234131D01*
Y234500D01*
D02*
G37*
G36*
X221869D02*
X221500D01*
Y234131D01*
X221721Y234279D01*
X221869Y234500D01*
D02*
G37*
G36*
X220500D02*
X220131D01*
X220279Y234279D01*
X220500Y234131D01*
Y234500D01*
D02*
G37*
G36*
X230000Y234369D02*
Y234000D01*
X230369D01*
X230221Y234221D01*
X230000Y234369D01*
D02*
G37*
G36*
X229000D02*
X228779Y234221D01*
X228631Y234000D01*
X229000D01*
Y234369D01*
D02*
G37*
G36*
X230369Y233000D02*
X230000D01*
Y232631D01*
X230221Y232779D01*
X230369Y233000D01*
D02*
G37*
G36*
X229000D02*
X228631D01*
X228779Y232779D01*
X229000Y232631D01*
Y233000D01*
D02*
G37*
G36*
X221000Y230869D02*
Y230500D01*
X221369D01*
X221221Y230721D01*
X221000Y230869D01*
D02*
G37*
G36*
X220000D02*
X219779Y230721D01*
X219631Y230500D01*
X220000D01*
Y230869D01*
D02*
G37*
G36*
X164500Y234539D02*
X163720Y234384D01*
X163058Y233942D01*
X162616Y233280D01*
X162461Y232500D01*
X162616Y231720D01*
X163058Y231058D01*
X163720Y230616D01*
X164500Y230461D01*
X165280Y230616D01*
X165942Y231058D01*
X166384Y231720D01*
X166539Y232500D01*
X166384Y233280D01*
X165942Y233942D01*
X165280Y234384D01*
X164500Y234539D01*
D02*
G37*
G36*
X49000D02*
X48220Y234384D01*
X47558Y233942D01*
X47116Y233280D01*
X46961Y232500D01*
X47116Y231720D01*
X47558Y231058D01*
X48220Y230616D01*
X49000Y230461D01*
X49780Y230616D01*
X50442Y231058D01*
X50884Y231720D01*
X51039Y232500D01*
X50884Y233280D01*
X50442Y233942D01*
X49780Y234384D01*
X49000Y234539D01*
D02*
G37*
G36*
X162500Y229869D02*
Y229500D01*
X162869D01*
X162721Y229721D01*
X162500Y229869D01*
D02*
G37*
G36*
X161500D02*
X161279Y229721D01*
X161131Y229500D01*
X161500D01*
Y229869D01*
D02*
G37*
G36*
X221369Y229500D02*
X221000D01*
Y229131D01*
X221221Y229279D01*
X221369Y229500D01*
D02*
G37*
G36*
X220000D02*
X219631D01*
X219779Y229279D01*
X220000Y229131D01*
Y229500D01*
D02*
G37*
G36*
X162869Y228500D02*
X162500D01*
Y228131D01*
X162721Y228279D01*
X162869Y228500D01*
D02*
G37*
G36*
X161500D02*
X161131D01*
X161279Y228279D01*
X161500Y228131D01*
Y228500D01*
D02*
G37*
G36*
X250500Y228369D02*
Y228000D01*
X250869D01*
X250721Y228221D01*
X250500Y228369D01*
D02*
G37*
G36*
X249500D02*
X249279Y228221D01*
X249131Y228000D01*
X249500D01*
Y228369D01*
D02*
G37*
G36*
X250869Y227000D02*
X250500D01*
Y226631D01*
X250721Y226779D01*
X250869Y227000D01*
D02*
G37*
G36*
X249500D02*
X249131D01*
X249279Y226779D01*
X249500Y226631D01*
Y227000D01*
D02*
G37*
G36*
X74500Y229539D02*
X73720Y229384D01*
X73058Y228942D01*
X72616Y228280D01*
X72461Y227500D01*
X72616Y226720D01*
X73058Y226058D01*
X73720Y225616D01*
X74500Y225461D01*
X75280Y225616D01*
X75942Y226058D01*
X76384Y226720D01*
X76539Y227500D01*
X76384Y228280D01*
X75942Y228942D01*
X75280Y229384D01*
X74500Y229539D01*
D02*
G37*
G36*
X195000Y225369D02*
Y225000D01*
X195369D01*
X195221Y225221D01*
X195000Y225369D01*
D02*
G37*
G36*
X194000D02*
X193779Y225221D01*
X193631Y225000D01*
X194000D01*
Y225369D01*
D02*
G37*
G36*
X225000Y229039D02*
X224220Y228884D01*
X223558Y228442D01*
X223116Y227780D01*
X222961Y227000D01*
X223116Y226220D01*
X223558Y225558D01*
X224220Y225116D01*
X225000Y224961D01*
X225780Y225116D01*
X226442Y225558D01*
X226884Y226220D01*
X227039Y227000D01*
X226884Y227780D01*
X226442Y228442D01*
X225780Y228884D01*
X225000Y229039D01*
D02*
G37*
G36*
X195369Y224000D02*
X195000D01*
Y223631D01*
X195221Y223779D01*
X195369Y224000D01*
D02*
G37*
G36*
X194000D02*
X193631D01*
X193779Y223779D01*
X194000Y223631D01*
Y224000D01*
D02*
G37*
G36*
X246500Y223050D02*
Y222682D01*
X246869D01*
X246721Y222903D01*
X246500Y223050D01*
D02*
G37*
G36*
X245500D02*
X245279Y222903D01*
X245131Y222682D01*
X245500D01*
Y223050D01*
D02*
G37*
G36*
X138500Y225539D02*
X137720Y225384D01*
X137058Y224942D01*
X136616Y224280D01*
X136461Y223500D01*
X136616Y222720D01*
X137058Y222058D01*
X137720Y221616D01*
X138500Y221461D01*
X139280Y221616D01*
X139942Y222058D01*
X140384Y222720D01*
X140539Y223500D01*
X140384Y224280D01*
X139942Y224942D01*
X139280Y225384D01*
X138500Y225539D01*
D02*
G37*
G36*
X246869Y221682D02*
X246500D01*
Y221313D01*
X246721Y221461D01*
X246869Y221682D01*
D02*
G37*
G36*
X245500D02*
X245131D01*
X245279Y221461D01*
X245500Y221313D01*
Y221682D01*
D02*
G37*
G36*
X222270Y224213D02*
X221489Y224058D01*
X220828Y223616D01*
X220386Y222954D01*
X220231Y222174D01*
X220386Y221393D01*
X220828Y220732D01*
X221489Y220290D01*
X222270Y220134D01*
X223050Y220290D01*
X223712Y220732D01*
X224154Y221393D01*
X224309Y222174D01*
X224154Y222954D01*
X223712Y223616D01*
X223050Y224058D01*
X222270Y224213D01*
D02*
G37*
G36*
X220500Y218869D02*
Y218500D01*
X220869D01*
X220721Y218721D01*
X220500Y218869D01*
D02*
G37*
G36*
X219500D02*
X219279Y218721D01*
X219131Y218500D01*
X219500D01*
Y218869D01*
D02*
G37*
G36*
X227500Y222039D02*
X226720Y221884D01*
X226058Y221442D01*
X225616Y220780D01*
X225461Y220000D01*
X225616Y219220D01*
X226058Y218558D01*
X226720Y218116D01*
X227500Y217961D01*
X228280Y218116D01*
X228942Y218558D01*
X229384Y219220D01*
X229539Y220000D01*
X229384Y220780D01*
X228942Y221442D01*
X228280Y221884D01*
X227500Y222039D01*
D02*
G37*
G36*
X220869Y217500D02*
X220500D01*
Y217131D01*
X220721Y217279D01*
X220869Y217500D01*
D02*
G37*
G36*
X219500D02*
X219131D01*
X219279Y217279D01*
X219500Y217131D01*
Y217500D01*
D02*
G37*
G36*
X248000Y217369D02*
Y217000D01*
X248369D01*
X248221Y217221D01*
X248000Y217369D01*
D02*
G37*
G36*
X247000D02*
X246779Y217221D01*
X246631Y217000D01*
X247000D01*
Y217369D01*
D02*
G37*
G36*
X248369Y216000D02*
X248000D01*
Y215631D01*
X248221Y215779D01*
X248369Y216000D01*
D02*
G37*
G36*
X247000D02*
X246631D01*
X246779Y215779D01*
X247000Y215631D01*
Y216000D01*
D02*
G37*
G36*
X333587Y230695D02*
X332059Y230545D01*
X330591Y230099D01*
X329237Y229376D01*
X328051Y228402D01*
X327077Y227216D01*
X326354Y225862D01*
X325908Y224394D01*
X325758Y222866D01*
X325908Y221339D01*
X326354Y219870D01*
X327077Y218517D01*
X328051Y217330D01*
X329237Y216356D01*
X330591Y215633D01*
X332059Y215188D01*
X333587Y215037D01*
X335114Y215188D01*
X336583Y215633D01*
X337936Y216356D01*
X339123Y217330D01*
X340096Y218517D01*
X340820Y219870D01*
X341265Y221339D01*
X341416Y222866D01*
X341265Y224394D01*
X340820Y225862D01*
X340096Y227216D01*
X339123Y228402D01*
X337936Y229376D01*
X336583Y230099D01*
X335114Y230545D01*
X333587Y230695D01*
D02*
G37*
G36*
X227000Y217039D02*
X226220Y216884D01*
X225558Y216442D01*
X225116Y215780D01*
X224961Y215000D01*
X225116Y214220D01*
X225558Y213558D01*
X226220Y213116D01*
X227000Y212961D01*
X227780Y213116D01*
X228442Y213558D01*
X228884Y214220D01*
X229039Y215000D01*
X228884Y215780D01*
X228442Y216442D01*
X227780Y216884D01*
X227000Y217039D01*
D02*
G37*
G36*
X202500D02*
X201720Y216884D01*
X201058Y216442D01*
X200616Y215780D01*
X200461Y215000D01*
X200616Y214220D01*
X201058Y213558D01*
X201720Y213116D01*
X202500Y212961D01*
X203280Y213116D01*
X203942Y213558D01*
X204384Y214220D01*
X204539Y215000D01*
X204384Y215780D01*
X203942Y216442D01*
X203280Y216884D01*
X202500Y217039D01*
D02*
G37*
G36*
X314500Y211869D02*
Y211500D01*
X314869D01*
X314721Y211721D01*
X314500Y211869D01*
D02*
G37*
G36*
X313500D02*
X313279Y211721D01*
X313131Y211500D01*
X313500D01*
Y211869D01*
D02*
G37*
G36*
X142500Y215539D02*
X141720Y215384D01*
X141058Y214942D01*
X140616Y214280D01*
X140461Y213500D01*
X140616Y212720D01*
X141058Y212058D01*
X141720Y211616D01*
X142500Y211461D01*
X143280Y211616D01*
X143942Y212058D01*
X144384Y212720D01*
X144539Y213500D01*
X144384Y214280D01*
X143942Y214942D01*
X143280Y215384D01*
X142500Y215539D01*
D02*
G37*
G36*
X323417Y213533D02*
Y211280D01*
X325671D01*
X325641Y211509D01*
X325359Y212189D01*
X324911Y212773D01*
X324327Y213221D01*
X323647Y213503D01*
X323417Y213533D01*
D02*
G37*
G36*
X322417Y213533D02*
X322188Y213503D01*
X321508Y213221D01*
X320924Y212773D01*
X320476Y212189D01*
X320194Y211509D01*
X320164Y211280D01*
X322417D01*
Y213533D01*
D02*
G37*
G36*
X182000Y214539D02*
X181220Y214384D01*
X180558Y213942D01*
X180116Y213280D01*
X179961Y212500D01*
X180116Y211720D01*
X180558Y211058D01*
X181220Y210616D01*
X182000Y210461D01*
X182780Y210616D01*
X183442Y211058D01*
X183884Y211720D01*
X184039Y212500D01*
X183884Y213280D01*
X183442Y213942D01*
X182780Y214384D01*
X182000Y214539D01*
D02*
G37*
G36*
X314869Y210500D02*
X314500D01*
Y210131D01*
X314721Y210279D01*
X314869Y210500D01*
D02*
G37*
G36*
X313500D02*
X313131D01*
X313279Y210279D01*
X313500Y210131D01*
Y210500D01*
D02*
G37*
G36*
X205000Y210369D02*
Y210000D01*
X205369D01*
X205221Y210221D01*
X205000Y210369D01*
D02*
G37*
G36*
X204000D02*
X203779Y210221D01*
X203631Y210000D01*
X204000D01*
Y210369D01*
D02*
G37*
G36*
X197500Y214039D02*
X196720Y213884D01*
X196058Y213442D01*
X195616Y212780D01*
X195461Y212000D01*
X195616Y211220D01*
X196058Y210558D01*
X196720Y210116D01*
X197500Y209961D01*
X198280Y210116D01*
X198942Y210558D01*
X199384Y211220D01*
X199539Y212000D01*
X199384Y212780D01*
X198942Y213442D01*
X198280Y213884D01*
X197500Y214039D01*
D02*
G37*
G36*
X205369Y209000D02*
X205000D01*
Y208631D01*
X205221Y208779D01*
X205369Y209000D01*
D02*
G37*
G36*
X204000D02*
X203631D01*
X203779Y208779D01*
X204000Y208631D01*
Y209000D01*
D02*
G37*
G36*
X246500Y208869D02*
Y208500D01*
X246869D01*
X246721Y208721D01*
X246500Y208869D01*
D02*
G37*
G36*
X245500D02*
X245279Y208721D01*
X245131Y208500D01*
X245500D01*
Y208869D01*
D02*
G37*
G36*
X228500Y212539D02*
X227720Y212384D01*
X227058Y211942D01*
X226616Y211280D01*
X226461Y210500D01*
X226616Y209720D01*
X227058Y209058D01*
X227720Y208616D01*
X228500Y208461D01*
X229280Y208616D01*
X229942Y209058D01*
X230384Y209720D01*
X230539Y210500D01*
X230384Y211280D01*
X229942Y211942D01*
X229280Y212384D01*
X228500Y212539D01*
D02*
G37*
G36*
X125500Y210039D02*
X124720Y209884D01*
X124058Y209442D01*
X123616Y208780D01*
X123559Y208491D01*
X123028Y208386D01*
X122761Y208785D01*
X122099Y209227D01*
X121319Y209382D01*
X120539Y209227D01*
X119877Y208785D01*
X119435Y208124D01*
X119280Y207343D01*
X119435Y206563D01*
X119877Y205901D01*
X120539Y205459D01*
X121319Y205304D01*
X122099Y205459D01*
X122761Y205901D01*
X123203Y206563D01*
X123260Y206852D01*
X123791Y206957D01*
X124058Y206558D01*
X124720Y206116D01*
X125500Y205961D01*
X126280Y206116D01*
X126619Y206342D01*
X127068Y206041D01*
X126961Y205500D01*
X127116Y204720D01*
X127558Y204058D01*
X128220Y203616D01*
X129000Y203461D01*
X129265Y203004D01*
X129116Y202780D01*
X128961Y202000D01*
X129116Y201220D01*
X129558Y200558D01*
X130220Y200116D01*
X131000Y199961D01*
X131780Y200116D01*
X132442Y200558D01*
X132884Y201220D01*
X133039Y202000D01*
X132884Y202780D01*
X132442Y203442D01*
X131780Y203884D01*
X131000Y204039D01*
X130735Y204496D01*
X130884Y204720D01*
X131039Y205500D01*
X130884Y206280D01*
X130442Y206942D01*
X129780Y207384D01*
X129000Y207539D01*
X128220Y207384D01*
X127882Y207158D01*
X127431Y207459D01*
X127539Y208000D01*
X127384Y208780D01*
X126942Y209442D01*
X126280Y209884D01*
X125500Y210039D01*
D02*
G37*
G36*
X322417Y210279D02*
X320164D01*
X320194Y210050D01*
X320476Y209370D01*
X320924Y208786D01*
X321508Y208338D01*
X322188Y208056D01*
X322417Y208026D01*
Y210279D01*
D02*
G37*
G36*
X325671D02*
X323417D01*
Y208026D01*
X323647Y208056D01*
X324327Y208338D01*
X324911Y208786D01*
X325359Y209370D01*
X325641Y210050D01*
X325671Y210279D01*
D02*
G37*
G36*
X290500Y208369D02*
Y208000D01*
X290869D01*
X290721Y208221D01*
X290500Y208369D01*
D02*
G37*
G36*
X289500D02*
X289279Y208221D01*
X289131Y208000D01*
X289500D01*
Y208369D01*
D02*
G37*
G36*
X246869Y207500D02*
X246500D01*
Y207131D01*
X246721Y207279D01*
X246869Y207500D01*
D02*
G37*
G36*
X245500D02*
X245131D01*
X245279Y207279D01*
X245500Y207131D01*
Y207500D01*
D02*
G37*
G36*
X290869Y207000D02*
X290500D01*
Y206631D01*
X290721Y206779D01*
X290869Y207000D01*
D02*
G37*
G36*
X289500D02*
X289131D01*
X289279Y206779D01*
X289500Y206631D01*
Y207000D01*
D02*
G37*
G36*
X56500Y206869D02*
Y206500D01*
X56869D01*
X56721Y206721D01*
X56500Y206869D01*
D02*
G37*
G36*
X55500D02*
X55279Y206721D01*
X55131Y206500D01*
X55500D01*
Y206869D01*
D02*
G37*
G36*
X56869Y205500D02*
X56500D01*
Y205131D01*
X56721Y205279D01*
X56869Y205500D01*
D02*
G37*
G36*
X55500D02*
X55131D01*
X55279Y205279D01*
X55500Y205131D01*
Y205500D01*
D02*
G37*
G36*
X166625Y209154D02*
X165845Y208999D01*
X165183Y208557D01*
X164741Y207895D01*
X164586Y207115D01*
X164741Y206334D01*
X165183Y205673D01*
X165845Y205231D01*
X166625Y205075D01*
X167405Y205231D01*
X168067Y205673D01*
X168509Y206334D01*
X168664Y207115D01*
X168509Y207895D01*
X168067Y208557D01*
X167405Y208999D01*
X166625Y209154D01*
D02*
G37*
G36*
X76000Y209039D02*
X75220Y208884D01*
X74558Y208442D01*
X74116Y207780D01*
X73961Y207000D01*
X74116Y206220D01*
X74558Y205558D01*
X75220Y205116D01*
X76000Y204961D01*
X76780Y205116D01*
X77442Y205558D01*
X77884Y206220D01*
X78039Y207000D01*
X77884Y207780D01*
X77442Y208442D01*
X76780Y208884D01*
X76000Y209039D01*
D02*
G37*
G36*
X25500Y210526D02*
X24717Y210423D01*
X23987Y210121D01*
X23360Y209640D01*
X22880Y209013D01*
X22577Y208283D01*
X22474Y207500D01*
X22577Y206717D01*
X22880Y205987D01*
X23360Y205360D01*
X23987Y204879D01*
X24717Y204577D01*
X25500Y204474D01*
X26283Y204577D01*
X27013Y204879D01*
X27640Y205360D01*
X28120Y205987D01*
X28423Y206717D01*
X28526Y207500D01*
X28423Y208283D01*
X28120Y209013D01*
X27640Y209640D01*
X27013Y210121D01*
X26283Y210423D01*
X25500Y210526D01*
D02*
G37*
G36*
X248000Y204369D02*
Y204000D01*
X248369D01*
X248221Y204221D01*
X248000Y204369D01*
D02*
G37*
G36*
X247000D02*
X246779Y204221D01*
X246631Y204000D01*
X247000D01*
Y204369D01*
D02*
G37*
G36*
X84000Y207539D02*
X83220Y207384D01*
X82558Y206942D01*
X82116Y206280D01*
X81961Y205500D01*
X82116Y204720D01*
X82558Y204058D01*
X83220Y203616D01*
X84000Y203461D01*
X84780Y203616D01*
X85442Y204058D01*
X85884Y204720D01*
X86039Y205500D01*
X85884Y206280D01*
X85442Y206942D01*
X84780Y207384D01*
X84000Y207539D01*
D02*
G37*
G36*
X248369Y203000D02*
X248000D01*
Y202631D01*
X248221Y202779D01*
X248369Y203000D01*
D02*
G37*
G36*
X247000D02*
X246631D01*
X246779Y202779D01*
X247000Y202631D01*
Y203000D01*
D02*
G37*
G36*
X144000Y202369D02*
Y202000D01*
X144369D01*
X144221Y202221D01*
X144000Y202369D01*
D02*
G37*
G36*
X143000D02*
X142779Y202221D01*
X142631Y202000D01*
X143000D01*
Y202369D01*
D02*
G37*
G36*
X144369Y201000D02*
X144000D01*
Y200631D01*
X144221Y200779D01*
X144369Y201000D01*
D02*
G37*
G36*
X143000D02*
X142631D01*
X142779Y200779D01*
X143000Y200631D01*
Y201000D01*
D02*
G37*
G36*
X198500Y200869D02*
Y200500D01*
X198869D01*
X198721Y200721D01*
X198500Y200869D01*
D02*
G37*
G36*
X197500D02*
X197279Y200721D01*
X197131Y200500D01*
X197500D01*
Y200869D01*
D02*
G37*
G36*
X258500Y200369D02*
Y200000D01*
X258869D01*
X258721Y200221D01*
X258500Y200369D01*
D02*
G37*
G36*
X257500D02*
X257279Y200221D01*
X257131Y200000D01*
X257500D01*
Y200369D01*
D02*
G37*
G36*
X136500Y203539D02*
X135720Y203384D01*
X135058Y202942D01*
X134616Y202280D01*
X134461Y201500D01*
X134616Y200720D01*
X135058Y200058D01*
X135720Y199616D01*
X136500Y199461D01*
X137280Y199616D01*
X137942Y200058D01*
X138384Y200720D01*
X138539Y201500D01*
X138384Y202280D01*
X137942Y202942D01*
X137280Y203384D01*
X136500Y203539D01*
D02*
G37*
G36*
X198869Y199500D02*
X198500D01*
Y199131D01*
X198721Y199279D01*
X198869Y199500D01*
D02*
G37*
G36*
X197500D02*
X197131D01*
X197279Y199279D01*
X197500Y199131D01*
Y199500D01*
D02*
G37*
G36*
X226000Y206039D02*
X225220Y205884D01*
X224558Y205442D01*
X224116Y204780D01*
X223961Y204000D01*
X224116Y203220D01*
X224558Y202558D01*
X225220Y202116D01*
X226000Y201961D01*
X226733Y202106D01*
X226938Y201938D01*
X227107Y201733D01*
X226961Y201000D01*
X227116Y200220D01*
X227558Y199558D01*
X228220Y199116D01*
X229000Y198961D01*
X229780Y199116D01*
X230442Y199558D01*
X230884Y200220D01*
X231039Y201000D01*
X230884Y201780D01*
X230442Y202442D01*
X229780Y202884D01*
X229000Y203039D01*
X228267Y202893D01*
X228062Y203062D01*
X227893Y203267D01*
X228039Y204000D01*
X227884Y204780D01*
X227442Y205442D01*
X226780Y205884D01*
X226000Y206039D01*
D02*
G37*
G36*
X258869Y199000D02*
X258500D01*
Y198631D01*
X258721Y198779D01*
X258869Y199000D01*
D02*
G37*
G36*
X257500D02*
X257131D01*
X257279Y198779D01*
X257500Y198631D01*
Y199000D01*
D02*
G37*
G36*
X306500Y202039D02*
X305720Y201884D01*
X305058Y201442D01*
X304616Y200780D01*
X304461Y200000D01*
X304616Y199220D01*
X305058Y198558D01*
X305720Y198116D01*
X306500Y197961D01*
X307280Y198116D01*
X307942Y198558D01*
X308384Y199220D01*
X308539Y200000D01*
X308384Y200780D01*
X307942Y201442D01*
X307280Y201884D01*
X306500Y202039D01*
D02*
G37*
G36*
X205500Y196869D02*
Y196500D01*
X205869D01*
X205721Y196721D01*
X205500Y196869D01*
D02*
G37*
G36*
X204500D02*
X204279Y196721D01*
X204131Y196500D01*
X204500D01*
Y196869D01*
D02*
G37*
G36*
X258500Y196369D02*
Y196000D01*
X258869D01*
X258721Y196221D01*
X258500Y196369D01*
D02*
G37*
G36*
X257500D02*
X257279Y196221D01*
X257131Y196000D01*
X257500D01*
Y196369D01*
D02*
G37*
G36*
X231000Y195869D02*
Y195500D01*
X231369D01*
X231221Y195721D01*
X231000Y195869D01*
D02*
G37*
G36*
X230000D02*
X229779Y195721D01*
X229631Y195500D01*
X230000D01*
Y195869D01*
D02*
G37*
G36*
X205869Y195500D02*
X205500D01*
Y195131D01*
X205721Y195279D01*
X205869Y195500D01*
D02*
G37*
G36*
X204500D02*
X204131D01*
X204279Y195279D01*
X204500Y195131D01*
Y195500D01*
D02*
G37*
G36*
X258869Y195000D02*
X258500D01*
Y194631D01*
X258721Y194779D01*
X258869Y195000D01*
D02*
G37*
G36*
X257500D02*
X257131D01*
X257279Y194779D01*
X257500Y194631D01*
Y195000D01*
D02*
G37*
G36*
X231369Y194500D02*
X231000D01*
Y194131D01*
X231221Y194279D01*
X231369Y194500D01*
D02*
G37*
G36*
X230000D02*
X229631D01*
X229779Y194279D01*
X230000Y194131D01*
Y194500D01*
D02*
G37*
G36*
X224000Y196039D02*
X223220Y195884D01*
X222558Y195442D01*
X222116Y194780D01*
X221961Y194000D01*
X222116Y193220D01*
X222558Y192558D01*
X223220Y192116D01*
X224000Y191961D01*
X224780Y192116D01*
X225442Y192558D01*
X225884Y193220D01*
X226039Y194000D01*
X225884Y194780D01*
X225442Y195442D01*
X224780Y195884D01*
X224000Y196039D01*
D02*
G37*
G36*
X322917Y204765D02*
X321927Y204635D01*
X321003Y204252D01*
X320211Y203644D01*
X319602Y202851D01*
X319220Y201928D01*
X319089Y200937D01*
X319220Y199946D01*
X319602Y199023D01*
X320211Y198230D01*
X321003Y197622D01*
X321880Y197259D01*
X321927Y197131D01*
Y196869D01*
X321880Y196741D01*
X321003Y196378D01*
X320211Y195770D01*
X319602Y194977D01*
X319220Y194054D01*
X319089Y193063D01*
X319220Y192072D01*
X319602Y191149D01*
X320211Y190356D01*
X321003Y189748D01*
X321927Y189365D01*
X322917Y189235D01*
X323908Y189365D01*
X324831Y189748D01*
X325624Y190356D01*
X326233Y191149D01*
X326615Y192072D01*
X326745Y193063D01*
X326615Y194054D01*
X326233Y194977D01*
X325624Y195770D01*
X324831Y196378D01*
X323955Y196741D01*
X323908Y196869D01*
Y197131D01*
X323955Y197259D01*
X324831Y197622D01*
X325624Y198230D01*
X326233Y199023D01*
X326615Y199946D01*
X326745Y200937D01*
X326615Y201928D01*
X326233Y202851D01*
X325624Y203644D01*
X324831Y204252D01*
X323908Y204635D01*
X322917Y204765D01*
D02*
G37*
G36*
X150500Y189369D02*
Y189000D01*
X150869D01*
X150721Y189221D01*
X150500Y189369D01*
D02*
G37*
G36*
X149500D02*
X149279Y189221D01*
X149131Y189000D01*
X149500D01*
Y189369D01*
D02*
G37*
G36*
X150869Y188000D02*
X150500D01*
Y187631D01*
X150721Y187779D01*
X150869Y188000D01*
D02*
G37*
G36*
X149500D02*
X149131D01*
X149279Y187779D01*
X149500Y187631D01*
Y188000D01*
D02*
G37*
G36*
X204500Y187869D02*
Y187500D01*
X204869D01*
X204721Y187721D01*
X204500Y187869D01*
D02*
G37*
G36*
X203500D02*
X203279Y187721D01*
X203131Y187500D01*
X203500D01*
Y187869D01*
D02*
G37*
G36*
X98500D02*
Y187500D01*
X98869D01*
X98721Y187721D01*
X98500Y187869D01*
D02*
G37*
G36*
X97500D02*
X97279Y187721D01*
X97131Y187500D01*
X97500D01*
Y187869D01*
D02*
G37*
G36*
X204869Y186500D02*
X204500D01*
Y186131D01*
X204721Y186279D01*
X204869Y186500D01*
D02*
G37*
G36*
X203500D02*
X203131D01*
X203279Y186279D01*
X203500Y186131D01*
Y186500D01*
D02*
G37*
G36*
X98869D02*
X98500D01*
Y186131D01*
X98721Y186279D01*
X98869Y186500D01*
D02*
G37*
G36*
X97500D02*
X97131D01*
X97279Y186279D01*
X97500Y186131D01*
Y186500D01*
D02*
G37*
G36*
X278500Y191526D02*
X277717Y191423D01*
X276987Y191121D01*
X276360Y190640D01*
X275880Y190013D01*
X275577Y189283D01*
X275474Y188500D01*
X275577Y187717D01*
X275880Y186987D01*
X276360Y186360D01*
X276987Y185880D01*
X277717Y185577D01*
X278500Y185474D01*
X279283Y185577D01*
X280013Y185880D01*
X280640Y186360D01*
X281120Y186987D01*
X281423Y187717D01*
X281526Y188500D01*
X281423Y189283D01*
X281120Y190013D01*
X280640Y190640D01*
X280013Y191121D01*
X279283Y191423D01*
X278500Y191526D01*
D02*
G37*
G36*
X247000Y184869D02*
Y184500D01*
X247369D01*
X247221Y184721D01*
X247000Y184869D01*
D02*
G37*
G36*
X246000D02*
X245779Y184721D01*
X245631Y184500D01*
X246000D01*
Y184869D01*
D02*
G37*
G36*
X63500Y189526D02*
X62717Y189423D01*
X61987Y189120D01*
X61360Y188640D01*
X60879Y188013D01*
X60577Y187283D01*
X60474Y186500D01*
X60577Y185717D01*
X60879Y184987D01*
X61360Y184360D01*
X61987Y183879D01*
X62717Y183577D01*
X63500Y183474D01*
X64283Y183577D01*
X65013Y183879D01*
X65640Y184360D01*
X66120Y184987D01*
X66423Y185717D01*
X66526Y186500D01*
X66423Y187283D01*
X66120Y188013D01*
X65640Y188640D01*
X65013Y189120D01*
X64283Y189423D01*
X63500Y189526D01*
D02*
G37*
G36*
X247369Y183500D02*
X247000D01*
Y183131D01*
X247221Y183279D01*
X247369Y183500D01*
D02*
G37*
G36*
X246000D02*
X245631D01*
X245779Y183279D01*
X246000Y183131D01*
Y183500D01*
D02*
G37*
G36*
X112500Y181869D02*
Y181500D01*
X112869D01*
X112721Y181721D01*
X112500Y181869D01*
D02*
G37*
G36*
X111500D02*
X111279Y181721D01*
X111131Y181500D01*
X111500D01*
Y181869D01*
D02*
G37*
G36*
X77000D02*
Y181500D01*
X77369D01*
X77221Y181721D01*
X77000Y181869D01*
D02*
G37*
G36*
X76000D02*
X75779Y181721D01*
X75631Y181500D01*
X76000D01*
Y181869D01*
D02*
G37*
G36*
X206000Y181658D02*
Y181290D01*
X206369D01*
X206221Y181511D01*
X206000Y181658D01*
D02*
G37*
G36*
X205000D02*
X204779Y181511D01*
X204631Y181290D01*
X205000D01*
Y181658D01*
D02*
G37*
G36*
X84500Y181369D02*
Y181000D01*
X84869D01*
X84721Y181221D01*
X84500Y181369D01*
D02*
G37*
G36*
X83500D02*
X83279Y181221D01*
X83131Y181000D01*
X83500D01*
Y181369D01*
D02*
G37*
G36*
X230500Y185039D02*
X229720Y184884D01*
X229058Y184442D01*
X228616Y183780D01*
X228461Y183000D01*
X228616Y182220D01*
X229058Y181558D01*
X229720Y181116D01*
X230500Y180961D01*
X231280Y181116D01*
X231942Y181558D01*
X232384Y182220D01*
X232539Y183000D01*
X232384Y183780D01*
X231942Y184442D01*
X231280Y184884D01*
X230500Y185039D01*
D02*
G37*
G36*
X161500D02*
X160720Y184884D01*
X160058Y184442D01*
X159616Y183780D01*
X159461Y183000D01*
X159616Y182220D01*
X160058Y181558D01*
X160720Y181116D01*
X161500Y180961D01*
X162280Y181116D01*
X162942Y181558D01*
X163384Y182220D01*
X163539Y183000D01*
X163384Y183780D01*
X162942Y184442D01*
X162280Y184884D01*
X161500Y185039D01*
D02*
G37*
G36*
X105721Y184952D02*
X104940Y184797D01*
X104279Y184355D01*
X103837Y183693D01*
X103682Y182913D01*
X103837Y182133D01*
X104279Y181471D01*
X104940Y181029D01*
X105721Y180874D01*
X106501Y181029D01*
X107163Y181471D01*
X107605Y182133D01*
X107760Y182913D01*
X107605Y183693D01*
X107163Y184355D01*
X106501Y184797D01*
X105721Y184952D01*
D02*
G37*
G36*
X271500Y180869D02*
Y180500D01*
X271869D01*
X271721Y180721D01*
X271500Y180869D01*
D02*
G37*
G36*
X270500D02*
X270279Y180721D01*
X270131Y180500D01*
X270500D01*
Y180869D01*
D02*
G37*
G36*
X246500Y180539D02*
Y180171D01*
X246869D01*
X246721Y180392D01*
X246500Y180539D01*
D02*
G37*
G36*
X245500D02*
X245279Y180392D01*
X245131Y180171D01*
X245500D01*
Y180539D01*
D02*
G37*
G36*
X112869Y180500D02*
X112500D01*
Y180131D01*
X112721Y180279D01*
X112869Y180500D01*
D02*
G37*
G36*
X111500D02*
X111131D01*
X111279Y180279D01*
X111500Y180131D01*
Y180500D01*
D02*
G37*
G36*
X77369D02*
X77000D01*
Y180131D01*
X77221Y180279D01*
X77369Y180500D01*
D02*
G37*
G36*
X76000D02*
X75631D01*
X75779Y180279D01*
X76000Y180131D01*
Y180500D01*
D02*
G37*
G36*
X206369Y180290D02*
X206000D01*
Y179921D01*
X206221Y180069D01*
X206369Y180290D01*
D02*
G37*
G36*
X205000D02*
X204631D01*
X204779Y180069D01*
X205000Y179921D01*
Y180290D01*
D02*
G37*
G36*
X84869Y180000D02*
X84500D01*
Y179631D01*
X84721Y179779D01*
X84869Y180000D01*
D02*
G37*
G36*
X83500D02*
X83131D01*
X83279Y179779D01*
X83500Y179631D01*
Y180000D01*
D02*
G37*
G36*
X322917Y187048D02*
X321927Y186918D01*
X321003Y186536D01*
X320211Y185927D01*
X319602Y185134D01*
X319220Y184211D01*
X319089Y183221D01*
X319220Y182230D01*
X319602Y181307D01*
X320211Y180514D01*
X321003Y179905D01*
X321927Y179523D01*
X322917Y179393D01*
X323908Y179523D01*
X324831Y179905D01*
X325624Y180514D01*
X326233Y181307D01*
X326615Y182230D01*
X326745Y183221D01*
X326615Y184211D01*
X326233Y185134D01*
X325624Y185927D01*
X324831Y186536D01*
X323908Y186918D01*
X322917Y187048D01*
D02*
G37*
G36*
X271869Y179500D02*
X271500D01*
Y179131D01*
X271721Y179279D01*
X271869Y179500D01*
D02*
G37*
G36*
X270500D02*
X270131D01*
X270279Y179279D01*
X270500Y179131D01*
Y179500D01*
D02*
G37*
G36*
X246869Y179171D02*
X246500D01*
Y178802D01*
X246721Y178950D01*
X246869Y179171D01*
D02*
G37*
G36*
X245500D02*
X245131D01*
X245279Y178950D01*
X245500Y178802D01*
Y179171D01*
D02*
G37*
G36*
X139500Y178369D02*
Y178000D01*
X139869D01*
X139721Y178221D01*
X139500Y178369D01*
D02*
G37*
G36*
X138500D02*
X138279Y178221D01*
X138131Y178000D01*
X138500D01*
Y178369D01*
D02*
G37*
G36*
X132500Y177369D02*
Y177000D01*
X132869D01*
X132721Y177221D01*
X132500Y177369D01*
D02*
G37*
G36*
X131500D02*
X131279Y177221D01*
X131131Y177000D01*
X131500D01*
Y177369D01*
D02*
G37*
G36*
X139869Y177000D02*
X139500D01*
Y176631D01*
X139721Y176779D01*
X139869Y177000D01*
D02*
G37*
G36*
X138500D02*
X138131D01*
X138279Y176779D01*
X138500Y176631D01*
Y177000D01*
D02*
G37*
G36*
X132869Y176000D02*
X132500D01*
Y175631D01*
X132721Y175779D01*
X132869Y176000D01*
D02*
G37*
G36*
X131500D02*
X131131D01*
X131279Y175779D01*
X131500Y175631D01*
Y176000D01*
D02*
G37*
G36*
X200500Y179539D02*
X199720Y179384D01*
X199058Y178942D01*
X198616Y178280D01*
X198461Y177500D01*
X198616Y176720D01*
X199058Y176058D01*
X199720Y175616D01*
X200500Y175461D01*
X201280Y175616D01*
X201942Y176058D01*
X202384Y176720D01*
X202539Y177500D01*
X202384Y178280D01*
X201942Y178942D01*
X201280Y179384D01*
X200500Y179539D01*
D02*
G37*
G36*
X206000Y174694D02*
Y174325D01*
X206369D01*
X206221Y174546D01*
X206000Y174694D01*
D02*
G37*
G36*
X205000D02*
X204779Y174546D01*
X204631Y174325D01*
X205000D01*
Y174694D01*
D02*
G37*
G36*
X246500Y173369D02*
Y173000D01*
X246869D01*
X246721Y173221D01*
X246500Y173369D01*
D02*
G37*
G36*
X245500D02*
X245279Y173221D01*
X245131Y173000D01*
X245500D01*
Y173369D01*
D02*
G37*
G36*
X77000D02*
Y173000D01*
X77369D01*
X77221Y173221D01*
X77000Y173369D01*
D02*
G37*
G36*
X76000D02*
X75779Y173221D01*
X75631Y173000D01*
X76000D01*
Y173369D01*
D02*
G37*
G36*
X206369Y173325D02*
X206000D01*
Y172957D01*
X206221Y173104D01*
X206369Y173325D01*
D02*
G37*
G36*
X205000D02*
X204631D01*
X204779Y173104D01*
X205000Y172957D01*
Y173325D01*
D02*
G37*
G36*
X85500Y172869D02*
Y172500D01*
X85869D01*
X85721Y172721D01*
X85500Y172869D01*
D02*
G37*
G36*
X84500D02*
X84279Y172721D01*
X84131Y172500D01*
X84500D01*
Y172869D01*
D02*
G37*
G36*
X246869Y172000D02*
X246500D01*
Y171631D01*
X246721Y171779D01*
X246869Y172000D01*
D02*
G37*
G36*
X245500D02*
X245131D01*
X245279Y171779D01*
X245500Y171631D01*
Y172000D01*
D02*
G37*
G36*
X77369D02*
X77000D01*
Y171631D01*
X77221Y171779D01*
X77369Y172000D01*
D02*
G37*
G36*
X76000D02*
X75631D01*
X75779Y171779D01*
X76000Y171631D01*
Y172000D01*
D02*
G37*
G36*
X85869Y171500D02*
X85500D01*
Y171131D01*
X85721Y171279D01*
X85869Y171500D01*
D02*
G37*
G36*
X84500D02*
X84131D01*
X84279Y171279D01*
X84500Y171131D01*
Y171500D01*
D02*
G37*
G36*
X99000Y178626D02*
X97932Y178485D01*
X96937Y178073D01*
X96083Y177417D01*
X95427Y176563D01*
X95015Y175568D01*
X94874Y174500D01*
X95015Y173432D01*
X95427Y172437D01*
X96083Y171583D01*
X96937Y170927D01*
X97932Y170515D01*
X99000Y170374D01*
X100068Y170515D01*
X101063Y170927D01*
X101917Y171583D01*
X102573Y172437D01*
X102985Y173432D01*
X103126Y174500D01*
X102985Y175568D01*
X102573Y176563D01*
X101917Y177417D01*
X101063Y178073D01*
X100068Y178485D01*
X99000Y178626D01*
D02*
G37*
G36*
X49000Y170369D02*
Y170000D01*
X49369D01*
X49221Y170221D01*
X49000Y170369D01*
D02*
G37*
G36*
X48000D02*
X47779Y170221D01*
X47631Y170000D01*
X48000D01*
Y170369D01*
D02*
G37*
G36*
X49369Y169000D02*
X49000D01*
Y168631D01*
X49221Y168779D01*
X49369Y169000D01*
D02*
G37*
G36*
X48000D02*
X47631D01*
X47779Y168779D01*
X48000Y168631D01*
Y169000D01*
D02*
G37*
G36*
X288000Y172039D02*
X287220Y171884D01*
X286558Y171442D01*
X286116Y170780D01*
X285961Y170000D01*
X286116Y169220D01*
X286558Y168558D01*
X287220Y168116D01*
X288000Y167961D01*
X288780Y168116D01*
X289442Y168558D01*
X289884Y169220D01*
X290039Y170000D01*
X289884Y170780D01*
X289442Y171442D01*
X288780Y171884D01*
X288000Y172039D01*
D02*
G37*
G36*
X221000Y167869D02*
Y167500D01*
X221369D01*
X221221Y167721D01*
X221000Y167869D01*
D02*
G37*
G36*
X220000D02*
X219779Y167721D01*
X219631Y167500D01*
X220000D01*
Y167869D01*
D02*
G37*
G36*
X202000Y171539D02*
X201220Y171384D01*
X200558Y170942D01*
X200116Y170280D01*
X199961Y169500D01*
X200116Y168720D01*
X200558Y168058D01*
X201220Y167616D01*
X202000Y167461D01*
X202780Y167616D01*
X203442Y168058D01*
X203884Y168720D01*
X204039Y169500D01*
X203884Y170280D01*
X203442Y170942D01*
X202780Y171384D01*
X202000Y171539D01*
D02*
G37*
G36*
X221369Y166500D02*
X221000D01*
Y166131D01*
X221221Y166279D01*
X221369Y166500D01*
D02*
G37*
G36*
X220000D02*
X219631D01*
X219779Y166279D01*
X220000Y166131D01*
Y166500D01*
D02*
G37*
G36*
X246500Y166369D02*
Y166000D01*
X246869D01*
X246721Y166221D01*
X246500Y166369D01*
D02*
G37*
G36*
X245500D02*
X245279Y166221D01*
X245131Y166000D01*
X245500D01*
Y166369D01*
D02*
G37*
G36*
X276000Y169539D02*
X275220Y169384D01*
X274558Y168942D01*
X274116Y168280D01*
X273961Y167500D01*
X274116Y166720D01*
X274558Y166058D01*
X275220Y165616D01*
X276000Y165461D01*
X276780Y165616D01*
X277442Y166058D01*
X277884Y166720D01*
X278039Y167500D01*
X277884Y168280D01*
X277442Y168942D01*
X276780Y169384D01*
X276000Y169539D01*
D02*
G37*
G36*
X246869Y165000D02*
X246500D01*
Y164631D01*
X246721Y164779D01*
X246869Y165000D01*
D02*
G37*
G36*
X245500D02*
X245131D01*
X245279Y164779D01*
X245500Y164631D01*
Y165000D01*
D02*
G37*
G36*
X256000Y164369D02*
Y164000D01*
X256369D01*
X256221Y164221D01*
X256000Y164369D01*
D02*
G37*
G36*
X255000D02*
X254779Y164221D01*
X254631Y164000D01*
X255000D01*
Y164369D01*
D02*
G37*
G36*
X333587Y178963D02*
X332059Y178813D01*
X330591Y178367D01*
X329237Y177644D01*
X328051Y176670D01*
X327077Y175483D01*
X326354Y174130D01*
X325908Y172661D01*
X325758Y171134D01*
X325908Y169606D01*
X326354Y168138D01*
X327077Y166784D01*
X328051Y165598D01*
X329237Y164624D01*
X330591Y163901D01*
X332059Y163455D01*
X333587Y163305D01*
X335114Y163455D01*
X336583Y163901D01*
X337936Y164624D01*
X339123Y165598D01*
X340096Y166784D01*
X340820Y168138D01*
X341265Y169606D01*
X341416Y171134D01*
X341265Y172661D01*
X340820Y174130D01*
X340096Y175483D01*
X339123Y176670D01*
X337936Y177644D01*
X336583Y178367D01*
X335114Y178813D01*
X333587Y178963D01*
D02*
G37*
G36*
X256369Y163000D02*
X256000D01*
Y162631D01*
X256221Y162779D01*
X256369Y163000D01*
D02*
G37*
G36*
X255000D02*
X254631D01*
X254779Y162779D01*
X255000Y162631D01*
Y163000D01*
D02*
G37*
G36*
X179000Y161869D02*
Y161500D01*
X179369D01*
X179221Y161721D01*
X179000Y161869D01*
D02*
G37*
G36*
X178000D02*
X177779Y161721D01*
X177631Y161500D01*
X178000D01*
Y161869D01*
D02*
G37*
G36*
X54500Y161369D02*
Y161000D01*
X54869D01*
X54721Y161221D01*
X54500Y161369D01*
D02*
G37*
G36*
X53500D02*
X53279Y161221D01*
X53131Y161000D01*
X53500D01*
Y161369D01*
D02*
G37*
G36*
X306500Y165039D02*
X305720Y164884D01*
X305058Y164442D01*
X304616Y163780D01*
X304461Y163000D01*
X304616Y162220D01*
X305058Y161558D01*
X305720Y161116D01*
X306500Y160961D01*
X307280Y161116D01*
X307942Y161558D01*
X308384Y162220D01*
X308539Y163000D01*
X308384Y163780D01*
X307942Y164442D01*
X307280Y164884D01*
X306500Y165039D01*
D02*
G37*
G36*
X65000D02*
X64220Y164884D01*
X63558Y164442D01*
X63116Y163780D01*
X62961Y163000D01*
X63116Y162220D01*
X63558Y161558D01*
X64220Y161116D01*
X65000Y160961D01*
X65780Y161116D01*
X66442Y161558D01*
X66884Y162220D01*
X67039Y163000D01*
X66884Y163780D01*
X66442Y164442D01*
X65780Y164884D01*
X65000Y165039D01*
D02*
G37*
G36*
X221000Y160869D02*
Y160500D01*
X221369D01*
X221221Y160721D01*
X221000Y160869D01*
D02*
G37*
G36*
X220000D02*
X219779Y160721D01*
X219631Y160500D01*
X220000D01*
Y160869D01*
D02*
G37*
G36*
X179369Y160500D02*
X179000D01*
Y160131D01*
X179221Y160279D01*
X179369Y160500D01*
D02*
G37*
G36*
X178000D02*
X177631D01*
X177779Y160279D01*
X178000Y160131D01*
Y160500D01*
D02*
G37*
G36*
X54869Y160000D02*
X54500D01*
Y159631D01*
X54721Y159779D01*
X54869Y160000D01*
D02*
G37*
G36*
X53500D02*
X53131D01*
X53279Y159779D01*
X53500Y159631D01*
Y160000D01*
D02*
G37*
G36*
X221369Y159500D02*
X221000D01*
Y159131D01*
X221221Y159279D01*
X221369Y159500D01*
D02*
G37*
G36*
X220000D02*
X219631D01*
X219779Y159279D01*
X220000Y159131D01*
Y159500D01*
D02*
G37*
G36*
X96025Y163200D02*
X95245Y163044D01*
X94583Y162602D01*
X94141Y161941D01*
X93986Y161160D01*
X94141Y160380D01*
X94583Y159719D01*
X95245Y159276D01*
X96025Y159121D01*
X96806Y159276D01*
X97467Y159719D01*
X97909Y160380D01*
X98064Y161160D01*
X97909Y161941D01*
X97467Y162602D01*
X96806Y163044D01*
X96025Y163200D01*
D02*
G37*
G36*
X246500Y159369D02*
Y159000D01*
X246869D01*
X246721Y159221D01*
X246500Y159369D01*
D02*
G37*
G36*
X245500D02*
X245279Y159221D01*
X245131Y159000D01*
X245500D01*
Y159369D01*
D02*
G37*
G36*
X106500Y162539D02*
X105720Y162384D01*
X105058Y161942D01*
X104616Y161280D01*
X104461Y160500D01*
X104616Y159720D01*
X105058Y159058D01*
X105720Y158616D01*
X106500Y158461D01*
X107280Y158616D01*
X107942Y159058D01*
X108384Y159720D01*
X108539Y160500D01*
X108384Y161280D01*
X107942Y161942D01*
X107280Y162384D01*
X106500Y162539D01*
D02*
G37*
G36*
X114500Y158369D02*
Y158000D01*
X114869D01*
X114721Y158221D01*
X114500Y158369D01*
D02*
G37*
G36*
X113500D02*
X113279Y158221D01*
X113131Y158000D01*
X113500D01*
Y158369D01*
D02*
G37*
G36*
X246869Y158000D02*
X246500D01*
Y157631D01*
X246721Y157779D01*
X246869Y158000D01*
D02*
G37*
G36*
X245500D02*
X245131D01*
X245279Y157779D01*
X245500Y157631D01*
Y158000D01*
D02*
G37*
G36*
X114869Y157000D02*
X114500D01*
Y156631D01*
X114721Y156779D01*
X114869Y157000D01*
D02*
G37*
G36*
X113500D02*
X113131D01*
X113279Y156779D01*
X113500Y156631D01*
Y157000D01*
D02*
G37*
G36*
X62021Y159810D02*
X61241Y159655D01*
X60579Y159213D01*
X60137Y158551D01*
X59982Y157771D01*
X60137Y156991D01*
X60579Y156329D01*
X61241Y155887D01*
X62021Y155732D01*
X62801Y155887D01*
X63463Y156329D01*
X63905Y156991D01*
X64060Y157771D01*
X63905Y158551D01*
X63463Y159213D01*
X62801Y159655D01*
X62021Y159810D01*
D02*
G37*
G36*
X45858Y161530D02*
X38772D01*
X37740Y161394D01*
X36778Y160996D01*
X35952Y160362D01*
X35319Y159537D01*
X34920Y158575D01*
X34785Y157543D01*
X34920Y156511D01*
X35319Y155550D01*
X35952Y154724D01*
X36778Y154091D01*
X37740Y153692D01*
X38772Y153556D01*
X45858D01*
X46890Y153692D01*
X47852Y154091D01*
X48677Y154724D01*
X49311Y155550D01*
X49709Y156511D01*
X49845Y157543D01*
X49709Y158575D01*
X49311Y159537D01*
X48677Y160362D01*
X47852Y160996D01*
X46890Y161394D01*
X45858Y161530D01*
D02*
G37*
G36*
X21055D02*
X16331D01*
X15299Y161394D01*
X14337Y160996D01*
X13511Y160362D01*
X12878Y159537D01*
X12480Y158575D01*
X12344Y157543D01*
X12480Y156511D01*
X12878Y155550D01*
X13511Y154724D01*
X14337Y154091D01*
X15299Y153692D01*
X16331Y153556D01*
X21055D01*
X22087Y153692D01*
X23048Y154091D01*
X23874Y154724D01*
X24508Y155550D01*
X24906Y156511D01*
X25042Y157543D01*
X24906Y158575D01*
X24508Y159537D01*
X23874Y160362D01*
X23048Y160996D01*
X22087Y161394D01*
X21055Y161530D01*
D02*
G37*
G36*
X221000Y153369D02*
Y153000D01*
X221369D01*
X221221Y153221D01*
X221000Y153369D01*
D02*
G37*
G36*
X220000D02*
X219779Y153221D01*
X219631Y153000D01*
X220000D01*
Y153369D01*
D02*
G37*
G36*
X159000Y152869D02*
Y152500D01*
X159369D01*
X159221Y152721D01*
X159000Y152869D01*
D02*
G37*
G36*
X158000D02*
X157779Y152721D01*
X157631Y152500D01*
X158000D01*
Y152869D01*
D02*
G37*
G36*
X246500Y152369D02*
Y152000D01*
X246869D01*
X246721Y152221D01*
X246500Y152369D01*
D02*
G37*
G36*
X245500D02*
X245279Y152221D01*
X245131Y152000D01*
X245500D01*
Y152369D01*
D02*
G37*
G36*
X221369Y152000D02*
X221000D01*
Y151631D01*
X221221Y151779D01*
X221369Y152000D01*
D02*
G37*
G36*
X220000D02*
X219631D01*
X219779Y151779D01*
X220000Y151631D01*
Y152000D01*
D02*
G37*
G36*
X159369Y151500D02*
X159000D01*
Y151131D01*
X159221Y151279D01*
X159369Y151500D01*
D02*
G37*
G36*
X158000D02*
X157631D01*
X157779Y151279D01*
X158000Y151131D01*
Y151500D01*
D02*
G37*
G36*
X246869Y151000D02*
X246500D01*
Y150631D01*
X246721Y150779D01*
X246869Y151000D01*
D02*
G37*
G36*
X245500D02*
X245131D01*
X245279Y150779D01*
X245500Y150631D01*
Y151000D01*
D02*
G37*
G36*
X257000Y154539D02*
X256220Y154384D01*
X255558Y153942D01*
X255116Y153280D01*
X254961Y152500D01*
X255116Y151720D01*
X255558Y151058D01*
X256220Y150616D01*
X257000Y150461D01*
X257780Y150616D01*
X258442Y151058D01*
X258884Y151720D01*
X259039Y152500D01*
X258884Y153280D01*
X258442Y153942D01*
X257780Y154384D01*
X257000Y154539D01*
D02*
G37*
G36*
X121500Y155626D02*
X120432Y155485D01*
X119437Y155073D01*
X118583Y154417D01*
X117927Y153563D01*
X117515Y152568D01*
X117374Y151500D01*
X117515Y150432D01*
X117927Y149437D01*
X118583Y148583D01*
X119437Y147927D01*
X120432Y147515D01*
X121500Y147374D01*
X122568Y147515D01*
X123563Y147927D01*
X124417Y148583D01*
X125073Y149437D01*
X125485Y150432D01*
X125626Y151500D01*
X125485Y152568D01*
X125073Y153563D01*
X124417Y154417D01*
X123563Y155073D01*
X122568Y155485D01*
X121500Y155626D01*
D02*
G37*
G36*
X84500Y147369D02*
Y147000D01*
X84869D01*
X84721Y147221D01*
X84500Y147369D01*
D02*
G37*
G36*
X83500D02*
X83279Y147221D01*
X83131Y147000D01*
X83500D01*
Y147369D01*
D02*
G37*
G36*
X321500Y155126D02*
X320432Y154985D01*
X319437Y154573D01*
X318583Y153917D01*
X317927Y153063D01*
X317515Y152068D01*
X317374Y151000D01*
X317515Y149932D01*
X317927Y148937D01*
X318583Y148083D01*
X319437Y147427D01*
X320432Y147015D01*
X321500Y146874D01*
X322568Y147015D01*
X323563Y147427D01*
X324417Y148083D01*
X325073Y148937D01*
X325485Y149932D01*
X325626Y151000D01*
X325485Y152068D01*
X325073Y153063D01*
X324417Y153917D01*
X323563Y154573D01*
X322568Y154985D01*
X321500Y155126D01*
D02*
G37*
G36*
X221000Y146869D02*
Y146500D01*
X221369D01*
X221221Y146721D01*
X221000Y146869D01*
D02*
G37*
G36*
X220000D02*
X219779Y146721D01*
X219631Y146500D01*
X220000D01*
Y146869D01*
D02*
G37*
G36*
X84869Y146000D02*
X84500D01*
Y145631D01*
X84721Y145779D01*
X84869Y146000D01*
D02*
G37*
G36*
X83500D02*
X83131D01*
X83279Y145779D01*
X83500Y145631D01*
Y146000D01*
D02*
G37*
G36*
X65000Y149539D02*
X64220Y149384D01*
X63558Y148942D01*
X63116Y148280D01*
X62961Y147500D01*
X63116Y146720D01*
X63558Y146058D01*
X64220Y145616D01*
X65000Y145461D01*
X65780Y145616D01*
X66442Y146058D01*
X66884Y146720D01*
X67039Y147500D01*
X66884Y148280D01*
X66442Y148942D01*
X65780Y149384D01*
X65000Y149539D01*
D02*
G37*
G36*
X221369Y145500D02*
X221000D01*
Y145131D01*
X221221Y145279D01*
X221369Y145500D01*
D02*
G37*
G36*
X220000D02*
X219631D01*
X219779Y145279D01*
X220000Y145131D01*
Y145500D01*
D02*
G37*
G36*
X306500Y148039D02*
X305720Y147884D01*
X305058Y147442D01*
X304616Y146780D01*
X304461Y146000D01*
X304616Y145220D01*
X305058Y144558D01*
X305720Y144116D01*
X306500Y143961D01*
X307280Y144116D01*
X307942Y144558D01*
X308384Y145220D01*
X308539Y146000D01*
X308384Y146780D01*
X307942Y147442D01*
X307280Y147884D01*
X306500Y148039D01*
D02*
G37*
G36*
X87000Y145539D02*
X86220Y145384D01*
X85558Y144942D01*
X85116Y144280D01*
X84961Y143500D01*
X85116Y142720D01*
X85558Y142058D01*
X86220Y141616D01*
X87000Y141461D01*
X87780Y141616D01*
X88442Y142058D01*
X88884Y142720D01*
X89039Y143500D01*
X88884Y144280D01*
X88442Y144942D01*
X87780Y145384D01*
X87000Y145539D01*
D02*
G37*
G36*
X65996Y145039D02*
X65215Y144884D01*
X64554Y144442D01*
X64112Y143780D01*
X63957Y143000D01*
X64112Y142220D01*
X64554Y141558D01*
X65215Y141116D01*
X65996Y140961D01*
X66776Y141116D01*
X67438Y141558D01*
X67880Y142220D01*
X68035Y143000D01*
X67880Y143780D01*
X67438Y144442D01*
X66776Y144884D01*
X65996Y145039D01*
D02*
G37*
G36*
X35500Y144539D02*
X34720Y144384D01*
X34058Y143942D01*
X33616Y143280D01*
X33461Y142500D01*
X33616Y141720D01*
X34058Y141058D01*
X34720Y140616D01*
X35500Y140461D01*
X36280Y140616D01*
X36942Y141058D01*
X37384Y141720D01*
X37539Y142500D01*
X37384Y143280D01*
X36942Y143942D01*
X36280Y144384D01*
X35500Y144539D01*
D02*
G37*
G36*
X327500Y144039D02*
X326720Y143884D01*
X326058Y143442D01*
X325616Y142780D01*
X325461Y142000D01*
X325616Y141220D01*
X326058Y140558D01*
X326720Y140116D01*
X327500Y139961D01*
X328280Y140116D01*
X328942Y140558D01*
X329384Y141220D01*
X329539Y142000D01*
X329384Y142780D01*
X328942Y143442D01*
X328280Y143884D01*
X327500Y144039D01*
D02*
G37*
G36*
X221000Y139369D02*
Y139000D01*
X221369D01*
X221221Y139221D01*
X221000Y139369D01*
D02*
G37*
G36*
X220000D02*
X219779Y139221D01*
X219631Y139000D01*
X220000D01*
Y139369D01*
D02*
G37*
G36*
X97500Y145026D02*
X96717Y144923D01*
X95987Y144621D01*
X95360Y144140D01*
X94880Y143513D01*
X94577Y142783D01*
X94474Y142000D01*
X94577Y141217D01*
X94880Y140487D01*
X95360Y139860D01*
X95987Y139380D01*
X96717Y139077D01*
X97500Y138974D01*
X98283Y139077D01*
X99013Y139380D01*
X99640Y139860D01*
X100120Y140487D01*
X100423Y141217D01*
X100526Y142000D01*
X100423Y142783D01*
X100120Y143513D01*
X99640Y144140D01*
X99013Y144621D01*
X98283Y144923D01*
X97500Y145026D01*
D02*
G37*
G36*
X246500Y138070D02*
Y137702D01*
X246869D01*
X246721Y137923D01*
X246500Y138070D01*
D02*
G37*
G36*
X245500D02*
X245279Y137923D01*
X245131Y137702D01*
X245500D01*
Y138070D01*
D02*
G37*
G36*
X221369Y138000D02*
X221000D01*
Y137631D01*
X221221Y137779D01*
X221369Y138000D01*
D02*
G37*
G36*
X220000D02*
X219631D01*
X219779Y137779D01*
X220000Y137631D01*
Y138000D01*
D02*
G37*
G36*
X63900Y140939D02*
X63120Y140784D01*
X62458Y140342D01*
X62016Y139680D01*
X61861Y138900D01*
X62016Y138120D01*
X62458Y137458D01*
X63120Y137016D01*
X63900Y136861D01*
X64680Y137016D01*
X65342Y137458D01*
X65784Y138120D01*
X65939Y138900D01*
X65784Y139680D01*
X65342Y140342D01*
X64680Y140784D01*
X63900Y140939D01*
D02*
G37*
G36*
X246869Y136702D02*
X246500D01*
Y136333D01*
X246721Y136481D01*
X246869Y136702D01*
D02*
G37*
G36*
X245500D02*
X245131D01*
X245279Y136481D01*
X245500Y136333D01*
Y136702D01*
D02*
G37*
G36*
X356374Y141252D02*
X354799D01*
X354024Y141150D01*
X353302Y140851D01*
X352682Y140375D01*
X352206Y139755D01*
X351907Y139033D01*
X351805Y138258D01*
X351907Y137483D01*
X352206Y136761D01*
X352682Y136141D01*
X353302Y135665D01*
X354024Y135366D01*
X354799Y135264D01*
X356374D01*
X357149Y135366D01*
X357871Y135665D01*
X358491Y136141D01*
X358967Y136761D01*
X359266Y137483D01*
X359368Y138258D01*
X359266Y139033D01*
X358967Y139755D01*
X358491Y140375D01*
X357871Y140851D01*
X357149Y141150D01*
X356374Y141252D01*
D02*
G37*
G36*
X348500Y134869D02*
Y134500D01*
X348869D01*
X348721Y134721D01*
X348500Y134869D01*
D02*
G37*
G36*
X347500D02*
X347279Y134721D01*
X347131Y134500D01*
X347500D01*
Y134869D01*
D02*
G37*
G36*
X86000Y138539D02*
X85220Y138384D01*
X84558Y137942D01*
X84116Y137280D01*
X83961Y136500D01*
X84116Y135720D01*
X84558Y135058D01*
X85220Y134616D01*
X86000Y134461D01*
X86780Y134616D01*
X87442Y135058D01*
X87884Y135720D01*
X88039Y136500D01*
X87884Y137280D01*
X87442Y137942D01*
X86780Y138384D01*
X86000Y138539D01*
D02*
G37*
G36*
X59500Y137539D02*
X58720Y137384D01*
X58058Y136942D01*
X57616Y136280D01*
X57461Y135500D01*
X57616Y134720D01*
X58058Y134058D01*
X58720Y133616D01*
X59500Y133461D01*
X60280Y133616D01*
X60942Y134058D01*
X61384Y134720D01*
X61539Y135500D01*
X61384Y136280D01*
X60942Y136942D01*
X60280Y137384D01*
X59500Y137539D01*
D02*
G37*
G36*
X348869Y133500D02*
X348500D01*
Y133131D01*
X348721Y133279D01*
X348869Y133500D01*
D02*
G37*
G36*
X347500D02*
X347131D01*
X347279Y133279D01*
X347500Y133131D01*
Y133500D01*
D02*
G37*
G36*
X206000Y132369D02*
Y132000D01*
X206369D01*
X206221Y132221D01*
X206000Y132369D01*
D02*
G37*
G36*
X205000D02*
X204779Y132221D01*
X204631Y132000D01*
X205000D01*
Y132369D01*
D02*
G37*
G36*
X292500Y136039D02*
X291720Y135884D01*
X291058Y135442D01*
X290616Y134780D01*
X290461Y134000D01*
X290616Y133220D01*
X291058Y132558D01*
X291720Y132116D01*
X292500Y131961D01*
X293280Y132116D01*
X293942Y132558D01*
X294384Y133220D01*
X294539Y134000D01*
X294384Y134780D01*
X293942Y135442D01*
X293280Y135884D01*
X292500Y136039D01*
D02*
G37*
G36*
X206369Y131000D02*
X206000D01*
Y130631D01*
X206221Y130779D01*
X206369Y131000D01*
D02*
G37*
G36*
X205000D02*
X204631D01*
X204779Y130779D01*
X205000Y130631D01*
Y131000D01*
D02*
G37*
G36*
X246500Y130869D02*
Y130500D01*
X246869D01*
X246721Y130721D01*
X246500Y130869D01*
D02*
G37*
G36*
X245500D02*
X245279Y130721D01*
X245131Y130500D01*
X245500D01*
Y130869D01*
D02*
G37*
G36*
X246869Y129500D02*
X246500D01*
Y129131D01*
X246721Y129279D01*
X246869Y129500D01*
D02*
G37*
G36*
X245500D02*
X245131D01*
X245279Y129279D01*
X245500Y129131D01*
Y129500D01*
D02*
G37*
G36*
X35500Y132865D02*
X34720Y132709D01*
X34058Y132267D01*
X33616Y131606D01*
X33461Y130825D01*
X33616Y130045D01*
X34058Y129384D01*
X34720Y128941D01*
X35500Y128786D01*
X36280Y128941D01*
X36942Y129384D01*
X37384Y130045D01*
X37539Y130825D01*
X37384Y131606D01*
X36942Y132267D01*
X36280Y132709D01*
X35500Y132865D01*
D02*
G37*
G36*
X206000Y124869D02*
Y124500D01*
X206369D01*
X206221Y124721D01*
X206000Y124869D01*
D02*
G37*
G36*
X205000D02*
X204779Y124721D01*
X204631Y124500D01*
X205000D01*
Y124869D01*
D02*
G37*
G36*
X246500Y123869D02*
Y123500D01*
X246869D01*
X246721Y123721D01*
X246500Y123869D01*
D02*
G37*
G36*
X245500D02*
X245279Y123721D01*
X245131Y123500D01*
X245500D01*
Y123869D01*
D02*
G37*
G36*
X206369Y123500D02*
X206000D01*
Y123131D01*
X206221Y123279D01*
X206369Y123500D01*
D02*
G37*
G36*
X205000D02*
X204631D01*
X204779Y123279D01*
X205000Y123131D01*
Y123500D01*
D02*
G37*
G36*
X35500Y127077D02*
X34720Y126921D01*
X34058Y126479D01*
X33616Y125818D01*
X33461Y125038D01*
X33616Y124257D01*
X34058Y123596D01*
X34720Y123154D01*
X35500Y122998D01*
X36280Y123154D01*
X36942Y123596D01*
X37384Y124257D01*
X37539Y125038D01*
X37384Y125818D01*
X36942Y126479D01*
X36280Y126921D01*
X35500Y127077D01*
D02*
G37*
G36*
X246869Y122500D02*
X246500D01*
Y122131D01*
X246721Y122279D01*
X246869Y122500D01*
D02*
G37*
G36*
X245500D02*
X245131D01*
X245279Y122279D01*
X245500Y122131D01*
Y122500D01*
D02*
G37*
G36*
X266000Y121869D02*
Y121500D01*
X266369D01*
X266221Y121721D01*
X266000Y121869D01*
D02*
G37*
G36*
X265000D02*
X264779Y121721D01*
X264631Y121500D01*
X265000D01*
Y121869D01*
D02*
G37*
G36*
X266369Y120500D02*
X266000D01*
Y120131D01*
X266221Y120279D01*
X266369Y120500D01*
D02*
G37*
G36*
X265000D02*
X264631D01*
X264779Y120279D01*
X265000Y120131D01*
Y120500D01*
D02*
G37*
G36*
X292500Y124039D02*
X291720Y123884D01*
X291058Y123442D01*
X290616Y122780D01*
X290461Y122000D01*
X290616Y121220D01*
X291058Y120558D01*
X291720Y120116D01*
X292500Y119961D01*
X293280Y120116D01*
X293942Y120558D01*
X294384Y121220D01*
X294539Y122000D01*
X294384Y122780D01*
X293942Y123442D01*
X293280Y123884D01*
X292500Y124039D01*
D02*
G37*
G36*
X206000Y117869D02*
Y117500D01*
X206369D01*
X206221Y117721D01*
X206000Y117869D01*
D02*
G37*
G36*
X205000D02*
X204779Y117721D01*
X204631Y117500D01*
X205000D01*
Y117869D01*
D02*
G37*
G36*
X35500Y121092D02*
X34720Y120937D01*
X34058Y120494D01*
X33616Y119833D01*
X33461Y119053D01*
X33616Y118272D01*
X34058Y117611D01*
X34720Y117169D01*
X35500Y117013D01*
X36280Y117169D01*
X36942Y117611D01*
X37384Y118272D01*
X37539Y119053D01*
X37384Y119833D01*
X36942Y120494D01*
X36280Y120937D01*
X35500Y121092D01*
D02*
G37*
G36*
X246500Y116869D02*
Y116500D01*
X246869D01*
X246721Y116721D01*
X246500Y116869D01*
D02*
G37*
G36*
X245500D02*
X245279Y116721D01*
X245131Y116500D01*
X245500D01*
Y116869D01*
D02*
G37*
G36*
X356374Y122158D02*
X354799D01*
X354024Y122055D01*
X353302Y121756D01*
X352682Y121281D01*
X352206Y120660D01*
X351907Y119938D01*
X351805Y119163D01*
X351907Y118388D01*
X352206Y117666D01*
X352682Y117046D01*
X353302Y116570D01*
X354024Y116271D01*
X354799Y116169D01*
X356374D01*
X357149Y116271D01*
X357871Y116570D01*
X358491Y117046D01*
X358967Y117666D01*
X359266Y118388D01*
X359368Y119163D01*
X359266Y119938D01*
X358967Y120660D01*
X358491Y121281D01*
X357871Y121756D01*
X357149Y122055D01*
X356374Y122158D01*
D02*
G37*
G36*
X206369Y116500D02*
X206000D01*
Y116131D01*
X206221Y116279D01*
X206369Y116500D01*
D02*
G37*
G36*
X205000D02*
X204631D01*
X204779Y116279D01*
X205000Y116131D01*
Y116500D01*
D02*
G37*
G36*
X246869Y115500D02*
X246500D01*
Y115131D01*
X246721Y115279D01*
X246869Y115500D01*
D02*
G37*
G36*
X245500D02*
X245131D01*
X245279Y115279D01*
X245500Y115131D01*
Y115500D01*
D02*
G37*
G36*
X318000Y114369D02*
Y114000D01*
X318369D01*
X318221Y114221D01*
X318000Y114369D01*
D02*
G37*
G36*
X317000D02*
X316779Y114221D01*
X316631Y114000D01*
X317000D01*
Y114369D01*
D02*
G37*
G36*
X318369Y113000D02*
X318000D01*
Y112631D01*
X318221Y112779D01*
X318369Y113000D01*
D02*
G37*
G36*
X317000D02*
X316631D01*
X316779Y112779D01*
X317000Y112631D01*
Y113000D01*
D02*
G37*
G36*
X35500Y115539D02*
X34720Y115384D01*
X34058Y114942D01*
X33616Y114280D01*
X33461Y113500D01*
X33616Y112720D01*
X34058Y112058D01*
X34720Y111616D01*
X35500Y111461D01*
X36280Y111616D01*
X36942Y112058D01*
X37384Y112720D01*
X37539Y113500D01*
X37384Y114280D01*
X36942Y114942D01*
X36280Y115384D01*
X35500Y115539D01*
D02*
G37*
G36*
X255500Y114539D02*
X254720Y114384D01*
X254058Y113942D01*
X253616Y113280D01*
X253461Y112500D01*
X253616Y111720D01*
X254058Y111058D01*
X254720Y110616D01*
X255500Y110461D01*
X256280Y110616D01*
X256942Y111058D01*
X257384Y111720D01*
X257539Y112500D01*
X257384Y113280D01*
X256942Y113942D01*
X256280Y114384D01*
X255500Y114539D01*
D02*
G37*
G36*
X337500Y114227D02*
X336720Y114072D01*
X336058Y113630D01*
X335616Y112968D01*
X335461Y112188D01*
X335616Y111408D01*
X336058Y110746D01*
X336720Y110304D01*
X337500Y110149D01*
X338280Y110304D01*
X338942Y110746D01*
X339384Y111408D01*
X339539Y112188D01*
X339384Y112968D01*
X338942Y113630D01*
X338280Y114072D01*
X337500Y114227D01*
D02*
G37*
G36*
X327500D02*
X326720Y114072D01*
X326058Y113630D01*
X325616Y112968D01*
X325461Y112188D01*
X325616Y111408D01*
X326058Y110746D01*
X326720Y110304D01*
X327500Y110149D01*
X328280Y110304D01*
X328942Y110746D01*
X329384Y111408D01*
X329539Y112188D01*
X329384Y112968D01*
X328942Y113630D01*
X328280Y114072D01*
X327500Y114227D01*
D02*
G37*
G36*
X287998Y113791D02*
X287218Y113636D01*
X286556Y113194D01*
X286114Y112532D01*
X285959Y111752D01*
X286114Y110972D01*
X286556Y110310D01*
X287218Y109868D01*
X287998Y109713D01*
X288779Y109868D01*
X289440Y110310D01*
X289882Y110972D01*
X290037Y111752D01*
X289882Y112532D01*
X289440Y113194D01*
X288779Y113636D01*
X287998Y113791D01*
D02*
G37*
G36*
X246500Y109669D02*
Y109300D01*
X246869D01*
X246721Y109521D01*
X246500Y109669D01*
D02*
G37*
G36*
X245500D02*
X245279Y109521D01*
X245131Y109300D01*
X245500D01*
Y109669D01*
D02*
G37*
G36*
X246869Y108300D02*
X246500D01*
Y107931D01*
X246721Y108079D01*
X246869Y108300D01*
D02*
G37*
G36*
X245500D02*
X245131D01*
X245279Y108079D01*
X245500Y107931D01*
Y108300D01*
D02*
G37*
G36*
X88000Y111539D02*
X87220Y111384D01*
X86558Y110942D01*
X86116Y110280D01*
X85961Y109500D01*
X86116Y108720D01*
X86558Y108058D01*
X87220Y107616D01*
X88000Y107461D01*
X88780Y107616D01*
X89442Y108058D01*
X89884Y108720D01*
X90039Y109500D01*
X89884Y110280D01*
X89442Y110942D01*
X88780Y111384D01*
X88000Y111539D01*
D02*
G37*
G36*
X259500Y105869D02*
Y105500D01*
X259869D01*
X259721Y105721D01*
X259500Y105869D01*
D02*
G37*
G36*
X258500D02*
X258279Y105721D01*
X258131Y105500D01*
X258500D01*
Y105869D01*
D02*
G37*
G36*
X318000Y104869D02*
Y104500D01*
X318369D01*
X318221Y104721D01*
X318000Y104869D01*
D02*
G37*
G36*
X317000D02*
X316779Y104721D01*
X316631Y104500D01*
X317000D01*
Y104869D01*
D02*
G37*
G36*
X247500D02*
Y104500D01*
X247869D01*
X247721Y104721D01*
X247500Y104869D01*
D02*
G37*
G36*
X246500D02*
X246279Y104721D01*
X246131Y104500D01*
X246500D01*
Y104869D01*
D02*
G37*
G36*
X206000D02*
Y104500D01*
X206369D01*
X206221Y104721D01*
X206000Y104869D01*
D02*
G37*
G36*
X205000D02*
X204779Y104721D01*
X204631Y104500D01*
X205000D01*
Y104869D01*
D02*
G37*
G36*
X259869Y104500D02*
X259500D01*
Y104131D01*
X259721Y104279D01*
X259869Y104500D01*
D02*
G37*
G36*
X258500D02*
X258131D01*
X258279Y104279D01*
X258500Y104131D01*
Y104500D01*
D02*
G37*
G36*
X351500Y108039D02*
X350720Y107884D01*
X350058Y107442D01*
X349616Y106780D01*
X349461Y106000D01*
X349616Y105220D01*
X350058Y104558D01*
X350720Y104116D01*
X351500Y103961D01*
X352280Y104116D01*
X352942Y104558D01*
X353384Y105220D01*
X353539Y106000D01*
X353384Y106780D01*
X352942Y107442D01*
X352280Y107884D01*
X351500Y108039D01*
D02*
G37*
G36*
X231000D02*
X230220Y107884D01*
X229558Y107442D01*
X229116Y106780D01*
X228961Y106000D01*
X229116Y105220D01*
X229558Y104558D01*
X230220Y104116D01*
X231000Y103961D01*
X231780Y104116D01*
X232442Y104558D01*
X232884Y105220D01*
X233039Y106000D01*
X232884Y106780D01*
X232442Y107442D01*
X231780Y107884D01*
X231000Y108039D01*
D02*
G37*
G36*
X318369Y103500D02*
X318000D01*
Y103131D01*
X318221Y103279D01*
X318369Y103500D01*
D02*
G37*
G36*
X317000D02*
X316631D01*
X316779Y103279D01*
X317000Y103131D01*
Y103500D01*
D02*
G37*
G36*
X247869D02*
X247500D01*
Y103131D01*
X247721Y103279D01*
X247869Y103500D01*
D02*
G37*
G36*
X246500D02*
X246131D01*
X246279Y103279D01*
X246500Y103131D01*
Y103500D01*
D02*
G37*
G36*
X206369D02*
X206000D01*
Y103131D01*
X206221Y103279D01*
X206369Y103500D01*
D02*
G37*
G36*
X205000D02*
X204631D01*
X204779Y103279D01*
X205000Y103131D01*
Y103500D01*
D02*
G37*
G36*
X80500Y106539D02*
X79720Y106384D01*
X79058Y105942D01*
X78616Y105280D01*
X78461Y104500D01*
X78616Y103720D01*
X79058Y103058D01*
X79720Y102616D01*
X80500Y102461D01*
X81280Y102616D01*
X81942Y103058D01*
X82384Y103720D01*
X82539Y104500D01*
X82384Y105280D01*
X81942Y105942D01*
X81280Y106384D01*
X80500Y106539D01*
D02*
G37*
G36*
X102000Y106039D02*
X101220Y105884D01*
X100558Y105442D01*
X100116Y104780D01*
X99961Y104000D01*
X100116Y103220D01*
X100558Y102558D01*
X101220Y102116D01*
X102000Y101961D01*
X102780Y102116D01*
X103442Y102558D01*
X103884Y103220D01*
X104039Y104000D01*
X103884Y104780D01*
X103442Y105442D01*
X102780Y105884D01*
X102000Y106039D01*
D02*
G37*
G36*
X230000Y103039D02*
X229220Y102884D01*
X228558Y102442D01*
X228116Y101780D01*
X227961Y101000D01*
X228116Y100220D01*
X228558Y99558D01*
X229220Y99116D01*
X230000Y98961D01*
X230780Y99116D01*
X231442Y99558D01*
X231884Y100220D01*
X232039Y101000D01*
X231884Y101780D01*
X231442Y102442D01*
X230780Y102884D01*
X230000Y103039D01*
D02*
G37*
G36*
X368453Y99953D02*
X366000D01*
Y97500D01*
X368453D01*
Y99953D01*
D02*
G37*
G36*
X365000D02*
X362547D01*
Y97500D01*
X365000D01*
Y99953D01*
D02*
G37*
G36*
X203000Y96869D02*
Y96500D01*
X203369D01*
X203221Y96721D01*
X203000Y96869D01*
D02*
G37*
G36*
X202000D02*
X201779Y96721D01*
X201631Y96500D01*
X202000D01*
Y96869D01*
D02*
G37*
G36*
X45858Y104444D02*
X38772D01*
X37740Y104308D01*
X36778Y103909D01*
X35952Y103276D01*
X35319Y102450D01*
X34920Y101489D01*
X34785Y100457D01*
X34920Y99425D01*
X35319Y98463D01*
X35952Y97637D01*
X36778Y97004D01*
X37740Y96606D01*
X38772Y96470D01*
X45858D01*
X46890Y96606D01*
X47852Y97004D01*
X48677Y97637D01*
X49311Y98463D01*
X49709Y99425D01*
X49845Y100457D01*
X49709Y101489D01*
X49311Y102450D01*
X48677Y103276D01*
X47852Y103909D01*
X46890Y104308D01*
X45858Y104444D01*
D02*
G37*
G36*
X21055D02*
X16331D01*
X15299Y104308D01*
X14337Y103909D01*
X13511Y103276D01*
X12878Y102450D01*
X12480Y101489D01*
X12344Y100457D01*
X12480Y99425D01*
X12878Y98463D01*
X13511Y97637D01*
X14337Y97004D01*
X15299Y96606D01*
X16331Y96470D01*
X21055D01*
X22087Y96606D01*
X23048Y97004D01*
X23874Y97637D01*
X24508Y98463D01*
X24906Y99425D01*
X25042Y100457D01*
X24906Y101489D01*
X24508Y102450D01*
X23874Y103276D01*
X23048Y103909D01*
X22087Y104308D01*
X21055Y104444D01*
D02*
G37*
G36*
X227000Y99539D02*
X226220Y99384D01*
X225558Y98942D01*
X225116Y98280D01*
X224961Y97500D01*
X225116Y96720D01*
X225558Y96058D01*
X226220Y95616D01*
X227000Y95461D01*
X227780Y95616D01*
X228442Y96058D01*
X228884Y96720D01*
X229039Y97500D01*
X228884Y98280D01*
X228442Y98942D01*
X227780Y99384D01*
X227000Y99539D01*
D02*
G37*
G36*
X203369Y95500D02*
X203000D01*
Y95131D01*
X203221Y95279D01*
X203369Y95500D01*
D02*
G37*
G36*
X202000D02*
X201631D01*
X201779Y95279D01*
X202000Y95131D01*
Y95500D01*
D02*
G37*
G36*
X246500Y95369D02*
Y95000D01*
X246869D01*
X246721Y95221D01*
X246500Y95369D01*
D02*
G37*
G36*
X245500D02*
X245279Y95221D01*
X245131Y95000D01*
X245500D01*
Y95369D01*
D02*
G37*
G36*
X368453Y96500D02*
X366000D01*
Y94047D01*
X368453D01*
Y96500D01*
D02*
G37*
G36*
X365000D02*
X362547D01*
Y94047D01*
X365000D01*
Y96500D01*
D02*
G37*
G36*
X246869Y94000D02*
X246500D01*
Y93631D01*
X246721Y93779D01*
X246869Y94000D01*
D02*
G37*
G36*
X245500D02*
X245131D01*
X245279Y93779D01*
X245500Y93631D01*
Y94000D01*
D02*
G37*
G36*
X355500Y100987D02*
X354468Y100851D01*
X353507Y100453D01*
X352681Y99819D01*
X352047Y98993D01*
X351649Y98032D01*
X351513Y97000D01*
X351649Y95968D01*
X352047Y95007D01*
X352681Y94181D01*
X353507Y93547D01*
X354468Y93149D01*
X355500Y93013D01*
X356532Y93149D01*
X357493Y93547D01*
X358319Y94181D01*
X358953Y95007D01*
X359351Y95968D01*
X359487Y97000D01*
X359351Y98032D01*
X358953Y98993D01*
X358319Y99819D01*
X357493Y100453D01*
X356532Y100851D01*
X355500Y100987D01*
D02*
G37*
G36*
X345500D02*
X344468Y100851D01*
X343507Y100453D01*
X342681Y99819D01*
X342047Y98993D01*
X341649Y98032D01*
X341513Y97000D01*
X341649Y95968D01*
X342047Y95007D01*
X342681Y94181D01*
X343507Y93547D01*
X344468Y93149D01*
X345500Y93013D01*
X346532Y93149D01*
X347493Y93547D01*
X348319Y94181D01*
X348953Y95007D01*
X349351Y95968D01*
X349487Y97000D01*
X349351Y98032D01*
X348953Y98993D01*
X348319Y99819D01*
X347493Y100453D01*
X346532Y100851D01*
X345500Y100987D01*
D02*
G37*
G36*
X160000Y93369D02*
Y93000D01*
X160369D01*
X160221Y93221D01*
X160000Y93369D01*
D02*
G37*
G36*
X159000D02*
X158779Y93221D01*
X158631Y93000D01*
X159000D01*
Y93369D01*
D02*
G37*
G36*
X35000Y93940D02*
Y92500D01*
X36440D01*
X36384Y92780D01*
X35942Y93442D01*
X35280Y93884D01*
X35000Y93940D01*
D02*
G37*
G36*
X34000D02*
X33720Y93884D01*
X33058Y93442D01*
X32616Y92780D01*
X32560Y92500D01*
X34000D01*
Y93940D01*
D02*
G37*
G36*
X223500Y96539D02*
X222720Y96384D01*
X222058Y95942D01*
X221616Y95280D01*
X221461Y94500D01*
X221616Y93720D01*
X222058Y93058D01*
X222720Y92616D01*
X223500Y92461D01*
X224280Y92616D01*
X224942Y93058D01*
X225384Y93720D01*
X225539Y94500D01*
X225384Y95280D01*
X224942Y95942D01*
X224280Y96384D01*
X223500Y96539D01*
D02*
G37*
G36*
X160369Y92000D02*
X160000D01*
Y91631D01*
X160221Y91779D01*
X160369Y92000D01*
D02*
G37*
G36*
X159000D02*
X158631D01*
X158779Y91779D01*
X159000Y91631D01*
Y92000D01*
D02*
G37*
G36*
X273000Y91369D02*
Y91000D01*
X273369D01*
X273221Y91221D01*
X273000Y91369D01*
D02*
G37*
G36*
X272000D02*
X271779Y91221D01*
X271631Y91000D01*
X272000D01*
Y91369D01*
D02*
G37*
G36*
X128000Y99126D02*
X126932Y98985D01*
X125937Y98573D01*
X125083Y97917D01*
X124427Y97063D01*
X124015Y96068D01*
X123874Y95000D01*
X124015Y93932D01*
X124427Y92937D01*
X125083Y92083D01*
X125937Y91427D01*
X126932Y91015D01*
X128000Y90874D01*
X129068Y91015D01*
X130063Y91427D01*
X130917Y92083D01*
X131573Y92937D01*
X131985Y93932D01*
X132126Y95000D01*
X131985Y96068D01*
X131573Y97063D01*
X130917Y97917D01*
X130063Y98573D01*
X129068Y98985D01*
X128000Y99126D01*
D02*
G37*
G36*
X110000Y90869D02*
Y90500D01*
X110369D01*
X110221Y90721D01*
X110000Y90869D01*
D02*
G37*
G36*
X109000D02*
X108779Y90721D01*
X108631Y90500D01*
X109000D01*
Y90869D01*
D02*
G37*
G36*
X36440Y91500D02*
X35000D01*
Y90060D01*
X35280Y90116D01*
X35942Y90558D01*
X36384Y91220D01*
X36440Y91500D01*
D02*
G37*
G36*
X34000D02*
X32560D01*
X32616Y91220D01*
X33058Y90558D01*
X33720Y90116D01*
X34000Y90060D01*
Y91500D01*
D02*
G37*
G36*
X273369Y90000D02*
X273000D01*
Y89631D01*
X273221Y89779D01*
X273369Y90000D01*
D02*
G37*
G36*
X272000D02*
X271631D01*
X271779Y89779D01*
X272000Y89631D01*
Y90000D01*
D02*
G37*
G36*
X256500Y89869D02*
Y89500D01*
X256869D01*
X256721Y89721D01*
X256500Y89869D01*
D02*
G37*
G36*
X255500D02*
X255279Y89721D01*
X255131Y89500D01*
X255500D01*
Y89869D01*
D02*
G37*
G36*
X61000Y97626D02*
X59932Y97485D01*
X58937Y97073D01*
X58083Y96417D01*
X57427Y95563D01*
X57015Y94568D01*
X56874Y93500D01*
X57015Y92432D01*
X57427Y91437D01*
X58083Y90583D01*
X58937Y89927D01*
X59932Y89515D01*
X61000Y89374D01*
X62068Y89515D01*
X63063Y89927D01*
X63917Y90583D01*
X64573Y91437D01*
X64985Y92432D01*
X65126Y93500D01*
X64985Y94568D01*
X64573Y95563D01*
X63917Y96417D01*
X63063Y97073D01*
X62068Y97485D01*
X61000Y97626D01*
D02*
G37*
G36*
X110369Y89500D02*
X110000D01*
Y89131D01*
X110221Y89279D01*
X110369Y89500D01*
D02*
G37*
G36*
X109000D02*
X108631D01*
X108779Y89279D01*
X109000Y89131D01*
Y89500D01*
D02*
G37*
G36*
X256869Y88500D02*
X256500D01*
Y88131D01*
X256721Y88279D01*
X256869Y88500D01*
D02*
G37*
G36*
X255500D02*
X255131D01*
X255279Y88279D01*
X255500Y88131D01*
Y88500D01*
D02*
G37*
G36*
X180000Y91539D02*
X179220Y91384D01*
X178558Y90942D01*
X178116Y90280D01*
X177961Y89500D01*
X178116Y88720D01*
X178558Y88058D01*
X179220Y87616D01*
X180000Y87461D01*
X180780Y87616D01*
X181442Y88058D01*
X181884Y88720D01*
X182039Y89500D01*
X181884Y90280D01*
X181442Y90942D01*
X180780Y91384D01*
X180000Y91539D01*
D02*
G37*
G36*
X138000Y93026D02*
X137217Y92923D01*
X136487Y92620D01*
X135860Y92140D01*
X135380Y91513D01*
X135077Y90783D01*
X134974Y90000D01*
X135077Y89217D01*
X135380Y88487D01*
X135860Y87860D01*
X136487Y87379D01*
X137217Y87077D01*
X138000Y86974D01*
X138783Y87077D01*
X139513Y87379D01*
X140140Y87860D01*
X140621Y88487D01*
X140923Y89217D01*
X141026Y90000D01*
X140923Y90783D01*
X140621Y91513D01*
X140140Y92140D01*
X139513Y92620D01*
X138783Y92923D01*
X138000Y93026D01*
D02*
G37*
G36*
X87000Y95126D02*
X85932Y94985D01*
X84937Y94573D01*
X84083Y93917D01*
X83427Y93063D01*
X83015Y92068D01*
X82874Y91000D01*
X83015Y89932D01*
X83427Y88937D01*
X84083Y88083D01*
X84937Y87427D01*
X85932Y87015D01*
X87000Y86874D01*
X88068Y87015D01*
X89063Y87427D01*
X89917Y88083D01*
X90573Y88937D01*
X90985Y89932D01*
X91126Y91000D01*
X90985Y92068D01*
X90573Y93063D01*
X89917Y93917D01*
X89063Y94573D01*
X88068Y94985D01*
X87000Y95126D01*
D02*
G37*
G36*
X119625Y84908D02*
Y84539D01*
X119994D01*
X119846Y84760D01*
X119625Y84908D01*
D02*
G37*
G36*
X118625D02*
X118404Y84760D01*
X118256Y84539D01*
X118625D01*
Y84908D01*
D02*
G37*
G36*
X119994Y83539D02*
X119625D01*
Y83171D01*
X119846Y83318D01*
X119994Y83539D01*
D02*
G37*
G36*
X118625D02*
X118256D01*
X118404Y83318D01*
X118625Y83171D01*
Y83539D01*
D02*
G37*
G36*
X281500Y89026D02*
X280717Y88923D01*
X279987Y88621D01*
X279360Y88140D01*
X278879Y87513D01*
X278577Y86783D01*
X278474Y86000D01*
X278577Y85217D01*
X278879Y84487D01*
X279360Y83860D01*
X279987Y83380D01*
X280717Y83077D01*
X281500Y82974D01*
X282283Y83077D01*
X283013Y83380D01*
X283640Y83860D01*
X284120Y84487D01*
X284423Y85217D01*
X284526Y86000D01*
X284423Y86783D01*
X284120Y87513D01*
X283640Y88140D01*
X283013Y88621D01*
X282283Y88923D01*
X281500Y89026D01*
D02*
G37*
G36*
X307000Y82369D02*
Y82000D01*
X307369D01*
X307221Y82221D01*
X307000Y82369D01*
D02*
G37*
G36*
X306000D02*
X305779Y82221D01*
X305631Y82000D01*
X306000D01*
Y82369D01*
D02*
G37*
G36*
X295000D02*
Y82000D01*
X295369D01*
X295221Y82221D01*
X295000Y82369D01*
D02*
G37*
G36*
X294000D02*
X293779Y82221D01*
X293631Y82000D01*
X294000D01*
Y82369D01*
D02*
G37*
G36*
X221000D02*
Y82000D01*
X221369D01*
X221221Y82221D01*
X221000Y82369D01*
D02*
G37*
G36*
X220000D02*
X219779Y82221D01*
X219631Y82000D01*
X220000D01*
Y82369D01*
D02*
G37*
G36*
X160000Y85539D02*
X159220Y85384D01*
X158558Y84942D01*
X158116Y84280D01*
X157961Y83500D01*
X158116Y82720D01*
X158558Y82058D01*
X159220Y81616D01*
X160000Y81461D01*
X160780Y81616D01*
X161442Y82058D01*
X161884Y82720D01*
X162039Y83500D01*
X161884Y84280D01*
X161442Y84942D01*
X160780Y85384D01*
X160000Y85539D01*
D02*
G37*
G36*
X221369Y81000D02*
X221000D01*
Y80631D01*
X221221Y80779D01*
X221369Y81000D01*
D02*
G37*
G36*
X220000D02*
X219631D01*
X219779Y80779D01*
X220000Y80631D01*
Y81000D01*
D02*
G37*
G36*
X307369D02*
X307000D01*
Y80631D01*
X307221Y80779D01*
X307369Y81000D01*
D02*
G37*
G36*
X306000D02*
X305631D01*
X305779Y80779D01*
X306000Y80631D01*
Y81000D01*
D02*
G37*
G36*
X295369D02*
X295000D01*
Y80631D01*
X295221Y80779D01*
X295369Y81000D01*
D02*
G37*
G36*
X294000D02*
X293631D01*
X293779Y80779D01*
X294000Y80631D01*
Y81000D01*
D02*
G37*
G36*
X259000Y79869D02*
Y79500D01*
X259369D01*
X259221Y79721D01*
X259000Y79869D01*
D02*
G37*
G36*
X258000D02*
X257779Y79721D01*
X257631Y79500D01*
X258000D01*
Y79869D01*
D02*
G37*
G36*
X259369Y78500D02*
X259000D01*
Y78131D01*
X259221Y78279D01*
X259369Y78500D01*
D02*
G37*
G36*
X258000D02*
X257631D01*
X257779Y78279D01*
X258000Y78131D01*
Y78500D01*
D02*
G37*
G36*
X227000Y77869D02*
Y77500D01*
X227369D01*
X227221Y77721D01*
X227000Y77869D01*
D02*
G37*
G36*
X226000D02*
X225779Y77721D01*
X225631Y77500D01*
X226000D01*
Y77869D01*
D02*
G37*
G36*
X231500Y77369D02*
Y77000D01*
X231869D01*
X231721Y77221D01*
X231500Y77369D01*
D02*
G37*
G36*
X230500D02*
X230279Y77221D01*
X230131Y77000D01*
X230500D01*
Y77369D01*
D02*
G37*
G36*
X172638Y81039D02*
X171857Y80884D01*
X171196Y80442D01*
X170754Y79780D01*
X170598Y79000D01*
X170754Y78220D01*
X171196Y77558D01*
X171857Y77116D01*
X172638Y76961D01*
X173418Y77116D01*
X174080Y77558D01*
X174522Y78220D01*
X174677Y79000D01*
X174522Y79780D01*
X174080Y80442D01*
X173418Y80884D01*
X172638Y81039D01*
D02*
G37*
G36*
X227369Y76500D02*
X227000D01*
Y76131D01*
X227221Y76279D01*
X227369Y76500D01*
D02*
G37*
G36*
X226000D02*
X225631D01*
X225779Y76279D01*
X226000Y76131D01*
Y76500D01*
D02*
G37*
G36*
X230500Y76000D02*
X230131D01*
X230279Y75779D01*
X230500Y75631D01*
Y76000D01*
D02*
G37*
G36*
X231869D02*
X231500D01*
Y75631D01*
X231721Y75779D01*
X231869Y76000D01*
D02*
G37*
G36*
X331000Y83626D02*
X329932Y83485D01*
X328937Y83073D01*
X328083Y82417D01*
X327427Y81563D01*
X327015Y80568D01*
X326874Y79500D01*
X327015Y78432D01*
X327427Y77437D01*
X328083Y76583D01*
X328937Y75927D01*
X329932Y75515D01*
X331000Y75374D01*
X332068Y75515D01*
X333063Y75927D01*
X333917Y76583D01*
X334573Y77437D01*
X334985Y78432D01*
X335126Y79500D01*
X334985Y80568D01*
X334573Y81563D01*
X333917Y82417D01*
X333063Y83073D01*
X332068Y83485D01*
X331000Y83626D01*
D02*
G37*
G36*
X259000Y74869D02*
Y74500D01*
X259369D01*
X259221Y74721D01*
X259000Y74869D01*
D02*
G37*
G36*
X258000D02*
X257779Y74721D01*
X257631Y74500D01*
X258000D01*
Y74869D01*
D02*
G37*
G36*
X206000Y73869D02*
Y73500D01*
X206369D01*
X206221Y73721D01*
X206000Y73869D01*
D02*
G37*
G36*
X205000D02*
X204779Y73721D01*
X204631Y73500D01*
X205000D01*
Y73869D01*
D02*
G37*
G36*
X259369Y73500D02*
X259000D01*
Y73131D01*
X259221Y73279D01*
X259369Y73500D01*
D02*
G37*
G36*
X258000D02*
X257631D01*
X257779Y73279D01*
X258000Y73131D01*
Y73500D01*
D02*
G37*
G36*
X206369Y72500D02*
X206000D01*
Y72131D01*
X206221Y72279D01*
X206369Y72500D01*
D02*
G37*
G36*
X205000D02*
X204631D01*
X204779Y72279D01*
X205000Y72131D01*
Y72500D01*
D02*
G37*
G36*
X84000Y76026D02*
X83217Y75923D01*
X82487Y75621D01*
X81860Y75140D01*
X81379Y74513D01*
X81077Y73783D01*
X80974Y73000D01*
X81077Y72217D01*
X81379Y71487D01*
X81860Y70860D01*
X82487Y70380D01*
X83217Y70077D01*
X84000Y69974D01*
X84783Y70077D01*
X85513Y70380D01*
X86140Y70860D01*
X86620Y71487D01*
X86923Y72217D01*
X87026Y73000D01*
X86923Y73783D01*
X86620Y74513D01*
X86140Y75140D01*
X85513Y75621D01*
X84783Y75923D01*
X84000Y76026D01*
D02*
G37*
G36*
X131500Y67369D02*
Y67000D01*
X131869D01*
X131721Y67221D01*
X131500Y67369D01*
D02*
G37*
G36*
X130500D02*
X130279Y67221D01*
X130131Y67000D01*
X130500D01*
Y67369D01*
D02*
G37*
G36*
X131869Y66000D02*
X131500D01*
Y65631D01*
X131721Y65779D01*
X131869Y66000D01*
D02*
G37*
G36*
X130500D02*
X130131D01*
X130279Y65779D01*
X130500Y65631D01*
Y66000D01*
D02*
G37*
G36*
X178000Y71526D02*
X177217Y71423D01*
X176487Y71121D01*
X175860Y70640D01*
X175380Y70013D01*
X175077Y69283D01*
X174974Y68500D01*
X175077Y67717D01*
X175380Y66987D01*
X175860Y66360D01*
X176487Y65879D01*
X177217Y65577D01*
X178000Y65474D01*
X178783Y65577D01*
X179513Y65879D01*
X180140Y66360D01*
X180621Y66987D01*
X180923Y67717D01*
X181026Y68500D01*
X180923Y69283D01*
X180621Y70013D01*
X180140Y70640D01*
X179513Y71121D01*
X178783Y71423D01*
X178000Y71526D01*
D02*
G37*
G36*
X259500Y64369D02*
Y64000D01*
X259869D01*
X259721Y64221D01*
X259500Y64369D01*
D02*
G37*
G36*
X258500D02*
X258279Y64221D01*
X258131Y64000D01*
X258500D01*
Y64369D01*
D02*
G37*
G36*
X123000Y63869D02*
Y63500D01*
X123369D01*
X123221Y63721D01*
X123000Y63869D01*
D02*
G37*
G36*
X122000D02*
X121779Y63721D01*
X121631Y63500D01*
X122000D01*
Y63869D01*
D02*
G37*
G36*
X259869Y63000D02*
X259500D01*
Y62631D01*
X259721Y62779D01*
X259869Y63000D01*
D02*
G37*
G36*
X258500D02*
X258131D01*
X258279Y62779D01*
X258500Y62631D01*
Y63000D01*
D02*
G37*
G36*
X277500Y70626D02*
X276432Y70485D01*
X275437Y70073D01*
X274583Y69417D01*
X273927Y68563D01*
X273515Y67568D01*
X273374Y66500D01*
X273515Y65432D01*
X273927Y64437D01*
X274583Y63583D01*
X275437Y62927D01*
X276432Y62515D01*
X277500Y62374D01*
X278568Y62515D01*
X279563Y62927D01*
X280417Y63583D01*
X281073Y64437D01*
X281485Y65432D01*
X281626Y66500D01*
X281485Y67568D01*
X281073Y68563D01*
X280417Y69417D01*
X279563Y70073D01*
X278568Y70485D01*
X277500Y70626D01*
D02*
G37*
G36*
X123369Y62500D02*
X123000D01*
Y62131D01*
X123221Y62279D01*
X123369Y62500D01*
D02*
G37*
G36*
X122000D02*
X121631D01*
X121779Y62279D01*
X122000Y62131D01*
Y62500D01*
D02*
G37*
G36*
X205000Y62369D02*
Y62000D01*
X205369D01*
X205221Y62221D01*
X205000Y62369D01*
D02*
G37*
G36*
X204000D02*
X203779Y62221D01*
X203631Y62000D01*
X204000D01*
Y62369D01*
D02*
G37*
G36*
X230000Y61869D02*
Y61500D01*
X230369D01*
X230221Y61721D01*
X230000Y61869D01*
D02*
G37*
G36*
X229000D02*
X228779Y61721D01*
X228631Y61500D01*
X229000D01*
Y61869D01*
D02*
G37*
G36*
X259500Y61369D02*
Y61000D01*
X259869D01*
X259721Y61221D01*
X259500Y61369D01*
D02*
G37*
G36*
X258500D02*
X258279Y61221D01*
X258131Y61000D01*
X258500D01*
Y61369D01*
D02*
G37*
G36*
X205369Y61000D02*
X205000D01*
Y60631D01*
X205221Y60779D01*
X205369Y61000D01*
D02*
G37*
G36*
X204000D02*
X203631D01*
X203779Y60779D01*
X204000Y60631D01*
Y61000D01*
D02*
G37*
G36*
X230369Y60500D02*
X230000D01*
Y60131D01*
X230221Y60279D01*
X230369Y60500D01*
D02*
G37*
G36*
X229000D02*
X228631D01*
X228779Y60279D01*
X229000Y60131D01*
Y60500D01*
D02*
G37*
G36*
X259869Y60000D02*
X259500D01*
Y59631D01*
X259721Y59779D01*
X259869Y60000D01*
D02*
G37*
G36*
X258500D02*
X258131D01*
X258279Y59779D01*
X258500Y59631D01*
Y60000D01*
D02*
G37*
G36*
X18236Y66425D02*
X17050Y66269D01*
X15945Y65811D01*
X14996Y65083D01*
X14268Y64134D01*
X13810Y63029D01*
X13654Y61843D01*
X13810Y60656D01*
X14268Y59551D01*
X14996Y58602D01*
X15945Y57874D01*
X17050Y57416D01*
X18236Y57260D01*
X19422Y57416D01*
X20527Y57874D01*
X21476Y58602D01*
X22205Y59551D01*
X22663Y60656D01*
X22819Y61843D01*
X22663Y63029D01*
X22205Y64134D01*
X21476Y65083D01*
X20527Y65811D01*
X19422Y66269D01*
X18236Y66425D01*
D02*
G37*
G36*
X185000Y57369D02*
Y57000D01*
X185369D01*
X185221Y57221D01*
X185000Y57369D01*
D02*
G37*
G36*
X184000D02*
X183779Y57221D01*
X183631Y57000D01*
X184000D01*
Y57369D01*
D02*
G37*
G36*
X288500Y63026D02*
X287717Y62923D01*
X286987Y62621D01*
X286360Y62140D01*
X285879Y61513D01*
X285577Y60783D01*
X285474Y60000D01*
X285577Y59217D01*
X285879Y58487D01*
X286360Y57860D01*
X286987Y57380D01*
X287717Y57077D01*
X288500Y56974D01*
X289283Y57077D01*
X290013Y57380D01*
X290640Y57860D01*
X291121Y58487D01*
X291423Y59217D01*
X291526Y60000D01*
X291423Y60783D01*
X291121Y61513D01*
X290640Y62140D01*
X290013Y62621D01*
X289283Y62923D01*
X288500Y63026D01*
D02*
G37*
G36*
X177500Y62026D02*
X176717Y61923D01*
X175987Y61620D01*
X175360Y61140D01*
X174880Y60513D01*
X174577Y59783D01*
X174474Y59000D01*
X174577Y58217D01*
X174880Y57487D01*
X175360Y56860D01*
X175987Y56379D01*
X176717Y56077D01*
X177500Y55974D01*
X178283Y56077D01*
X179013Y56379D01*
X179640Y56860D01*
X180121Y57487D01*
X180423Y58217D01*
X180526Y59000D01*
X180423Y59783D01*
X180121Y60513D01*
X179640Y61140D01*
X179013Y61620D01*
X178283Y61923D01*
X177500Y62026D01*
D02*
G37*
G36*
X146500D02*
X145717Y61923D01*
X144987Y61620D01*
X144360Y61140D01*
X143879Y60513D01*
X143577Y59783D01*
X143474Y59000D01*
X143577Y58217D01*
X143879Y57487D01*
X144360Y56860D01*
X144987Y56379D01*
X145717Y56077D01*
X146500Y55974D01*
X147283Y56077D01*
X148013Y56379D01*
X148640Y56860D01*
X149120Y57487D01*
X149423Y58217D01*
X149526Y59000D01*
X149423Y59783D01*
X149120Y60513D01*
X148640Y61140D01*
X148013Y61620D01*
X147283Y61923D01*
X146500Y62026D01*
D02*
G37*
G36*
X185369Y56000D02*
X185000D01*
Y55631D01*
X185221Y55779D01*
X185369Y56000D01*
D02*
G37*
G36*
X184000D02*
X183631D01*
X183779Y55779D01*
X184000Y55631D01*
Y56000D01*
D02*
G37*
G36*
X259500Y55869D02*
Y55500D01*
X259869D01*
X259721Y55721D01*
X259500Y55869D01*
D02*
G37*
G36*
X258500D02*
X258279Y55721D01*
X258131Y55500D01*
X258500D01*
Y55869D01*
D02*
G37*
G36*
X259869Y54500D02*
X259500D01*
Y54131D01*
X259721Y54279D01*
X259869Y54500D01*
D02*
G37*
G36*
X258500D02*
X258131D01*
X258279Y54279D01*
X258500Y54131D01*
Y54500D01*
D02*
G37*
G36*
X259500Y50369D02*
Y50000D01*
X259869D01*
X259721Y50221D01*
X259500Y50369D01*
D02*
G37*
G36*
X258500D02*
X258279Y50221D01*
X258131Y50000D01*
X258500D01*
Y50369D01*
D02*
G37*
G36*
X165500Y53039D02*
X164720Y52884D01*
X164058Y52442D01*
X163616Y51780D01*
X163461Y51000D01*
X163616Y50220D01*
X164058Y49558D01*
X164720Y49116D01*
X165500Y48961D01*
X166280Y49116D01*
X166942Y49558D01*
X167384Y50220D01*
X167539Y51000D01*
X167384Y51780D01*
X166942Y52442D01*
X166280Y52884D01*
X165500Y53039D01*
D02*
G37*
G36*
X259869Y49000D02*
X259500D01*
Y48631D01*
X259721Y48779D01*
X259869Y49000D01*
D02*
G37*
G36*
X258500D02*
X258131D01*
X258279Y48779D01*
X258500Y48631D01*
Y49000D01*
D02*
G37*
G36*
X177000Y51539D02*
X176220Y51384D01*
X175558Y50942D01*
X175116Y50280D01*
X174961Y49500D01*
X175116Y48720D01*
X175558Y48058D01*
X176220Y47616D01*
X177000Y47461D01*
X177780Y47616D01*
X178442Y48058D01*
X178884Y48720D01*
X179039Y49500D01*
X178884Y50280D01*
X178442Y50942D01*
X177780Y51384D01*
X177000Y51539D01*
D02*
G37*
G36*
X126500Y44369D02*
Y44000D01*
X126869D01*
X126721Y44221D01*
X126500Y44369D01*
D02*
G37*
G36*
X125500D02*
X125279Y44221D01*
X125131Y44000D01*
X125500D01*
Y44369D01*
D02*
G37*
G36*
X180500Y48039D02*
X179720Y47884D01*
X179058Y47442D01*
X178616Y46780D01*
X178461Y46000D01*
X178616Y45220D01*
X179058Y44558D01*
X179720Y44116D01*
X180500Y43961D01*
X181280Y44116D01*
X181942Y44558D01*
X182384Y45220D01*
X182539Y46000D01*
X182384Y46780D01*
X181942Y47442D01*
X181280Y47884D01*
X180500Y48039D01*
D02*
G37*
G36*
X136000Y43869D02*
Y43500D01*
X136369D01*
X136221Y43721D01*
X136000Y43869D01*
D02*
G37*
G36*
X135000D02*
X134779Y43721D01*
X134631Y43500D01*
X135000D01*
Y43869D01*
D02*
G37*
G36*
X126869Y43000D02*
X126500D01*
Y42631D01*
X126721Y42779D01*
X126869Y43000D01*
D02*
G37*
G36*
X125500D02*
X125131D01*
X125279Y42779D01*
X125500Y42631D01*
Y43000D01*
D02*
G37*
G36*
X136369Y42500D02*
X136000D01*
Y42131D01*
X136221Y42279D01*
X136369Y42500D01*
D02*
G37*
G36*
X135000D02*
X134631D01*
X134779Y42279D01*
X135000Y42131D01*
Y42500D01*
D02*
G37*
G36*
X18236Y46740D02*
X17050Y46584D01*
X15945Y46126D01*
X14996Y45398D01*
X14268Y44449D01*
X13810Y43343D01*
X13654Y42158D01*
X13810Y40971D01*
X14268Y39866D01*
X14996Y38917D01*
X15945Y38189D01*
X17050Y37731D01*
X18236Y37575D01*
X19422Y37731D01*
X20527Y38189D01*
X21476Y38917D01*
X22205Y39866D01*
X22663Y40971D01*
X22819Y42158D01*
X22663Y43343D01*
X22205Y44449D01*
X21476Y45398D01*
X20527Y46126D01*
X19422Y46584D01*
X18236Y46740D01*
D02*
G37*
G36*
X129000Y37869D02*
Y37500D01*
X129369D01*
X129221Y37721D01*
X129000Y37869D01*
D02*
G37*
G36*
X128000D02*
X127779Y37721D01*
X127631Y37500D01*
X128000D01*
Y37869D01*
D02*
G37*
G36*
X86003Y37101D02*
Y36732D01*
X86371D01*
X86224Y36953D01*
X86003Y37101D01*
D02*
G37*
G36*
X85003D02*
X84782Y36953D01*
X84634Y36732D01*
X85003D01*
Y37101D01*
D02*
G37*
G36*
X129369Y36500D02*
X129000D01*
Y36131D01*
X129221Y36279D01*
X129369Y36500D01*
D02*
G37*
G36*
X128000D02*
X127631D01*
X127779Y36279D01*
X128000Y36131D01*
Y36500D01*
D02*
G37*
G36*
X77000Y41526D02*
X76217Y41423D01*
X75487Y41120D01*
X74860Y40640D01*
X74379Y40013D01*
X74077Y39283D01*
X73974Y38500D01*
X74077Y37717D01*
X74379Y36987D01*
X74860Y36360D01*
X75487Y35879D01*
X76217Y35577D01*
X77000Y35474D01*
X77783Y35577D01*
X78513Y35879D01*
X79140Y36360D01*
X79620Y36987D01*
X79923Y37717D01*
X80026Y38500D01*
X79923Y39283D01*
X79620Y40013D01*
X79140Y40640D01*
X78513Y41120D01*
X77783Y41423D01*
X77000Y41526D01*
D02*
G37*
G36*
X86371Y35732D02*
X86003D01*
Y35364D01*
X86224Y35511D01*
X86371Y35732D01*
D02*
G37*
G36*
X85003D02*
X84634D01*
X84782Y35511D01*
X85003Y35364D01*
Y35732D01*
D02*
G37*
G36*
X193500Y40526D02*
X192717Y40423D01*
X191987Y40121D01*
X191360Y39640D01*
X190879Y39013D01*
X190577Y38283D01*
X190474Y37500D01*
X190577Y36717D01*
X190879Y35987D01*
X191360Y35360D01*
X191987Y34879D01*
X192717Y34577D01*
X193500Y34474D01*
X194283Y34577D01*
X195013Y34879D01*
X195640Y35360D01*
X196121Y35987D01*
X196423Y36717D01*
X196526Y37500D01*
X196423Y38283D01*
X196121Y39013D01*
X195640Y39640D01*
X195013Y40121D01*
X194283Y40423D01*
X193500Y40526D01*
D02*
G37*
G36*
X103000D02*
X102217Y40423D01*
X101487Y40121D01*
X100860Y39640D01*
X100380Y39013D01*
X100077Y38283D01*
X99974Y37500D01*
X100077Y36717D01*
X100380Y35987D01*
X100860Y35360D01*
X101487Y34879D01*
X102217Y34577D01*
X103000Y34474D01*
X103783Y34577D01*
X104513Y34879D01*
X105140Y35360D01*
X105621Y35987D01*
X105923Y36717D01*
X106026Y37500D01*
X105923Y38283D01*
X105621Y39013D01*
X105140Y39640D01*
X104513Y40121D01*
X103783Y40423D01*
X103000Y40526D01*
D02*
G37*
G36*
X156107Y38473D02*
X155326Y38318D01*
X154665Y37876D01*
X154223Y37214D01*
X154067Y36434D01*
X154223Y35653D01*
X154665Y34992D01*
X155326Y34550D01*
X156107Y34395D01*
X156887Y34550D01*
X157548Y34992D01*
X157991Y35653D01*
X158146Y36434D01*
X157991Y37214D01*
X157548Y37876D01*
X156887Y38318D01*
X156107Y38473D01*
D02*
G37*
G36*
X147500Y38039D02*
X146720Y37884D01*
X146058Y37442D01*
X145616Y36780D01*
X145461Y36000D01*
X145616Y35220D01*
X146058Y34558D01*
X146720Y34116D01*
X147500Y33961D01*
X148280Y34116D01*
X148942Y34558D01*
X149384Y35220D01*
X149539Y36000D01*
X149384Y36780D01*
X148942Y37442D01*
X148280Y37884D01*
X147500Y38039D01*
D02*
G37*
G36*
X277000Y39626D02*
X275932Y39485D01*
X274937Y39073D01*
X274083Y38417D01*
X273427Y37563D01*
X273015Y36568D01*
X272874Y35500D01*
X273015Y34432D01*
X273427Y33437D01*
X274083Y32583D01*
X274937Y31927D01*
X275932Y31515D01*
X277000Y31374D01*
X278068Y31515D01*
X279063Y31927D01*
X279917Y32583D01*
X280573Y33437D01*
X280985Y34432D01*
X281126Y35500D01*
X280985Y36568D01*
X280573Y37563D01*
X279917Y38417D01*
X279063Y39073D01*
X278068Y39485D01*
X277000Y39626D01*
D02*
G37*
G36*
X63000Y30369D02*
Y30000D01*
X63369D01*
X63221Y30221D01*
X63000Y30369D01*
D02*
G37*
G36*
X62000D02*
X61779Y30221D01*
X61631Y30000D01*
X62000D01*
Y30369D01*
D02*
G37*
G36*
X226008Y37054D02*
X224976Y36918D01*
X224014Y36520D01*
X223189Y35886D01*
X222555Y35060D01*
X222157Y34099D01*
X222021Y33067D01*
X222157Y32035D01*
X222555Y31073D01*
X223189Y30248D01*
X224014Y29614D01*
X224976Y29216D01*
X226008Y29080D01*
X227040Y29216D01*
X228001Y29614D01*
X228827Y30248D01*
X229461Y31073D01*
X229859Y32035D01*
X229995Y33067D01*
X229859Y34099D01*
X229461Y35060D01*
X228827Y35886D01*
X228001Y36520D01*
X227040Y36918D01*
X226008Y37054D01*
D02*
G37*
G36*
X63369Y29000D02*
X63000D01*
Y28631D01*
X63221Y28779D01*
X63369Y29000D01*
D02*
G37*
G36*
X62000D02*
X61631D01*
X61779Y28779D01*
X62000Y28631D01*
Y29000D01*
D02*
G37*
G36*
X153900Y31340D02*
X153120Y31184D01*
X152458Y30742D01*
X152016Y30081D01*
X151861Y29300D01*
X152016Y28520D01*
X152458Y27858D01*
X153120Y27417D01*
X153900Y27261D01*
X154681Y27417D01*
X155342Y27858D01*
X155784Y28520D01*
X155939Y29300D01*
X155784Y30081D01*
X155342Y30742D01*
X154681Y31184D01*
X153900Y31340D01*
D02*
G37*
G36*
X148123Y31056D02*
X147343Y30901D01*
X146681Y30459D01*
X146239Y29797D01*
X146084Y29017D01*
X146239Y28236D01*
X146681Y27575D01*
X147343Y27133D01*
X148123Y26978D01*
X148904Y27133D01*
X149565Y27575D01*
X150007Y28236D01*
X150162Y29017D01*
X150007Y29797D01*
X149565Y30459D01*
X148904Y30901D01*
X148123Y31056D01*
D02*
G37*
G36*
X173000Y30539D02*
X172220Y30384D01*
X171558Y29942D01*
X171116Y29280D01*
X170961Y28500D01*
X171116Y27720D01*
X171558Y27058D01*
X172220Y26616D01*
X173000Y26461D01*
X173780Y26616D01*
X174442Y27058D01*
X174884Y27720D01*
X175039Y28500D01*
X174884Y29280D01*
X174442Y29942D01*
X173780Y30384D01*
X173000Y30539D01*
D02*
G37*
G36*
X167463Y30362D02*
X166682Y30207D01*
X166021Y29765D01*
X165578Y29103D01*
X165423Y28323D01*
X165578Y27542D01*
X166021Y26881D01*
X166682Y26439D01*
X167463Y26284D01*
X168243Y26439D01*
X168904Y26881D01*
X169346Y27542D01*
X169502Y28323D01*
X169346Y29103D01*
X168904Y29765D01*
X168243Y30207D01*
X167463Y30362D01*
D02*
G37*
G36*
X98500Y24869D02*
Y24500D01*
X98869D01*
X98721Y24721D01*
X98500Y24869D01*
D02*
G37*
G36*
X97500D02*
X97279Y24721D01*
X97131Y24500D01*
X97500D01*
Y24869D01*
D02*
G37*
G36*
X98869Y23500D02*
X98500D01*
Y23131D01*
X98721Y23279D01*
X98869Y23500D01*
D02*
G37*
G36*
X97500D02*
X97131D01*
X97279Y23279D01*
X97500Y23131D01*
Y23500D01*
D02*
G37*
G36*
X133500Y25039D02*
X132720Y24884D01*
X132058Y24442D01*
X131616Y23780D01*
X131461Y23000D01*
X131616Y22220D01*
X132058Y21558D01*
X132720Y21116D01*
X133500Y20961D01*
X134280Y21116D01*
X134942Y21558D01*
X135384Y22220D01*
X135539Y23000D01*
X135384Y23780D01*
X134942Y24442D01*
X134280Y24884D01*
X133500Y25039D01*
D02*
G37*
G36*
X131000Y16440D02*
Y15000D01*
X132440D01*
X132384Y15280D01*
X131942Y15942D01*
X131280Y16384D01*
X131000Y16440D01*
D02*
G37*
G36*
X130000D02*
X129720Y16384D01*
X129058Y15942D01*
X128616Y15280D01*
X128560Y15000D01*
X130000D01*
Y16440D01*
D02*
G37*
G36*
X70500Y15940D02*
Y14500D01*
X71940D01*
X71884Y14780D01*
X71442Y15442D01*
X70780Y15884D01*
X70500Y15940D01*
D02*
G37*
G36*
X69500D02*
X69220Y15884D01*
X68558Y15442D01*
X68116Y14780D01*
X68060Y14500D01*
X69500D01*
Y15940D01*
D02*
G37*
G36*
X105500Y20526D02*
X104717Y20423D01*
X103987Y20121D01*
X103360Y19640D01*
X102880Y19013D01*
X102577Y18283D01*
X102474Y17500D01*
X102577Y16717D01*
X102880Y15987D01*
X103360Y15360D01*
X103987Y14879D01*
X104717Y14577D01*
X105500Y14474D01*
X106283Y14577D01*
X107013Y14879D01*
X107640Y15360D01*
X108121Y15987D01*
X108423Y16717D01*
X108526Y17500D01*
X108423Y18283D01*
X108121Y19013D01*
X107640Y19640D01*
X107013Y20121D01*
X106283Y20423D01*
X105500Y20526D01*
D02*
G37*
G36*
X167000Y14369D02*
Y14000D01*
X167369D01*
X167221Y14221D01*
X167000Y14369D01*
D02*
G37*
G36*
X166000D02*
X165779Y14221D01*
X165631Y14000D01*
X166000D01*
Y14369D01*
D02*
G37*
G36*
X161000D02*
Y14000D01*
X161369D01*
X161221Y14221D01*
X161000Y14369D01*
D02*
G37*
G36*
X160000D02*
X159779Y14221D01*
X159631Y14000D01*
X160000D01*
Y14369D01*
D02*
G37*
G36*
X167369Y13000D02*
X167000D01*
Y12631D01*
X167221Y12779D01*
X167369Y13000D01*
D02*
G37*
G36*
X166000D02*
X165631D01*
X165779Y12779D01*
X166000Y12631D01*
Y13000D01*
D02*
G37*
G36*
X161369D02*
X161000D01*
Y12631D01*
X161221Y12779D01*
X161369Y13000D01*
D02*
G37*
G36*
X160000D02*
X159631D01*
X159779Y12779D01*
X160000Y12631D01*
Y13000D01*
D02*
G37*
G36*
X132440Y14000D02*
X131000D01*
Y12560D01*
X131280Y12616D01*
X131942Y13058D01*
X132384Y13720D01*
X132440Y14000D01*
D02*
G37*
G36*
X130000D02*
X128560D01*
X128616Y13720D01*
X129058Y13058D01*
X129720Y12616D01*
X130000Y12560D01*
Y14000D01*
D02*
G37*
G36*
X71940Y13500D02*
X70500D01*
Y12060D01*
X70780Y12116D01*
X71442Y12558D01*
X71884Y13220D01*
X71940Y13500D01*
D02*
G37*
G36*
X69500D02*
X68060D01*
X68116Y13220D01*
X68558Y12558D01*
X69220Y12116D01*
X69500Y12060D01*
Y13500D01*
D02*
G37*
G36*
X35000Y12940D02*
Y11500D01*
X36440D01*
X36384Y11780D01*
X35942Y12442D01*
X35280Y12884D01*
X35000Y12940D01*
D02*
G37*
G36*
X34000D02*
X33720Y12884D01*
X33058Y12442D01*
X32616Y11780D01*
X32560Y11500D01*
X34000D01*
Y12940D01*
D02*
G37*
G36*
X36440Y10500D02*
X35000D01*
Y9060D01*
X35280Y9116D01*
X35942Y9558D01*
X36384Y10220D01*
X36440Y10500D01*
D02*
G37*
G36*
X34000D02*
X32560D01*
X32616Y10220D01*
X33058Y9558D01*
X33720Y9116D01*
X34000Y9060D01*
Y10500D01*
D02*
G37*
G36*
X187000Y13526D02*
X186217Y13423D01*
X185487Y13121D01*
X184860Y12640D01*
X184379Y12013D01*
X184077Y11283D01*
X183974Y10500D01*
X184077Y9717D01*
X184379Y8987D01*
X184860Y8360D01*
X185487Y7880D01*
X186217Y7577D01*
X187000Y7474D01*
X187783Y7577D01*
X188513Y7880D01*
X189140Y8360D01*
X189620Y8987D01*
X189923Y9717D01*
X190026Y10500D01*
X189923Y11283D01*
X189620Y12013D01*
X189140Y12640D01*
X188513Y13121D01*
X187783Y13423D01*
X187000Y13526D01*
D02*
G37*
G36*
X136000Y13026D02*
X135217Y12923D01*
X134487Y12620D01*
X133860Y12140D01*
X133379Y11513D01*
X133077Y10783D01*
X132974Y10000D01*
X133077Y9217D01*
X133379Y8487D01*
X133860Y7860D01*
X134487Y7379D01*
X135217Y7077D01*
X136000Y6974D01*
X136783Y7077D01*
X137513Y7379D01*
X138140Y7860D01*
X138620Y8487D01*
X138923Y9217D01*
X139026Y10000D01*
X138923Y10783D01*
X138620Y11513D01*
X138140Y12140D01*
X137513Y12620D01*
X136783Y12923D01*
X136000Y13026D01*
D02*
G37*
%LPD*%
D11*
X64079Y371642D02*
Y368690D01*
X62603D01*
X62111Y369182D01*
Y370166D01*
X62603Y370658D01*
X64079D01*
X59159Y369182D02*
X59651Y368690D01*
X60635D01*
X61127Y369182D01*
Y371150D01*
X60635Y371642D01*
X59651D01*
X59159Y371150D01*
X58175Y368690D02*
Y371642D01*
X56699D01*
X56207Y371150D01*
Y370658D01*
X56699Y370166D01*
X58175D01*
X56699D01*
X56207Y369674D01*
Y369182D01*
X56699Y368690D01*
X58175D01*
X50304D02*
X52271D01*
Y371642D01*
X50304D01*
X52271Y370166D02*
X51288D01*
X47352Y368690D02*
Y371642D01*
X48828D01*
X49320Y371150D01*
Y370166D01*
X48828Y369674D01*
X47352D01*
X45384Y372626D02*
X44892D01*
X44400Y372134D01*
Y369674D01*
X45876D01*
X46368Y370166D01*
Y371150D01*
X45876Y371642D01*
X44400D01*
X41940D02*
X42924D01*
X43416Y371150D01*
Y370166D01*
X42924Y369674D01*
X41940D01*
X41448Y370166D01*
Y370658D01*
X43416D01*
X373185Y146132D02*
X370233D01*
Y147608D01*
X370725Y148100D01*
X371709D01*
X372201Y147608D01*
Y146132D01*
X370725Y151052D02*
X370233Y150560D01*
Y149576D01*
X370725Y149084D01*
X372693D01*
X373185Y149576D01*
Y150560D01*
X372693Y151052D01*
X370233Y152035D02*
X373185D01*
Y153511D01*
X372693Y154003D01*
X372201D01*
X371709Y153511D01*
Y152035D01*
Y153511D01*
X371217Y154003D01*
X370725D01*
X370233Y153511D01*
Y152035D01*
Y159907D02*
Y157939D01*
X373185D01*
Y159907D01*
X371709Y157939D02*
Y158923D01*
X370233Y162859D02*
X373185D01*
Y161383D01*
X372693Y160891D01*
X371709D01*
X371217Y161383D01*
Y162859D01*
X374169Y164827D02*
Y165319D01*
X373677Y165811D01*
X371217D01*
Y164335D01*
X371709Y163843D01*
X372693D01*
X373185Y164335D01*
Y165811D01*
Y168271D02*
Y167287D01*
X372693Y166795D01*
X371709D01*
X371217Y167287D01*
Y168271D01*
X371709Y168762D01*
X372201D01*
Y166795D01*
D15*
X57386Y372665D02*
X104236D01*
X374209Y105974D02*
Y152825D01*
D16*
X0Y22500D02*
X22Y21504D01*
X88Y20511D01*
X198Y19521D01*
X352Y18537D01*
X550Y17561D01*
X790Y16594D01*
X1073Y15639D01*
X1398Y14698D01*
X1764Y13772D01*
X2171Y12863D01*
X2618Y11973D01*
X3104Y11104D01*
X3628Y10257D01*
X4189Y9434D01*
X4786Y8636D01*
X5417Y7866D01*
X6083Y7125D01*
X6780Y6414D01*
X7508Y5735D01*
X8265Y5088D01*
X9051Y4476D01*
X9862Y3899D01*
X10699Y3358D01*
X11559Y2855D01*
X12440Y2391D01*
X13340Y1966D01*
X14259Y1582D01*
X15194Y1238D01*
X16143Y937D01*
X17105Y678D01*
X18077Y461D01*
X19058Y288D01*
X20045Y159D01*
X21037Y73D01*
X22032Y31D01*
X374587Y350080D02*
X374566Y351071D01*
X374502Y352060D01*
X374395Y353045D01*
X374247Y354025D01*
X374056Y354997D01*
X373823Y355960D01*
X373549Y356913D01*
X373234Y357852D01*
X372879Y358778D01*
X372485Y359687D01*
X372052Y360578D01*
X371581Y361450D01*
X371072Y362300D01*
X370528Y363128D01*
X369948Y363932D01*
X369335Y364710D01*
X368688Y365461D01*
X368010Y366183D01*
X367301Y366876D01*
X366563Y367537D01*
X365797Y368166D01*
X365005Y368761D01*
X364188Y369321D01*
X363347Y369846D01*
X362485Y370335D01*
X361602Y370785D01*
X360701Y371197D01*
X359783Y371570D01*
X358850Y371903D01*
X357903Y372196D01*
X356944Y372447D01*
X355976Y372657D01*
X354999Y372825D01*
X354016Y372951D01*
X353029Y373034D01*
X352039Y373075D01*
X350500Y31D02*
X351505Y52D01*
X352508Y116D01*
X353507Y221D01*
X354501Y368D01*
X355488Y556D01*
X356467Y786D01*
X357435Y1056D01*
X358390Y1367D01*
X359332Y1718D01*
X360259Y2107D01*
X361168Y2536D01*
X362058Y3002D01*
X362928Y3505D01*
X363777Y4044D01*
X364602Y4617D01*
X365402Y5226D01*
X366176Y5867D01*
X366922Y6539D01*
X367640Y7243D01*
X368327Y7976D01*
X368983Y8738D01*
X369607Y9526D01*
X370197Y10339D01*
X370752Y11177D01*
X371272Y12037D01*
X371756Y12918D01*
X372201Y13818D01*
X372609Y14737D01*
X372978Y15672D01*
X373308Y16621D01*
X373597Y17583D01*
X373846Y18557D01*
X374054Y19541D01*
X374220Y20532D01*
X374345Y21529D01*
X374428Y22530D01*
X374469Y23535D01*
X24002Y373080D02*
X23014Y373080D01*
X22028Y373039D01*
X21044Y372957D01*
X20064Y372833D01*
X19091Y372669D01*
X18125Y372464D01*
X17168Y372219D01*
X16223Y371934D01*
X15291Y371610D01*
X14372Y371247D01*
X13470Y370846D01*
X12586Y370408D01*
X11720Y369932D01*
X10875Y369422D01*
X10052Y368876D01*
X9253Y368296D01*
X8479Y367683D01*
X7731Y367038D01*
X7011Y366363D01*
X6320Y365658D01*
X5658Y364925D01*
X5029Y364165D01*
X4431Y363379D01*
X3867Y362569D01*
X3337Y361735D01*
X2843Y360881D01*
X2384Y360006D01*
X1963Y359113D01*
X1580Y358204D01*
X1235Y357278D01*
X929Y356340D01*
X662Y355389D01*
X436Y354428D01*
X250Y353458D01*
X104Y352482D01*
X0Y351500D01*
X24002Y373080D02*
X352039D01*
X374565Y23867D02*
Y33358D01*
X22032Y31D02*
X350500D01*
X374555Y33557D02*
X374555Y350138D01*
X0Y22500D02*
Y351500D01*
D130*
X186500Y350500D02*
D03*
X196500D02*
D03*
X354500Y257000D02*
D03*
D135*
X365500Y97000D02*
D03*
D139*
X322917Y210780D02*
D03*
D143*
X54000Y160500D02*
D03*
X93000Y337500D02*
D03*
X259000Y60500D02*
D03*
X205500Y104000D02*
D03*
X220500Y81500D02*
D03*
X226500Y77000D02*
D03*
X98000Y187000D02*
D03*
X85000Y172000D02*
D03*
X143500Y201500D02*
D03*
X122500Y63000D02*
D03*
X76500Y347500D02*
D03*
X62500Y29500D02*
D03*
X85503Y36232D02*
D03*
X98000Y24000D02*
D03*
X128500Y37000D02*
D03*
X126000Y43500D02*
D03*
X135500Y43000D02*
D03*
X131000Y66500D02*
D03*
X119125Y84039D02*
D03*
X109500Y90000D02*
D03*
X124500Y293000D02*
D03*
X103000Y292500D02*
D03*
X59000Y254000D02*
D03*
X59500Y235000D02*
D03*
X56000Y206000D02*
D03*
X114000Y157500D02*
D03*
X84000Y180500D02*
D03*
X112000Y181000D02*
D03*
X139000Y177500D02*
D03*
X150000Y188500D02*
D03*
X162000Y229000D02*
D03*
X169500Y250500D02*
D03*
X158000Y279000D02*
D03*
X150500Y286500D02*
D03*
X73000Y291000D02*
D03*
X78000Y298500D02*
D03*
X69500Y334500D02*
D03*
X127500Y331000D02*
D03*
X113000D02*
D03*
X132000Y176500D02*
D03*
X159500Y92500D02*
D03*
X204500Y209500D02*
D03*
X194500Y224500D02*
D03*
X317500Y113500D02*
D03*
X259000Y63500D02*
D03*
X231000Y76500D02*
D03*
X229500Y61000D02*
D03*
X204500Y61500D02*
D03*
X258500Y79000D02*
D03*
X272500Y90500D02*
D03*
X247000Y104000D02*
D03*
X265500Y121000D02*
D03*
X220500Y138500D02*
D03*
Y146000D02*
D03*
Y152500D02*
D03*
Y160000D02*
D03*
Y167000D02*
D03*
X204000Y187000D02*
D03*
X205000Y196000D02*
D03*
X246500Y184000D02*
D03*
X230500Y195000D02*
D03*
X247500Y203500D02*
D03*
Y216500D02*
D03*
X220000Y218000D02*
D03*
X220500Y230000D02*
D03*
X221000Y235000D02*
D03*
X250000Y227500D02*
D03*
X229500Y233500D02*
D03*
X229588Y243495D02*
D03*
X229433Y264751D02*
D03*
Y271760D02*
D03*
Y278900D02*
D03*
X221500Y273000D02*
D03*
Y280000D02*
D03*
Y287500D02*
D03*
Y294500D02*
D03*
Y301500D02*
D03*
X203500Y312000D02*
D03*
X256000Y89000D02*
D03*
X84000Y146500D02*
D03*
X48500Y169500D02*
D03*
X205500Y73000D02*
D03*
X184500Y56500D02*
D03*
X166500Y13500D02*
D03*
X160500D02*
D03*
X202500Y96000D02*
D03*
X198000Y200000D02*
D03*
X76500Y172500D02*
D03*
Y181000D02*
D03*
X178500Y161000D02*
D03*
X158500Y152000D02*
D03*
X290000Y207500D02*
D03*
X246000Y300154D02*
D03*
Y293077D02*
D03*
Y286000D02*
D03*
X259000Y277500D02*
D03*
Y273000D02*
D03*
Y260000D02*
D03*
Y248000D02*
D03*
X205500Y266000D02*
D03*
X190500Y260500D02*
D03*
X246000Y222182D02*
D03*
Y208000D02*
D03*
Y179671D02*
D03*
Y172500D02*
D03*
Y165500D02*
D03*
Y158500D02*
D03*
Y151500D02*
D03*
X205500Y244500D02*
D03*
Y180790D02*
D03*
Y173825D02*
D03*
X246000Y137202D02*
D03*
Y130000D02*
D03*
X205500Y131500D02*
D03*
Y124000D02*
D03*
X246000Y123000D02*
D03*
Y116000D02*
D03*
X205500Y117000D02*
D03*
X246000Y108800D02*
D03*
Y94500D02*
D03*
X258000Y195500D02*
D03*
Y199500D02*
D03*
X314000Y211000D02*
D03*
X271000Y180000D02*
D03*
X255500Y163500D02*
D03*
X348000Y134000D02*
D03*
X317500Y104000D02*
D03*
X306500Y81500D02*
D03*
X294500D02*
D03*
X259000Y105000D02*
D03*
X258500Y74000D02*
D03*
X259000Y55000D02*
D03*
Y49500D02*
D03*
D144*
X13000Y308000D02*
D03*
X52000Y359500D02*
D03*
X70000Y14000D02*
D03*
X130500Y14500D02*
D03*
X34500Y11000D02*
D03*
Y92000D02*
D03*
M02*
