M48
;Layer_Color=9474304
;FILE_FORMAT=2:5
INCH,TZ
;TYPE=PLATED
T3F00S00C0.02559
T4F00S00C0.02756
T7F00S00C0.03543
;TYPE=NON_PLATED
%
G90
G05
T03
G00X356374Y119163
M15
G01X354799
M16
G00X356374Y138258
M15
G01X354799
M16
G00X91047Y354831
M15
G01Y353256
M16
G00X71953Y354831
M15
G01Y353256
M16
T04
G00X368500Y117982
M15
G01X366531
M16
G00X368500Y139439
M15
G01X366531
M16
G00X92228Y366957
M15
G01Y364988
M16
G00X70772Y366957
M15
G01Y364988
M16
T07
G00X16331Y100457
M15
G01X21055
M16
G00X38772Y100457
M15
G01X45858
M16
G00X38772Y157543
M15
G01X45858
M16
G00X16331Y157543
M15
G01X21055
M16
M17
M30
