M48
;Layer_Color=9474304
;FILE_FORMAT=2:5
INCH,TZ
;TYPE=PLATED
T1F00S00C0.01000
T2F00S00C0.02000
T5F00S00C0.03000
T6F00S00C0.03543
T8F00S00C0.03622
T9F00S00C0.04016
T10F00S00C0.05118
T11F00S00C0.09055
;TYPE=NON_PLATED
T12F00S00C0.04331
T13F00S00C0.05906
T14F00S00C0.07087
%
T01
X62500Y29500
X85503Y36232
X98000Y24000
X133500Y23000
X128500Y37000
X126000Y43500
X135500Y43000
X147500Y36000
X148123Y29017
X153900Y29300
X156107Y36434
X167463Y28323
X173000Y28500
X166500Y13500
X160500
X165500Y51000
X177000Y49500
X180500Y46000
X259000Y49500
Y55000
Y60500
Y63500
X258500Y74000
Y79000
X256000Y89000
X246000Y94500
X247000Y104000
X246000Y108800
Y116000
Y123000
Y130000
Y137202
Y151500
Y158500
Y165500
Y172500
Y179671
X246500Y184000
X230500Y183000
Y195000
X224000Y194000
X226000Y204000
X229000Y201000
X228500Y210500
X246000Y208000
X247500Y203500
X258000Y199500
Y195500
X271000Y180000
X276000Y167500
X288000Y170000
X306500Y163000
Y146000
X327500Y142000
X348000Y134000
X351500Y106000
X337500Y112188
X327500
X317500Y113500
Y104000
X306500Y81500
X294500
X272500Y90500
X259000Y105000
X255500Y112500
X265500Y121000
X292500Y122000
Y134000
X287998Y111752
X231000Y106000
X230000Y101000
X227000Y97500
X223500Y94500
X220500Y81500
X226500Y77000
X231000Y76500
X229500Y61000
X220500Y138500
Y146000
Y152500
Y160000
Y167000
X255500Y163500
X257000Y152500
X290000Y207500
X306500Y200000
X314000Y211000
X204500Y209500
X197500Y212000
X198000Y200000
X205000Y196000
X204000Y187000
X205500Y180790
Y173825
X202000Y169500
X200500Y177500
X178500Y161000
X158500Y152000
X161500Y183000
X150000Y188500
X143500Y201500
X136500
X131000Y202000
X129000Y205500
X125500Y208000
X121319Y207343
X112000Y181000
X105721Y182913
X98000Y187000
X84000Y180500
X76500Y181000
Y172500
X85000Y172000
X96025Y161160
X106500Y160500
X114000Y157500
X132000Y176500
X139000Y177500
X166625Y207115
X84000Y205500
X76000Y207000
X56000Y206000
X54000Y160500
X62021Y157771
X65000Y163000
Y147500
X65996Y143000
X63900Y138900
X59500Y135500
X86000Y136500
X87000Y143500
X84000Y146500
X88000Y109500
X80500Y104500
X102000Y104000
X109500Y90000
X119125Y84039
X122500Y63000
X131000Y66500
X160000Y83500
X159500Y92500
X180000Y89500
X172638Y79000
X184500Y56500
X204500Y61500
X205500Y73000
X202500Y96000
X205500Y104000
Y117000
Y124000
Y131500
X35500Y130825
Y125038
Y119053
Y113500
Y142500
X48500Y169500
X49000Y232500
X45000Y258000
X59000Y254000
X55500Y239000
X59500Y235000
X74500Y227500
Y247500
X80000Y251000
X110000Y266500
Y292000
X103000Y292500
X102500Y303000
X94552Y299334
X95500Y288000
X117000Y288500
X124500Y293000
X132500Y292500
X150500Y286500
X155500Y284000
X158000Y279000
X170500Y303000
Y307000
X179875Y316354
X180000Y294500
X203500Y312000
X205500Y266000
X190500Y260500
X183500Y240000
X166500Y239500
X160135Y238365
X164500Y232500
X162000Y229000
X169500Y250500
X142500Y251000
X138500Y223500
X142500Y213500
X182000Y212500
X202500Y215000
X194500Y224500
X205500Y244500
X120000Y315000
X113000Y331000
X127500
X97500Y328000
X93000Y337500
X76500Y347500
X69500Y334500
X68500Y328000
X78000Y298500
X73000Y291000
X66500Y285500
X52500Y272500
X221500Y273000
Y280000
Y287500
Y294500
Y301500
X246000Y300154
Y293077
Y286000
X259000Y277500
Y273000
Y260000
Y248000
X250000Y227500
X246000Y222182
X247500Y216500
X227000Y215000
X227500Y220000
X222270Y222174
X220000Y218000
X220500Y230000
X221000Y235000
X229500Y233500
Y238500
X229588Y243495
X225000Y227000
X229433Y264751
Y271760
Y278900
X251500Y307500
X318000Y304500
X318125Y298375
X323500Y298500
Y282500
Y277500
X318500Y283000
Y271500
T02
X70000Y14000
X77000Y38500
X103000Y37500
X105500Y17500
X130500Y14500
X136000Y10000
X187000Y10500
X193500Y37500
X288500Y60000
X281500Y86000
X278500Y188500
X63500Y186500
X97500Y142000
X84000Y73000
X138000Y90000
X146500Y59000
X177500
X178000Y68500
X25500Y207500
X13000Y308000
X52000Y359500
X197500Y254000
T05
X34500Y11000
Y92000
T06
X365500Y97000
X355500
X345500
T08
X322917Y183221
Y193063
Y200937
Y210780
T09
X277000Y35500
X277500Y66500
X331000Y79500
X321500Y151000
X121500Y151500
X99000Y174500
X87000Y91000
X61000Y93500
X128000Y95000
X93000Y312000
X278000Y257000
T10
X146500Y350500
X156500
X166500
X176500
X186500
X196500
X354500Y307000
Y297000
Y287000
Y277000
Y267000
Y257000
T11
X333587Y171134
Y222866
T12
X226008Y334642
T13
X226008Y33067
T14
X18236Y42158
Y61843
M30
