G04*
G04 #@! TF.GenerationSoftware,Altium Limited,Altium Designer,20.0.11 (256)*
G04*
G04 Layer_Physical_Order=1*
G04 Layer_Color=255*
%FSLAX25Y25*%
%MOIN*%
G70*
G01*
G75*
%ADD16C,0.01000*%
%ADD17C,0.00600*%
%ADD31R,0.02165X0.02362*%
%ADD34R,0.04724X0.05512*%
%ADD40R,0.02362X0.02165*%
%ADD48C,0.00984*%
%ADD51R,0.01181X0.05512*%
%ADD52R,0.02267X0.05540*%
G04:AMPARAMS|DCode=53|XSize=55.4mil|YSize=22.67mil|CornerRadius=11.34mil|HoleSize=0mil|Usage=FLASHONLY|Rotation=90.000|XOffset=0mil|YOffset=0mil|HoleType=Round|Shape=RoundedRectangle|*
%AMROUNDEDRECTD53*
21,1,0.05540,0.00000,0,0,90.0*
21,1,0.03273,0.02267,0,0,90.0*
1,1,0.02267,0.00000,0.01636*
1,1,0.02267,0.00000,-0.01636*
1,1,0.02267,0.00000,-0.01636*
1,1,0.02267,0.00000,0.01636*
%
%ADD53ROUNDEDRECTD53*%
%ADD68C,0.06181*%
%ADD82R,0.02362X0.01968*%
%ADD83R,0.02362X0.05512*%
%ADD84R,0.02362X0.07087*%
G04:AMPARAMS|DCode=85|XSize=74.8mil|YSize=125.98mil|CornerRadius=0mil|HoleSize=0mil|Usage=FLASHONLY|Rotation=0.000|XOffset=0mil|YOffset=0mil|HoleType=Round|Shape=Octagon|*
%AMOCTAGOND85*
4,1,8,-0.01870,0.06299,0.01870,0.06299,0.03740,0.04429,0.03740,-0.04429,0.01870,-0.06299,-0.01870,-0.06299,-0.03740,-0.04429,-0.03740,0.04429,-0.01870,0.06299,0.0*
%
%ADD85OCTAGOND85*%

%ADD86R,0.14764X0.03937*%
%ADD87R,0.01575X0.06890*%
%ADD88R,0.05610X0.09843*%
%ADD89R,0.10000X0.05000*%
%ADD90R,0.02756X0.02559*%
%ADD91R,0.03150X0.03150*%
%ADD92R,0.02559X0.02756*%
%ADD93R,0.02559X0.02441*%
%ADD94R,0.02441X0.02559*%
%ADD95R,0.05118X0.02756*%
%ADD96R,0.01968X0.02362*%
%ADD97R,0.05512X0.03937*%
%ADD98R,0.01378X0.05315*%
%ADD99R,0.05315X0.01378*%
%ADD100R,0.08300X0.05500*%
%ADD101R,0.03150X0.03150*%
%ADD102R,0.04331X0.06693*%
%ADD103R,0.27559X0.15748*%
%ADD104R,0.15748X0.09843*%
%ADD105R,0.01575X0.01968*%
%ADD106R,0.01968X0.01575*%
%ADD107R,0.10630X0.11811*%
%ADD108R,0.01181X0.04724*%
%ADD109R,0.01575X0.02008*%
%ADD110R,0.07874X0.01378*%
%ADD111R,0.02756X0.03543*%
%ADD112R,0.02008X0.01575*%
%ADD113R,0.06890X0.01575*%
%ADD114R,0.09843X0.05610*%
%ADD115R,0.10236X0.01102*%
%ADD116R,0.02835X0.02717*%
%ADD117R,0.02717X0.02835*%
%ADD118R,0.07008X0.12402*%
%ADD119C,0.00700*%
%ADD120C,0.02000*%
%ADD121C,0.00800*%
%ADD122C,0.00500*%
%ADD123C,0.02500*%
%ADD124C,0.03000*%
%ADD125C,0.05000*%
%ADD126C,0.01500*%
%ADD127R,0.07874X0.05748*%
%ADD128R,0.05748X0.07874*%
%ADD129O,0.04724X0.06693*%
%ADD130O,0.03937X0.05512*%
%ADD131C,0.07087*%
%ADD132R,0.07087X0.07087*%
%ADD133C,0.02953*%
%ADD134C,0.02165*%
%ADD135C,0.05906*%
%ADD136R,0.05906X0.05906*%
%ADD137R,0.07087X0.07087*%
%ADD138O,0.06693X0.04724*%
%ADD139O,0.05512X0.03937*%
%ADD140C,0.05591*%
%ADD141C,0.13583*%
%ADD142O,0.10630X0.05906*%
%ADD143O,0.12992X0.05906*%
%ADD144C,0.02000*%
%ADD145C,0.04000*%
G36*
X68213Y360658D02*
Y368728D01*
X68221Y368882D01*
X68236Y369032D01*
X68254Y369102D01*
X68276Y369173D01*
X68319Y369315D01*
X68394Y369465D01*
X68476Y369602D01*
X68571Y369728D01*
X68673Y369847D01*
X68795Y369953D01*
X68925Y370051D01*
X69067Y370130D01*
X69213Y370201D01*
X69374Y370252D01*
X69496Y370276D01*
X69642Y370295D01*
X69787Y370303D01*
X71756D01*
X71925Y370295D01*
X72089Y370270D01*
X72244Y370228D01*
X72398Y370169D01*
X72524Y370102D01*
X72646Y370031D01*
X72774Y369935D01*
X72878Y369831D01*
X72980Y369721D01*
X73063Y369602D01*
X73150Y369465D01*
X73213Y369323D01*
X73260Y369197D01*
X73280Y369130D01*
X73295Y369063D01*
X73311Y368984D01*
X73327Y368902D01*
X73331Y368815D01*
Y368728D01*
Y360658D01*
Y357902D01*
X66146D01*
Y360658D01*
X68213D01*
D02*
G37*
G36*
X94787Y360658D02*
Y368728D01*
X94779Y368882D01*
X94764Y369032D01*
X94746Y369102D01*
X94724Y369173D01*
X94681Y369315D01*
X94606Y369465D01*
X94524Y369602D01*
X94429Y369728D01*
X94327Y369847D01*
X94205Y369953D01*
X94075Y370051D01*
X93933Y370130D01*
X93787Y370201D01*
X93626Y370252D01*
X93504Y370276D01*
X93358Y370295D01*
X93213Y370303D01*
X91244D01*
X91075Y370295D01*
X90911Y370270D01*
X90756Y370228D01*
X90602Y370169D01*
X90476Y370102D01*
X90354Y370031D01*
X90226Y369935D01*
X90122Y369831D01*
X90020Y369721D01*
X89937Y369602D01*
X89850Y369465D01*
X89787Y369323D01*
X89740Y369197D01*
X89720Y369130D01*
X89705Y369063D01*
X89689Y368984D01*
X89673Y368902D01*
X89669Y368815D01*
Y368728D01*
Y360658D01*
Y357902D01*
X96854D01*
Y360658D01*
X94787D01*
D02*
G37*
G36*
X362201Y115423D02*
X370272D01*
X370425Y115431D01*
X370575Y115447D01*
X370645Y115464D01*
X370717Y115486D01*
X370858Y115530D01*
X371008Y115604D01*
X371146Y115687D01*
X371272Y115781D01*
X371390Y115884D01*
X371496Y116006D01*
X371595Y116136D01*
X371673Y116278D01*
X371744Y116423D01*
X371795Y116585D01*
X371819Y116707D01*
X371839Y116852D01*
X371847Y116998D01*
Y118966D01*
X371839Y119136D01*
X371813Y119299D01*
X371772Y119455D01*
X371713Y119608D01*
X371646Y119734D01*
X371575Y119856D01*
X371478Y119984D01*
X371374Y120089D01*
X371264Y120191D01*
X371146Y120274D01*
X371008Y120360D01*
X370866Y120423D01*
X370740Y120470D01*
X370673Y120490D01*
X370606Y120506D01*
X370528Y120522D01*
X370445Y120537D01*
X370358Y120541D01*
X370272D01*
X362201D01*
X359445D01*
Y113356D01*
X362201D01*
Y115423D01*
D02*
G37*
G36*
X362201Y141998D02*
X370272D01*
X370425Y141990D01*
X370575Y141974D01*
X370645Y141957D01*
X370717Y141935D01*
X370858Y141892D01*
X371008Y141817D01*
X371146Y141734D01*
X371272Y141640D01*
X371390Y141537D01*
X371496Y141415D01*
X371595Y141285D01*
X371673Y141144D01*
X371744Y140998D01*
X371795Y140837D01*
X371819Y140715D01*
X371839Y140569D01*
X371847Y140423D01*
Y138455D01*
X371839Y138285D01*
X371813Y138122D01*
X371772Y137967D01*
X371713Y137813D01*
X371646Y137687D01*
X371575Y137565D01*
X371478Y137437D01*
X371374Y137333D01*
X371264Y137230D01*
X371146Y137148D01*
X371008Y137061D01*
X370866Y136998D01*
X370740Y136951D01*
X370673Y136931D01*
X370606Y136915D01*
X370528Y136900D01*
X370445Y136884D01*
X370358Y136880D01*
X370272D01*
X362201D01*
X359445D01*
Y144065D01*
X362201D01*
Y141998D01*
D02*
G37*
D16*
X318500Y271500D02*
X323000Y267000D01*
X325000D01*
X320904Y287223D02*
X320941Y287260D01*
X320904Y285404D02*
Y287223D01*
X318500Y283000D02*
X320904Y285404D01*
X314500Y274500D02*
X326500D01*
X323500Y277500D02*
X326500Y274500D01*
X323500Y282500D02*
Y287260D01*
X92968Y337531D02*
Y342000D01*
Y337531D02*
X93000Y337500D01*
X79941Y150531D02*
X80158D01*
X80445Y150244D01*
Y149785D02*
Y150244D01*
Y149785D02*
X83729Y146500D01*
X253811Y60500D02*
X259000D01*
X192650Y296650D02*
X213016D01*
X161000Y265000D02*
X192650Y296650D01*
X160000Y267000D02*
X192012Y299012D01*
X213016D01*
X87831Y306831D02*
X93000Y312000D01*
X87831Y283425D02*
Y306831D01*
X239189Y201169D02*
X245169D01*
X247500Y203500D01*
X306500Y146000D02*
Y148470D01*
X292547Y116000D02*
X302000D01*
X292500Y116047D02*
Y122000D01*
Y145000D02*
X306500Y159000D01*
X321500Y174000D01*
X306500Y152173D02*
Y159000D01*
Y163000D02*
Y167327D01*
X327500Y139238D02*
Y142000D01*
Y139238D02*
X327738Y139000D01*
X327587Y138848D02*
X327738Y139000D01*
X229433Y278900D02*
X239033D01*
X239024Y271760D02*
X239055Y271791D01*
X229433Y271760D02*
X239024D01*
X229433Y264751D02*
X239009D01*
X229588Y243495D02*
X239005D01*
X212988Y273000D02*
X221500D01*
X212921Y237500D02*
X218500D01*
X250689Y89500D02*
X251189Y89000D01*
X212961Y152500D02*
X220500D01*
X212965Y138500D02*
X220500D01*
X212827Y138362D02*
X212965Y138500D01*
X102673Y288000D02*
X103000Y288327D01*
X101732Y187000D02*
X102000Y186732D01*
X183453Y161000D02*
X183500Y161047D01*
X159500Y97953D02*
X160047Y98500D01*
X45388Y125038D02*
X45413Y125012D01*
X35381Y119053D02*
X35486Y119158D01*
X205500Y104000D02*
X205586D01*
X206586Y103000D01*
X212965D01*
X84000Y199500D02*
Y205500D01*
X134000Y199000D02*
X136500Y201500D01*
X132500Y199000D02*
X134000D01*
X105732Y182925D02*
Y187000D01*
X105721Y182913D02*
X105732Y182925D01*
X66500Y285500D02*
X71268D01*
X213016Y81689D02*
X220311D01*
X220500Y81500D01*
X230000Y80500D02*
X238992D01*
X226500Y77000D02*
X230000Y80500D01*
X238992D02*
X239000Y80508D01*
X98000Y187000D02*
X101732D01*
X102000Y186732D02*
X102268Y187000D01*
X89500Y177952D02*
Y184130D01*
X89000Y184630D02*
X89500Y184130D01*
X89453Y172000D02*
X89500Y172047D01*
X85000Y172000D02*
X89453D01*
X102032Y164969D02*
X106500Y160500D01*
X86500Y164969D02*
X102032D01*
X158000Y232232D02*
X158268Y232500D01*
X164500D01*
X150367Y278135D02*
X152635D01*
X150331Y278098D02*
X150367Y278135D01*
X155500Y281000D02*
Y284000D01*
X152635Y278135D02*
X155500Y281000D01*
X117000Y288500D02*
X120768D01*
X95500Y288000D02*
X99268D01*
X72000Y204000D02*
X73000D01*
X76000Y207000D01*
X133500Y23000D02*
Y28000D01*
X134500Y29000D02*
X136760D01*
X133500Y28000D02*
X134500Y29000D01*
X117776Y54000D02*
X121500D01*
X122500Y55000D02*
Y63000D01*
X121500Y54000D02*
X122500Y55000D01*
X76382Y347618D02*
Y354850D01*
Y347618D02*
X76500Y347500D01*
X62500Y29500D02*
X67268D01*
X85503Y36232D02*
X89000D01*
X85271Y36000D02*
X85503Y36232D01*
X100768Y26768D02*
Y29000D01*
X98000Y24000D02*
X100768Y26768D01*
X124283Y36735D02*
X124548Y37000D01*
X128500D01*
X135500Y43000D02*
Y47268D01*
X121232Y43500D02*
X126000D01*
X131000Y66500D02*
Y70268D01*
X119000Y83914D02*
X119125Y84039D01*
X119000Y76500D02*
Y83914D01*
X114276Y75000D02*
X114524Y75249D01*
X117749D01*
X119000Y76500D01*
X114268Y90000D02*
X114500Y90232D01*
X109500Y90000D02*
X114268D01*
X124232Y288500D02*
X124500Y288768D01*
Y293000D01*
X103000Y288327D02*
Y292500D01*
X59000Y249732D02*
Y254000D01*
X59500Y230232D02*
Y235000D01*
X56000Y201768D02*
X56268Y201500D01*
X56000Y201768D02*
Y206000D01*
X114154Y157653D02*
Y164669D01*
X114000Y157500D02*
X114154Y157653D01*
X84000Y180500D02*
Y184768D01*
X112000Y184732D02*
X112268Y185000D01*
X112000Y181000D02*
Y184732D01*
X130000Y178500D02*
X132000Y176500D01*
X125427Y183073D02*
X130000Y178500D01*
Y183268D02*
X130500Y183768D01*
X130000Y178500D02*
Y183268D01*
X132000Y176500D02*
X132000D01*
X125427Y183073D02*
Y184306D01*
X137000Y179500D02*
Y181768D01*
Y179500D02*
X139000Y177500D01*
X145232Y188500D02*
X150000D01*
X158000Y228768D02*
X158232Y229000D01*
X162000D01*
X164732Y250500D02*
X169500D01*
X158000Y274969D02*
X158000Y274969D01*
X158000Y274969D02*
Y279000D01*
X150500Y281732D02*
Y286500D01*
X74732Y285500D02*
Y289268D01*
X73000Y291000D02*
X74732Y289268D01*
X78000Y294468D02*
Y298500D01*
X78000Y298500D02*
X78000Y298500D01*
X68500Y328000D02*
X72827D01*
X64732Y334500D02*
X69500D01*
X93173Y328000D02*
X97500D01*
X104252Y346752D02*
Y347000D01*
X100500Y335500D02*
Y343000D01*
X104252Y347000D02*
X106252Y349000D01*
X100500Y343000D02*
X104252Y346752D01*
X106252Y349000D02*
X111252D01*
X100500Y335500D02*
X110000Y326000D01*
Y292000D02*
Y326000D01*
X136674Y345074D02*
X138500Y343248D01*
Y334000D02*
Y343248D01*
X132748Y349000D02*
X136674Y345074D01*
X136674D01*
X127748Y349000D02*
X132748D01*
X132500Y328000D02*
X138500Y334000D01*
X132500Y292500D02*
Y328000D01*
X137000Y326000D02*
X146500Y335500D01*
X137000Y282500D02*
Y326000D01*
X146500Y335500D02*
Y350500D01*
X124732Y185000D02*
X125427Y184306D01*
X114154Y164669D02*
X116016Y166532D01*
Y167516D01*
X118984Y170484D01*
Y171468D02*
X120846Y173331D01*
X118984Y170484D02*
Y171468D01*
X144335Y98500D02*
X144532D01*
X143850Y98016D02*
X144335Y98500D01*
X143850Y97819D02*
Y98016D01*
X159500Y92500D02*
Y97953D01*
X138500Y223500D02*
X138691Y223691D01*
X139398D01*
X139412Y223705D02*
X144705D01*
X139398Y223691D02*
X139412Y223705D01*
X110000Y251500D02*
Y266500D01*
X72500Y214000D02*
X110000Y251500D01*
X48500Y272500D02*
X52500D01*
X39075D02*
X48500D01*
X51450Y275450D02*
Y334650D01*
X48500Y272500D02*
X51450Y275450D01*
X121319Y199500D02*
Y207343D01*
X80000Y251000D02*
Y272000D01*
X50000Y264000D02*
X57000Y271000D01*
X50000Y246500D02*
Y264000D01*
X57000Y271000D02*
X61500D01*
X39075Y232500D02*
X49000D01*
X57206Y223789D02*
X59059D01*
X59083Y223814D01*
X55500Y225496D02*
X57206Y223789D01*
X55500Y225496D02*
Y239000D01*
X39075Y262500D02*
X40489D01*
X41958Y261032D01*
Y259617D02*
Y261032D01*
Y259617D02*
X43520Y258055D01*
X44945D01*
X45000Y258000D01*
X58000Y269000D02*
X61500D01*
X52500Y226000D02*
Y263500D01*
X58000Y269000D01*
X49000Y222500D02*
X52500Y226000D01*
X39075Y222500D02*
X49000D01*
X72732Y181000D02*
X76500D01*
X72378D02*
X72732D01*
Y172500D02*
X76500D01*
X72378D02*
X72732D01*
X47273Y243773D02*
X50000Y246500D01*
X39075Y242500D02*
X40348Y243773D01*
X47273D01*
X50000Y212500D02*
X59250Y221750D01*
X39075Y212500D02*
X50000D01*
X51600Y334500D02*
X61268D01*
X51450Y334650D02*
X51600Y334500D01*
X139000Y282831D02*
Y323500D01*
X155684Y340184D01*
Y349684D01*
X141000Y283000D02*
Y318000D01*
X166500Y343500D02*
Y350500D01*
X141000Y318000D02*
X166500Y343500D01*
X143000Y283000D02*
Y310000D01*
X176500Y343500D02*
Y350500D01*
X143000Y310000D02*
X176500Y343500D01*
X155684Y349684D02*
X156500Y350500D01*
X91801Y296583D02*
X94552Y299334D01*
X91801Y283588D02*
Y296583D01*
X92000Y303000D02*
X102500D01*
X89839Y300839D02*
X92000Y303000D01*
X89839Y283465D02*
Y300839D01*
X170531Y302969D02*
X180000D01*
X170500Y303000D02*
X170531Y302969D01*
Y307031D02*
X180000D01*
X170500Y307000D02*
X170531Y307031D01*
X180000Y302969D02*
Y303165D01*
X180484Y303650D01*
X180681D01*
X180768Y303736D01*
X213016D01*
X180000Y306835D02*
X180736Y306098D01*
X180000Y294500D02*
X180000Y294500D01*
X180000Y294500D02*
Y299031D01*
X179875Y316354D02*
X180000Y316229D01*
Y310968D02*
Y316229D01*
X180736Y306098D02*
X213016D01*
X84118Y352433D02*
Y354591D01*
X83831Y354878D02*
X84118Y354591D01*
X274051Y234051D02*
X314500Y274500D01*
X239000Y234051D02*
X274051D01*
X119327Y186882D02*
X121209Y185000D01*
X119327Y186882D02*
Y190173D01*
X121209Y185000D02*
X121268D01*
X115791D02*
X117358Y186567D01*
Y190142D01*
X115732Y185000D02*
X115791D01*
X121268D02*
X121944Y184323D01*
Y183055D02*
Y184323D01*
Y183055D02*
X126500Y178500D01*
X115500Y174677D02*
Y184768D01*
X114154Y173331D02*
X115500Y174677D01*
Y184768D02*
X115732Y185000D01*
X126500Y170323D02*
Y178500D01*
X120846Y164669D02*
Y165063D01*
X122709Y166925D01*
X123102D01*
X126500Y170323D01*
X142362Y185232D02*
X144595Y183000D01*
X144988D01*
X141229Y187961D02*
X141768Y188500D01*
X141229Y186365D02*
Y187961D01*
Y186365D02*
X142362Y185232D01*
X137000D02*
X142362D01*
X137000D02*
Y185291D01*
X150331Y194669D02*
X152287Y192713D01*
X144669Y194669D02*
X150331D01*
X152287Y192713D02*
X213016D01*
X150250Y200250D02*
X154500Y196000D01*
X200000D01*
X205023Y209248D02*
X213016D01*
X204771Y209500D02*
X205023Y209248D01*
X204500Y209500D02*
X204771D01*
X129169Y198831D02*
Y200169D01*
X131000Y202000D01*
X127201Y203701D02*
X129000Y205500D01*
X127201Y198799D02*
Y203701D01*
X125309Y207809D02*
X125500Y208000D01*
X125309Y207102D02*
Y207809D01*
X125232Y207025D02*
X125309Y207102D01*
X125232Y199268D02*
Y207025D01*
X188500Y210000D02*
X190500Y212000D01*
X197500D01*
X154500Y210000D02*
X188500D01*
X200000Y196000D02*
X203799Y199799D01*
X155000Y267000D02*
X160000D01*
X155000Y265000D02*
X161000D01*
X155000Y263000D02*
X162000D01*
X190925Y291925D02*
X213016D01*
X162000Y263000D02*
X190925Y291925D01*
X155000Y261000D02*
X163000D01*
X191563Y289563D01*
X213016D01*
X155000Y259000D02*
X164000D01*
X189839Y284839D02*
X213016D01*
X164000Y259000D02*
X189839Y284839D01*
X154831Y257169D02*
X165169D01*
X190476Y282476D01*
X213016D01*
X166201Y255201D02*
X188752Y277752D01*
X154799Y255201D02*
X166201D01*
X188752Y277752D02*
X213016D01*
X167232Y253232D02*
X189390Y275390D01*
X154768Y253232D02*
X167232D01*
X189390Y275390D02*
X213016D01*
X183500Y240000D02*
X183543Y239957D01*
X213016D01*
X164500Y241500D02*
X166500Y239500D01*
X154500Y241500D02*
X164500D01*
X154500Y239500D02*
X159000D01*
X160135Y238365D01*
X172142Y245358D02*
X182268Y235232D01*
X154358Y245358D02*
X172142D01*
X182268Y235232D02*
X213016D01*
X154390Y243390D02*
X170610D01*
X181130Y232870D01*
X213016D01*
X170736Y221736D02*
X178000Y229000D01*
X154236Y221736D02*
X170736D01*
X178000Y229000D02*
X178552D01*
X178552Y229000D02*
X206000D01*
X178552Y229000D02*
X178552Y229000D01*
X206000D02*
X206854Y228146D01*
X171768Y219768D02*
X179000Y227000D01*
X203500D02*
X204716Y225783D01*
X179000Y227000D02*
X203500D01*
X154268Y219768D02*
X171768D01*
X173299Y217799D02*
X176500Y221000D01*
X154299Y217799D02*
X173299D01*
X154331Y215831D02*
X174331D01*
X177197Y218697D02*
X213016D01*
X174331Y215831D02*
X177197Y218697D01*
X166425Y207115D02*
X166625D01*
X165539Y208000D02*
X166425Y207115D01*
X154500Y208000D02*
X165539D01*
X225000Y226965D02*
X239000D01*
X154362Y213862D02*
X178862D01*
X180000Y215000D01*
X202500D01*
X181123Y211894D02*
X181729Y212500D01*
X154394Y211894D02*
X181123D01*
X181729Y212500D02*
X182000D01*
X194500Y224500D02*
X196500D01*
X197579Y223421D01*
X204716Y225783D02*
X213016D01*
X206854Y228146D02*
X213016D01*
X197579Y223421D02*
X213016D01*
X176500Y221000D02*
X189608D01*
X189667Y221059D01*
X213016D01*
X91500Y139500D02*
X93500Y137500D01*
X91500Y152469D02*
X91531Y152500D01*
X91500Y139500D02*
Y152469D01*
X258768Y100500D02*
X259000Y100732D01*
Y105000D01*
X266500Y109000D02*
X270063Y105437D01*
Y99339D02*
Y105437D01*
X266500Y109000D02*
X291430D01*
X251765Y188424D02*
X254000Y186189D01*
X251020Y189169D02*
X251765Y188424D01*
X254000Y179500D02*
X263968Y169532D01*
X254000Y179500D02*
Y186189D01*
X256547Y188984D02*
X257031Y188500D01*
X255950Y188984D02*
X256547D01*
X255765Y189169D02*
X255950Y188984D01*
X251020Y189169D02*
X255765D01*
X325000Y267000D02*
X354500D01*
X239000Y231689D02*
X289689D01*
X325000Y267000D01*
X312000Y302000D02*
X334750D01*
X239000Y267122D02*
X277122D01*
X312000Y302000D01*
X289953Y207547D02*
Y213000D01*
Y207547D02*
X290000Y207500D01*
X277370Y213000D02*
X284047D01*
X284048Y213000D01*
X183000Y167452D02*
Y172635D01*
X183252Y172886D01*
Y173221D01*
X184031Y174000D01*
X184130D01*
X164000Y158452D02*
Y164630D01*
X164000Y164630D02*
X164000Y164630D01*
X159318Y152547D02*
X164000D01*
X158771Y152000D02*
X159318Y152547D01*
X158500Y152000D02*
X158771D01*
X178500Y161000D02*
X182453D01*
X292500Y116047D02*
X292547Y116000D01*
X314815Y113500D02*
X317500D01*
X312815Y115500D02*
X314815Y113500D01*
X337500Y112188D02*
Y116827D01*
X327500Y112000D02*
Y116827D01*
X272638Y241138D02*
X311500Y280000D01*
X239000Y241138D02*
X272638D01*
X311500Y280000D02*
X335500D01*
X239000Y269484D02*
X268984D01*
X306500Y307000D02*
X327500D01*
X268984Y269484D02*
X306500Y307000D01*
X200000Y169500D02*
X202000D01*
X93500Y137500D02*
X168000D01*
X200000Y169500D01*
X212933Y155000D02*
X213016Y154917D01*
X213012Y162000D02*
X213016Y162004D01*
X306416Y170757D02*
X306500Y170673D01*
X345500Y116500D02*
X349173Y120173D01*
X352592Y123592D01*
X337500Y120173D02*
X349173D01*
X345500Y97000D02*
Y116500D01*
X352592Y123592D02*
X356394D01*
X253672Y93000D02*
X273813D01*
X239000Y97043D02*
X239162Y97206D01*
X273984Y99323D02*
X274000Y99339D01*
X272984Y95000D02*
X273984Y96000D01*
Y99323D01*
X254500Y95000D02*
X272984D01*
X275969Y99339D02*
X275984Y99323D01*
Y95172D02*
Y99323D01*
X273813Y93000D02*
X275984Y95172D01*
X239000Y99405D02*
X239189Y99217D01*
X243615D01*
X243626Y99205D01*
X239162Y97206D02*
X249466D01*
X243626Y99205D02*
X250294D01*
X254500Y95000D01*
X249466Y97206D02*
X253672Y93000D01*
X239000Y78146D02*
X245354D01*
X239000Y75783D02*
X247716D01*
X245354Y78146D02*
X247716Y75783D01*
X248780Y74721D01*
X248890D01*
X249610Y74000D01*
X256589Y64411D02*
X257500Y63500D01*
X253854Y67146D02*
X254766Y66234D01*
X254766D01*
X256589Y64411D01*
X257500Y63500D02*
X259000D01*
X253075Y68500D02*
X253134D01*
X253854Y67779D01*
Y67146D02*
Y67779D01*
X233579Y73421D02*
X239000D01*
X231000Y76500D02*
X231191Y76309D01*
Y75809D02*
X233579Y73421D01*
X231191Y75809D02*
Y76309D01*
X232472Y63972D02*
X239000D01*
X229500Y61000D02*
X232472Y63972D01*
X208154Y65153D02*
X213016D01*
X204500Y61500D02*
X208154Y65153D01*
X198000Y61768D02*
X204232D01*
X204500Y61500D01*
X253232Y79000D02*
X258500D01*
X278000Y94500D02*
Y99276D01*
X272500Y90500D02*
X272518Y90518D01*
X274018D01*
X278000Y94500D01*
X277937Y99339D02*
X278000Y99276D01*
X292016Y109287D02*
X292500Y109772D01*
X222270Y222174D02*
X225174D01*
X227602Y224602D02*
X239000D01*
X225174Y222174D02*
X227602Y224602D01*
X156500Y26500D02*
X156579Y26421D01*
Y19079D02*
Y26421D01*
X166421Y13579D02*
Y19079D01*
Y13579D02*
X166500Y13500D01*
X151000Y22811D02*
Y25000D01*
X154610Y19079D02*
Y20586D01*
X153134Y20677D02*
X154520D01*
X154610Y20586D01*
X151000Y22811D02*
X153134Y20677D01*
X144240Y26441D02*
X149559D01*
X151000Y25000D01*
Y75000D01*
X227000Y91000D02*
X230205Y87796D01*
X234977D01*
X227000Y91000D02*
Y97500D01*
X156500Y74000D02*
X177000Y94500D01*
X191000D02*
X192000Y93500D01*
X177000Y94500D02*
X191000D01*
X180995Y88776D02*
X213016D01*
X180000Y89500D02*
X180271D01*
X180995Y88776D01*
X190000Y92500D02*
X191362Y91138D01*
X178000Y92500D02*
X190000D01*
X191362Y91138D02*
X213016D01*
X158547Y73047D02*
X178000Y92500D01*
X192000Y93500D02*
X213016D01*
X244753Y101753D02*
X247000Y104000D01*
X265724Y121000D02*
X270063Y116661D01*
X265500Y121000D02*
X265724D01*
X60271Y135000D02*
X71500D01*
X73500Y137000D01*
X45465Y144748D02*
X64932D01*
X69157Y162969D02*
X69622Y163433D01*
X65000Y163000D02*
X65031Y162969D01*
X68941D01*
X64306Y137515D02*
X70015D01*
X63021Y138800D02*
X64306Y137515D01*
X45507Y138800D02*
X63021D01*
X45465Y138842D02*
X45507Y138800D01*
X59500Y135500D02*
X59771D01*
X60271Y135000D01*
X50478Y134957D02*
X50521Y135000D01*
X45465Y134906D02*
X45516Y134957D01*
X50521Y135000D02*
X58729D01*
X45516Y134957D02*
X50478D01*
X58729Y135000D02*
X59229Y135500D01*
X59252Y142252D02*
X65248D01*
X45465Y140811D02*
X57811D01*
X59252Y142252D01*
X65248D02*
X66500Y141000D01*
X70500D01*
X57717Y146716D02*
X59000Y148000D01*
X45465Y146716D02*
X57717D01*
X59000Y148000D02*
X69000D01*
X70015Y137515D02*
X70500Y138000D01*
X231000Y105729D02*
X233000Y103729D01*
X231000Y105729D02*
Y106000D01*
X219958Y166728D02*
X220229Y167000D01*
X213016Y166728D02*
X219958D01*
X219642Y159642D02*
X220000Y160000D01*
X213016Y159642D02*
X219642D01*
X219698Y145468D02*
X220229Y146000D01*
X213016Y145468D02*
X219698D01*
X220229Y146000D02*
X220500D01*
X213016Y209248D02*
X213140Y209124D01*
X220229Y167000D02*
X220500D01*
X204000Y187000D02*
X204524D01*
X205512Y187988D01*
X203799Y199799D02*
X213016D01*
X205000Y195650D02*
Y196000D01*
Y195650D02*
X205575Y195075D01*
X246500Y184000D02*
X246500D01*
X239000Y186807D02*
X239027Y186780D01*
X243720D01*
X246500Y184000D01*
X230500Y195000D02*
X231606Y193894D01*
X239000D01*
X226000Y204000D02*
X228000D01*
X229705Y205705D01*
X239047Y215200D02*
X246200D01*
X247500Y216500D01*
X239000Y215154D02*
X239047Y215200D01*
X227070Y215000D02*
X229586Y217516D01*
X227000Y215000D02*
X227070D01*
X213016Y216335D02*
X218335D01*
X220000Y218000D01*
X213016Y230508D02*
X213024Y230500D01*
X219729D01*
X220229Y230000D01*
X220500D01*
X218500Y237500D02*
X221000Y235000D01*
X248129Y229372D02*
X250000Y227500D01*
X239045Y229372D02*
X248129D01*
X239000Y229327D02*
X239045Y229372D01*
X229500Y233500D02*
X232413Y236413D01*
X239000D01*
Y243500D02*
X239005Y243495D01*
X221017Y294287D02*
X221229Y294500D01*
X213016Y294287D02*
X221017D01*
X220930Y287201D02*
X221229Y287500D01*
X213016Y287201D02*
X220930D01*
X213016Y280114D02*
X221386D01*
X221500Y280000D01*
X239000Y264760D02*
X239009Y264751D01*
X239000Y271847D02*
X239055Y271791D01*
X239000Y278933D02*
X239033Y278900D01*
X212988Y273000D02*
X213016Y273028D01*
X221229Y287500D02*
X221500D01*
X213016Y301374D02*
X213079Y301437D01*
X221437D01*
X221500Y301500D01*
X221229Y294500D02*
X221500D01*
X250000Y88811D02*
X250689Y89500D01*
X249151Y87962D02*
X250000Y88811D01*
X203500Y312000D02*
X207039Y308461D01*
X213016D01*
X71925Y150925D02*
Y150925D01*
Y144500D02*
Y150925D01*
X75468Y154469D02*
X79941D01*
X71925Y150925D02*
X75468Y154469D01*
X69000Y148000D02*
X71925Y150925D01*
X276824Y257000D02*
X278000D01*
X274824Y255000D02*
X276824Y257000D01*
X252500Y255000D02*
X274824D01*
X250630Y256870D02*
Y260000D01*
Y256870D02*
X252500Y255000D01*
X306409Y91059D02*
X306500D01*
X296468D02*
X306409D01*
X292500Y91091D02*
X292531Y91059D01*
X292441Y105420D02*
X292500Y105360D01*
Y91091D02*
Y105360D01*
X291717Y109287D02*
X292016D01*
X291430Y109000D02*
X291717Y109287D01*
X275000Y106000D02*
X292500D01*
X263000Y112500D02*
X266500Y109000D01*
X285198Y170531D02*
X285229Y170500D01*
X287729Y170000D02*
X288000D01*
X287229Y170500D02*
X287729Y170000D01*
X285229Y170500D02*
X287229D01*
X271000Y170531D02*
X285198D01*
X251189Y89000D02*
X256000D01*
X257000Y146370D02*
Y152500D01*
X255500Y112500D02*
X263000D01*
X212937Y247232D02*
Y247620D01*
Y247232D02*
X213016Y247154D01*
Y247043D02*
Y247154D01*
X239000Y245862D02*
X248571D01*
X249791Y247083D01*
X249850D01*
X250709Y247941D01*
Y248000D01*
X239000Y262398D02*
X248232D01*
X249850Y260780D01*
Y260720D02*
Y260780D01*
Y260720D02*
X250571Y260000D01*
X250630D01*
X158547Y33993D02*
Y73047D01*
X263539Y99339D02*
X270063D01*
X262362Y100516D02*
X263539Y99339D01*
X164500Y25500D02*
Y45000D01*
X168000Y48500D02*
Y53500D01*
X164500Y45000D02*
X168000Y48500D01*
X164500Y57000D02*
Y70914D01*
Y57000D02*
X168000Y53500D01*
X162500Y40000D02*
Y48000D01*
X165500Y51000D01*
X162500Y48000D02*
Y73500D01*
X159500Y83500D02*
X160000D01*
X151000Y75000D02*
X159500Y83500D01*
X76925Y142575D02*
X80075Y139425D01*
X83000Y136500D01*
X77000Y139425D02*
X80075D01*
X83729Y146500D02*
X84000D01*
X48530Y169470D02*
X55260D01*
X48500Y169500D02*
X48530Y169470D01*
X205500Y73000D02*
Y74000D01*
X206102Y74602D01*
X213016D01*
X190268Y56500D02*
X190556D01*
X184500D02*
X190268D01*
X160516Y13516D02*
Y19079D01*
X160500Y13500D02*
X160516Y13516D01*
X233032Y191532D02*
X239000D01*
X230500Y189000D02*
X233032Y191532D01*
X230500Y183000D02*
Y189000D01*
X177350Y190350D02*
X213016D01*
X164000Y177000D02*
X177350Y190350D01*
X191370Y177500D02*
X200500D01*
X187870Y174000D02*
X187969D01*
X188748Y174779D01*
Y174878D01*
X191370Y177500D01*
X213016Y197437D02*
X220563D01*
X224000Y194000D01*
X164000Y168370D02*
Y177000D01*
X239000Y212791D02*
X273421D01*
X273630Y213000D01*
X177000Y40740D02*
Y49500D01*
X179559Y40740D02*
Y44914D01*
X180500Y45855D01*
Y46000D01*
X170000Y38000D02*
Y72000D01*
Y24500D02*
Y38000D01*
X174440Y40739D02*
X174441Y40740D01*
X172739Y40739D02*
X174440D01*
X170000Y38000D02*
X172739Y40739D01*
X168480Y22980D02*
X170000Y24500D01*
X168480Y19169D02*
Y22980D01*
X168390Y19079D02*
X168480Y19169D01*
X174441Y29941D02*
Y33260D01*
X173000Y28500D02*
X174441Y29941D01*
X144240Y31559D02*
X144309D01*
X144596Y31846D01*
Y33096D01*
X147500Y36000D01*
X144257Y29017D02*
X148123D01*
X144240Y29000D02*
X144257Y29017D01*
X162500Y19094D02*
Y40000D01*
X153900Y29100D02*
Y29300D01*
Y29100D02*
X156500Y26500D01*
Y31500D01*
X153500Y34500D02*
X156500Y31500D01*
X153500Y34500D02*
Y38000D01*
X148468Y98500D02*
X153548D01*
X164500Y25500D02*
X167323Y28323D01*
X167463D01*
X164500Y19126D02*
Y25500D01*
X170000Y72000D02*
X181862Y83862D01*
X156107Y36434D02*
X158547Y33993D01*
Y19079D02*
Y33993D01*
X153500Y38000D02*
X156500Y41000D01*
Y74000D01*
X162484Y19079D02*
X162500Y19094D01*
Y40000D02*
X162500Y40000D01*
X181862Y83862D02*
X213205D01*
X164453Y19079D02*
X164500Y19126D01*
Y70914D02*
X172586Y79000D01*
X162500Y73500D02*
X175413Y86413D01*
X172586Y79000D02*
X172638D01*
X306500Y194122D02*
Y200000D01*
X322917Y175417D02*
Y183221D01*
X321500Y174000D02*
X322917Y175417D01*
X292500Y134000D02*
Y145000D01*
X321500Y151000D02*
Y174000D01*
X206000Y96000D02*
X212878D01*
X202500D02*
X206000D01*
X208224Y98224D02*
X213016D01*
X206000Y96000D02*
X208224Y98224D01*
X212965Y103000D02*
X213016Y102949D01*
X223500Y90500D02*
Y94500D01*
X228768Y85232D02*
X239000D01*
X223500Y90500D02*
X228768Y85232D01*
X175413Y86413D02*
X213016D01*
Y84051D02*
X213205Y83862D01*
X198000Y200000D02*
X200161Y202161D01*
X231343Y203343D02*
X239000D01*
X229000Y201000D02*
X231343Y203343D01*
X229705Y205705D02*
X239000D01*
X200161Y202161D02*
X213016D01*
X238929Y210500D02*
X239000Y210429D01*
X228500Y210500D02*
X238929D01*
X229586Y217516D02*
X239000D01*
X238878Y220000D02*
X239000Y219878D01*
X227500Y220000D02*
X238878D01*
X212921Y237500D02*
X213016Y237595D01*
X230046Y238776D02*
X239000D01*
X229771Y238500D02*
X230046Y238776D01*
X229500Y238500D02*
X229771D01*
X238811Y87783D02*
X239000Y87594D01*
X234989Y87783D02*
X238811D01*
X234977Y87796D02*
X234989Y87783D01*
X230000Y100729D02*
Y101000D01*
X230500Y91500D02*
Y100229D01*
X230000Y100729D02*
X230500Y100229D01*
Y91500D02*
X232043Y89957D01*
X239000D01*
X233000Y92905D02*
Y103729D01*
X233586Y92319D02*
X239000D01*
X233000Y92905D02*
X233586Y92319D01*
X35771Y113500D02*
X36019Y113252D01*
X45465D01*
X35500Y113500D02*
X35771D01*
X45413Y119106D02*
X45465Y119158D01*
X40451Y119106D02*
X45413D01*
X40397Y119053D02*
X40451Y119106D01*
X35500Y119053D02*
X40397D01*
X35500Y125038D02*
X45388D01*
X35643Y130968D02*
X45465D01*
X35500Y130825D02*
X35643Y130968D01*
X35771Y142500D02*
X36050Y142780D01*
X45465D01*
X35500Y142500D02*
X35771D01*
X45465Y130968D02*
X45491Y130942D01*
X35334Y125038D02*
X35372Y125000D01*
X45413Y125012D02*
X45465Y125063D01*
X326500Y274500D02*
X350871D01*
X320941Y287063D02*
Y287260D01*
X323500Y294740D02*
Y298500D01*
X318125Y297674D02*
Y298375D01*
Y297674D02*
X321000Y294799D01*
X318000Y304500D02*
X318000D01*
X320500Y307000D01*
X327500D02*
X354500D01*
X62021Y157771D02*
Y158521D01*
X62532Y159031D01*
X68941D01*
X95912Y161047D02*
X96025Y161160D01*
X86500Y161047D02*
X95912D01*
X69622Y168171D02*
Y172500D01*
Y163433D02*
Y168171D01*
X62740Y169470D02*
X68323D01*
X69622Y168171D01*
X74059Y161000D02*
X74106Y161047D01*
X86500D01*
X85059Y152500D02*
X91047D01*
X91047Y152500D01*
X239000Y307279D02*
X239189Y307469D01*
X242991D01*
X243023Y307500D01*
X251500D01*
X276059Y161000D02*
Y167441D01*
X276000Y167500D02*
X276059Y167441D01*
X335500Y280000D02*
X347500D01*
X326059Y282441D02*
X328500Y280000D01*
X347500D02*
X354500Y287000D01*
X353371Y277000D02*
X354500D01*
X350871Y274500D02*
X353371Y277000D01*
X326059Y282441D02*
Y287260D01*
X334750Y302000D02*
X349500D01*
X326059Y294740D02*
Y300309D01*
X327750Y302000D01*
X320941Y294740D02*
X321000Y294799D01*
X349500Y302000D02*
X354500Y297000D01*
X239000Y274209D02*
X249265D01*
X249850Y273623D01*
Y273484D02*
Y273623D01*
Y273484D02*
X250335Y273000D01*
X250532D01*
X239000Y276571D02*
X249406D01*
X250335Y277500D01*
X250532D01*
X239000Y196256D02*
X249079D01*
X249835Y195500D01*
X250031D01*
X239000Y198618D02*
X248953D01*
X249835Y199500D01*
X250031D01*
X355500Y97000D02*
Y102000D01*
X351500Y106000D02*
X355500Y102000D01*
X272031Y99339D02*
Y103032D01*
X275000Y106000D01*
X239000Y189169D02*
X251020D01*
X263968Y163559D02*
Y169532D01*
X271000Y163028D02*
Y170531D01*
X270941Y162969D02*
X271000Y163028D01*
X265000Y148453D02*
Y156500D01*
X266941Y158441D02*
X270134D01*
X265000Y156500D02*
X266941Y158441D01*
X262000D02*
X266941D01*
X270134D02*
X270724Y159031D01*
X270941D01*
X257000Y142630D02*
X264917D01*
X265000Y142548D01*
X302185Y104000D02*
Y115500D01*
X331000Y79500D02*
X331746Y80246D01*
Y83246D01*
X339469Y90969D01*
X306500D02*
X339469D01*
X345500Y97000D01*
X160516Y19079D02*
X160571Y19134D01*
X190500Y260500D02*
X196768D01*
X72378Y172500D02*
X72378Y172500D01*
X72378Y181000D02*
X72378Y181000D01*
X289453Y213000D02*
X289500Y212953D01*
X212957Y266000D02*
X213016Y265941D01*
X205500Y266000D02*
X212957D01*
X212827Y287012D02*
X213016Y287201D01*
X239000Y300193D02*
X239039Y300154D01*
X246000D01*
X239000Y293106D02*
X239029Y293077D01*
X246000D01*
X239000Y286020D02*
X239020Y286000D01*
X246000D01*
X254468Y273000D02*
X254468Y273000D01*
X259000D01*
X254468Y277500D02*
X259000D01*
X259000Y277500D01*
X254331Y248000D02*
X259000D01*
X254095Y260000D02*
X259000D01*
X239000Y222240D02*
X239058Y222182D01*
X246000D01*
X239000Y208067D02*
X239067Y208000D01*
X246000D01*
X239000Y200980D02*
X239189Y201169D01*
X239000Y179720D02*
X239050Y179671D01*
X246000D01*
X239000Y172634D02*
X239134Y172500D01*
X246000D01*
X239000Y165547D02*
X239047Y165500D01*
X246000D01*
X239000Y158461D02*
X239039Y158500D01*
X246000D01*
X239000Y151374D02*
X239126Y151500D01*
X246000D01*
X212835Y244500D02*
X213016Y244681D01*
X205500Y244500D02*
X212835D01*
X205575Y195075D02*
X213016D01*
X205512Y187988D02*
X213016D01*
X205683Y180902D02*
X213016D01*
X205572Y180790D02*
X205683Y180902D01*
X205563Y173815D02*
X213016D01*
X205553Y173825D02*
X205563Y173815D01*
X212961Y152500D02*
X213016Y152555D01*
X239000Y130114D02*
X239114Y130000D01*
X245500D01*
X239000Y137201D02*
X239001Y137202D01*
X245350D01*
X212827Y138193D02*
X213016Y138382D01*
X212827Y131484D02*
X213016Y131295D01*
X209009Y131484D02*
X212827D01*
X208993Y131500D02*
X209009Y131484D01*
X205500Y131500D02*
X208993D01*
X212827Y124020D02*
X213016Y124209D01*
X209013Y124020D02*
X212827D01*
X208993Y124000D02*
X209013Y124020D01*
X205500Y124000D02*
X208993D01*
X239000Y115941D02*
X239059Y116000D01*
X245500D01*
X239000Y123028D02*
X239028Y123000D01*
X245500D01*
X239000Y108854D02*
X245590D01*
X245644Y108800D01*
X239000Y101768D02*
X239015Y101753D01*
X244753D01*
X212894Y117000D02*
X213016Y117122D01*
X205500Y117000D02*
X212894D01*
X239000Y94681D02*
X239181Y94500D01*
X245500D01*
X212878Y96000D02*
X213016Y95862D01*
X253969Y195500D02*
X253969Y195500D01*
X258000D01*
X253969Y199500D02*
X253969Y199500D01*
X258000D01*
X322697Y211000D02*
X322917Y210780D01*
X314000Y211000D02*
X322697D01*
X271000Y174469D02*
X271000Y174469D01*
X271000Y174469D02*
Y180000D01*
X259972Y163500D02*
X260032Y163559D01*
X255500Y163500D02*
X259972D01*
X356222Y134000D02*
X356394Y133829D01*
X348000Y134000D02*
X356222D01*
X312815Y104000D02*
X317500D01*
X306500Y87032D02*
X306500Y87032D01*
Y81500D02*
Y87032D01*
X294500Y81500D02*
Y85941D01*
X253232Y74000D02*
X258500D01*
X253732Y55000D02*
X259000D01*
X253732Y49500D02*
X259000D01*
X31032Y26409D02*
X31441Y26000D01*
D17*
X83894Y284536D02*
X84000Y284642D01*
X171300Y126300D02*
X202279Y157280D01*
X213016D01*
X201366Y164366D02*
X213016D01*
X169269Y132269D02*
X201366Y164366D01*
X50993Y115007D02*
X51446Y114553D01*
X45678Y115007D02*
X50993D01*
X45465Y115220D02*
X45678Y115007D01*
X45676Y111495D02*
X50995D01*
X45465Y111284D02*
X45676Y111495D01*
X206421Y140744D02*
X213016D01*
X177630Y111953D02*
X206421Y140744D01*
X212778Y143344D02*
X213016Y143106D01*
X205344Y143344D02*
X212778D01*
X176553Y114553D02*
X205344Y143344D01*
X51454Y111953D02*
X177630D01*
X50995Y111495D02*
X51454Y111953D01*
X51446Y114553D02*
X176553D01*
X45590Y121000D02*
X51000D01*
X45465Y121126D02*
X45590Y121000D01*
X45465Y117189D02*
X51030D01*
X204749Y147831D02*
X213016D01*
X174713Y117795D02*
X204749Y147831D01*
X212778Y150431D02*
X213016Y150193D01*
X203672Y150431D02*
X212778D01*
X173636Y120395D02*
X203672Y150431D01*
X51636Y117795D02*
X174713D01*
X51030Y117189D02*
X51636Y117795D01*
X51605Y120395D02*
X173636D01*
X51000Y121000D02*
X51605Y120395D01*
X45496Y127000D02*
X51000D01*
X45465Y127032D02*
X45496Y127000D01*
X45559Y123000D02*
X51000D01*
X45465Y123094D02*
X45559Y123000D01*
X203594Y154917D02*
X213016D01*
X172377Y123700D02*
X203594Y154917D01*
X51700Y123700D02*
X172377D01*
X51000Y123000D02*
X51700Y123700D01*
Y126300D02*
X171300D01*
X51000Y127000D02*
X51700Y126300D01*
X51731Y132269D02*
X169269D01*
X45465Y132937D02*
X45533Y132869D01*
X51131D01*
X51731Y132269D01*
X45568Y129103D02*
X51103D01*
X51669Y129668D02*
X170345D01*
X45465Y129000D02*
X45568Y129103D01*
X51103D02*
X51669Y129668D01*
X202677Y162000D02*
X213012D01*
X170345Y129668D02*
X202677Y162000D01*
X273816Y116846D02*
X274000Y116661D01*
D31*
X93173Y328000D02*
D03*
X89827D02*
D03*
X72827D02*
D03*
X76173D02*
D03*
D34*
X114154Y164669D02*
D03*
X120846D02*
D03*
Y173331D02*
D03*
X114154D02*
D03*
D40*
X327587Y135502D02*
D03*
Y138848D02*
D03*
X306500Y194122D02*
D03*
Y190776D02*
D03*
Y167327D02*
D03*
Y170673D02*
D03*
X327500Y116827D02*
D03*
Y120173D02*
D03*
X306500Y148827D02*
D03*
Y152173D02*
D03*
X337500Y116827D02*
D03*
Y120173D02*
D03*
D48*
X75075Y139425D02*
D03*
X73500D02*
D03*
X71925D02*
D03*
X75075Y141000D02*
D03*
X73500D02*
D03*
X71925D02*
D03*
X75075Y142575D02*
D03*
X73500D02*
D03*
X71925D02*
D03*
D51*
X270063Y99339D02*
D03*
X272031D02*
D03*
X274000D02*
D03*
X275969D02*
D03*
X277937D02*
D03*
Y116661D02*
D03*
X275969D02*
D03*
X274000D02*
D03*
X272031D02*
D03*
X270063D02*
D03*
D52*
X55260Y169470D02*
D03*
D53*
X62740D02*
D03*
X59000Y178530D02*
D03*
D68*
X93000Y312000D02*
D03*
X99000Y174500D02*
D03*
X121500Y151500D02*
D03*
X278000Y257000D02*
D03*
X61000Y93500D02*
D03*
X277500Y66500D02*
D03*
X128000Y95000D02*
D03*
X321500Y151000D02*
D03*
X87000Y91000D02*
D03*
X277000Y35500D02*
D03*
X331000Y79500D02*
D03*
D82*
X92968Y342000D02*
D03*
X89031D02*
D03*
X91531Y152500D02*
D03*
X95468D02*
D03*
X260968Y188500D02*
D03*
X257031D02*
D03*
X250031Y199500D02*
D03*
X253969D02*
D03*
X250031Y195500D02*
D03*
X253969D02*
D03*
X250532Y277500D02*
D03*
X254468D02*
D03*
X250532Y273000D02*
D03*
X254468D02*
D03*
D83*
X124311Y24500D02*
D03*
X112500D02*
D03*
X77095Y24480D02*
D03*
X88906D02*
D03*
D84*
X118405Y23713D02*
D03*
X83000Y23693D02*
D03*
D85*
X118405Y13870D02*
D03*
X83000Y13850D02*
D03*
D86*
X12500Y262500D02*
D03*
X39075D02*
D03*
X12500Y252500D02*
D03*
Y242500D02*
D03*
X39075Y252500D02*
D03*
Y242500D02*
D03*
X12500Y232500D02*
D03*
Y222500D02*
D03*
Y212500D02*
D03*
Y202500D02*
D03*
X39075Y232500D02*
D03*
Y222500D02*
D03*
Y212500D02*
D03*
Y202500D02*
D03*
Y272500D02*
D03*
Y282500D02*
D03*
Y292500D02*
D03*
X12500Y272500D02*
D03*
Y282500D02*
D03*
Y292500D02*
D03*
D87*
X81500Y354850D02*
D03*
X84059D02*
D03*
X86618D02*
D03*
X78941D02*
D03*
X76382D02*
D03*
D88*
X85289Y366957D02*
D03*
X77711D02*
D03*
D89*
X130248Y339000D02*
D03*
X108752D02*
D03*
X130248Y349000D02*
D03*
X108752D02*
D03*
X130248Y359000D02*
D03*
X108752D02*
D03*
D90*
X144630Y98500D02*
D03*
X148370D02*
D03*
X184130Y174000D02*
D03*
X187870D02*
D03*
X277370Y213000D02*
D03*
X273630D02*
D03*
D91*
X89500Y177952D02*
D03*
Y172047D02*
D03*
X183000Y167452D02*
D03*
Y161547D02*
D03*
X164000Y158452D02*
D03*
Y152547D02*
D03*
X265000Y142548D02*
D03*
Y148453D02*
D03*
D92*
X89000Y184630D02*
D03*
Y188370D02*
D03*
X164000Y164630D02*
D03*
Y168370D02*
D03*
X257000Y142630D02*
D03*
Y146370D02*
D03*
D93*
X124232Y288500D02*
D03*
X120768D02*
D03*
X102732Y288000D02*
D03*
X99268D02*
D03*
X70732Y29500D02*
D03*
X67268D02*
D03*
X104232Y29000D02*
D03*
X100768D02*
D03*
X117768Y43500D02*
D03*
X121232D02*
D03*
X164732Y250500D02*
D03*
X161268D02*
D03*
X74732Y285500D02*
D03*
X71268D02*
D03*
X56268Y201500D02*
D03*
X59732D02*
D03*
X115732Y185000D02*
D03*
X112268D02*
D03*
X121268D02*
D03*
X124732D02*
D03*
X145232Y188500D02*
D03*
X141768D02*
D03*
X61268Y334500D02*
D03*
X64732D02*
D03*
X105732Y187000D02*
D03*
X102268D02*
D03*
X69268Y172500D02*
D03*
X72732D02*
D03*
X69268Y181000D02*
D03*
X72732D02*
D03*
X262232Y100500D02*
D03*
X258768D02*
D03*
X253075Y79000D02*
D03*
X249610D02*
D03*
X253075Y68500D02*
D03*
X249610D02*
D03*
X253075Y74000D02*
D03*
X249610D02*
D03*
X190268Y56500D02*
D03*
X193732D02*
D03*
X254095Y260000D02*
D03*
X250630D02*
D03*
X196768Y260500D02*
D03*
X200232D02*
D03*
X253075Y49500D02*
D03*
X249610D02*
D03*
X253075Y55000D02*
D03*
X249610D02*
D03*
D94*
X150500Y281732D02*
D03*
Y278268D02*
D03*
X89000Y32768D02*
D03*
Y36232D02*
D03*
X124283Y33271D02*
D03*
Y36735D02*
D03*
X135500Y50732D02*
D03*
Y47268D02*
D03*
X131000Y73732D02*
D03*
Y70268D02*
D03*
X114500Y86768D02*
D03*
Y90232D02*
D03*
X130500Y183768D02*
D03*
Y187232D02*
D03*
X158000Y201268D02*
D03*
Y204732D02*
D03*
Y228768D02*
D03*
Y232232D02*
D03*
X59000Y249732D02*
D03*
Y246268D02*
D03*
X59500Y230232D02*
D03*
Y226768D02*
D03*
X137000Y181768D02*
D03*
Y185232D02*
D03*
X84000Y188232D02*
D03*
Y184768D02*
D03*
X197000Y61768D02*
D03*
Y65232D02*
D03*
D95*
X114276Y78740D02*
D03*
Y75000D02*
D03*
Y71260D02*
D03*
X123724D02*
D03*
Y78740D02*
D03*
X117776Y57740D02*
D03*
Y54000D02*
D03*
Y50260D02*
D03*
X127224D02*
D03*
Y57740D02*
D03*
D96*
X158000Y274969D02*
D03*
Y271031D02*
D03*
X78000Y294468D02*
D03*
Y290531D02*
D03*
X86500Y164969D02*
D03*
Y161031D02*
D03*
X180000Y310968D02*
D03*
Y307031D02*
D03*
X271000Y174469D02*
D03*
Y170531D02*
D03*
X306500Y87032D02*
D03*
Y90969D02*
D03*
X292441Y109357D02*
D03*
Y105420D02*
D03*
X180000Y299031D02*
D03*
Y302969D02*
D03*
D97*
X155618Y183000D02*
D03*
X145382D02*
D03*
D98*
X74051Y194669D02*
D03*
X76020D02*
D03*
X77988D02*
D03*
X79957D02*
D03*
X81925D02*
D03*
X83894D02*
D03*
X85862D02*
D03*
X87831D02*
D03*
X89799D02*
D03*
X91768D02*
D03*
X93736D02*
D03*
X95705D02*
D03*
X97673D02*
D03*
X99642D02*
D03*
X101610D02*
D03*
X103579D02*
D03*
X105547D02*
D03*
X107516D02*
D03*
X109484D02*
D03*
X111453D02*
D03*
X113421D02*
D03*
X115390D02*
D03*
X117358D02*
D03*
X119327D02*
D03*
X121295D02*
D03*
X123264D02*
D03*
X125232D02*
D03*
X127201D02*
D03*
X129169D02*
D03*
X131138D02*
D03*
X133106D02*
D03*
X135075D02*
D03*
X137043D02*
D03*
X139012D02*
D03*
X140980D02*
D03*
X142949D02*
D03*
Y278331D02*
D03*
X140980D02*
D03*
X139012D02*
D03*
X137043D02*
D03*
X135075D02*
D03*
X133106D02*
D03*
X131138D02*
D03*
X129169D02*
D03*
X127201D02*
D03*
X125232D02*
D03*
X123264D02*
D03*
X121295D02*
D03*
X119327D02*
D03*
X117358D02*
D03*
X115390D02*
D03*
X113421D02*
D03*
X111453D02*
D03*
X109484D02*
D03*
X107516D02*
D03*
X105547D02*
D03*
X103579D02*
D03*
X101610D02*
D03*
X99642D02*
D03*
X97673D02*
D03*
X95705D02*
D03*
X93736D02*
D03*
X91768D02*
D03*
X89799D02*
D03*
X87831D02*
D03*
X85862D02*
D03*
X83894D02*
D03*
X81925D02*
D03*
X79957D02*
D03*
X77988D02*
D03*
X76020D02*
D03*
X74051D02*
D03*
D99*
X150331Y202051D02*
D03*
Y204020D02*
D03*
Y205988D02*
D03*
Y207957D02*
D03*
Y209925D02*
D03*
Y211894D02*
D03*
Y213862D02*
D03*
Y215831D02*
D03*
Y217799D02*
D03*
Y219768D02*
D03*
Y221736D02*
D03*
Y223705D02*
D03*
Y225673D02*
D03*
Y227642D02*
D03*
Y229610D02*
D03*
Y231579D02*
D03*
Y233547D02*
D03*
Y235516D02*
D03*
Y237484D02*
D03*
Y239453D02*
D03*
Y241421D02*
D03*
Y243390D02*
D03*
Y245358D02*
D03*
Y247327D02*
D03*
Y249295D02*
D03*
Y251264D02*
D03*
Y253232D02*
D03*
Y255201D02*
D03*
Y257169D02*
D03*
Y259138D02*
D03*
Y261106D02*
D03*
Y263075D02*
D03*
Y265043D02*
D03*
Y267012D02*
D03*
Y268980D02*
D03*
Y270949D02*
D03*
X66669D02*
D03*
Y268980D02*
D03*
Y267012D02*
D03*
Y265043D02*
D03*
Y263075D02*
D03*
Y261106D02*
D03*
Y259138D02*
D03*
Y257169D02*
D03*
Y255201D02*
D03*
Y253232D02*
D03*
Y251264D02*
D03*
Y249295D02*
D03*
Y247327D02*
D03*
Y245358D02*
D03*
Y243390D02*
D03*
Y241421D02*
D03*
Y239453D02*
D03*
Y237484D02*
D03*
Y235516D02*
D03*
Y233547D02*
D03*
Y231579D02*
D03*
Y229610D02*
D03*
Y227642D02*
D03*
Y225673D02*
D03*
Y223705D02*
D03*
Y221736D02*
D03*
Y219768D02*
D03*
Y217799D02*
D03*
Y215831D02*
D03*
Y213862D02*
D03*
Y211894D02*
D03*
Y209925D02*
D03*
Y207957D02*
D03*
Y205988D02*
D03*
Y204020D02*
D03*
Y202051D02*
D03*
D100*
X15550Y334650D02*
D03*
X51450D02*
D03*
X15550Y352350D02*
D03*
X51450D02*
D03*
D101*
X284048Y213000D02*
D03*
X289953D02*
D03*
X159453Y98500D02*
D03*
X153548D02*
D03*
D102*
X312815Y115500D02*
D03*
X302185D02*
D03*
X312815Y104000D02*
D03*
X302185D02*
D03*
D103*
X31032Y26409D02*
D03*
Y77591D02*
D03*
D104*
X65480Y49638D02*
D03*
D105*
X179559Y33260D02*
D03*
X177000D02*
D03*
X174441D02*
D03*
Y40740D02*
D03*
X177000D02*
D03*
X179559D02*
D03*
X326059Y294740D02*
D03*
X323500D02*
D03*
X320941D02*
D03*
Y287260D02*
D03*
X323500D02*
D03*
X326059D02*
D03*
D106*
X144240Y31559D02*
D03*
Y29000D02*
D03*
Y26441D02*
D03*
X136760D02*
D03*
Y29000D02*
D03*
Y31559D02*
D03*
D107*
X175988Y11756D02*
D03*
X147012D02*
D03*
D108*
X162484Y19079D02*
D03*
X160516D02*
D03*
X158547D02*
D03*
X156579D02*
D03*
X154610D02*
D03*
X164453D02*
D03*
X166421D02*
D03*
X168390D02*
D03*
D109*
X294500Y85941D02*
D03*
X292531Y91059D02*
D03*
X296468D02*
D03*
X262000Y158441D02*
D03*
X260032Y163559D02*
D03*
X263968D02*
D03*
D110*
X213016Y60429D02*
D03*
X239000Y59248D02*
D03*
X213016Y62791D02*
D03*
X239000Y61610D02*
D03*
X213016Y65153D02*
D03*
X239000Y63972D02*
D03*
X213016Y67516D02*
D03*
X239000Y66335D02*
D03*
X213016Y69878D02*
D03*
X239000Y68697D02*
D03*
X213016Y72240D02*
D03*
X239000Y71059D02*
D03*
X213016Y74602D02*
D03*
X239000Y73421D02*
D03*
X213016Y76965D02*
D03*
X239000Y75783D02*
D03*
X213016Y79327D02*
D03*
X239000Y78146D02*
D03*
X213016Y81689D02*
D03*
X239000Y80508D02*
D03*
X213016Y84051D02*
D03*
X239000Y82870D02*
D03*
X213016Y86413D02*
D03*
X239000Y85232D02*
D03*
X213016Y88776D02*
D03*
X239000Y87594D02*
D03*
X213016Y91138D02*
D03*
X239000Y89957D02*
D03*
X213016Y93500D02*
D03*
X239000Y92319D02*
D03*
X213016Y95862D02*
D03*
X239000Y94681D02*
D03*
X213016Y98224D02*
D03*
X239000Y97043D02*
D03*
X213016Y100587D02*
D03*
X239000Y99405D02*
D03*
X213016Y102949D02*
D03*
X239000Y101768D02*
D03*
X213016Y105311D02*
D03*
X239000Y104130D02*
D03*
X213016Y107673D02*
D03*
X239000Y106492D02*
D03*
X213016Y110035D02*
D03*
X239000Y108854D02*
D03*
X213016Y112398D02*
D03*
X239000Y111216D02*
D03*
X213016Y114760D02*
D03*
X239000Y113579D02*
D03*
X213016Y117122D02*
D03*
X239000Y115941D02*
D03*
X213016Y119484D02*
D03*
X239000Y118303D02*
D03*
X213016Y121846D02*
D03*
X239000Y120665D02*
D03*
X213016Y124209D02*
D03*
X239000Y123028D02*
D03*
Y125390D02*
D03*
X213016Y126571D02*
D03*
X239000Y127752D02*
D03*
X213016Y128933D02*
D03*
X239000Y130114D02*
D03*
X213016Y131295D02*
D03*
X239000Y132476D02*
D03*
X213016Y133658D02*
D03*
X239000Y134839D02*
D03*
X213016Y136020D02*
D03*
X239000Y137201D02*
D03*
X213016Y138382D02*
D03*
X239000Y139563D02*
D03*
X213016Y140744D02*
D03*
X239000Y141925D02*
D03*
X213016Y143106D02*
D03*
X239000Y144287D02*
D03*
X213016Y145468D02*
D03*
X239000Y146650D02*
D03*
X213016Y147831D02*
D03*
X239000Y149012D02*
D03*
X213016Y150193D02*
D03*
X239000Y151374D02*
D03*
X213016Y152555D02*
D03*
X239000Y153736D02*
D03*
X213016Y154917D02*
D03*
X239000Y156098D02*
D03*
X213016Y157280D02*
D03*
X239000Y158461D02*
D03*
X213016Y159642D02*
D03*
X239000Y160823D02*
D03*
X213016Y162004D02*
D03*
X239000Y163185D02*
D03*
X213016Y164366D02*
D03*
X239000Y165547D02*
D03*
X213016Y166728D02*
D03*
X239000Y167909D02*
D03*
X213016Y169091D02*
D03*
X239000Y170272D02*
D03*
X213016Y171453D02*
D03*
X239000Y172634D02*
D03*
X213016Y173815D02*
D03*
X239000Y174996D02*
D03*
X213016Y176177D02*
D03*
X239000Y177358D02*
D03*
X213016Y178539D02*
D03*
X239000Y179720D02*
D03*
X213016Y180902D02*
D03*
X239000Y182083D02*
D03*
X213016Y183264D02*
D03*
X239000Y184445D02*
D03*
X213016Y185626D02*
D03*
X239000Y186807D02*
D03*
X213016Y187988D02*
D03*
X239000Y189169D02*
D03*
X213016Y190350D02*
D03*
X239000Y191532D02*
D03*
X213016Y192713D02*
D03*
X239000Y193894D02*
D03*
X213016Y195075D02*
D03*
X239000Y196256D02*
D03*
X213016Y197437D02*
D03*
X239000Y198618D02*
D03*
X213016Y199799D02*
D03*
X239000Y200980D02*
D03*
X213016Y202161D02*
D03*
X239000Y203343D02*
D03*
X213016Y204524D02*
D03*
X239000Y205705D02*
D03*
X213016Y206886D02*
D03*
X239000Y208067D02*
D03*
X213016Y209248D02*
D03*
X239000Y210429D02*
D03*
X213016Y211610D02*
D03*
X239000Y212791D02*
D03*
X213016Y213972D02*
D03*
X239000Y215154D02*
D03*
X213016Y216335D02*
D03*
X239000Y217516D02*
D03*
X213016Y218697D02*
D03*
X239000Y219878D02*
D03*
X213016Y221059D02*
D03*
X239000Y222240D02*
D03*
X213016Y223421D02*
D03*
X239000Y224602D02*
D03*
X213016Y225783D02*
D03*
X239000Y226965D02*
D03*
X213016Y228146D02*
D03*
X239000Y229327D02*
D03*
X213016Y230508D02*
D03*
X239000Y231689D02*
D03*
X213016Y232870D02*
D03*
X239000Y234051D02*
D03*
X213016Y235232D02*
D03*
X239000Y236413D02*
D03*
X213016Y237595D02*
D03*
X239000Y238776D02*
D03*
X213016Y239957D02*
D03*
X239000Y241138D02*
D03*
X213016Y242319D02*
D03*
X239000Y243500D02*
D03*
X213016Y244681D02*
D03*
X239000Y245862D02*
D03*
X213016Y247043D02*
D03*
X239000Y262398D02*
D03*
X213016Y263579D02*
D03*
X239000Y264760D02*
D03*
X213016Y265941D02*
D03*
X239000Y267122D02*
D03*
X213016Y268303D02*
D03*
X239000Y269484D02*
D03*
X213016Y270665D02*
D03*
X239000Y271847D02*
D03*
X213016Y273028D02*
D03*
X239000Y274209D02*
D03*
X213016Y275390D02*
D03*
X239000Y276571D02*
D03*
X213016Y277752D02*
D03*
X239000Y278933D02*
D03*
X213016Y280114D02*
D03*
X239000Y281295D02*
D03*
X213016Y282476D02*
D03*
X239000Y283658D02*
D03*
X213016Y284839D02*
D03*
X239000Y286020D02*
D03*
X213016Y287201D02*
D03*
X239000Y288382D02*
D03*
X213016Y289563D02*
D03*
X239000Y290744D02*
D03*
X213016Y291925D02*
D03*
X239000Y293106D02*
D03*
X213016Y294287D02*
D03*
X239000Y295468D02*
D03*
X213016Y296650D02*
D03*
X239000Y297831D02*
D03*
X213016Y299012D02*
D03*
X239000Y300193D02*
D03*
X213016Y301374D02*
D03*
X239000Y302555D02*
D03*
X213016Y303736D02*
D03*
X239000Y304917D02*
D03*
X213016Y306098D02*
D03*
X239000Y307279D02*
D03*
X213016Y308461D02*
D03*
D111*
X287228Y116558D02*
D03*
X293134D02*
D03*
D112*
X85059Y152500D02*
D03*
X79941Y150531D02*
D03*
Y154469D02*
D03*
X74059Y161000D02*
D03*
X68941Y159031D02*
D03*
Y162969D02*
D03*
X276059Y161000D02*
D03*
X270941Y159031D02*
D03*
Y162969D02*
D03*
D113*
X356394Y128711D02*
D03*
Y126152D02*
D03*
Y123592D02*
D03*
Y131270D02*
D03*
Y133829D02*
D03*
D114*
X368500Y124921D02*
D03*
Y132500D02*
D03*
D115*
X45465Y111284D02*
D03*
Y113252D02*
D03*
Y115220D02*
D03*
Y117189D02*
D03*
Y119158D02*
D03*
Y121126D02*
D03*
Y123094D02*
D03*
Y125063D02*
D03*
Y127032D02*
D03*
Y129000D02*
D03*
Y130968D02*
D03*
Y132937D02*
D03*
Y134906D02*
D03*
Y136874D02*
D03*
Y138842D02*
D03*
Y140811D02*
D03*
Y142780D02*
D03*
Y144748D02*
D03*
Y146716D02*
D03*
D116*
X250000Y85189D02*
D03*
Y88811D02*
D03*
D117*
X250709Y248000D02*
D03*
X254331D02*
D03*
X249689Y60500D02*
D03*
X253311D02*
D03*
D118*
X99791Y50000D02*
D03*
X86209D02*
D03*
D119*
X331500Y126431D02*
X356114D01*
X279980D02*
X331500D01*
X327500Y120173D02*
Y122431D01*
X331500Y126431D01*
Y128431D02*
X356114D01*
X279151D02*
X331500D01*
X327587Y132344D02*
Y135502D01*
Y132344D02*
X331500Y128431D01*
X277937Y124388D02*
X279980Y126431D01*
X277937Y116661D02*
Y124388D01*
X275969Y116661D02*
Y125248D01*
X279151Y128431D01*
X356114D02*
X356394Y128711D01*
X356114Y126431D02*
X356394Y126152D01*
X327500Y135415D02*
X327587Y135502D01*
X306500Y182000D02*
Y190776D01*
X306416Y170757D02*
Y179084D01*
X76644Y328471D02*
X79471D01*
X81925Y330925D02*
Y351933D01*
X79471Y328471D02*
X81925Y330925D01*
Y278331D02*
Y330925D01*
X86711Y328290D02*
X89537D01*
X83894Y331106D02*
X86711Y328290D01*
X83894Y284536D02*
Y331106D01*
Y352433D01*
Y354685D01*
X81925Y351933D02*
Y352896D01*
X89537Y328290D02*
X89827Y328000D01*
X76173D02*
X76644Y328471D01*
X306502Y181998D02*
X315622Y191119D01*
X83894Y278331D02*
Y284536D01*
X306416Y179084D02*
X317622Y190290D01*
X274056Y146724D02*
X306416Y179084D01*
X272031Y147528D02*
X306502Y181998D01*
X272031Y116661D02*
Y147528D01*
X274056Y116605D02*
Y146724D01*
X319980Y196000D02*
X322917Y193063D01*
X317622Y190290D02*
Y194549D01*
X318244Y198000D02*
X319980D01*
X319073Y196000D02*
X319980D01*
Y198000D02*
X322917Y200937D01*
X315622Y195378D02*
X318244Y198000D01*
X315622Y191119D02*
Y195378D01*
X317622Y194549D02*
X319073Y196000D01*
D120*
X367516Y123937D02*
X368500Y124921D01*
X367516Y117982D02*
Y123937D01*
Y133484D02*
X368500Y132500D01*
X367516Y133484D02*
Y139439D01*
X85289Y366957D02*
X86274Y365972D01*
X92228D01*
X70772D02*
X76726D01*
X77711Y366957D01*
X175988Y11756D02*
X177244Y10500D01*
X187000D01*
X145256Y10000D02*
X147012Y11756D01*
X136000Y10000D02*
X145256D01*
X200291Y260500D02*
X200512Y260279D01*
X200232Y260500D02*
X200291D01*
X206801Y253932D02*
X211005D01*
X197568D02*
X206801D01*
X200512Y260221D02*
X206801Y253932D01*
X200512Y260221D02*
Y260279D01*
X211005Y253932D02*
X212937Y252000D01*
X197500Y254000D02*
X197568Y253932D01*
X70500Y354953D02*
X70772Y355224D01*
X82150Y14000D02*
X82650Y13500D01*
X12500Y202500D02*
X23500D01*
X39075D01*
X25464Y207465D02*
X25500Y207500D01*
X25464Y204465D02*
Y207465D01*
X23500Y202500D02*
X25464Y204465D01*
X12500Y202500D02*
X13296Y203296D01*
X120846Y152154D02*
Y164669D01*
Y152154D02*
X121500Y151500D01*
X101301Y173331D02*
X114154D01*
X100131Y174500D02*
X101301Y173331D01*
X99000Y174500D02*
X100131D01*
X155618Y183000D02*
X161500D01*
X12500Y292500D02*
X13000Y293000D01*
Y308000D01*
X51450Y352350D02*
X52000Y352900D01*
Y359500D01*
X91047Y354043D02*
X92228Y355224D01*
X70772D02*
X71953Y354043D01*
X15550Y352350D02*
X51450D01*
X83000Y13850D02*
Y23693D01*
X82650Y13500D02*
X83000Y13850D01*
X118405Y13870D02*
Y23713D01*
Y13870D02*
X119035Y14500D01*
X130500D01*
X70000Y14000D02*
X82150D01*
X114016Y71000D02*
X114276Y71260D01*
X102500Y71000D02*
X114016D01*
X106500Y75000D02*
X110168Y78668D01*
X130248Y333748D02*
Y339000D01*
X127500Y331000D02*
X130248Y333748D01*
X108752Y339000D02*
X109328Y338423D01*
Y334672D02*
Y338423D01*
Y334672D02*
X113000Y331000D01*
X12500Y282500D02*
Y292500D01*
Y272500D02*
Y282500D01*
Y262500D02*
Y272500D01*
Y252500D02*
Y262500D01*
Y242500D02*
Y252500D01*
Y232500D02*
Y242500D01*
Y222500D02*
Y232500D01*
Y212500D02*
Y222500D01*
X122000Y359000D02*
X130248D01*
X108752D02*
X122000D01*
X120000Y315000D02*
Y357000D01*
X122000Y359000D01*
X141032Y95000D02*
X143850Y97819D01*
X133500Y95000D02*
X141032D01*
X117500Y33264D02*
X118432D01*
X124492Y27204D01*
Y24681D02*
Y27204D01*
X124210Y33197D02*
X124283Y33271D01*
X124210Y27790D02*
Y33197D01*
X135500Y50732D02*
Y55500D01*
X139000Y59000D01*
X127224Y57740D02*
X132240D01*
X133500Y59000D01*
X131000Y73732D02*
X131220Y73953D01*
X133756Y78256D02*
Y79000D01*
X131220Y73953D02*
Y75721D01*
X133756Y78256D01*
X126482Y78740D02*
X129240D01*
X129500Y79000D01*
X107866Y51866D02*
X109233Y50500D01*
X117535D02*
X117776Y50260D01*
X109233Y50500D02*
X117535D01*
X117776Y43508D02*
Y50260D01*
X117768Y43500D02*
X117776Y43508D01*
X117703Y57668D02*
X117776Y57740D01*
X113668Y57668D02*
X117703D01*
X110000Y54000D02*
X113668Y57668D01*
X114276Y78740D02*
Y86484D01*
X114500Y86709D01*
Y86768D01*
X114204Y78668D02*
X114276Y78740D01*
X110168Y78668D02*
X114204D01*
X124311Y24500D02*
X124492Y24681D01*
X104232Y24268D02*
Y29000D01*
Y24268D02*
X105500Y23000D01*
X107000Y24500D01*
X112500D01*
X88906Y24480D02*
X89087Y24661D01*
Y26587D01*
X93500Y31000D01*
X89000Y32709D02*
Y32768D01*
Y32709D02*
X89220Y32488D01*
X89280D01*
X90768Y31000D01*
X93500D01*
X70732Y29500D02*
X75500D01*
X77000Y31000D01*
X77095Y24480D02*
Y30906D01*
X77000Y31000D02*
X77095Y30906D01*
X188879Y76965D02*
X200067D01*
X179914Y68000D02*
X179914D01*
X188879Y76965D01*
X15550Y334650D02*
X51450D01*
X238942Y59189D02*
X239000Y59248D01*
X238942Y56611D02*
Y59189D01*
X237331Y55000D02*
X238942Y56611D01*
X249610Y74000D02*
Y79000D01*
X277500Y66500D02*
Y82000D01*
X281500Y86000D01*
X250189Y85000D02*
X279959D01*
X250000Y85189D02*
X250189Y85000D01*
X249969Y85189D02*
X250000D01*
X249610Y68500D02*
Y74000D01*
Y84831D02*
X249969Y85189D01*
X249610Y79000D02*
Y84831D01*
X287228Y112522D02*
Y116558D01*
Y112522D02*
X287998Y111752D01*
X198000Y65267D02*
X198221Y65487D01*
X200487D01*
X204567Y69567D01*
X65546Y181000D02*
X69000D01*
X61470D02*
X65546D01*
X63500Y183046D02*
Y186500D01*
Y183046D02*
X65546Y181000D01*
X59000Y178530D02*
X61470Y181000D01*
X213016Y68058D02*
Y69878D01*
X204567Y69567D02*
X212705D01*
X239000Y68697D02*
Y70565D01*
Y67000D02*
Y68697D01*
X213016Y60429D02*
Y62458D01*
Y69878D02*
Y71826D01*
D121*
X86390Y344642D02*
Y354878D01*
X88835Y342000D02*
X89031D01*
X88250Y342584D02*
X88835Y342000D01*
X88250Y342584D02*
Y342781D01*
X86390Y344642D02*
X88250Y342781D01*
X72362Y213862D02*
X72500Y214000D01*
X121295Y199476D02*
X121319Y199500D01*
X79957Y278331D02*
X80000Y278287D01*
X81272Y353549D02*
X81925Y352896D01*
X83894Y354685D02*
X84059Y354850D01*
X59083Y223814D02*
X59193Y223705D01*
X61520Y268980D02*
X66669D01*
X61500Y269000D02*
X61520Y268980D01*
X61551Y270949D02*
X66669D01*
X61500Y271000D02*
X61551Y270949D01*
X59250Y221750D02*
X59264Y221736D01*
X91768Y278331D02*
X91801Y278364D01*
X89799Y278331D02*
X89839Y278370D01*
X142949Y278331D02*
X143000Y278382D01*
Y283000D01*
X140980Y278331D02*
X141000Y278350D01*
Y283000D01*
X139000Y278343D02*
X139012Y278331D01*
X139000Y278343D02*
Y282831D01*
X137043Y278331D02*
Y282457D01*
X137000Y282500D02*
X137043Y282457D01*
D122*
X73500Y145500D02*
X75500Y147500D01*
X73500Y141000D02*
Y145500D01*
X79500Y147500D02*
X83500Y143500D01*
X87000D01*
X75500Y147500D02*
X79500D01*
X87831Y278331D02*
Y283425D01*
X73827Y247327D02*
X74000Y247500D01*
X66669Y247327D02*
X73827D01*
X83894Y194669D02*
Y199394D01*
X84000Y199500D01*
X131138Y194669D02*
X131284Y194815D01*
Y197784D01*
X132500Y199000D01*
X91768Y191138D02*
Y194669D01*
X90128Y189498D02*
X91768Y191138D01*
X90030Y189498D02*
X90128D01*
X89000Y188469D02*
X90030Y189498D01*
X89000Y188370D02*
Y188469D01*
X142764Y251264D02*
X150331D01*
X142500Y251000D02*
X142764Y251264D01*
X66669Y227642D02*
X74358D01*
X74500Y227500D01*
X66669Y204020D02*
X71980D01*
X72000Y204000D01*
X59732Y201500D02*
X60283Y202051D01*
X142500Y208000D02*
Y213500D01*
X144512Y205988D02*
X150331D01*
X142500Y208000D02*
X144512Y205988D01*
X146020Y204020D02*
X150331D01*
X143500Y201500D02*
X146020Y204020D01*
X130500Y183768D02*
X132268D01*
X133106Y184606D01*
X130500Y187232D02*
X131138Y187870D01*
X133106Y184606D02*
Y194669D01*
X144705Y223705D02*
X150331D01*
X66669Y213862D02*
X72362D01*
X121295Y194669D02*
Y199476D01*
X80000Y272000D02*
Y278287D01*
X59193Y223705D02*
X66669D01*
X60000Y229610D02*
X66669D01*
X66640Y247297D02*
X66669Y247327D01*
X59970Y247297D02*
X66640D01*
X59264Y221736D02*
X66669D01*
X91801Y278364D02*
Y283588D01*
X89839Y278370D02*
Y283465D01*
X150331Y229610D02*
X157158D01*
X158000Y228768D01*
X150331Y231579D02*
X157346D01*
X158000Y232232D01*
X164500Y250268D02*
X164732Y250500D01*
X164500Y249000D02*
Y250268D01*
X158500Y248000D02*
X163500D01*
X164500Y249000D01*
X150331Y249295D02*
X157205D01*
X158500Y248000D01*
X150331Y251264D02*
X160504D01*
X161268Y250500D01*
X150331Y270949D02*
Y278098D01*
Y268980D02*
X155949D01*
X157069Y270100D01*
X157266D01*
X158000Y270835D01*
Y271031D01*
X123264Y278331D02*
Y287531D01*
X124232Y288500D01*
X121295Y278331D02*
Y287972D01*
X120768Y288500D02*
X121295Y287972D01*
X101610Y278331D02*
Y286737D01*
X101703Y286829D01*
Y287030D01*
X102673Y288000D01*
X99642Y278331D02*
Y287626D01*
X99268Y288000D02*
X99642Y287626D01*
X62000Y202051D02*
X66669D01*
X60283D02*
X62000D01*
X66316Y203666D02*
X66669Y204020D01*
X63615Y203666D02*
X66316D01*
X62000Y202051D02*
X63615Y203666D01*
X131138Y187870D02*
Y194669D01*
X153980Y204020D02*
X156322Y201678D01*
X157590D02*
X158000Y201268D01*
X150331Y204020D02*
X153980D01*
X156322Y201678D02*
X157590D01*
X150331Y205988D02*
X156737D01*
X156963Y205762D01*
X157029D01*
X158000Y204791D01*
Y204732D02*
Y204791D01*
X74051Y278331D02*
Y279038D01*
X73612Y279477D02*
X74051Y279038D01*
X72905Y279477D02*
X73612D01*
X71268Y281114D02*
X72905Y279477D01*
X71268Y281114D02*
Y285500D01*
X76020Y278331D02*
Y284213D01*
X75762Y284471D02*
X76020Y284213D01*
X75762Y284471D02*
Y284529D01*
X74791Y285500D02*
X75762Y284529D01*
X74732Y285500D02*
X74791D01*
X77988Y278331D02*
Y290520D01*
X78000Y290531D01*
X59000Y246327D02*
X59970Y247297D01*
X59000Y246268D02*
Y246327D01*
X59437Y249295D02*
X66669D01*
X59000Y249732D02*
X59437Y249295D01*
X60000Y227642D02*
X66669D01*
X83894Y188339D02*
Y194669D01*
Y188339D02*
X84000Y188232D01*
X102268Y187000D02*
Y190268D01*
X103555Y194645D02*
X103579Y194669D01*
X103555Y191555D02*
Y194645D01*
X102268Y190268D02*
X103555Y191555D01*
X105732Y187000D02*
Y194484D01*
X105547Y194669D02*
X105732Y194484D01*
X119327Y190173D02*
Y194669D01*
X117358Y190142D02*
Y194669D01*
X139000Y188500D02*
X141768D01*
X137000Y190500D02*
X139000Y188500D01*
X137043Y190543D02*
Y194669D01*
X137000Y190500D02*
X137043Y190543D01*
X135000Y187291D02*
Y190500D01*
Y187291D02*
X137000Y185291D01*
X135000Y194595D02*
X135075Y194669D01*
X135000Y190500D02*
Y194595D01*
X142949Y194669D02*
X144669D01*
X150250Y200250D02*
X150331Y200331D01*
Y202051D01*
X129169Y194669D02*
Y198831D01*
X127201Y194669D02*
Y198799D01*
X125232Y194669D02*
Y199268D01*
X150331Y267012D02*
X154988D01*
X155000Y267000D01*
X150331Y265043D02*
X150374Y265000D01*
X155000D01*
X150331Y263075D02*
X150406Y263000D01*
X155000D01*
X150331Y261106D02*
X150437Y261000D01*
X155000D01*
X150331Y259138D02*
X150469Y259000D01*
X155000D01*
X150331Y257169D02*
X154831D01*
X150331Y255201D02*
X154799D01*
X150331Y253232D02*
X154768D01*
X150331Y241421D02*
X150409Y241500D01*
X154500D01*
X150331Y239453D02*
X154453D01*
X154500Y239500D01*
X150331Y245358D02*
X154358D01*
X150331Y243390D02*
X154390D01*
X150331Y221736D02*
X154236D01*
X150331Y219768D02*
X154268D01*
X150331Y217799D02*
X154299D01*
X150331Y215831D02*
X154331D01*
X150331Y207957D02*
X150374Y208000D01*
X154500D01*
X150331Y213862D02*
X154362D01*
X150331Y211894D02*
X154394D01*
X150331Y209925D02*
X150406Y210000D01*
X154500D01*
X182453Y161000D02*
X183000Y161547D01*
X75075Y139425D02*
X77000D01*
X73500Y137000D02*
Y139425D01*
X70500Y138000D02*
X71925Y139425D01*
X75075Y142575D02*
X76925D01*
X71925D02*
Y144500D01*
X70500Y141000D02*
X71925D01*
D123*
X212937Y252000D02*
Y258500D01*
Y247620D02*
Y252000D01*
X180566Y59066D02*
X186767Y65267D01*
X198000D01*
X95500Y152500D02*
X97500Y150500D01*
Y142000D02*
Y150500D01*
X260968Y188500D02*
X278500D01*
X239000Y59248D02*
Y61000D01*
X249500Y42500D02*
Y48616D01*
X249610Y55000D02*
Y60421D01*
X249689Y60500D01*
X249610Y49500D02*
Y55000D01*
X249581Y49470D02*
X249610Y49500D01*
X249581Y48697D02*
Y49470D01*
X249500Y48616D02*
X249581Y48697D01*
X213016Y60429D02*
X218445Y55000D01*
X226894Y70000D02*
X228197Y68697D01*
X213016Y69878D02*
X213138Y70000D01*
X226894D01*
X288473Y60000D02*
X288500D01*
X276296Y34796D02*
X277000Y35500D01*
X273741Y34796D02*
X276296D01*
X273695Y34750D02*
X273741Y34796D01*
X215437Y256000D02*
X235572D01*
X239072Y252500D01*
X212937Y258500D02*
Y263018D01*
X239072Y252500D02*
Y261870D01*
Y246457D02*
Y252500D01*
X212937Y258500D02*
X215437Y256000D01*
X193732Y56500D02*
X194000Y56232D01*
Y48402D02*
Y56232D01*
X177500Y59000D02*
X177566Y59066D01*
X180566D01*
X84000Y73000D02*
X84287Y72713D01*
X228197Y68697D02*
X239000D01*
X249610Y68500D02*
X249689Y68579D01*
D124*
X34500Y20941D02*
X35500Y21941D01*
X34500Y11000D02*
Y20941D01*
X31441Y26000D02*
X35500Y21941D01*
X34500Y81059D02*
Y92000D01*
X31032Y77591D02*
X34500Y81059D01*
X85847Y49638D02*
X86209Y50000D01*
D125*
X100000Y59000D02*
Y68500D01*
X106500Y75000D01*
X133500Y95000D02*
X138256Y90244D01*
X113264Y37500D02*
X117500Y33264D01*
X103000Y37500D02*
X113264D01*
X100000D02*
X103000D01*
X138256Y63744D02*
X143000Y59000D01*
X139000D02*
X143000D01*
X133500D02*
X139000D01*
X138256Y83500D02*
Y90244D01*
X133756Y79000D02*
X138256Y83500D01*
X129500Y79000D02*
X133756D01*
X138256Y63744D02*
Y83500D01*
X107866Y51866D02*
X110000Y54000D01*
X99791Y50862D02*
X100795Y51866D01*
X99791Y50000D02*
Y50862D01*
X100795Y51866D02*
X107866D01*
X105500Y17500D02*
Y23000D01*
X77000Y31000D02*
Y38500D01*
X93500Y31000D02*
X100000Y37500D01*
X237000Y55000D02*
X249500Y42500D01*
X236985Y55015D02*
X237000Y55000D01*
X237331D01*
X218445D02*
X237000D01*
X249500Y38000D02*
Y42500D01*
X194500Y47902D02*
X201598Y55000D01*
X100000Y53680D02*
Y59000D01*
X201598Y55000D02*
X218445D01*
X263223Y34750D02*
X273695D01*
X252750D02*
X263223D01*
X288473Y60000D01*
X128000Y95000D02*
X133500D01*
X193500Y37500D02*
Y47902D01*
X194000Y48402D01*
X86287Y72713D02*
X100000Y59000D01*
X84287Y72713D02*
X86287D01*
X249500Y38000D02*
X252750Y34750D01*
X65480Y49638D02*
X85847D01*
D126*
X213016Y76965D02*
Y79327D01*
X200067Y76965D02*
X213016D01*
D127*
X70083Y354043D02*
D03*
X92917D02*
D03*
D128*
X355587Y140128D02*
D03*
Y117293D02*
D03*
D129*
X70772Y365972D02*
D03*
X92228D02*
D03*
D130*
X71953Y354043D02*
D03*
X91047D02*
D03*
D131*
X166500Y350500D02*
D03*
X156500D02*
D03*
X176500D02*
D03*
X186500D02*
D03*
X196500D02*
D03*
X18236Y42158D02*
D03*
Y61843D02*
D03*
X354500Y257000D02*
D03*
Y267000D02*
D03*
Y277000D02*
D03*
Y297000D02*
D03*
Y287000D02*
D03*
D132*
X146500Y350500D02*
D03*
D133*
X226008Y33067D02*
D03*
D134*
Y334642D02*
D03*
D135*
X345500Y97000D02*
D03*
X355500D02*
D03*
D136*
X365500D02*
D03*
D137*
X354500Y307000D02*
D03*
D138*
X367516Y139439D02*
D03*
Y117982D02*
D03*
D139*
X355587Y138258D02*
D03*
Y119163D02*
D03*
D140*
X322917Y200937D02*
D03*
Y193063D02*
D03*
Y210780D02*
D03*
Y183221D02*
D03*
D141*
X333587Y171134D02*
D03*
Y222866D02*
D03*
D142*
X18693Y100457D02*
D03*
Y157543D02*
D03*
D143*
X42315Y100457D02*
D03*
Y157543D02*
D03*
D144*
X318500Y271500D02*
D03*
Y283000D02*
D03*
X323500Y277500D02*
D03*
Y282500D02*
D03*
X93000Y337500D02*
D03*
X87000Y143500D02*
D03*
X259000Y60500D02*
D03*
X306500Y146000D02*
D03*
Y163000D02*
D03*
X327500Y142000D02*
D03*
X205500Y104000D02*
D03*
X74500Y247500D02*
D03*
X84000Y205500D02*
D03*
X136500Y201500D02*
D03*
X105721Y182913D02*
D03*
X66500Y285500D02*
D03*
X220500Y81500D02*
D03*
X226500Y77000D02*
D03*
X98000Y187000D02*
D03*
X106500Y160500D02*
D03*
X85000Y172000D02*
D03*
X164500Y232500D02*
D03*
X142500Y251000D02*
D03*
X155500Y284000D02*
D03*
X117000Y288500D02*
D03*
X95500Y288000D02*
D03*
X76000Y207000D02*
D03*
X74500Y227500D02*
D03*
X142500Y213500D02*
D03*
X161500Y183000D02*
D03*
X143500Y201500D02*
D03*
X133500Y23000D02*
D03*
X122500Y63000D02*
D03*
X76500Y347500D02*
D03*
X62500Y29500D02*
D03*
X85503Y36232D02*
D03*
X98000Y24000D02*
D03*
X128500Y37000D02*
D03*
X126000Y43500D02*
D03*
X135500Y43000D02*
D03*
X131000Y66500D02*
D03*
X119125Y84039D02*
D03*
X109500Y90000D02*
D03*
X124500Y293000D02*
D03*
X103000Y292500D02*
D03*
X59000Y254000D02*
D03*
X59500Y235000D02*
D03*
X56000Y206000D02*
D03*
X114000Y157500D02*
D03*
X84000Y180500D02*
D03*
X112000Y181000D02*
D03*
X139000Y177500D02*
D03*
X150000Y188500D02*
D03*
X162000Y229000D02*
D03*
X169500Y250500D02*
D03*
X158000Y279000D02*
D03*
X150500Y286500D02*
D03*
X73000Y291000D02*
D03*
X78000Y298500D02*
D03*
X68500Y328000D02*
D03*
X69500Y334500D02*
D03*
X97500Y328000D02*
D03*
X127500Y331000D02*
D03*
X113000D02*
D03*
X120000Y315000D02*
D03*
X132000Y176500D02*
D03*
X159500Y92500D02*
D03*
X138500Y223500D02*
D03*
X132500Y292500D02*
D03*
X110000Y292000D02*
D03*
Y266500D02*
D03*
X121319Y207343D02*
D03*
X52500Y272500D02*
D03*
X80000Y251000D02*
D03*
X49000Y232500D02*
D03*
X55500Y239000D02*
D03*
X45000Y258000D02*
D03*
X102500Y303000D02*
D03*
X94552Y299334D02*
D03*
X170500Y303000D02*
D03*
Y307000D02*
D03*
X180000Y294500D02*
D03*
X179875Y316354D02*
D03*
X204500Y209500D02*
D03*
X131000Y202000D02*
D03*
X129000Y205500D02*
D03*
X125500Y208000D02*
D03*
X197500Y212000D02*
D03*
X183500Y240000D02*
D03*
X166500Y239500D02*
D03*
X160135Y238365D02*
D03*
X166625Y207115D02*
D03*
X182000Y212500D02*
D03*
X202500Y215000D02*
D03*
X194500Y224500D02*
D03*
X317500Y113500D02*
D03*
X327500Y112188D02*
D03*
X337500D02*
D03*
X259000Y63500D02*
D03*
X231000Y76500D02*
D03*
X229500Y61000D02*
D03*
X204500Y61500D02*
D03*
X258500Y79000D02*
D03*
X272500Y90500D02*
D03*
X227000Y97500D02*
D03*
X180000Y89500D02*
D03*
X247000Y104000D02*
D03*
X265500Y121000D02*
D03*
X64306Y137515D02*
D03*
X59500Y135500D02*
D03*
X66500Y141000D02*
D03*
X231000Y106000D02*
D03*
X65000Y163000D02*
D03*
X220500Y138500D02*
D03*
Y146000D02*
D03*
Y152500D02*
D03*
Y160000D02*
D03*
Y167000D02*
D03*
X204000Y187000D02*
D03*
X205000Y196000D02*
D03*
X246500Y184000D02*
D03*
X230500Y195000D02*
D03*
X247500Y203500D02*
D03*
X226000Y204000D02*
D03*
X247500Y216500D02*
D03*
X227000Y215000D02*
D03*
X220000Y218000D02*
D03*
X225000Y227000D02*
D03*
X220500Y230000D02*
D03*
X221000Y235000D02*
D03*
X250000Y227500D02*
D03*
X229500Y233500D02*
D03*
X229588Y243495D02*
D03*
X229433Y264751D02*
D03*
Y271760D02*
D03*
Y278900D02*
D03*
X221500Y273000D02*
D03*
Y280000D02*
D03*
Y287500D02*
D03*
Y294500D02*
D03*
Y301500D02*
D03*
X203500Y312000D02*
D03*
X64932Y145000D02*
D03*
X287998Y111752D02*
D03*
X288000Y170000D02*
D03*
X256000Y89000D02*
D03*
X257000Y152500D02*
D03*
X255500Y112500D02*
D03*
X165500Y51000D02*
D03*
X160000Y83500D02*
D03*
X83000Y136500D02*
D03*
X84000Y146500D02*
D03*
X48500Y169500D02*
D03*
X205500Y73000D02*
D03*
X184500Y56500D02*
D03*
X166500Y13500D02*
D03*
X160500D02*
D03*
X230500Y183000D02*
D03*
X202000Y169500D02*
D03*
X200500Y177500D02*
D03*
X224000Y194000D02*
D03*
X177000Y49500D02*
D03*
X180500Y46000D02*
D03*
X147500Y36000D02*
D03*
X148123Y29017D02*
D03*
X173000Y28500D02*
D03*
X153900Y29300D02*
D03*
X167463Y28323D02*
D03*
X156107Y36434D02*
D03*
X172638Y79000D02*
D03*
X306500Y200000D02*
D03*
X202500Y96000D02*
D03*
X223500Y94500D02*
D03*
X198000Y200000D02*
D03*
X229000Y201000D02*
D03*
X228500Y210500D02*
D03*
X227500Y220000D02*
D03*
X222270Y222174D02*
D03*
X229500Y238500D02*
D03*
X230000Y101000D02*
D03*
X35500Y130825D02*
D03*
Y125038D02*
D03*
Y119053D02*
D03*
Y113500D02*
D03*
X323500Y298500D02*
D03*
X318125Y298375D02*
D03*
X318000Y304500D02*
D03*
X62021Y157771D02*
D03*
X35500Y142500D02*
D03*
X96025Y161160D02*
D03*
X251500Y307500D02*
D03*
X276000Y167500D02*
D03*
X351500Y106000D02*
D03*
X292500Y122000D02*
D03*
Y134000D02*
D03*
X76500Y172500D02*
D03*
Y181000D02*
D03*
X178500Y161000D02*
D03*
X158500Y152000D02*
D03*
X290000Y207500D02*
D03*
X246000Y300154D02*
D03*
Y293077D02*
D03*
Y286000D02*
D03*
X259000Y277500D02*
D03*
Y273000D02*
D03*
Y260000D02*
D03*
Y248000D02*
D03*
X205500Y266000D02*
D03*
X190500Y260500D02*
D03*
X246000Y222182D02*
D03*
Y208000D02*
D03*
Y179671D02*
D03*
Y172500D02*
D03*
Y165500D02*
D03*
Y158500D02*
D03*
Y151500D02*
D03*
X205500Y244500D02*
D03*
Y180790D02*
D03*
Y173825D02*
D03*
X246000Y137202D02*
D03*
Y130000D02*
D03*
X205500Y131500D02*
D03*
Y124000D02*
D03*
X246000Y123000D02*
D03*
Y116000D02*
D03*
X205500Y117000D02*
D03*
X246000Y108800D02*
D03*
Y94500D02*
D03*
X258000Y195500D02*
D03*
Y199500D02*
D03*
X314000Y211000D02*
D03*
X271000Y180000D02*
D03*
X255500Y163500D02*
D03*
X348000Y134000D02*
D03*
X317500Y104000D02*
D03*
X306500Y81500D02*
D03*
X294500D02*
D03*
X259000Y105000D02*
D03*
X258500Y74000D02*
D03*
X259000Y55000D02*
D03*
Y49500D02*
D03*
D145*
X187000Y10500D02*
D03*
X136000Y10000D02*
D03*
X25500Y207500D02*
D03*
X13000Y308000D02*
D03*
X52000Y359500D02*
D03*
X70000Y14000D02*
D03*
X130500Y14500D02*
D03*
X105500Y17500D02*
D03*
X77000Y38500D02*
D03*
X288500Y60000D02*
D03*
X278500Y188500D02*
D03*
X281500Y86000D02*
D03*
X197500Y254000D02*
D03*
X138000Y90000D02*
D03*
X193500Y37500D02*
D03*
X177500Y59000D02*
D03*
X178000Y68500D02*
D03*
X146500Y59000D02*
D03*
X97500Y142000D02*
D03*
X103000Y37500D02*
D03*
X63500Y186500D02*
D03*
X84000Y73000D02*
D03*
X34500Y11000D02*
D03*
Y92000D02*
D03*
M02*
