M48
;Layer_Color=9474304
;FILE_FORMAT=2:5
INCH,LZ
;TYPE=PLATED
T3F00S00C0.02559
T4F00S00C0.02756
T7F00S00C0.03543
;TYPE=NON_PLATED
%
G90
G05
T03
G00X0356374Y0119163
M15
G01X0354799
M16
G00X0356374Y0138258
M15
G01X0354799
M16
G00X0091047Y0354831
M15
G01Y0353256
M16
G00X0071953Y0354831
M15
G01Y0353256
M16
T04
G00X03685Y0117982
M15
G01X0366531
M16
G00X03685Y0139439
M15
G01X0366531
M16
G00X0092228Y0366957
M15
G01Y0364988
M16
G00X0070772Y0366957
M15
G01Y0364988
M16
T07
G00X0016331Y0100457
M15
G01X0021055
M16
G00X0038772Y0100457
M15
G01X0045858
M16
G00X0038772Y0157543
M15
G01X0045858
M16
G00X0016331Y0157543
M15
G01X0021055
M16
M17
M30
