G04*
G04 #@! TF.GenerationSoftware,Altium Limited,Altium Designer,20.0.11 (256)*
G04*
G04 Layer_Color=16711935*
%FSLAX25Y25*%
%MOIN*%
G70*
G01*
G75*
%ADD13C,0.00787*%
%ADD15C,0.00394*%
%ADD148R,0.03189X0.17717*%
D13*
X213016Y26768D02*
X239000D01*
X213016Y7083D02*
Y26768D01*
Y7083D02*
X239000D01*
Y26768D01*
X213016Y340941D02*
X239000D01*
X213016D02*
Y360626D01*
X239000D01*
Y340941D02*
Y360626D01*
X209472Y340941D02*
X242543D01*
X209472Y26768D02*
Y340941D01*
Y26768D02*
X242543D01*
Y340941D01*
D15*
X74642Y200673D02*
G03*
X74642Y200673I-1969J0D01*
G01*
X372878Y221606D02*
G03*
X374058Y222827I0J1181D01*
G01*
Y171173D02*
G03*
X372878Y172394I-1180J39D01*
G01*
X88835Y340819D02*
X93165D01*
X88835Y343181D02*
X93165D01*
Y340819D02*
Y343181D01*
X88835Y340819D02*
Y343181D01*
X109350Y22138D02*
X127461D01*
X109350Y11902D02*
X127461D01*
Y22138D01*
X109350Y11902D02*
Y22138D01*
X8071Y182736D02*
Y312264D01*
X43504D01*
Y182736D02*
Y312264D01*
X8071Y182736D02*
X43504D01*
X65673Y354949D02*
X97327D01*
Y377075D01*
X65673D02*
X97327D01*
X65673Y354949D02*
Y377075D01*
X129008Y334709D02*
Y363291D01*
X109992D02*
X129008D01*
X109992Y334709D02*
Y363291D01*
Y334709D02*
X129008D01*
X141500Y363000D02*
X201500D01*
Y340480D02*
Y363000D01*
X141500Y340480D02*
Y363000D01*
Y340480D02*
X201500D01*
X144433Y97417D02*
Y99583D01*
X148567Y97417D02*
Y99583D01*
X144433D02*
X148567D01*
X144433Y97417D02*
X148567D01*
X91075Y171850D02*
Y178149D01*
X87925Y171850D02*
Y178149D01*
X91075D01*
X87925Y171850D02*
X91075D01*
X87917Y184433D02*
X90083D01*
X87917Y188567D02*
X90083D01*
X87917Y184433D02*
Y188567D01*
X90083Y184433D02*
Y188567D01*
X120531Y287516D02*
Y289484D01*
Y287516D02*
X124469D01*
Y289484D01*
X120531D02*
X124469D01*
X99032Y287016D02*
Y288984D01*
Y287016D02*
X102969D01*
Y288984D01*
X99032D02*
X102969D01*
X149516Y278031D02*
X151484D01*
Y281968D01*
X149516D02*
X151484D01*
X149516Y278031D02*
Y281968D01*
X67032Y28516D02*
X70969D01*
X67032D02*
Y30484D01*
X70969D01*
Y28516D02*
Y30484D01*
X88016Y32531D02*
Y36468D01*
X89984D01*
Y32531D02*
Y36468D01*
X88016Y32531D02*
X89984D01*
X123299Y33035D02*
Y36972D01*
X125268D01*
Y33035D02*
Y36972D01*
X123299Y33035D02*
X125268D01*
X100531Y28016D02*
X104469D01*
X100531D02*
Y29984D01*
X104469D01*
Y28016D02*
Y29984D01*
X136484Y47032D02*
Y50968D01*
X134516Y47032D02*
X136484D01*
X134516D02*
Y50968D01*
X136484D01*
X131984Y70031D02*
Y73968D01*
X130016Y70031D02*
X131984D01*
X130016D02*
Y73968D01*
X131984D01*
X117532Y44484D02*
X121468D01*
Y42516D02*
Y44484D01*
X117532Y42516D02*
X121468D01*
X117532D02*
Y44484D01*
X113516Y86532D02*
Y90469D01*
X115484D01*
Y86532D02*
Y90469D01*
X113516Y86532D02*
X115484D01*
X115457Y68898D02*
Y81102D01*
X122543Y68898D02*
Y81102D01*
X115457D02*
X122543D01*
X115457Y68898D02*
X122543D01*
X118957Y47898D02*
Y60102D01*
X126043Y47898D02*
Y60102D01*
X118957D02*
X126043D01*
X118957Y47898D02*
X126043D01*
X73945Y11882D02*
Y22118D01*
X92055Y11882D02*
Y22118D01*
X73945Y11882D02*
X92055D01*
X73945Y22118D02*
X92055D01*
X129516Y187469D02*
X131484D01*
X129516Y183531D02*
Y187469D01*
Y183531D02*
X131484D01*
Y187469D01*
X157016Y204969D02*
X158984D01*
X157016Y201031D02*
Y204969D01*
Y201031D02*
X158984D01*
Y204969D01*
X157016Y232469D02*
X158984D01*
X157016Y228532D02*
Y232469D01*
Y228532D02*
X158984D01*
Y232469D01*
X161031Y249516D02*
Y251484D01*
Y249516D02*
X164969D01*
Y251484D01*
X161031D02*
X164969D01*
X156819Y275165D02*
X159181D01*
X156819Y270835D02*
X159181D01*
Y275165D01*
X156819Y270835D02*
Y275165D01*
X76819Y294665D02*
X79181D01*
X76819Y290335D02*
X79181D01*
Y294665D01*
X76819Y290335D02*
Y294665D01*
X71031Y284516D02*
Y286484D01*
Y284516D02*
X74968D01*
Y286484D01*
X71031D02*
X74968D01*
X58016Y246031D02*
X59984D01*
Y249969D01*
X58016D02*
X59984D01*
X58016Y246031D02*
Y249969D01*
X58516Y226532D02*
X60484D01*
Y230469D01*
X58516D02*
X60484D01*
X58516Y226532D02*
Y230469D01*
X59969Y200516D02*
Y202484D01*
X56032D02*
X59969D01*
X56032Y200516D02*
Y202484D01*
Y200516D02*
X59969D01*
X112031Y184016D02*
X115969D01*
X112031D02*
Y185984D01*
X115969D01*
Y184016D02*
Y185984D01*
X121031D02*
X124969D01*
Y184016D02*
Y185984D01*
X121031Y184016D02*
X124969D01*
X121031D02*
Y185984D01*
X146563Y180539D02*
X154437D01*
Y185461D01*
X146563D02*
X154437D01*
X146563Y180539D02*
Y185461D01*
X136016Y185468D02*
X137984D01*
X136016Y181532D02*
Y185468D01*
Y181532D02*
X137984D01*
Y185468D01*
X141532Y187516D02*
Y189484D01*
Y187516D02*
X145468D01*
Y189484D01*
X141532D02*
X145468D01*
X69130Y197130D02*
X147870D01*
X69130Y275870D02*
X147870D01*
X69130Y197130D02*
Y275870D01*
X147870Y197130D02*
Y275870D01*
X45311Y331689D02*
Y355311D01*
X21689D02*
X45311D01*
X21689Y331689D02*
X45311D01*
X21689D02*
Y355311D01*
X61032Y335484D02*
X64969D01*
Y333516D02*
Y335484D01*
X61032Y333516D02*
X64969D01*
X61032D02*
Y335484D01*
X84984Y184531D02*
Y188469D01*
X83016Y184531D02*
X84984D01*
X83016D02*
Y188469D01*
X84984D01*
X102032Y186016D02*
X105968D01*
X102032D02*
Y187984D01*
X105968D01*
Y186016D02*
Y187984D01*
X87681Y160835D02*
Y165165D01*
X85319Y160835D02*
Y165165D01*
X87681D01*
X85319Y160835D02*
X87681D01*
X91335Y153681D02*
X95665D01*
X91335Y151319D02*
X95665D01*
X91335D02*
Y153681D01*
X95665Y151319D02*
Y153681D01*
X69032Y173484D02*
X72969D01*
Y171516D02*
Y173484D01*
X69032Y171516D02*
X72969D01*
X69032D02*
Y173484D01*
Y181984D02*
X72969D01*
Y180016D02*
Y181984D01*
X69032Y180016D02*
X72969D01*
X69032D02*
Y181984D01*
X258531Y99516D02*
X262469D01*
X258531D02*
Y101484D01*
X262469D01*
Y99516D02*
Y101484D01*
X256835Y187319D02*
X261165D01*
X256835Y189681D02*
X261165D01*
Y187319D02*
Y189681D01*
X256835Y187319D02*
Y189681D01*
X184575Y161350D02*
Y167649D01*
X181425Y161350D02*
Y167649D01*
X184575D01*
X181425Y161350D02*
X184575D01*
X165575Y152350D02*
Y158649D01*
X162425Y152350D02*
Y158649D01*
X165575D01*
X162425Y152350D02*
X165575D01*
X283851Y214575D02*
X290150D01*
X283851Y211425D02*
X290150D01*
X283851D02*
Y214575D01*
X290150Y211425D02*
Y214575D01*
X314193Y111957D02*
Y119043D01*
X300807Y111957D02*
Y119043D01*
Y111957D02*
X314193D01*
X300807Y119043D02*
X314193D01*
X61543Y46095D02*
X71386D01*
Y53181D01*
X61543D02*
X71386D01*
X40087Y22079D02*
Y34284D01*
X21976Y22079D02*
X40087D01*
X21976D02*
Y34284D01*
Y69717D02*
Y81921D01*
X40087D01*
Y69717D02*
Y81921D01*
X4457Y34283D02*
X61543D01*
X4457D02*
Y69717D01*
X61543D01*
Y34283D02*
Y69717D01*
X173063Y34539D02*
Y39461D01*
X180937Y34539D02*
Y39461D01*
X173063Y34539D02*
X180937D01*
X173063Y39461D02*
X180937D01*
X138039Y25063D02*
X142961D01*
X138039Y32937D02*
X142961D01*
Y25063D02*
Y32937D01*
X138039Y25063D02*
Y32937D01*
X143390Y17465D02*
X179610D01*
X141028Y535D02*
X181972D01*
X141028D02*
Y5654D01*
X143390D01*
X179610Y5654D02*
Y17465D01*
Y5654D02*
X181972D01*
Y535D02*
Y5654D01*
X143390Y5654D02*
Y17465D01*
X178819Y311165D02*
X181181D01*
X178819Y306835D02*
X181181D01*
Y311165D01*
X178819Y306835D02*
Y311165D01*
X291350Y86925D02*
Y90075D01*
X297650Y86925D02*
Y90075D01*
X291350Y86925D02*
X297650D01*
X291350Y90075D02*
X297650D01*
X319563Y293461D02*
X327437D01*
X319563Y288539D02*
X327437D01*
Y293461D01*
X319563Y288539D02*
Y293461D01*
X258850Y159425D02*
Y162575D01*
X265150Y159425D02*
Y162575D01*
X258850Y159425D02*
X265150D01*
X258850Y162575D02*
X265150D01*
X183933Y172917D02*
Y175083D01*
X188067Y172917D02*
Y175083D01*
X183933D02*
X188067D01*
X183933Y172917D02*
X188067D01*
X162917Y164433D02*
X165083D01*
X162917Y168567D02*
X165083D01*
X162917Y164433D02*
Y168567D01*
X165083Y164433D02*
Y168567D01*
X277567Y211917D02*
Y214083D01*
X273433Y211917D02*
Y214083D01*
Y211917D02*
X277567D01*
X273433Y214083D02*
X277567D01*
X344480Y252000D02*
Y312000D01*
X367000D01*
X344480Y252000D02*
X367000D01*
Y312000D01*
X286835Y118428D02*
X293528D01*
X286835Y114688D02*
X293528D01*
X286835D02*
Y118428D01*
X293528Y114688D02*
Y118428D01*
X314193Y100457D02*
Y107543D01*
X300807Y100457D02*
Y107543D01*
Y100457D02*
X314193D01*
X300807Y107543D02*
X314193D01*
X80925Y149350D02*
X84075D01*
X80925Y155650D02*
X84075D01*
Y149350D02*
Y155650D01*
X80925Y149350D02*
Y155650D01*
X69925Y157850D02*
X73075D01*
X69925Y164150D02*
X73075D01*
Y157850D02*
Y164150D01*
X69925Y157850D02*
Y164150D01*
X269819Y174665D02*
X272181D01*
X269819Y170335D02*
X272181D01*
Y174665D01*
X269819Y170335D02*
Y174665D01*
X305319Y86835D02*
X307681D01*
X305319Y91165D02*
X307681D01*
X305319Y86835D02*
Y91165D01*
X307681Y86835D02*
Y91165D01*
X356492Y112884D02*
Y144537D01*
Y112884D02*
X378618D01*
Y144537D01*
X356492D02*
X378618D01*
X271925Y157850D02*
X275075D01*
X271925Y164150D02*
X275075D01*
Y157850D02*
Y164150D01*
X271925Y157850D02*
Y164150D01*
X291259Y109554D02*
X293621D01*
X291259Y105223D02*
X293621D01*
Y109554D01*
X291259Y105223D02*
Y109554D01*
X263425Y142351D02*
Y148650D01*
X266575Y142351D02*
Y148650D01*
X263425Y142351D02*
X266575D01*
X263425Y148650D02*
X266575D01*
X255917Y142433D02*
X258083D01*
X255917Y146567D02*
X258083D01*
X255917Y142433D02*
Y146567D01*
X258083Y142433D02*
Y146567D01*
X318941Y222787D02*
X372878D01*
X318941Y171213D02*
X372878D01*
X318941D02*
Y222787D01*
X372878Y225543D02*
X374059D01*
X372878Y222787D02*
Y225543D01*
X374058Y222827D02*
X374059Y225543D01*
X374059Y174756D02*
Y219244D01*
X372878D02*
X374059D01*
X372878D02*
X372878Y221606D01*
X372878Y174756D02*
X372878Y172394D01*
X374058Y171173D02*
X374059Y168457D01*
X372878D02*
Y171213D01*
Y168457D02*
X374059D01*
X372878Y174756D02*
X374059Y174756D01*
X583Y99472D02*
Y158528D01*
X583Y158528D02*
X48417Y158528D01*
X583Y99472D02*
X48417Y99473D01*
Y99472D02*
Y158528D01*
X249016Y88968D02*
X250984D01*
X249016Y85031D02*
Y88968D01*
Y85031D02*
X250984D01*
Y88968D01*
X249374Y78016D02*
Y79984D01*
Y78016D02*
X253311D01*
Y79984D01*
X249374D02*
X253311D01*
X249374Y67516D02*
Y69484D01*
Y67516D02*
X253311D01*
Y69484D01*
X249374D02*
X253311D01*
X249374Y73016D02*
Y74984D01*
Y73016D02*
X253311D01*
Y74984D01*
X249374D02*
X253311D01*
X193968Y55516D02*
Y57484D01*
X190032D02*
X193968D01*
X190032Y55516D02*
Y57484D01*
Y55516D02*
X193968D01*
X196016Y65469D02*
X197984D01*
X196016Y61532D02*
Y65469D01*
Y61532D02*
X197984D01*
Y65469D01*
X254488Y247016D02*
Y248984D01*
X250551D02*
X254488D01*
X250551Y247016D02*
Y248984D01*
Y247016D02*
X254488D01*
X250394Y259016D02*
Y260984D01*
Y259016D02*
X254331D01*
Y260984D01*
X250394D02*
X254331D01*
X200468Y259516D02*
Y261484D01*
X196531D02*
X200468D01*
X196531Y259516D02*
Y261484D01*
Y259516D02*
X200468D01*
X249374Y48516D02*
Y50484D01*
Y48516D02*
X253311D01*
Y50484D01*
X249374D02*
X253311D01*
X253468Y59516D02*
Y61484D01*
X249532D02*
X253468D01*
X249532Y59516D02*
Y61484D01*
Y59516D02*
X253468D01*
X249374Y54016D02*
Y55984D01*
Y54016D02*
X253311D01*
Y55984D01*
X249374D02*
X253311D01*
X159650Y96925D02*
Y100075D01*
X153351Y96925D02*
Y100075D01*
Y96925D02*
X159650D01*
X153351Y100075D02*
X159650D01*
X249835Y198319D02*
Y200681D01*
X254165Y198319D02*
Y200681D01*
X249835D02*
X254165D01*
X249835Y198319D02*
X254165D01*
X249835Y194319D02*
Y196681D01*
X254165Y194319D02*
Y196681D01*
X249835D02*
X254165D01*
X249835Y194319D02*
X254165D01*
X250335Y276319D02*
Y278681D01*
X254665Y276319D02*
Y278681D01*
X250335D02*
X254665D01*
X250335Y276319D02*
X254665D01*
X250335Y271819D02*
Y274181D01*
X254665Y271819D02*
Y274181D01*
X250335D02*
X254665D01*
X250335Y271819D02*
X254665D01*
X178819Y298835D02*
X181181D01*
X178819Y303165D02*
X181181D01*
X178819Y298835D02*
Y303165D01*
X181181Y298835D02*
Y303165D01*
X86209Y43799D02*
Y56201D01*
Y43799D02*
X99791D01*
Y56201D01*
X86209D02*
X99791D01*
D148*
X41909Y247500D02*
D03*
M02*
