G04*
G04 #@! TF.GenerationSoftware,Altium Limited,Altium Designer,20.0.11 (256)*
G04*
G04 Layer_Physical_Order=3*
G04 Layer_Color=16440176*
%FSLAX25Y25*%
%MOIN*%
G70*
G01*
G75*
%ADD68C,0.06181*%
%ADD123C,0.02500*%
%ADD125C,0.05000*%
%ADD144C,0.02000*%
%ADD145C,0.04000*%
%ADD146C,0.08000*%
%ADD147C,0.04000*%
G36*
X261500Y277746D02*
X261000Y277697D01*
X260884Y278280D01*
X260442Y278942D01*
X259780Y279384D01*
X259000Y279539D01*
X258220Y279384D01*
X257558Y278942D01*
X257116Y278280D01*
X256961Y277500D01*
X257116Y276720D01*
X257558Y276058D01*
X258220Y275616D01*
X258778Y275505D01*
Y274995D01*
X258220Y274884D01*
X257558Y274442D01*
X257116Y273780D01*
X256961Y273000D01*
X257116Y272220D01*
X257558Y271558D01*
X258220Y271116D01*
X259000Y270961D01*
X259780Y271116D01*
X260442Y271558D01*
X260884Y272220D01*
X261000Y272803D01*
X261500Y272754D01*
Y260246D01*
X261000Y260197D01*
X260983Y260281D01*
X260884Y260780D01*
X260442Y261442D01*
X259780Y261884D01*
X259000Y262039D01*
X258220Y261884D01*
X257558Y261442D01*
X257116Y260780D01*
X256961Y260000D01*
X257116Y259220D01*
X257558Y258558D01*
X258220Y258116D01*
X259000Y257961D01*
X259780Y258116D01*
X260442Y258558D01*
X260884Y259220D01*
X260983Y259719D01*
X261000Y259803D01*
X261500Y259754D01*
Y248246D01*
X261000Y248197D01*
X260983Y248281D01*
X260884Y248780D01*
X260442Y249442D01*
X259780Y249884D01*
X259000Y250039D01*
X258220Y249884D01*
X257558Y249442D01*
X257116Y248780D01*
X256961Y248000D01*
X257116Y247220D01*
X257558Y246558D01*
X258220Y246116D01*
X259000Y245961D01*
X259780Y246116D01*
X260442Y246558D01*
X260884Y247220D01*
X260983Y247719D01*
X261000Y247803D01*
X261500Y247754D01*
X261500Y105246D01*
X261015Y105199D01*
X260998Y105205D01*
X260884Y105780D01*
X260442Y106442D01*
X259780Y106884D01*
X259000Y107039D01*
X258220Y106884D01*
X257558Y106442D01*
X257116Y105780D01*
X256961Y105000D01*
X257116Y104220D01*
X257558Y103558D01*
X258220Y103116D01*
X258795Y103002D01*
X258987Y102487D01*
X236000Y79500D01*
X222007D01*
X221855Y80000D01*
X221942Y80058D01*
X222384Y80720D01*
X222539Y81500D01*
X222384Y82280D01*
X221942Y82942D01*
X221280Y83384D01*
X220500Y83539D01*
X219720Y83384D01*
X219058Y82942D01*
X218616Y82280D01*
X218461Y81500D01*
X218616Y80720D01*
X219058Y80058D01*
X219145Y80000D01*
X218993Y79500D01*
X174577D01*
X174522Y79780D01*
X174080Y80442D01*
X173418Y80884D01*
X172638Y81039D01*
X171857Y80884D01*
X171196Y80442D01*
X170754Y79780D01*
X170698Y79500D01*
X128000D01*
X113500Y94000D01*
X104500Y103000D01*
X104500Y176000D01*
X64000Y212000D01*
Y308500D01*
X75500Y320000D01*
X261500D01*
Y277746D01*
D02*
G37*
%LPC*%
G36*
X180375Y317223D02*
Y316854D01*
X180744D01*
X180596Y317075D01*
X180375Y317223D01*
D02*
G37*
G36*
X179375D02*
X179154Y317075D01*
X179006Y316854D01*
X179375D01*
Y317223D01*
D02*
G37*
G36*
X120500Y315869D02*
Y315500D01*
X120869D01*
X120721Y315721D01*
X120500Y315869D01*
D02*
G37*
G36*
X119500D02*
X119279Y315721D01*
X119131Y315500D01*
X119500D01*
Y315869D01*
D02*
G37*
G36*
X180744Y315854D02*
X180375D01*
Y315486D01*
X180596Y315633D01*
X180744Y315854D01*
D02*
G37*
G36*
X179375D02*
X179006D01*
X179154Y315633D01*
X179375Y315486D01*
Y315854D01*
D02*
G37*
G36*
X120869Y314500D02*
X120500D01*
Y314131D01*
X120721Y314279D01*
X120869Y314500D01*
D02*
G37*
G36*
X119500D02*
X119131D01*
X119279Y314279D01*
X119500Y314131D01*
Y314500D01*
D02*
G37*
G36*
X203500Y314039D02*
X202720Y313884D01*
X202058Y313442D01*
X201616Y312780D01*
X201461Y312000D01*
X201616Y311220D01*
X202058Y310558D01*
X202720Y310116D01*
X203500Y309961D01*
X204280Y310116D01*
X204942Y310558D01*
X205384Y311220D01*
X205539Y312000D01*
X205384Y312780D01*
X204942Y313442D01*
X204280Y313884D01*
X203500Y314039D01*
D02*
G37*
G36*
X93000Y316126D02*
X91932Y315985D01*
X90937Y315573D01*
X90083Y314917D01*
X89427Y314063D01*
X89015Y313068D01*
X88874Y312000D01*
X89015Y310932D01*
X89427Y309937D01*
X90083Y309083D01*
X90937Y308427D01*
X91932Y308015D01*
X93000Y307874D01*
X94068Y308015D01*
X95063Y308427D01*
X95917Y309083D01*
X96573Y309937D01*
X96985Y310932D01*
X97126Y312000D01*
X96985Y313068D01*
X96573Y314063D01*
X95917Y314917D01*
X95063Y315573D01*
X94068Y315985D01*
X93000Y316126D01*
D02*
G37*
G36*
X251500Y309539D02*
X250720Y309384D01*
X250058Y308942D01*
X249616Y308280D01*
X249461Y307500D01*
X249616Y306720D01*
X250058Y306058D01*
X250720Y305616D01*
X251500Y305461D01*
X252280Y305616D01*
X252942Y306058D01*
X253384Y306720D01*
X253539Y307500D01*
X253384Y308280D01*
X252942Y308942D01*
X252280Y309384D01*
X251500Y309539D01*
D02*
G37*
G36*
X170500Y309039D02*
X169720Y308884D01*
X169058Y308442D01*
X168616Y307780D01*
X168461Y307000D01*
X168616Y306220D01*
X169058Y305558D01*
X169444Y305300D01*
Y304700D01*
X169058Y304442D01*
X168616Y303780D01*
X168461Y303000D01*
X168616Y302220D01*
X169058Y301558D01*
X169720Y301116D01*
X170500Y300961D01*
X171280Y301116D01*
X171942Y301558D01*
X172384Y302220D01*
X172539Y303000D01*
X172384Y303780D01*
X171942Y304442D01*
X171556Y304700D01*
Y305300D01*
X171942Y305558D01*
X172384Y306220D01*
X172539Y307000D01*
X172384Y307780D01*
X171942Y308442D01*
X171280Y308884D01*
X170500Y309039D01*
D02*
G37*
G36*
X102500Y305039D02*
X101720Y304884D01*
X101058Y304442D01*
X100616Y303780D01*
X100461Y303000D01*
X100616Y302220D01*
X101058Y301558D01*
X101720Y301116D01*
X102500Y300961D01*
X103280Y301116D01*
X103942Y301558D01*
X104384Y302220D01*
X104539Y303000D01*
X104384Y303780D01*
X103942Y304442D01*
X103280Y304884D01*
X102500Y305039D01*
D02*
G37*
G36*
X221500Y303539D02*
X220720Y303384D01*
X220058Y302942D01*
X219616Y302280D01*
X219461Y301500D01*
X219616Y300720D01*
X220058Y300058D01*
X220720Y299616D01*
X221500Y299461D01*
X222280Y299616D01*
X222942Y300058D01*
X223384Y300720D01*
X223539Y301500D01*
X223384Y302280D01*
X222942Y302942D01*
X222280Y303384D01*
X221500Y303539D01*
D02*
G37*
G36*
X246000Y302193D02*
X245220Y302038D01*
X244558Y301596D01*
X244116Y300935D01*
X243961Y300154D01*
X244116Y299374D01*
X244558Y298712D01*
X245220Y298270D01*
X246000Y298115D01*
X246780Y298270D01*
X247442Y298712D01*
X247884Y299374D01*
X248039Y300154D01*
X247884Y300935D01*
X247442Y301596D01*
X246780Y302038D01*
X246000Y302193D01*
D02*
G37*
G36*
X94552Y301374D02*
X93772Y301218D01*
X93110Y300776D01*
X92668Y300115D01*
X92513Y299334D01*
X92668Y298554D01*
X93110Y297892D01*
X93772Y297450D01*
X94552Y297295D01*
X95333Y297450D01*
X95994Y297892D01*
X96436Y298554D01*
X96591Y299334D01*
X96436Y300115D01*
X95994Y300776D01*
X95333Y301218D01*
X94552Y301374D01*
D02*
G37*
G36*
X78000Y300539D02*
X77220Y300384D01*
X76558Y299942D01*
X76116Y299280D01*
X75961Y298500D01*
X76116Y297720D01*
X76558Y297058D01*
X77220Y296616D01*
X78000Y296461D01*
X78780Y296616D01*
X79442Y297058D01*
X79884Y297720D01*
X80039Y298500D01*
X79884Y299280D01*
X79442Y299942D01*
X78780Y300384D01*
X78000Y300539D01*
D02*
G37*
G36*
X180500Y295369D02*
Y295000D01*
X180869D01*
X180721Y295221D01*
X180500Y295369D01*
D02*
G37*
G36*
X179500D02*
X179279Y295221D01*
X179131Y295000D01*
X179500D01*
Y295369D01*
D02*
G37*
G36*
X180869Y294000D02*
X180500D01*
Y293631D01*
X180721Y293779D01*
X180869Y294000D01*
D02*
G37*
G36*
X179500D02*
X179131D01*
X179279Y293779D01*
X179500Y293631D01*
Y294000D01*
D02*
G37*
G36*
X221500Y296539D02*
X220720Y296384D01*
X220058Y295942D01*
X219616Y295280D01*
X219461Y294500D01*
X219616Y293720D01*
X220058Y293058D01*
X220720Y292616D01*
X221500Y292461D01*
X222280Y292616D01*
X222942Y293058D01*
X223384Y293720D01*
X223539Y294500D01*
X223384Y295280D01*
X222942Y295942D01*
X222280Y296384D01*
X221500Y296539D01*
D02*
G37*
G36*
X246000Y295116D02*
X245220Y294961D01*
X244558Y294519D01*
X244116Y293858D01*
X243961Y293077D01*
X244116Y292297D01*
X244558Y291635D01*
X245220Y291193D01*
X246000Y291038D01*
X246780Y291193D01*
X247442Y291635D01*
X247884Y292297D01*
X248039Y293077D01*
X247884Y293858D01*
X247442Y294519D01*
X246780Y294961D01*
X246000Y295116D01*
D02*
G37*
G36*
X124500Y295039D02*
X123720Y294884D01*
X123058Y294442D01*
X122616Y293780D01*
X122461Y293000D01*
X122616Y292220D01*
X123058Y291558D01*
X123720Y291116D01*
X124500Y290961D01*
X125280Y291116D01*
X125942Y291558D01*
X126384Y292220D01*
X126539Y293000D01*
X126384Y293780D01*
X125942Y294442D01*
X125280Y294884D01*
X124500Y295039D01*
D02*
G37*
G36*
X132500Y294539D02*
X131720Y294384D01*
X131058Y293942D01*
X130616Y293280D01*
X130461Y292500D01*
X130616Y291720D01*
X131058Y291058D01*
X131720Y290616D01*
X132500Y290461D01*
X133280Y290616D01*
X133942Y291058D01*
X134384Y291720D01*
X134539Y292500D01*
X134384Y293280D01*
X133942Y293942D01*
X133280Y294384D01*
X132500Y294539D01*
D02*
G37*
G36*
X103000D02*
X102220Y294384D01*
X101558Y293942D01*
X101116Y293280D01*
X100961Y292500D01*
X101116Y291720D01*
X101558Y291058D01*
X102220Y290616D01*
X103000Y290461D01*
X103780Y290616D01*
X104442Y291058D01*
X104884Y291720D01*
X105039Y292500D01*
X104884Y293280D01*
X104442Y293942D01*
X103780Y294384D01*
X103000Y294539D01*
D02*
G37*
G36*
X110000Y294039D02*
X109220Y293884D01*
X108558Y293442D01*
X108116Y292780D01*
X107961Y292000D01*
X108116Y291220D01*
X108558Y290558D01*
X109220Y290116D01*
X110000Y289961D01*
X110780Y290116D01*
X111442Y290558D01*
X111884Y291220D01*
X112039Y292000D01*
X111884Y292780D01*
X111442Y293442D01*
X110780Y293884D01*
X110000Y294039D01*
D02*
G37*
G36*
X117500Y289369D02*
Y289000D01*
X117869D01*
X117721Y289221D01*
X117500Y289369D01*
D02*
G37*
G36*
X116500D02*
X116279Y289221D01*
X116131Y289000D01*
X116500D01*
Y289369D01*
D02*
G37*
G36*
X73000Y293039D02*
X72220Y292884D01*
X71558Y292442D01*
X71116Y291780D01*
X70961Y291000D01*
X71116Y290220D01*
X71558Y289558D01*
X72220Y289116D01*
X73000Y288961D01*
X73780Y289116D01*
X74442Y289558D01*
X74884Y290220D01*
X75039Y291000D01*
X74884Y291780D01*
X74442Y292442D01*
X73780Y292884D01*
X73000Y293039D01*
D02*
G37*
G36*
X96000Y288869D02*
Y288500D01*
X96369D01*
X96221Y288721D01*
X96000Y288869D01*
D02*
G37*
G36*
X95000D02*
X94779Y288721D01*
X94631Y288500D01*
X95000D01*
Y288869D01*
D02*
G37*
G36*
X117869Y288000D02*
X117500D01*
Y287631D01*
X117721Y287779D01*
X117869Y288000D01*
D02*
G37*
G36*
X116500D02*
X116131D01*
X116279Y287779D01*
X116500Y287631D01*
Y288000D01*
D02*
G37*
G36*
X96369Y287500D02*
X96000D01*
Y287131D01*
X96221Y287279D01*
X96369Y287500D01*
D02*
G37*
G36*
X95000D02*
X94631D01*
X94779Y287279D01*
X95000Y287131D01*
Y287500D01*
D02*
G37*
G36*
X67000Y286369D02*
Y286000D01*
X67369D01*
X67221Y286221D01*
X67000Y286369D01*
D02*
G37*
G36*
X66000D02*
X65779Y286221D01*
X65631Y286000D01*
X66000D01*
Y286369D01*
D02*
G37*
G36*
X221500Y289539D02*
X220720Y289384D01*
X220058Y288942D01*
X219616Y288280D01*
X219461Y287500D01*
X219616Y286720D01*
X220058Y286058D01*
X220720Y285616D01*
X221500Y285461D01*
X222280Y285616D01*
X222942Y286058D01*
X223384Y286720D01*
X223539Y287500D01*
X223384Y288280D01*
X222942Y288942D01*
X222280Y289384D01*
X221500Y289539D01*
D02*
G37*
G36*
X67369Y285000D02*
X67000D01*
Y284631D01*
X67221Y284779D01*
X67369Y285000D01*
D02*
G37*
G36*
X66000D02*
X65631D01*
X65779Y284779D01*
X66000Y284631D01*
Y285000D01*
D02*
G37*
G36*
X156000Y284869D02*
Y284500D01*
X156369D01*
X156221Y284721D01*
X156000Y284869D01*
D02*
G37*
G36*
X155000D02*
X154779Y284721D01*
X154631Y284500D01*
X155000D01*
Y284869D01*
D02*
G37*
G36*
X150500Y288539D02*
X149720Y288384D01*
X149058Y287942D01*
X148616Y287280D01*
X148461Y286500D01*
X148616Y285720D01*
X149058Y285058D01*
X149720Y284616D01*
X150500Y284461D01*
X151280Y284616D01*
X151942Y285058D01*
X152384Y285720D01*
X152539Y286500D01*
X152384Y287280D01*
X151942Y287942D01*
X151280Y288384D01*
X150500Y288539D01*
D02*
G37*
G36*
X246000Y288039D02*
X245220Y287884D01*
X244558Y287442D01*
X244116Y286780D01*
X243961Y286000D01*
X244116Y285220D01*
X244558Y284558D01*
X245220Y284116D01*
X246000Y283961D01*
X246780Y284116D01*
X247442Y284558D01*
X247884Y285220D01*
X248039Y286000D01*
X247884Y286780D01*
X247442Y287442D01*
X246780Y287884D01*
X246000Y288039D01*
D02*
G37*
G36*
X156369Y283500D02*
X156000D01*
Y283131D01*
X156221Y283279D01*
X156369Y283500D01*
D02*
G37*
G36*
X155000D02*
X154631D01*
X154779Y283279D01*
X155000Y283131D01*
Y283500D01*
D02*
G37*
G36*
X221500Y282039D02*
X220720Y281884D01*
X220058Y281442D01*
X219616Y280780D01*
X219461Y280000D01*
X219616Y279220D01*
X220058Y278558D01*
X220720Y278116D01*
X221500Y277961D01*
X222280Y278116D01*
X222942Y278558D01*
X223384Y279220D01*
X223539Y280000D01*
X223384Y280780D01*
X222942Y281442D01*
X222280Y281884D01*
X221500Y282039D01*
D02*
G37*
G36*
X158000Y281039D02*
X157220Y280884D01*
X156558Y280442D01*
X156116Y279780D01*
X155961Y279000D01*
X156116Y278220D01*
X156558Y277558D01*
X157220Y277116D01*
X158000Y276961D01*
X158780Y277116D01*
X159442Y277558D01*
X159884Y278220D01*
X160039Y279000D01*
X159884Y279780D01*
X159442Y280442D01*
X158780Y280884D01*
X158000Y281039D01*
D02*
G37*
G36*
X229433Y280939D02*
X228653Y280784D01*
X227992Y280342D01*
X227549Y279680D01*
X227394Y278900D01*
X227549Y278120D01*
X227992Y277458D01*
X228653Y277016D01*
X229433Y276861D01*
X230214Y277016D01*
X230875Y277458D01*
X231317Y278120D01*
X231473Y278900D01*
X231317Y279680D01*
X230875Y280342D01*
X230214Y280784D01*
X229433Y280939D01*
D02*
G37*
G36*
X221500Y275039D02*
X220720Y274884D01*
X220058Y274442D01*
X219616Y273780D01*
X219461Y273000D01*
X219616Y272220D01*
X220058Y271558D01*
X220720Y271116D01*
X221500Y270961D01*
X222280Y271116D01*
X222942Y271558D01*
X223384Y272220D01*
X223539Y273000D01*
X223384Y273780D01*
X222942Y274442D01*
X222280Y274884D01*
X221500Y275039D01*
D02*
G37*
G36*
X229433Y273799D02*
X228653Y273644D01*
X227992Y273202D01*
X227549Y272540D01*
X227394Y271760D01*
X227549Y270979D01*
X227992Y270318D01*
X228653Y269876D01*
X229433Y269721D01*
X230214Y269876D01*
X230875Y270318D01*
X231317Y270979D01*
X231473Y271760D01*
X231317Y272540D01*
X230875Y273202D01*
X230214Y273644D01*
X229433Y273799D01*
D02*
G37*
G36*
X110000Y268539D02*
X109220Y268384D01*
X108558Y267942D01*
X108116Y267280D01*
X107961Y266500D01*
X108116Y265720D01*
X108558Y265058D01*
X109220Y264616D01*
X110000Y264461D01*
X110780Y264616D01*
X111442Y265058D01*
X111884Y265720D01*
X112039Y266500D01*
X111884Y267280D01*
X111442Y267942D01*
X110780Y268384D01*
X110000Y268539D01*
D02*
G37*
G36*
X205500Y268039D02*
X204720Y267884D01*
X204058Y267442D01*
X203616Y266780D01*
X203461Y266000D01*
X203616Y265220D01*
X204058Y264558D01*
X204720Y264116D01*
X205500Y263961D01*
X206280Y264116D01*
X206942Y264558D01*
X207384Y265220D01*
X207539Y266000D01*
X207384Y266780D01*
X206942Y267442D01*
X206280Y267884D01*
X205500Y268039D01*
D02*
G37*
G36*
X229433Y266790D02*
X228653Y266635D01*
X227992Y266193D01*
X227549Y265531D01*
X227394Y264751D01*
X227549Y263971D01*
X227992Y263309D01*
X228653Y262867D01*
X229433Y262712D01*
X230214Y262867D01*
X230875Y263309D01*
X231317Y263971D01*
X231473Y264751D01*
X231317Y265531D01*
X230875Y266193D01*
X230214Y266635D01*
X229433Y266790D01*
D02*
G37*
G36*
X190500Y262539D02*
X189720Y262384D01*
X189058Y261942D01*
X188616Y261280D01*
X188461Y260500D01*
X188616Y259720D01*
X189058Y259058D01*
X189720Y258616D01*
X190500Y258461D01*
X191280Y258616D01*
X191942Y259058D01*
X192384Y259720D01*
X192539Y260500D01*
X192384Y261280D01*
X191942Y261942D01*
X191280Y262384D01*
X190500Y262539D01*
D02*
G37*
G36*
X198000Y255940D02*
Y254500D01*
X199440D01*
X199384Y254780D01*
X198942Y255442D01*
X198280Y255884D01*
X198000Y255940D01*
D02*
G37*
G36*
X197000D02*
X196720Y255884D01*
X196058Y255442D01*
X195616Y254780D01*
X195560Y254500D01*
X197000D01*
Y255940D01*
D02*
G37*
G36*
X199440Y253500D02*
X198000D01*
Y252060D01*
X198280Y252116D01*
X198942Y252558D01*
X199384Y253220D01*
X199440Y253500D01*
D02*
G37*
G36*
X197000D02*
X195560D01*
X195616Y253220D01*
X196058Y252558D01*
X196720Y252116D01*
X197000Y252060D01*
Y253500D01*
D02*
G37*
G36*
X143000Y251869D02*
Y251500D01*
X143369D01*
X143221Y251721D01*
X143000Y251869D01*
D02*
G37*
G36*
X142000D02*
X141779Y251721D01*
X141631Y251500D01*
X142000D01*
Y251869D01*
D02*
G37*
G36*
X143369Y250500D02*
X143000D01*
Y250131D01*
X143221Y250279D01*
X143369Y250500D01*
D02*
G37*
G36*
X142000D02*
X141631D01*
X141779Y250279D01*
X142000Y250131D01*
Y250500D01*
D02*
G37*
G36*
X80000Y253039D02*
X79220Y252884D01*
X78558Y252442D01*
X78116Y251780D01*
X77961Y251000D01*
X78116Y250220D01*
X78558Y249558D01*
X79220Y249116D01*
X80000Y248961D01*
X80780Y249116D01*
X81442Y249558D01*
X81884Y250220D01*
X82039Y251000D01*
X81884Y251780D01*
X81442Y252442D01*
X80780Y252884D01*
X80000Y253039D01*
D02*
G37*
G36*
X169500Y252539D02*
X168720Y252384D01*
X168058Y251942D01*
X167616Y251280D01*
X167461Y250500D01*
X167616Y249720D01*
X168058Y249058D01*
X168720Y248616D01*
X169500Y248461D01*
X170280Y248616D01*
X170942Y249058D01*
X171384Y249720D01*
X171539Y250500D01*
X171384Y251280D01*
X170942Y251942D01*
X170280Y252384D01*
X169500Y252539D01*
D02*
G37*
G36*
X75000Y248369D02*
Y248000D01*
X75369D01*
X75221Y248221D01*
X75000Y248369D01*
D02*
G37*
G36*
X74000D02*
X73779Y248221D01*
X73631Y248000D01*
X74000D01*
Y248369D01*
D02*
G37*
G36*
X75369Y247000D02*
X75000D01*
Y246631D01*
X75221Y246779D01*
X75369Y247000D01*
D02*
G37*
G36*
X74000D02*
X73631D01*
X73779Y246779D01*
X74000Y246631D01*
Y247000D01*
D02*
G37*
G36*
X205500Y246539D02*
X204720Y246384D01*
X204058Y245942D01*
X203616Y245280D01*
X203461Y244500D01*
X203616Y243720D01*
X204058Y243058D01*
X204720Y242616D01*
X205500Y242461D01*
X206280Y242616D01*
X206942Y243058D01*
X207384Y243720D01*
X207539Y244500D01*
X207384Y245280D01*
X206942Y245942D01*
X206280Y246384D01*
X205500Y246539D01*
D02*
G37*
G36*
X229588Y245535D02*
X228808Y245379D01*
X228146Y244937D01*
X227704Y244276D01*
X227549Y243495D01*
X227704Y242715D01*
X228146Y242054D01*
X228808Y241612D01*
X229588Y241456D01*
X230368Y241612D01*
X231030Y242054D01*
X231472Y242715D01*
X231627Y243495D01*
X231472Y244276D01*
X231030Y244937D01*
X230368Y245379D01*
X229588Y245535D01*
D02*
G37*
G36*
X183500Y242039D02*
X182720Y241884D01*
X182058Y241442D01*
X181616Y240780D01*
X181461Y240000D01*
X181616Y239220D01*
X182058Y238558D01*
X182720Y238116D01*
X183500Y237961D01*
X184280Y238116D01*
X184942Y238558D01*
X185384Y239220D01*
X185539Y240000D01*
X185384Y240780D01*
X184942Y241442D01*
X184280Y241884D01*
X183500Y242039D01*
D02*
G37*
G36*
X166500Y241539D02*
X165720Y241384D01*
X165058Y240942D01*
X164616Y240280D01*
X164461Y239500D01*
X164616Y238720D01*
X165058Y238058D01*
X165720Y237616D01*
X166500Y237461D01*
X167280Y237616D01*
X167942Y238058D01*
X168384Y238720D01*
X168539Y239500D01*
X168384Y240280D01*
X167942Y240942D01*
X167280Y241384D01*
X166500Y241539D01*
D02*
G37*
G36*
X229500Y240539D02*
X228720Y240384D01*
X228058Y239942D01*
X227616Y239280D01*
X227461Y238500D01*
X227616Y237720D01*
X228058Y237058D01*
X228720Y236616D01*
X229500Y236461D01*
X230280Y236616D01*
X230942Y237058D01*
X231384Y237720D01*
X231539Y238500D01*
X231384Y239280D01*
X230942Y239942D01*
X230280Y240384D01*
X229500Y240539D01*
D02*
G37*
G36*
X160135Y240404D02*
X159355Y240249D01*
X158693Y239807D01*
X158251Y239145D01*
X158096Y238365D01*
X158251Y237584D01*
X158693Y236923D01*
X159355Y236481D01*
X160135Y236326D01*
X160916Y236481D01*
X161577Y236923D01*
X162019Y237584D01*
X162174Y238365D01*
X162019Y239145D01*
X161577Y239807D01*
X160916Y240249D01*
X160135Y240404D01*
D02*
G37*
G36*
X165000Y233369D02*
Y233000D01*
X165369D01*
X165221Y233221D01*
X165000Y233369D01*
D02*
G37*
G36*
X164000D02*
X163779Y233221D01*
X163631Y233000D01*
X164000D01*
Y233369D01*
D02*
G37*
G36*
X221000Y237039D02*
X220220Y236884D01*
X219558Y236442D01*
X219116Y235780D01*
X218961Y235000D01*
X219116Y234220D01*
X219558Y233558D01*
X220220Y233116D01*
X221000Y232961D01*
X221780Y233116D01*
X222442Y233558D01*
X222884Y234220D01*
X223039Y235000D01*
X222884Y235780D01*
X222442Y236442D01*
X221780Y236884D01*
X221000Y237039D01*
D02*
G37*
G36*
X165369Y232000D02*
X165000D01*
Y231631D01*
X165221Y231779D01*
X165369Y232000D01*
D02*
G37*
G36*
X164000D02*
X163631D01*
X163779Y231779D01*
X164000Y231631D01*
Y232000D01*
D02*
G37*
G36*
X229500Y235539D02*
X228720Y235384D01*
X228058Y234942D01*
X227616Y234280D01*
X227461Y233500D01*
X227616Y232720D01*
X228058Y232058D01*
X228720Y231616D01*
X229500Y231461D01*
X230280Y231616D01*
X230942Y232058D01*
X231384Y232720D01*
X231539Y233500D01*
X231384Y234280D01*
X230942Y234942D01*
X230280Y235384D01*
X229500Y235539D01*
D02*
G37*
G36*
X75000Y228369D02*
Y228000D01*
X75369D01*
X75221Y228221D01*
X75000Y228369D01*
D02*
G37*
G36*
X74000D02*
X73779Y228221D01*
X73631Y228000D01*
X74000D01*
Y228369D01*
D02*
G37*
G36*
X220500Y232039D02*
X219720Y231884D01*
X219058Y231442D01*
X218616Y230780D01*
X218461Y230000D01*
X218616Y229220D01*
X219058Y228558D01*
X219720Y228116D01*
X220500Y227961D01*
X221280Y228116D01*
X221942Y228558D01*
X222384Y229220D01*
X222539Y230000D01*
X222384Y230780D01*
X221942Y231442D01*
X221280Y231884D01*
X220500Y232039D01*
D02*
G37*
G36*
X162000Y231039D02*
X161220Y230884D01*
X160558Y230442D01*
X160116Y229780D01*
X159961Y229000D01*
X160116Y228220D01*
X160558Y227558D01*
X161220Y227116D01*
X162000Y226961D01*
X162780Y227116D01*
X163442Y227558D01*
X163884Y228220D01*
X164039Y229000D01*
X163884Y229780D01*
X163442Y230442D01*
X162780Y230884D01*
X162000Y231039D01*
D02*
G37*
G36*
X75369Y227000D02*
X75000D01*
Y226631D01*
X75221Y226779D01*
X75369Y227000D01*
D02*
G37*
G36*
X74000D02*
X73631D01*
X73779Y226779D01*
X74000Y226631D01*
Y227000D01*
D02*
G37*
G36*
X250000Y229539D02*
X249220Y229384D01*
X248558Y228942D01*
X248116Y228280D01*
X247961Y227500D01*
X248116Y226720D01*
X248558Y226058D01*
X249220Y225616D01*
X250000Y225461D01*
X250780Y225616D01*
X251442Y226058D01*
X251884Y226720D01*
X252039Y227500D01*
X251884Y228280D01*
X251442Y228942D01*
X250780Y229384D01*
X250000Y229539D01*
D02*
G37*
G36*
X225000Y229039D02*
X224220Y228884D01*
X223558Y228442D01*
X223116Y227780D01*
X222961Y227000D01*
X223116Y226220D01*
X223558Y225558D01*
X224220Y225116D01*
X225000Y224961D01*
X225780Y225116D01*
X226442Y225558D01*
X226884Y226220D01*
X227039Y227000D01*
X226884Y227780D01*
X226442Y228442D01*
X225780Y228884D01*
X225000Y229039D01*
D02*
G37*
G36*
X194500Y226539D02*
X193720Y226384D01*
X193058Y225942D01*
X192616Y225280D01*
X192461Y224500D01*
X192616Y223720D01*
X193058Y223058D01*
X193720Y222616D01*
X194500Y222461D01*
X195280Y222616D01*
X195942Y223058D01*
X196384Y223720D01*
X196539Y224500D01*
X196384Y225280D01*
X195942Y225942D01*
X195280Y226384D01*
X194500Y226539D01*
D02*
G37*
G36*
X138500Y225539D02*
X137720Y225384D01*
X137058Y224942D01*
X136616Y224280D01*
X136461Y223500D01*
X136616Y222720D01*
X137058Y222058D01*
X137720Y221616D01*
X138500Y221461D01*
X139280Y221616D01*
X139942Y222058D01*
X140384Y222720D01*
X140539Y223500D01*
X140384Y224280D01*
X139942Y224942D01*
X139280Y225384D01*
X138500Y225539D01*
D02*
G37*
G36*
X246000Y224221D02*
X245220Y224066D01*
X244558Y223624D01*
X244116Y222962D01*
X243961Y222182D01*
X244116Y221402D01*
X244558Y220740D01*
X245220Y220298D01*
X246000Y220143D01*
X246780Y220298D01*
X247442Y220740D01*
X247884Y221402D01*
X248039Y222182D01*
X247884Y222962D01*
X247442Y223624D01*
X246780Y224066D01*
X246000Y224221D01*
D02*
G37*
G36*
X222270Y224213D02*
X221489Y224058D01*
X220828Y223616D01*
X220386Y222954D01*
X220231Y222174D01*
X220386Y221393D01*
X220828Y220732D01*
X221489Y220290D01*
X222270Y220134D01*
X223050Y220290D01*
X223712Y220732D01*
X224154Y221393D01*
X224309Y222174D01*
X224154Y222954D01*
X223712Y223616D01*
X223050Y224058D01*
X222270Y224213D01*
D02*
G37*
G36*
X227500Y222039D02*
X226720Y221884D01*
X226058Y221442D01*
X225616Y220780D01*
X225461Y220000D01*
X225616Y219220D01*
X226058Y218558D01*
X226720Y218116D01*
X227500Y217961D01*
X228280Y218116D01*
X228942Y218558D01*
X229384Y219220D01*
X229539Y220000D01*
X229384Y220780D01*
X228942Y221442D01*
X228280Y221884D01*
X227500Y222039D01*
D02*
G37*
G36*
X220000Y220039D02*
X219220Y219884D01*
X218558Y219442D01*
X218116Y218780D01*
X217961Y218000D01*
X218116Y217220D01*
X218558Y216558D01*
X219220Y216116D01*
X220000Y215961D01*
X220780Y216116D01*
X221442Y216558D01*
X221884Y217220D01*
X222039Y218000D01*
X221884Y218780D01*
X221442Y219442D01*
X220780Y219884D01*
X220000Y220039D01*
D02*
G37*
G36*
X247500Y218539D02*
X246720Y218384D01*
X246058Y217942D01*
X245616Y217280D01*
X245461Y216500D01*
X245616Y215720D01*
X246058Y215058D01*
X246720Y214616D01*
X247500Y214461D01*
X248280Y214616D01*
X248942Y215058D01*
X249384Y215720D01*
X249539Y216500D01*
X249384Y217280D01*
X248942Y217942D01*
X248280Y218384D01*
X247500Y218539D01*
D02*
G37*
G36*
X143000Y214369D02*
Y214000D01*
X143369D01*
X143221Y214221D01*
X143000Y214369D01*
D02*
G37*
G36*
X142000D02*
X141779Y214221D01*
X141631Y214000D01*
X142000D01*
Y214369D01*
D02*
G37*
G36*
X227000Y217039D02*
X226220Y216884D01*
X225558Y216442D01*
X225116Y215780D01*
X224961Y215000D01*
X225116Y214220D01*
X225558Y213558D01*
X226220Y213116D01*
X227000Y212961D01*
X227780Y213116D01*
X228442Y213558D01*
X228884Y214220D01*
X229039Y215000D01*
X228884Y215780D01*
X228442Y216442D01*
X227780Y216884D01*
X227000Y217039D01*
D02*
G37*
G36*
X202500D02*
X201720Y216884D01*
X201058Y216442D01*
X200616Y215780D01*
X200461Y215000D01*
X200616Y214220D01*
X201058Y213558D01*
X201720Y213116D01*
X202500Y212961D01*
X203280Y213116D01*
X203942Y213558D01*
X204384Y214220D01*
X204539Y215000D01*
X204384Y215780D01*
X203942Y216442D01*
X203280Y216884D01*
X202500Y217039D01*
D02*
G37*
G36*
X143369Y213000D02*
X143000D01*
Y212631D01*
X143221Y212779D01*
X143369Y213000D01*
D02*
G37*
G36*
X142000D02*
X141631D01*
X141779Y212779D01*
X142000Y212631D01*
Y213000D01*
D02*
G37*
G36*
X182000Y214539D02*
X181220Y214384D01*
X180558Y213942D01*
X180116Y213280D01*
X179961Y212500D01*
X180116Y211720D01*
X180558Y211058D01*
X181220Y210616D01*
X182000Y210461D01*
X182780Y210616D01*
X183442Y211058D01*
X183884Y211720D01*
X184039Y212500D01*
X183884Y213280D01*
X183442Y213942D01*
X182780Y214384D01*
X182000Y214539D01*
D02*
G37*
G36*
X197500Y214039D02*
X196720Y213884D01*
X196058Y213442D01*
X195616Y212780D01*
X195461Y212000D01*
X195616Y211220D01*
X196058Y210558D01*
X196720Y210116D01*
X197500Y209961D01*
X198280Y210116D01*
X198942Y210558D01*
X199384Y211220D01*
X199539Y212000D01*
X199384Y212780D01*
X198942Y213442D01*
X198280Y213884D01*
X197500Y214039D01*
D02*
G37*
G36*
X228500Y212539D02*
X227720Y212384D01*
X227058Y211942D01*
X226616Y211280D01*
X226461Y210500D01*
X226616Y209720D01*
X227058Y209058D01*
X227720Y208616D01*
X228500Y208461D01*
X229280Y208616D01*
X229942Y209058D01*
X230384Y209720D01*
X230539Y210500D01*
X230384Y211280D01*
X229942Y211942D01*
X229280Y212384D01*
X228500Y212539D01*
D02*
G37*
G36*
X125500Y210039D02*
X124720Y209884D01*
X124058Y209442D01*
X123616Y208780D01*
X123559Y208491D01*
X123028Y208386D01*
X122761Y208785D01*
X122099Y209227D01*
X121319Y209382D01*
X120539Y209227D01*
X119877Y208785D01*
X119435Y208124D01*
X119280Y207343D01*
X119435Y206563D01*
X119877Y205901D01*
X120539Y205459D01*
X121319Y205304D01*
X122099Y205459D01*
X122761Y205901D01*
X123203Y206563D01*
X123260Y206852D01*
X123791Y206957D01*
X124058Y206558D01*
X124720Y206116D01*
X125500Y205961D01*
X126280Y206116D01*
X126619Y206342D01*
X127068Y206041D01*
X126961Y205500D01*
X127116Y204720D01*
X127558Y204058D01*
X128220Y203616D01*
X129000Y203461D01*
X129265Y203004D01*
X129116Y202780D01*
X128961Y202000D01*
X129116Y201220D01*
X129558Y200558D01*
X130220Y200116D01*
X131000Y199961D01*
X131780Y200116D01*
X132442Y200558D01*
X132884Y201220D01*
X133039Y202000D01*
X132884Y202780D01*
X132442Y203442D01*
X131780Y203884D01*
X131000Y204039D01*
X130735Y204496D01*
X130884Y204720D01*
X131039Y205500D01*
X130884Y206280D01*
X130442Y206942D01*
X129780Y207384D01*
X129000Y207539D01*
X128220Y207384D01*
X127882Y207158D01*
X127431Y207459D01*
X127539Y208000D01*
X127384Y208780D01*
X126942Y209442D01*
X126280Y209884D01*
X125500Y210039D01*
D02*
G37*
G36*
X76500Y207869D02*
Y207500D01*
X76869D01*
X76721Y207721D01*
X76500Y207869D01*
D02*
G37*
G36*
X75500D02*
X75279Y207721D01*
X75131Y207500D01*
X75500D01*
Y207869D01*
D02*
G37*
G36*
X204500Y211539D02*
X203720Y211384D01*
X203058Y210942D01*
X202616Y210280D01*
X202461Y209500D01*
X202616Y208720D01*
X203058Y208058D01*
X203720Y207616D01*
X204500Y207461D01*
X205280Y207616D01*
X205942Y208058D01*
X206384Y208720D01*
X206539Y209500D01*
X206384Y210280D01*
X205942Y210942D01*
X205280Y211384D01*
X204500Y211539D01*
D02*
G37*
G36*
X76869Y206500D02*
X76500D01*
Y206131D01*
X76721Y206279D01*
X76869Y206500D01*
D02*
G37*
G36*
X75500D02*
X75131D01*
X75279Y206279D01*
X75500Y206131D01*
Y206500D01*
D02*
G37*
G36*
X84500Y206369D02*
Y206000D01*
X84869D01*
X84721Y206221D01*
X84500Y206369D01*
D02*
G37*
G36*
X83500D02*
X83279Y206221D01*
X83131Y206000D01*
X83500D01*
Y206369D01*
D02*
G37*
G36*
X246000Y210039D02*
X245220Y209884D01*
X244558Y209442D01*
X244116Y208780D01*
X243961Y208000D01*
X244116Y207220D01*
X244558Y206558D01*
X245220Y206116D01*
X246000Y205961D01*
X246780Y206116D01*
X247442Y206558D01*
X247884Y207220D01*
X248039Y208000D01*
X247884Y208780D01*
X247442Y209442D01*
X246780Y209884D01*
X246000Y210039D01*
D02*
G37*
G36*
X166625Y209154D02*
X165845Y208999D01*
X165183Y208557D01*
X164741Y207895D01*
X164586Y207115D01*
X164741Y206334D01*
X165183Y205673D01*
X165845Y205231D01*
X166625Y205075D01*
X167405Y205231D01*
X168067Y205673D01*
X168509Y206334D01*
X168664Y207115D01*
X168509Y207895D01*
X168067Y208557D01*
X167405Y208999D01*
X166625Y209154D01*
D02*
G37*
G36*
X84869Y205000D02*
X84500D01*
Y204631D01*
X84721Y204779D01*
X84869Y205000D01*
D02*
G37*
G36*
X83500D02*
X83131D01*
X83279Y204779D01*
X83500Y204631D01*
Y205000D01*
D02*
G37*
G36*
X137000Y202369D02*
Y202000D01*
X137369D01*
X137221Y202221D01*
X137000Y202369D01*
D02*
G37*
G36*
X136000D02*
X135779Y202221D01*
X135631Y202000D01*
X136000D01*
Y202369D01*
D02*
G37*
G36*
X247500Y205539D02*
X246720Y205384D01*
X246058Y204942D01*
X245616Y204280D01*
X245461Y203500D01*
X245616Y202720D01*
X246058Y202058D01*
X246720Y201616D01*
X247500Y201461D01*
X248280Y201616D01*
X248942Y202058D01*
X249384Y202720D01*
X249539Y203500D01*
X249384Y204280D01*
X248942Y204942D01*
X248280Y205384D01*
X247500Y205539D01*
D02*
G37*
G36*
X137369Y201000D02*
X137000D01*
Y200631D01*
X137221Y200779D01*
X137369Y201000D01*
D02*
G37*
G36*
X136000D02*
X135631D01*
X135779Y200779D01*
X136000Y200631D01*
Y201000D01*
D02*
G37*
G36*
X143500Y203539D02*
X142720Y203384D01*
X142058Y202942D01*
X141616Y202280D01*
X141461Y201500D01*
X141616Y200720D01*
X142058Y200058D01*
X142720Y199616D01*
X143500Y199461D01*
X144280Y199616D01*
X144942Y200058D01*
X145384Y200720D01*
X145539Y201500D01*
X145384Y202280D01*
X144942Y202942D01*
X144280Y203384D01*
X143500Y203539D01*
D02*
G37*
G36*
X226000Y206039D02*
X225220Y205884D01*
X224558Y205442D01*
X224116Y204780D01*
X223961Y204000D01*
X224116Y203220D01*
X224558Y202558D01*
X225220Y202116D01*
X226000Y201961D01*
X226733Y202106D01*
X226938Y201938D01*
X227107Y201733D01*
X226961Y201000D01*
X227116Y200220D01*
X227558Y199558D01*
X228220Y199116D01*
X229000Y198961D01*
X229780Y199116D01*
X230442Y199558D01*
X230884Y200220D01*
X231039Y201000D01*
X230884Y201780D01*
X230442Y202442D01*
X229780Y202884D01*
X229000Y203039D01*
X228267Y202893D01*
X228062Y203062D01*
X227893Y203267D01*
X228039Y204000D01*
X227884Y204780D01*
X227442Y205442D01*
X226780Y205884D01*
X226000Y206039D01*
D02*
G37*
G36*
X198000Y202039D02*
X197220Y201884D01*
X196558Y201442D01*
X196116Y200780D01*
X195961Y200000D01*
X196116Y199220D01*
X196558Y198558D01*
X197220Y198116D01*
X198000Y197961D01*
X198780Y198116D01*
X199442Y198558D01*
X199884Y199220D01*
X200039Y200000D01*
X199884Y200780D01*
X199442Y201442D01*
X198780Y201884D01*
X198000Y202039D01*
D02*
G37*
G36*
X205000Y198039D02*
X204220Y197884D01*
X203558Y197442D01*
X203116Y196780D01*
X202961Y196000D01*
X203116Y195220D01*
X203558Y194558D01*
X204220Y194116D01*
X205000Y193961D01*
X205780Y194116D01*
X206442Y194558D01*
X206884Y195220D01*
X207039Y196000D01*
X206884Y196780D01*
X206442Y197442D01*
X205780Y197884D01*
X205000Y198039D01*
D02*
G37*
G36*
X258000Y201539D02*
X257220Y201384D01*
X256558Y200942D01*
X256116Y200280D01*
X255961Y199500D01*
X256116Y198720D01*
X256558Y198058D01*
X256944Y197800D01*
Y197200D01*
X256558Y196942D01*
X256116Y196280D01*
X255961Y195500D01*
X256116Y194720D01*
X256558Y194058D01*
X257220Y193616D01*
X258000Y193461D01*
X258780Y193616D01*
X259442Y194058D01*
X259884Y194720D01*
X260039Y195500D01*
X259884Y196280D01*
X259442Y196942D01*
X259056Y197200D01*
Y197800D01*
X259442Y198058D01*
X259884Y198720D01*
X260039Y199500D01*
X259884Y200280D01*
X259442Y200942D01*
X258780Y201384D01*
X258000Y201539D01*
D02*
G37*
G36*
X230500Y197039D02*
X229720Y196884D01*
X229058Y196442D01*
X228616Y195780D01*
X228461Y195000D01*
X228616Y194220D01*
X229058Y193558D01*
X229720Y193116D01*
X230500Y192961D01*
X231280Y193116D01*
X231942Y193558D01*
X232384Y194220D01*
X232539Y195000D01*
X232384Y195780D01*
X231942Y196442D01*
X231280Y196884D01*
X230500Y197039D01*
D02*
G37*
G36*
X224000Y196039D02*
X223220Y195884D01*
X222558Y195442D01*
X222116Y194780D01*
X221961Y194000D01*
X222116Y193220D01*
X222558Y192558D01*
X223220Y192116D01*
X224000Y191961D01*
X224780Y192116D01*
X225442Y192558D01*
X225884Y193220D01*
X226039Y194000D01*
X225884Y194780D01*
X225442Y195442D01*
X224780Y195884D01*
X224000Y196039D01*
D02*
G37*
G36*
X150000Y190539D02*
X149220Y190384D01*
X148558Y189942D01*
X148116Y189280D01*
X147961Y188500D01*
X148116Y187720D01*
X148558Y187058D01*
X149220Y186616D01*
X150000Y186461D01*
X150780Y186616D01*
X151442Y187058D01*
X151884Y187720D01*
X152039Y188500D01*
X151884Y189280D01*
X151442Y189942D01*
X150780Y190384D01*
X150000Y190539D01*
D02*
G37*
G36*
X204000Y189039D02*
X203220Y188884D01*
X202558Y188442D01*
X202116Y187780D01*
X201961Y187000D01*
X202116Y186220D01*
X202558Y185558D01*
X203220Y185116D01*
X204000Y184961D01*
X204780Y185116D01*
X205442Y185558D01*
X205884Y186220D01*
X206039Y187000D01*
X205884Y187780D01*
X205442Y188442D01*
X204780Y188884D01*
X204000Y189039D01*
D02*
G37*
G36*
X98000D02*
X97220Y188884D01*
X96558Y188442D01*
X96116Y187780D01*
X95961Y187000D01*
X96116Y186220D01*
X96558Y185558D01*
X97220Y185116D01*
X98000Y184961D01*
X98780Y185116D01*
X99442Y185558D01*
X99884Y186220D01*
X100039Y187000D01*
X99884Y187780D01*
X99442Y188442D01*
X98780Y188884D01*
X98000Y189039D01*
D02*
G37*
G36*
X162000Y183869D02*
Y183500D01*
X162369D01*
X162221Y183721D01*
X162000Y183869D01*
D02*
G37*
G36*
X161000D02*
X160779Y183721D01*
X160631Y183500D01*
X161000D01*
Y183869D01*
D02*
G37*
G36*
X106221Y183782D02*
Y183413D01*
X106589D01*
X106442Y183634D01*
X106221Y183782D01*
D02*
G37*
G36*
X105221D02*
X105000Y183634D01*
X104852Y183413D01*
X105221D01*
Y183782D01*
D02*
G37*
G36*
X162369Y182500D02*
X162000D01*
Y182131D01*
X162221Y182279D01*
X162369Y182500D01*
D02*
G37*
G36*
X161000D02*
X160631D01*
X160779Y182279D01*
X161000Y182131D01*
Y182500D01*
D02*
G37*
G36*
X106589Y182413D02*
X106221D01*
Y182044D01*
X106442Y182192D01*
X106589Y182413D01*
D02*
G37*
G36*
X105221D02*
X104852D01*
X105000Y182192D01*
X105221Y182044D01*
Y182413D01*
D02*
G37*
G36*
X230500Y185039D02*
X229720Y184884D01*
X229058Y184442D01*
X228616Y183780D01*
X228461Y183000D01*
X228616Y182220D01*
X229058Y181558D01*
X229720Y181116D01*
X230500Y180961D01*
X231280Y181116D01*
X231942Y181558D01*
X232384Y182220D01*
X232539Y183000D01*
X232384Y183780D01*
X231942Y184442D01*
X231280Y184884D01*
X230500Y185039D01*
D02*
G37*
G36*
X112000Y183039D02*
X111220Y182884D01*
X110558Y182442D01*
X110116Y181780D01*
X109961Y181000D01*
X110116Y180220D01*
X110558Y179558D01*
X111220Y179116D01*
X112000Y178961D01*
X112780Y179116D01*
X113442Y179558D01*
X113884Y180220D01*
X114039Y181000D01*
X113884Y181780D01*
X113442Y182442D01*
X112780Y182884D01*
X112000Y183039D01*
D02*
G37*
G36*
X205500Y182829D02*
X204720Y182674D01*
X204058Y182232D01*
X203616Y181570D01*
X203461Y180790D01*
X203616Y180009D01*
X204058Y179348D01*
X204720Y178906D01*
X205500Y178751D01*
X206280Y178906D01*
X206942Y179348D01*
X207384Y180009D01*
X207539Y180790D01*
X207384Y181570D01*
X206942Y182232D01*
X206280Y182674D01*
X205500Y182829D01*
D02*
G37*
G36*
X246500Y186039D02*
X245720Y185884D01*
X245058Y185442D01*
X244616Y184780D01*
X244461Y184000D01*
X244616Y183220D01*
X245058Y182558D01*
X245665Y182153D01*
X245679Y181933D01*
X245612Y181632D01*
X245220Y181554D01*
X244558Y181113D01*
X244116Y180451D01*
X243961Y179671D01*
X244116Y178890D01*
X244558Y178229D01*
X245220Y177787D01*
X246000Y177631D01*
X246780Y177787D01*
X247442Y178229D01*
X247884Y178890D01*
X248039Y179671D01*
X247884Y180451D01*
X247442Y181113D01*
X246835Y181518D01*
X246821Y181738D01*
X246888Y182038D01*
X247280Y182116D01*
X247942Y182558D01*
X248384Y183220D01*
X248539Y184000D01*
X248384Y184780D01*
X247942Y185442D01*
X247280Y185884D01*
X246500Y186039D01*
D02*
G37*
G36*
X200500Y179539D02*
X199720Y179384D01*
X199058Y178942D01*
X198616Y178280D01*
X198461Y177500D01*
X198616Y176720D01*
X199058Y176058D01*
X199720Y175616D01*
X200500Y175461D01*
X201280Y175616D01*
X201942Y176058D01*
X202384Y176720D01*
X202539Y177500D01*
X202384Y178280D01*
X201942Y178942D01*
X201280Y179384D01*
X200500Y179539D01*
D02*
G37*
G36*
X139000D02*
X138220Y179384D01*
X137558Y178942D01*
X137116Y178280D01*
X136961Y177500D01*
X137116Y176720D01*
X137558Y176058D01*
X138220Y175616D01*
X139000Y175461D01*
X139780Y175616D01*
X140442Y176058D01*
X140884Y176720D01*
X141039Y177500D01*
X140884Y178280D01*
X140442Y178942D01*
X139780Y179384D01*
X139000Y179539D01*
D02*
G37*
G36*
X132000Y178539D02*
X131220Y178384D01*
X130558Y177942D01*
X130116Y177280D01*
X129961Y176500D01*
X130116Y175720D01*
X130558Y175058D01*
X131220Y174616D01*
X132000Y174461D01*
X132780Y174616D01*
X133442Y175058D01*
X133884Y175720D01*
X134039Y176500D01*
X133884Y177280D01*
X133442Y177942D01*
X132780Y178384D01*
X132000Y178539D01*
D02*
G37*
G36*
X205500Y175864D02*
X204720Y175709D01*
X204058Y175267D01*
X203616Y174606D01*
X203461Y173825D01*
X203616Y173045D01*
X204058Y172383D01*
X204720Y171941D01*
X205500Y171786D01*
X206280Y171941D01*
X206942Y172383D01*
X207384Y173045D01*
X207539Y173825D01*
X207384Y174606D01*
X206942Y175267D01*
X206280Y175709D01*
X205500Y175864D01*
D02*
G37*
G36*
X246000Y174539D02*
X245220Y174384D01*
X244558Y173942D01*
X244116Y173280D01*
X243961Y172500D01*
X244116Y171720D01*
X244558Y171058D01*
X245220Y170616D01*
X246000Y170461D01*
X246780Y170616D01*
X247442Y171058D01*
X247884Y171720D01*
X248039Y172500D01*
X247884Y173280D01*
X247442Y173942D01*
X246780Y174384D01*
X246000Y174539D01*
D02*
G37*
G36*
X202000Y171539D02*
X201220Y171384D01*
X200558Y170942D01*
X200116Y170280D01*
X199961Y169500D01*
X200116Y168720D01*
X200558Y168058D01*
X201220Y167616D01*
X202000Y167461D01*
X202780Y167616D01*
X203442Y168058D01*
X203884Y168720D01*
X204039Y169500D01*
X203884Y170280D01*
X203442Y170942D01*
X202780Y171384D01*
X202000Y171539D01*
D02*
G37*
G36*
X220500Y169039D02*
X219720Y168884D01*
X219058Y168442D01*
X218616Y167780D01*
X218461Y167000D01*
X218616Y166220D01*
X219058Y165558D01*
X219720Y165116D01*
X220500Y164961D01*
X221280Y165116D01*
X221942Y165558D01*
X222384Y166220D01*
X222539Y167000D01*
X222384Y167780D01*
X221942Y168442D01*
X221280Y168884D01*
X220500Y169039D01*
D02*
G37*
G36*
X246000Y167539D02*
X245220Y167384D01*
X244558Y166942D01*
X244116Y166280D01*
X243961Y165500D01*
X244116Y164720D01*
X244558Y164058D01*
X245220Y163616D01*
X246000Y163461D01*
X246780Y163616D01*
X247442Y164058D01*
X247884Y164720D01*
X248039Y165500D01*
X247884Y166280D01*
X247442Y166942D01*
X246780Y167384D01*
X246000Y167539D01*
D02*
G37*
G36*
X255500Y165539D02*
X254720Y165384D01*
X254058Y164942D01*
X253616Y164280D01*
X253461Y163500D01*
X253616Y162720D01*
X254058Y162058D01*
X254720Y161616D01*
X255500Y161461D01*
X256280Y161616D01*
X256942Y162058D01*
X257384Y162720D01*
X257539Y163500D01*
X257384Y164280D01*
X256942Y164942D01*
X256280Y165384D01*
X255500Y165539D01*
D02*
G37*
G36*
X107000Y161369D02*
Y161000D01*
X107369D01*
X107221Y161221D01*
X107000Y161369D01*
D02*
G37*
G36*
X106000D02*
X105779Y161221D01*
X105631Y161000D01*
X106000D01*
Y161369D01*
D02*
G37*
G36*
X107369Y160000D02*
X107000D01*
Y159631D01*
X107221Y159779D01*
X107369Y160000D01*
D02*
G37*
G36*
X106000D02*
X105631D01*
X105779Y159779D01*
X106000Y159631D01*
Y160000D01*
D02*
G37*
G36*
X178500Y163039D02*
X177720Y162884D01*
X177058Y162442D01*
X176616Y161780D01*
X176461Y161000D01*
X176616Y160220D01*
X177058Y159558D01*
X177720Y159116D01*
X178500Y158961D01*
X179280Y159116D01*
X179942Y159558D01*
X180384Y160220D01*
X180539Y161000D01*
X180384Y161780D01*
X179942Y162442D01*
X179280Y162884D01*
X178500Y163039D01*
D02*
G37*
G36*
X220500Y162039D02*
X219720Y161884D01*
X219058Y161442D01*
X218616Y160780D01*
X218461Y160000D01*
X218616Y159220D01*
X219058Y158558D01*
X219720Y158116D01*
X220500Y157961D01*
X221280Y158116D01*
X221942Y158558D01*
X222384Y159220D01*
X222539Y160000D01*
X222384Y160780D01*
X221942Y161442D01*
X221280Y161884D01*
X220500Y162039D01*
D02*
G37*
G36*
X246000Y160539D02*
X245220Y160384D01*
X244558Y159942D01*
X244116Y159280D01*
X243961Y158500D01*
X244116Y157720D01*
X244558Y157058D01*
X245220Y156616D01*
X246000Y156461D01*
X246780Y156616D01*
X247442Y157058D01*
X247884Y157720D01*
X248039Y158500D01*
X247884Y159280D01*
X247442Y159942D01*
X246780Y160384D01*
X246000Y160539D01*
D02*
G37*
G36*
X114000Y159539D02*
X113220Y159384D01*
X112558Y158942D01*
X112116Y158280D01*
X111961Y157500D01*
X112116Y156720D01*
X112558Y156058D01*
X113220Y155616D01*
X114000Y155461D01*
X114780Y155616D01*
X115442Y156058D01*
X115884Y156720D01*
X116039Y157500D01*
X115884Y158280D01*
X115442Y158942D01*
X114780Y159384D01*
X114000Y159539D01*
D02*
G37*
G36*
X257500Y153369D02*
Y153000D01*
X257869D01*
X257721Y153221D01*
X257500Y153369D01*
D02*
G37*
G36*
X256500D02*
X256279Y153221D01*
X256131Y153000D01*
X256500D01*
Y153369D01*
D02*
G37*
G36*
X257869Y152000D02*
X257500D01*
Y151631D01*
X257721Y151779D01*
X257869Y152000D01*
D02*
G37*
G36*
X256500D02*
X256131D01*
X256279Y151779D01*
X256500Y151631D01*
Y152000D01*
D02*
G37*
G36*
X220500Y154539D02*
X219720Y154384D01*
X219058Y153942D01*
X218616Y153280D01*
X218461Y152500D01*
X218616Y151720D01*
X219058Y151058D01*
X219720Y150616D01*
X220500Y150461D01*
X221280Y150616D01*
X221942Y151058D01*
X222384Y151720D01*
X222539Y152500D01*
X222384Y153280D01*
X221942Y153942D01*
X221280Y154384D01*
X220500Y154539D01*
D02*
G37*
G36*
X158500Y154039D02*
X157720Y153884D01*
X157058Y153442D01*
X156616Y152780D01*
X156461Y152000D01*
X156616Y151220D01*
X157058Y150558D01*
X157720Y150116D01*
X158500Y149961D01*
X159280Y150116D01*
X159942Y150558D01*
X160384Y151220D01*
X160539Y152000D01*
X160384Y152780D01*
X159942Y153442D01*
X159280Y153884D01*
X158500Y154039D01*
D02*
G37*
G36*
X246000Y153539D02*
X245220Y153384D01*
X244558Y152942D01*
X244116Y152280D01*
X243961Y151500D01*
X244116Y150720D01*
X244558Y150058D01*
X245220Y149616D01*
X246000Y149461D01*
X246780Y149616D01*
X247442Y150058D01*
X247884Y150720D01*
X248039Y151500D01*
X247884Y152280D01*
X247442Y152942D01*
X246780Y153384D01*
X246000Y153539D01*
D02*
G37*
G36*
X121500Y155626D02*
X120432Y155485D01*
X119437Y155073D01*
X118583Y154417D01*
X117927Y153563D01*
X117515Y152568D01*
X117374Y151500D01*
X117515Y150432D01*
X117927Y149437D01*
X118583Y148583D01*
X119437Y147927D01*
X120432Y147515D01*
X121500Y147374D01*
X122568Y147515D01*
X123563Y147927D01*
X124417Y148583D01*
X125073Y149437D01*
X125485Y150432D01*
X125626Y151500D01*
X125485Y152568D01*
X125073Y153563D01*
X124417Y154417D01*
X123563Y155073D01*
X122568Y155485D01*
X121500Y155626D01*
D02*
G37*
G36*
X220500Y148039D02*
X219720Y147884D01*
X219058Y147442D01*
X218616Y146780D01*
X218461Y146000D01*
X218616Y145220D01*
X219058Y144558D01*
X219720Y144116D01*
X220500Y143961D01*
X221280Y144116D01*
X221942Y144558D01*
X222384Y145220D01*
X222539Y146000D01*
X222384Y146780D01*
X221942Y147442D01*
X221280Y147884D01*
X220500Y148039D01*
D02*
G37*
G36*
Y140539D02*
X219720Y140384D01*
X219058Y139942D01*
X218616Y139280D01*
X218461Y138500D01*
X218616Y137720D01*
X219058Y137058D01*
X219720Y136616D01*
X220500Y136461D01*
X221280Y136616D01*
X221942Y137058D01*
X222384Y137720D01*
X222539Y138500D01*
X222384Y139280D01*
X221942Y139942D01*
X221280Y140384D01*
X220500Y140539D01*
D02*
G37*
G36*
X246000Y139241D02*
X245220Y139086D01*
X244558Y138644D01*
X244116Y137982D01*
X243961Y137202D01*
X244116Y136421D01*
X244558Y135760D01*
X245220Y135318D01*
X246000Y135163D01*
X246780Y135318D01*
X247442Y135760D01*
X247884Y136421D01*
X248039Y137202D01*
X247884Y137982D01*
X247442Y138644D01*
X246780Y139086D01*
X246000Y139241D01*
D02*
G37*
G36*
X205500Y133539D02*
X204720Y133384D01*
X204058Y132942D01*
X203616Y132280D01*
X203461Y131500D01*
X203616Y130720D01*
X204058Y130058D01*
X204720Y129616D01*
X205500Y129461D01*
X206280Y129616D01*
X206942Y130058D01*
X207384Y130720D01*
X207539Y131500D01*
X207384Y132280D01*
X206942Y132942D01*
X206280Y133384D01*
X205500Y133539D01*
D02*
G37*
G36*
X246000Y132039D02*
X245220Y131884D01*
X244558Y131442D01*
X244116Y130780D01*
X243961Y130000D01*
X244116Y129220D01*
X244558Y128558D01*
X245220Y128116D01*
X246000Y127961D01*
X246780Y128116D01*
X247442Y128558D01*
X247884Y129220D01*
X248039Y130000D01*
X247884Y130780D01*
X247442Y131442D01*
X246780Y131884D01*
X246000Y132039D01*
D02*
G37*
G36*
X205500Y126039D02*
X204720Y125884D01*
X204058Y125442D01*
X203616Y124780D01*
X203461Y124000D01*
X203616Y123220D01*
X204058Y122558D01*
X204720Y122116D01*
X205500Y121961D01*
X206280Y122116D01*
X206942Y122558D01*
X207384Y123220D01*
X207539Y124000D01*
X207384Y124780D01*
X206942Y125442D01*
X206280Y125884D01*
X205500Y126039D01*
D02*
G37*
G36*
X246000Y125039D02*
X245220Y124884D01*
X244558Y124442D01*
X244116Y123780D01*
X243961Y123000D01*
X244116Y122220D01*
X244558Y121558D01*
X245220Y121116D01*
X246000Y120961D01*
X246780Y121116D01*
X247442Y121558D01*
X247884Y122220D01*
X248039Y123000D01*
X247884Y123780D01*
X247442Y124442D01*
X246780Y124884D01*
X246000Y125039D01*
D02*
G37*
G36*
X205500Y119039D02*
X204720Y118884D01*
X204058Y118442D01*
X203616Y117780D01*
X203461Y117000D01*
X203616Y116220D01*
X204058Y115558D01*
X204720Y115116D01*
X205500Y114961D01*
X206280Y115116D01*
X206942Y115558D01*
X207384Y116220D01*
X207539Y117000D01*
X207384Y117780D01*
X206942Y118442D01*
X206280Y118884D01*
X205500Y119039D01*
D02*
G37*
G36*
X246000Y118039D02*
X245220Y117884D01*
X244558Y117442D01*
X244116Y116780D01*
X243961Y116000D01*
X244116Y115220D01*
X244558Y114558D01*
X245220Y114116D01*
X246000Y113961D01*
X246780Y114116D01*
X247442Y114558D01*
X247884Y115220D01*
X248039Y116000D01*
X247884Y116780D01*
X247442Y117442D01*
X246780Y117884D01*
X246000Y118039D01*
D02*
G37*
G36*
X256000Y113369D02*
Y113000D01*
X256369D01*
X256221Y113221D01*
X256000Y113369D01*
D02*
G37*
G36*
X255000D02*
X254779Y113221D01*
X254631Y113000D01*
X255000D01*
Y113369D01*
D02*
G37*
G36*
X256369Y112000D02*
X256000D01*
Y111631D01*
X256221Y111779D01*
X256369Y112000D01*
D02*
G37*
G36*
X255000D02*
X254631D01*
X254779Y111779D01*
X255000Y111631D01*
Y112000D01*
D02*
G37*
G36*
X246000Y110839D02*
X245220Y110684D01*
X244558Y110242D01*
X244116Y109580D01*
X243961Y108800D01*
X244116Y108020D01*
X244558Y107358D01*
X245220Y106916D01*
X246000Y106761D01*
X246780Y106916D01*
X247442Y107358D01*
X247884Y108020D01*
X248039Y108800D01*
X247884Y109580D01*
X247442Y110242D01*
X246780Y110684D01*
X246000Y110839D01*
D02*
G37*
G36*
X231000Y108039D02*
X230220Y107884D01*
X229558Y107442D01*
X229116Y106780D01*
X228961Y106000D01*
X229116Y105220D01*
X229558Y104558D01*
X230220Y104116D01*
X231000Y103961D01*
X231780Y104116D01*
X232442Y104558D01*
X232884Y105220D01*
X233039Y106000D01*
X232884Y106780D01*
X232442Y107442D01*
X231780Y107884D01*
X231000Y108039D01*
D02*
G37*
G36*
X247000Y106039D02*
X246220Y105884D01*
X245558Y105442D01*
X245116Y104780D01*
X244961Y104000D01*
X245116Y103220D01*
X245558Y102558D01*
X246220Y102116D01*
X247000Y101961D01*
X247780Y102116D01*
X248442Y102558D01*
X248884Y103220D01*
X249039Y104000D01*
X248884Y104780D01*
X248442Y105442D01*
X247780Y105884D01*
X247000Y106039D01*
D02*
G37*
G36*
X205500D02*
X204720Y105884D01*
X204058Y105442D01*
X203616Y104780D01*
X203461Y104000D01*
X203616Y103220D01*
X204058Y102558D01*
X204720Y102116D01*
X205500Y101961D01*
X206280Y102116D01*
X206942Y102558D01*
X207384Y103220D01*
X207539Y104000D01*
X207384Y104780D01*
X206942Y105442D01*
X206280Y105884D01*
X205500Y106039D01*
D02*
G37*
G36*
X230000Y103039D02*
X229220Y102884D01*
X228558Y102442D01*
X228116Y101780D01*
X227961Y101000D01*
X228116Y100220D01*
X228558Y99558D01*
X229220Y99116D01*
X230000Y98961D01*
X230780Y99116D01*
X231442Y99558D01*
X231884Y100220D01*
X232039Y101000D01*
X231884Y101780D01*
X231442Y102442D01*
X230780Y102884D01*
X230000Y103039D01*
D02*
G37*
G36*
X128500Y98051D02*
Y95500D01*
X131051D01*
X131011Y95807D01*
X130700Y96559D01*
X130204Y97204D01*
X129559Y97700D01*
X128807Y98011D01*
X128500Y98051D01*
D02*
G37*
G36*
X127500D02*
X127193Y98011D01*
X126441Y97700D01*
X125796Y97204D01*
X125300Y96559D01*
X124989Y95807D01*
X124949Y95500D01*
X127500D01*
Y98051D01*
D02*
G37*
G36*
X227000Y99539D02*
X226220Y99384D01*
X225558Y98942D01*
X225116Y98280D01*
X224961Y97500D01*
X225116Y96720D01*
X225558Y96058D01*
X226220Y95616D01*
X227000Y95461D01*
X227780Y95616D01*
X228442Y96058D01*
X228884Y96720D01*
X229039Y97500D01*
X228884Y98280D01*
X228442Y98942D01*
X227780Y99384D01*
X227000Y99539D01*
D02*
G37*
G36*
X202500Y98039D02*
X201720Y97884D01*
X201058Y97442D01*
X200616Y96780D01*
X200461Y96000D01*
X200616Y95220D01*
X201058Y94558D01*
X201720Y94116D01*
X202500Y93961D01*
X203280Y94116D01*
X203942Y94558D01*
X204384Y95220D01*
X204539Y96000D01*
X204384Y96780D01*
X203942Y97442D01*
X203280Y97884D01*
X202500Y98039D01*
D02*
G37*
G36*
X246000Y96539D02*
X245220Y96384D01*
X244558Y95942D01*
X244116Y95280D01*
X243961Y94500D01*
X244116Y93720D01*
X244558Y93058D01*
X245220Y92616D01*
X246000Y92461D01*
X246780Y92616D01*
X247442Y93058D01*
X247884Y93720D01*
X248039Y94500D01*
X247884Y95280D01*
X247442Y95942D01*
X246780Y96384D01*
X246000Y96539D01*
D02*
G37*
G36*
X223500D02*
X222720Y96384D01*
X222058Y95942D01*
X221616Y95280D01*
X221461Y94500D01*
X221616Y93720D01*
X222058Y93058D01*
X222720Y92616D01*
X223500Y92461D01*
X224280Y92616D01*
X224942Y93058D01*
X225384Y93720D01*
X225539Y94500D01*
X225384Y95280D01*
X224942Y95942D01*
X224280Y96384D01*
X223500Y96539D01*
D02*
G37*
G36*
X131051Y94500D02*
X128500D01*
Y91949D01*
X128807Y91989D01*
X129559Y92300D01*
X130204Y92796D01*
X130700Y93441D01*
X131011Y94193D01*
X131051Y94500D01*
D02*
G37*
G36*
X127500D02*
X124949D01*
X124989Y94193D01*
X125300Y93441D01*
X125796Y92796D01*
X126441Y92300D01*
X127193Y91989D01*
X127500Y91949D01*
Y94500D01*
D02*
G37*
G36*
X138500Y91940D02*
Y90500D01*
X139940D01*
X139884Y90780D01*
X139442Y91442D01*
X138780Y91884D01*
X138500Y91940D01*
D02*
G37*
G36*
X137500D02*
X137220Y91884D01*
X136558Y91442D01*
X136116Y90780D01*
X136060Y90500D01*
X137500D01*
Y91940D01*
D02*
G37*
G36*
X159500Y94539D02*
X158720Y94384D01*
X158058Y93942D01*
X157616Y93280D01*
X157461Y92500D01*
X157616Y91720D01*
X158058Y91058D01*
X158720Y90616D01*
X159500Y90461D01*
X160280Y90616D01*
X160942Y91058D01*
X161384Y91720D01*
X161539Y92500D01*
X161384Y93280D01*
X160942Y93942D01*
X160280Y94384D01*
X159500Y94539D01*
D02*
G37*
G36*
X139940Y89500D02*
X138500D01*
Y88060D01*
X138780Y88116D01*
X139442Y88558D01*
X139884Y89220D01*
X139940Y89500D01*
D02*
G37*
G36*
X137500D02*
X136060D01*
X136116Y89220D01*
X136558Y88558D01*
X137220Y88116D01*
X137500Y88060D01*
Y89500D01*
D02*
G37*
G36*
X180000Y91539D02*
X179220Y91384D01*
X178558Y90942D01*
X178116Y90280D01*
X177961Y89500D01*
X178116Y88720D01*
X178558Y88058D01*
X179220Y87616D01*
X180000Y87461D01*
X180780Y87616D01*
X181442Y88058D01*
X181884Y88720D01*
X182039Y89500D01*
X181884Y90280D01*
X181442Y90942D01*
X180780Y91384D01*
X180000Y91539D01*
D02*
G37*
G36*
X160000Y85539D02*
X159220Y85384D01*
X158558Y84942D01*
X158116Y84280D01*
X157961Y83500D01*
X158116Y82720D01*
X158558Y82058D01*
X159220Y81616D01*
X160000Y81461D01*
X160780Y81616D01*
X161442Y82058D01*
X161884Y82720D01*
X162039Y83500D01*
X161884Y84280D01*
X161442Y84942D01*
X160780Y85384D01*
X160000Y85539D01*
D02*
G37*
%LPD*%
D68*
X61000Y93500D02*
D03*
X128000Y95000D02*
D03*
X87000Y91000D02*
D03*
D123*
X287998Y111752D02*
X288500Y111250D01*
D125*
X281500Y86000D02*
Y185500D01*
X278500Y188500D02*
X281500Y185500D01*
Y85500D02*
Y86000D01*
X97500Y97000D02*
Y142000D01*
Y68000D02*
Y97000D01*
X87000Y91000D02*
X87226Y91226D01*
X91726D01*
X97500Y97000D01*
X102500Y73000D02*
X170500D01*
X97500Y68000D02*
X102500Y73000D01*
X170500D02*
X175000Y68500D01*
X92000Y18000D02*
X117000D01*
X77000Y38500D02*
Y61000D01*
Y33000D02*
Y38500D01*
X72500Y65500D02*
Y81500D01*
Y65500D02*
X77000Y61000D01*
Y33000D02*
X92000Y18000D01*
X175000Y68500D02*
X178000D01*
X264500D01*
X140000Y41000D02*
X162500D01*
X264500Y68500D02*
X281500Y85500D01*
X146500Y59000D02*
X177500D01*
X117000Y18000D02*
X140000Y41000D01*
X166000Y37500D02*
X193500D01*
X162500Y41000D02*
X166000Y37500D01*
X97500Y43000D02*
Y68000D01*
Y43000D02*
X103000Y37500D01*
D144*
X74500Y247500D02*
D03*
X84000Y205500D02*
D03*
X136500Y201500D02*
D03*
X105721Y182913D02*
D03*
X66500Y285500D02*
D03*
X106500Y160500D02*
D03*
X164500Y232500D02*
D03*
X142500Y251000D02*
D03*
X155500Y284000D02*
D03*
X117000Y288500D02*
D03*
X95500Y288000D02*
D03*
X76000Y207000D02*
D03*
X74500Y227500D02*
D03*
X142500Y213500D02*
D03*
X161500Y183000D02*
D03*
X120000Y315000D02*
D03*
X180000Y294500D02*
D03*
X179875Y316354D02*
D03*
X287998Y111752D02*
D03*
X257000Y152500D02*
D03*
X255500Y112500D02*
D03*
D145*
X25500Y207500D02*
D03*
X105500Y17500D02*
D03*
X77000Y38500D02*
D03*
X288500Y60000D02*
D03*
X278500Y188500D02*
D03*
X281500Y86000D02*
D03*
X197500Y254000D02*
D03*
X138000Y90000D02*
D03*
X193500Y37500D02*
D03*
X177500Y59000D02*
D03*
X178000Y68500D02*
D03*
X146500Y59000D02*
D03*
X97500Y142000D02*
D03*
X103000Y37500D02*
D03*
X63500Y186500D02*
D03*
X84000Y73000D02*
D03*
D146*
X61000Y93500D02*
X72500Y82000D01*
X74000D01*
X25500Y207500D02*
X34000Y216000D01*
X68500D01*
X63500Y174000D02*
X74000Y163500D01*
Y82000D02*
X83000Y73000D01*
X74000Y82000D02*
Y163500D01*
X83000Y73000D02*
X84000D01*
X63500Y174000D02*
Y186500D01*
D147*
X288500Y60000D02*
Y111250D01*
M02*
