M48
;Layer_Color=9474304
;FILE_FORMAT=2:5
INCH,LZ
;TYPE=PLATED
T1F00S00C0.01000
T2F00S00C0.02000
T5F00S00C0.03000
T6F00S00C0.03543
T8F00S00C0.03622
T9F00S00C0.04016
T10F00S00C0.05118
T11F00S00C0.09055
;TYPE=NON_PLATED
T12F00S00C0.04331
T13F00S00C0.05906
T14F00S00C0.07087
%
T01
X00625Y00295
X0085503Y0036232
X0098Y0024
X01335Y0023
X01285Y0037
X0126Y00435
X01355Y0043
X01475Y0036
X0148123Y0029017
X01539Y00293
X0156107Y0036434
X0167463Y0028323
X0173Y00285
X01665Y00135
X01605
X01655Y0051
X0177Y00495
X01805Y0046
X0259Y00495
Y0055
Y00605
Y00635
X02585Y0074
Y0079
X0256Y0089
X0246Y00945
X0247Y0104
X0246Y01088
Y0116
Y0123
Y013
Y0137202
Y01515
Y01585
Y01655
Y01725
Y0179671
X02465Y0184
X02305Y0183
Y0195
X0224Y0194
X0226Y0204
X0229Y0201
X02285Y02105
X0246Y0208
X02475Y02035
X0258Y01995
Y01955
X0271Y018
X0276Y01675
X0288Y017
X03065Y0163
Y0146
X03275Y0142
X0348Y0134
X03515Y0106
X03375Y0112188
X03275
X03175Y01135
Y0104
X03065Y00815
X02945
X02725Y00905
X0259Y0105
X02555Y01125
X02655Y0121
X02925Y0122
Y0134
X0287998Y0111752
X0231Y0106
X023Y0101
X0227Y00975
X02235Y00945
X02205Y00815
X02265Y0077
X0231Y00765
X02295Y0061
X02205Y01385
Y0146
Y01525
Y016
Y0167
X02555Y01635
X0257Y01525
X029Y02075
X03065Y02
X0314Y0211
X02045Y02095
X01975Y0212
X0198Y02
X0205Y0196
X0204Y0187
X02055Y018079
Y0173825
X0202Y01695
X02005Y01775
X01785Y0161
X01585Y0152
X01615Y0183
X015Y01885
X01435Y02015
X01365
X0131Y0202
X0129Y02055
X01255Y0208
X0121319Y0207343
X0112Y0181
X0105721Y0182913
X0098Y0187
X0084Y01805
X00765Y0181
Y01725
X0085Y0172
X0096025Y016116
X01065Y01605
X0114Y01575
X0132Y01765
X0139Y01775
X0166625Y0207115
X0084Y02055
X0076Y0207
X0056Y0206
X0065Y0163
X0062021Y0157771
X0064932Y0145
X00665Y0141
X0064306Y0137515
X00595Y01355
X0083Y01365
X0087Y01435
X0084Y01465
X01095Y009
X0119125Y0084039
X01225Y0063
X0131Y00665
X016Y00835
X01595Y00925
X018Y00895
X0172638Y0079
X01845Y00565
X02045Y00615
X02055Y0073
X02025Y0096
X02055Y0104
Y0117
Y0124
Y01315
X00355Y0130825
Y0125038
Y0119053
Y01135
Y01425
X00485Y01695
X0049Y02325
X0045Y0258
X0059Y0254
X00555Y0239
X00595Y0235
X00745Y02275
Y02475
X008Y0251
X011Y02665
Y0292
X0103Y02925
X01025Y0303
X0094552Y0299334
X00955Y0288
X0117Y02885
X01245Y0293
X01325Y02925
X01505Y02865
X01555Y0284
X0158Y0279
X01705Y0303
Y0307
X0179875Y0316354
X018Y02945
X02035Y0312
X02055Y0266
X01905Y02605
X01835Y024
X01665Y02395
X0160135Y0238365
X01645Y02325
X0162Y0229
X01695Y02505
X01425Y0251
X01385Y02235
X01425Y02135
X0182Y02125
X02025Y0215
X01945Y02245
X02055Y02445
X012Y0315
X0113Y0331
X01275
X00975Y0328
X0093Y03375
X00765Y03475
X00695Y03345
X00685Y0328
X0078Y02985
X0073Y0291
X00665Y02855
X00525Y02725
X02215Y0273
Y028
Y02875
Y02945
Y03015
X0246Y0300154
Y0293077
Y0286
X0259Y02775
Y0273
Y026
Y0248
X025Y02275
X0246Y0222182
X02475Y02165
X0227Y0215
X02275Y022
X022227Y0222174
X022Y0218
X02205Y023
X0221Y0235
X02295Y02335
Y02385
X0229588Y0243495
X0225Y0227
X0229433Y0264751
Y027176
Y02789
X02515Y03075
X0318Y03045
X0318125Y0298375
X03235Y02985
Y02825
Y02775
X03185Y0283
Y02715
T02
X007Y0014
X0077Y00385
X0103Y00375
X01055Y00175
X01305Y00145
X0136Y001
X0187Y00105
X01935Y00375
X02885Y006
X02815Y0086
X02785Y01885
X00635Y01865
X00975Y0142
X0084Y0073
X0138Y009
X01465Y0059
X01775
X0178Y00685
X00255Y02075
X0013Y0308
X0052Y03595
X01975Y0254
T05
X00345Y0011
Y0092
T06
X03655Y0097
X03555
X03455
T08
X0322917Y0183221
Y0193063
Y0200937
Y021078
T09
X0277Y00355
X02775Y00665
X0331Y00795
X03215Y0151
X01215Y01515
X0099Y01745
X0087Y0091
X0061Y00935
X0128Y0095
X0093Y0312
X0278Y0257
T10
X01465Y03505
X01565
X01665
X01765
X01865
X01965
X03545Y0307
Y0297
Y0287
Y0277
Y0267
Y0257
T11
X0333587Y0171134
Y0222866
T12
X0226008Y0334642
T13
X0226008Y0033067
T14
X0018236Y0042158
Y0061843
M30
